<?xml version="1.0" encoding="UTF-8" ?>
<!DOCTYPE svg PUBLIC "-//W3C//DTD SVG 1.1//EN" "http://www.w3.org/Graphics/SVG/1.1/DTD/svg11.dtd">
<svg width="385pt" height="439pt" viewBox="0 0 385 439" version="1.1" xmlns="http://www.w3.org/2000/svg">
<g id="#927c52ed">
<path fill="#927c52" opacity="0.93" d=" M 87.79 28.59 C 93.65 28.71 94.23 22.77 96.77 18.94 C 99.69 22.92 113.71 27.66 100.72 28.77 C 91.83 33.13 104.95 43.69 97.79 49.56 C 97.35 49.61 96.48 49.71 96.04 49.76 C 91.25 42.19 102.28 27.81 87.79 28.59 Z" />
</g>
<g id="#584836fd">
<path fill="#584836" opacity="1.00" d=" M 70.00 77.85 C 80.81 70.68 93.61 63.80 96.04 49.76 C 96.48 49.71 97.35 49.61 97.79 49.56 C 100.40 55.64 103.13 61.67 106.61 67.31 C 110.40 78.57 124.44 80.72 130.55 90.40 C 136.17 95.75 136.28 103.99 136.90 111.20 C 127.37 108.62 118.06 105.70 113.01 96.56 C 108.62 102.21 103.68 89.46 99.19 85.79 C 90.23 83.74 80.93 83.64 71.52 85.62 C 66.35 88.71 68.87 80.34 70.00 77.85 Z" />
</g>
<g id="#967b32ff">
<path fill="#967b32" opacity="1.00" d=" M 63.62 81.82 C 65.40 80.01 67.74 78.94 70.00 77.85 C 68.87 80.34 66.35 88.71 71.52 85.62 C 80.93 83.64 90.23 83.74 99.19 85.79 C 103.68 89.46 108.62 102.21 113.01 96.56 C 118.06 105.70 127.37 108.62 136.90 111.20 C 136.56 115.05 135.64 118.82 135.12 122.64 C 128.29 110.14 113.50 108.78 100.81 106.38 C 103.17 105.99 107.30 105.60 103.22 103.72 C 96.93 101.57 93.82 85.40 87.91 93.17 C 84.21 87.95 74.58 88.28 70.78 92.58 C 72.58 96.77 66.12 106.79 66.77 97.78 C 70.18 91.39 63.67 87.81 63.62 81.82 Z" />
</g>
<g id="#756f64fc">
<path fill="#756f64" opacity="1.00" d=" M 57.99 126.77 C 54.01 111.79 50.80 93.83 63.62 81.82 C 63.67 87.81 70.18 91.39 66.77 97.78 C 65.05 104.03 57.41 108.17 58.67 114.93 C 56.56 126.66 65.28 118.44 67.21 124.47 C 64.17 125.19 60.68 124.92 57.99 126.77 Z" />
</g>
<g id="#c7a84cff">
<path fill="#c7a84c" opacity="1.00" d=" M 70.78 92.58 C 74.58 88.28 84.21 87.95 87.91 93.17 C 93.82 85.40 96.93 101.57 103.22 103.72 C 107.30 105.60 103.17 105.99 100.81 106.38 C 94.96 105.41 88.77 102.89 83.96 107.85 C 77.48 100.31 73.53 110.13 66.42 108.23 C 61.56 105.63 64.38 116.31 58.67 114.93 C 57.41 108.17 65.05 104.03 66.77 97.78 C 66.12 106.79 72.58 96.77 70.78 92.58 M 83.34 94.35 C 79.00 94.38 77.88 100.46 80.60 102.44 C 85.69 106.43 89.38 91.40 83.34 94.35 Z" />
</g>
<g id="#f9ecc2ff">
<path fill="#f9ecc2" opacity="1.00" d=" M 83.34 94.35 C 89.38 91.40 85.69 106.43 80.60 102.44 C 77.88 100.46 79.00 94.38 83.34 94.35 Z" />
</g>
<g id="#988e68ef">
<path fill="#988e68" opacity="0.94" d=" M 240.88 102.36 C 229.49 102.96 242.07 96.15 245.45 97.34 C 247.72 101.51 259.78 106.12 247.46 106.56 C 238.01 110.31 251.26 122.54 243.82 126.80 C 243.03 127.60 242.28 128.44 241.54 129.28 C 242.28 123.92 239.39 118.63 241.25 113.41 C 246.31 104.74 233.05 111.29 232.27 106.25 C 232.82 100.69 242.52 108.58 240.88 102.36 Z" />
</g>
<g id="#5d3203ff">
<path fill="#5d3203" opacity="1.00" d=" M 66.42 108.23 C 73.53 110.13 77.48 100.31 83.96 107.85 C 88.77 102.89 94.96 105.41 100.81 106.38 C 113.50 108.78 128.29 110.14 135.12 122.64 C 134.86 125.08 133.86 127.34 132.82 129.53 C 127.70 128.27 122.37 128.44 117.25 127.19 C 111.54 126.18 105.77 125.50 100.15 124.02 C 100.38 116.43 89.00 121.66 85.09 116.20 C 81.34 122.49 64.51 115.32 70.21 124.09 C 69.46 124.19 67.96 124.38 67.21 124.47 C 65.28 118.44 56.56 126.66 58.67 114.93 C 64.38 116.31 61.56 105.63 66.42 108.23 Z" />
</g>
<g id="#b87c04ff">
<path fill="#b87c04" opacity="1.00" d=" M 70.21 124.09 C 64.51 115.32 81.34 122.49 85.09 116.20 C 89.00 121.66 100.38 116.43 100.15 124.02 C 89.99 124.47 80.17 120.57 70.21 124.09 Z" />
</g>
<g id="#aa936aff">
<path fill="#aa936a" opacity="1.00" d=" M 70.21 124.09 C 80.17 120.57 89.99 124.47 100.15 124.02 C 105.77 125.50 111.54 126.18 117.25 127.19 C 116.16 128.81 114.73 130.09 112.82 130.66 C 108.98 129.09 104.80 127.52 101.48 131.08 C 100.30 131.04 99.12 131.00 97.94 130.95 C 87.77 131.53 65.95 123.92 63.77 138.17 C 57.96 137.12 53.72 131.84 57.99 126.77 C 60.68 124.92 64.17 125.19 67.21 124.47 C 67.96 124.38 69.46 124.19 70.21 124.09 Z" />
</g>
<g id="#6e5f46fd">
<path fill="#6e5f46" opacity="1.00" d=" M 117.25 127.19 C 122.37 128.44 127.70 128.27 132.82 129.53 C 137.43 135.14 136.55 142.84 128.15 143.11 C 128.67 134.91 117.91 134.37 112.82 130.66 C 114.73 130.09 116.16 128.81 117.25 127.19 Z" />
</g>
<g id="#5c4b37fc">
<path fill="#5c4b37" opacity="1.00" d=" M 241.54 129.28 C 242.28 128.44 243.03 127.60 243.82 126.80 C 245.73 139.77 254.27 149.20 262.37 158.60 C 272.96 163.99 280.92 174.01 283.41 185.64 C 278.26 184.83 270.24 190.01 267.49 183.77 C 268.55 180.01 266.77 176.13 261.86 179.05 C 256.40 181.11 254.77 173.65 251.31 171.01 C 252.47 176.03 245.76 172.63 249.06 169.99 C 252.08 166.23 242.20 167.39 241.14 168.06 C 231.78 167.56 221.14 166.88 213.01 171.79 C 215.67 174.34 214.23 176.86 212.03 179.10 C 200.86 184.51 204.47 167.77 211.58 166.47 C 217.52 167.76 215.83 158.22 221.90 157.94 C 226.58 155.95 236.77 147.60 232.90 144.58 C 237.13 140.54 241.18 135.32 241.54 129.28 Z" />
</g>
<g id="#7a8587fd">
<path fill="#7a8587" opacity="1.00" d=" M 101.48 131.08 C 104.80 127.52 108.98 129.09 112.82 130.66 C 117.91 134.37 128.67 134.91 128.15 143.11 C 130.10 159.89 124.35 177.79 128.94 194.02 C 122.33 190.02 113.87 189.92 107.50 194.43 C 94.27 198.48 83.92 189.35 71.79 188.00 C 72.89 188.63 74.02 189.21 75.17 189.77 C 60.10 189.53 48.85 203.28 45.11 216.67 C 39.18 218.61 44.35 211.43 44.83 208.92 C 48.26 198.72 59.45 193.71 63.82 184.78 C 62.00 192.45 71.19 185.96 75.05 187.02 C 78.97 186.60 83.10 188.61 86.89 186.90 C 97.27 187.27 107.57 188.60 117.86 189.95 C 124.36 179.00 104.56 180.40 109.62 169.95 C 110.25 162.40 109.71 154.72 111.25 147.27 C 113.30 144.01 119.09 144.78 120.23 140.97 C 115.99 134.59 108.18 133.35 101.48 131.08 M 125.39 156.39 C 120.65 162.91 123.78 171.60 123.06 178.99 C 130.97 178.49 123.85 159.24 125.39 156.39 Z" />
</g>
<g id="#efeeebff">
<path fill="#efeeeb" opacity="1.00" d=" M 63.77 138.17 C 65.95 123.92 87.77 131.53 97.94 130.95 C 102.70 146.87 98.60 165.94 101.79 182.92 C 100.05 189.55 91.44 184.87 86.89 186.90 C 83.10 188.61 78.97 186.60 75.05 187.02 C 71.19 185.96 62.00 192.45 63.82 184.78 C 64.09 169.25 64.17 153.70 63.77 138.17 Z" />
</g>
<g id="#dcd5c8ff">
<path fill="#dcd5c8" opacity="1.00" d=" M 97.94 130.95 C 99.12 131.00 100.30 131.04 101.48 131.08 C 108.18 133.35 115.99 134.59 120.23 140.97 C 119.09 144.78 113.30 144.01 111.25 147.27 C 109.71 154.72 110.25 162.40 109.62 169.95 C 104.56 180.40 124.36 179.00 117.86 189.95 C 107.57 188.60 97.27 187.27 86.89 186.90 C 91.44 184.87 100.05 189.55 101.79 182.92 C 98.60 165.94 102.70 146.87 97.94 130.95 Z" />
</g>
<g id="#7d7a6ff6">
<path fill="#7d7a6f" opacity="0.96" d=" M 212.04 162.02 C 219.70 156.54 227.76 150.89 232.90 144.58 C 236.77 147.60 226.58 155.95 221.90 157.94 C 215.83 158.22 217.52 167.76 211.58 166.47 C 204.47 167.77 200.86 184.51 212.03 179.10 C 213.88 185.54 206.26 187.00 205.14 192.25 C 200.00 201.36 211.27 200.87 217.50 200.48 C 212.01 203.24 203.64 202.42 200.89 209.06 C 200.35 205.40 204.03 202.09 201.58 198.66 C 197.29 185.91 201.17 170.27 212.04 162.02 Z" />
</g>
<g id="#d6d4d2ff">
<path fill="#d6d4d2" opacity="1.00" d=" M 125.39 156.39 C 123.85 159.24 130.97 178.49 123.06 178.99 C 123.78 171.60 120.65 162.91 125.39 156.39 Z" />
</g>
<g id="#947e3bfe">
<path fill="#947e3b" opacity="1.00" d=" M 213.01 171.79 C 221.14 166.88 231.78 167.56 241.14 168.06 C 242.20 167.39 252.08 166.23 249.06 169.99 C 245.76 172.63 252.47 176.03 251.31 171.01 C 254.77 173.65 256.40 181.11 261.86 179.05 C 266.77 176.13 268.55 180.01 267.49 183.77 C 270.24 190.01 278.26 184.83 283.41 185.64 C 284.81 191.37 284.28 197.61 281.93 203.03 C 282.70 208.92 272.74 206.98 275.24 202.26 C 274.96 195.50 283.88 209.45 280.52 197.76 C 273.15 187.50 259.84 191.56 250.37 186.63 C 249.41 178.80 236.39 182.55 239.76 174.24 C 230.68 168.31 215.78 179.35 213.84 188.53 C 210.96 189.82 208.09 191.14 205.14 192.25 C 206.26 187.00 213.88 185.54 212.03 179.10 C 214.23 176.86 215.67 174.34 213.01 171.79 Z" />
</g>
<g id="#d0b353ff">
<path fill="#d0b353" opacity="1.00" d=" M 213.84 188.53 C 215.78 179.35 230.68 168.31 239.76 174.24 C 236.39 182.55 249.41 178.80 250.37 186.63 C 244.46 184.91 238.87 187.68 233.03 187.53 C 227.34 182.95 221.10 190.83 213.84 188.53 Z" />
</g>
<g id="#573912fe">
<path fill="#573912" opacity="1.00" d=" M 213.84 188.53 C 221.10 190.83 227.34 182.95 233.03 187.53 C 238.87 187.68 244.46 184.91 250.37 186.63 C 259.84 191.56 273.15 187.50 280.52 197.76 C 283.88 209.45 274.96 195.50 275.24 202.26 C 272.74 206.98 282.70 208.92 281.93 203.03 C 282.72 206.67 286.32 212.37 280.39 213.20 C 277.80 205.25 266.44 205.90 259.81 203.50 C 262.31 202.74 270.12 201.14 259.07 202.03 C 246.03 202.71 232.65 200.52 219.78 202.79 C 213.74 204.81 206.30 205.08 203.96 212.10 C 202.69 211.37 201.55 210.39 200.89 209.06 C 203.64 202.42 212.01 203.24 217.50 200.48 C 211.27 200.87 200.00 201.36 205.14 192.25 C 208.09 191.14 210.96 189.82 213.84 188.53 Z" />
</g>
<g id="#275849fa">
<path fill="#275849" opacity="0.98" d=" M 71.79 188.00 C 83.92 189.35 94.27 198.48 107.50 194.43 C 113.87 189.92 122.33 190.02 128.94 194.02 C 139.96 199.59 145.61 212.67 147.85 224.30 C 141.75 216.00 141.22 202.58 129.96 198.05 C 121.64 191.01 108.35 193.58 103.08 203.01 C 101.47 205.55 101.27 211.45 97.03 209.14 C 92.17 200.22 85.55 192.01 75.17 189.77 C 74.02 189.21 72.89 188.63 71.79 188.00 Z" />
</g>
<g id="#efefecff">
<path fill="#efefec" opacity="1.00" d=" M 45.11 216.67 C 48.85 203.28 60.10 189.53 75.17 189.77 C 85.55 192.01 92.17 200.22 97.03 209.14 C 100.07 237.40 95.50 265.82 97.12 294.18 C 95.54 296.21 94.13 298.36 92.72 300.52 C 86.85 299.93 84.49 289.45 77.03 288.93 C 63.88 284.32 51.45 293.47 46.96 305.42 C 43.71 303.27 44.30 299.32 44.76 295.95 C 45.36 269.54 44.76 243.09 45.11 216.67 M 73.81 218.99 C 79.36 220.98 81.11 226.70 83.05 230.98 C 86.52 227.33 79.99 217.49 73.81 218.99 M 69.25 225.11 C 60.94 231.75 64.87 243.89 64.03 253.00 C 71.86 250.69 60.06 228.84 73.32 231.35 C 81.22 232.39 73.94 221.81 69.25 225.11 M 68.11 233.01 C 69.57 240.65 62.99 257.40 72.89 256.99 C 71.43 249.35 78.01 232.59 68.11 233.01 M 74.10 233.03 C 75.49 239.14 69.61 259.06 77.61 255.95 C 74.54 249.33 81.39 234.50 74.10 233.03 Z" />
</g>
<g id="#9399a4ff">
<path fill="#9399a4" opacity="1.00" d=" M 103.08 203.01 C 108.35 193.58 121.64 191.01 129.96 198.05 C 141.22 202.58 141.75 216.00 147.85 224.30 C 148.25 228.80 145.04 222.02 144.72 225.63 C 141.75 245.52 142.60 266.05 143.93 286.07 C 145.86 292.19 140.08 291.50 135.74 290.53 C 139.74 289.52 139.52 264.68 135.79 275.83 C 134.53 280.58 134.58 285.74 135.74 290.53 C 125.29 288.32 114.87 285.84 104.26 284.50 C 102.25 287.98 100.44 291.72 97.12 294.18 C 95.50 265.82 100.07 237.40 97.03 209.14 C 101.27 211.45 101.47 205.55 103.08 203.01 M 115.30 221.27 C 111.05 221.82 105.38 233.68 110.94 231.03 C 108.75 224.72 124.85 221.09 115.30 221.27 M 120.32 227.25 C 115.18 227.48 112.71 235.36 116.66 238.36 C 113.55 244.27 117.44 252.94 114.77 258.74 C 111.01 257.74 106.51 256.34 104.01 252.85 C 104.02 255.41 102.67 259.48 106.09 259.91 C 117.58 261.48 128.57 266.12 140.33 265.79 C 134.58 266.47 128.32 249.31 130.01 262.90 C 113.26 260.28 133.69 232.29 120.32 227.25 Z" />
</g>
<g id="#7f8479fe">
<path fill="#7f8479" opacity="1.00" d=" M 219.78 202.79 C 232.65 200.52 246.03 202.71 259.07 202.03 C 270.12 201.14 262.31 202.74 259.81 203.50 C 266.44 205.90 277.80 205.25 280.39 213.20 C 279.93 214.73 279.47 216.27 279.06 217.82 C 269.35 216.18 277.60 237.24 275.06 242.98 C 281.05 239.35 273.12 225.89 278.74 219.59 C 279.23 231.08 279.05 242.58 278.75 254.07 C 263.87 254.40 248.88 261.16 233.94 256.09 C 231.40 255.13 230.90 252.38 230.80 249.99 C 246.40 250.89 262.83 253.72 277.98 251.78 C 279.94 241.42 266.12 243.78 261.08 239.97 C 267.73 242.56 267.15 236.92 267.66 232.71 C 267.75 236.22 266.67 241.17 271.02 242.17 C 271.31 231.82 270.27 221.39 271.69 211.09 C 256.46 200.99 237.05 203.96 219.78 202.79 Z" />
</g>
<g id="#e8e1d9ff">
<path fill="#e8e1d9" opacity="1.00" d=" M 203.96 212.10 C 206.30 205.08 213.74 204.81 219.78 202.79 C 237.05 203.96 256.46 200.99 271.69 211.09 C 270.27 221.39 271.31 231.82 271.02 242.17 C 266.67 241.17 267.75 236.22 267.66 232.71 C 267.23 229.20 270.84 211.06 262.16 216.15 C 259.59 223.35 261.21 232.17 261.08 239.97 C 266.12 243.78 279.94 241.42 277.98 251.78 C 262.83 253.72 246.40 250.89 230.80 249.99 C 221.86 248.69 213.32 251.30 205.03 254.18 C 208.44 241.18 209.59 222.96 203.96 212.10 M 226.29 213.18 C 222.38 219.10 219.58 244.89 232.84 237.75 C 231.35 230.47 238.71 211.88 226.29 213.18 M 245.27 213.16 C 238.47 220.82 237.98 244.21 251.79 238.95 C 251.56 231.29 257.74 213.12 245.27 213.16 M 211.25 215.11 C 211.04 222.13 206.66 243.56 215.82 239.76 C 214.11 232.85 221.68 214.75 211.25 215.11 Z" />
</g>
<g id="#5d6e78ff">
<path fill="#5d6e78" opacity="1.00" d=" M 226.29 213.18 C 238.71 211.88 231.35 230.47 232.84 237.75 C 219.58 244.89 222.38 219.10 226.29 213.18 Z" />
</g>
<g id="#5d6a73ff">
<path fill="#5d6a73" opacity="1.00" d=" M 245.27 213.16 C 257.74 213.12 251.56 231.29 251.79 238.95 C 237.98 244.21 238.47 220.82 245.27 213.16 Z" />
</g>
<g id="#2b5069ff">
<path fill="#2b5069" opacity="1.00" d=" M 211.25 215.11 C 221.68 214.75 214.11 232.85 215.82 239.76 C 206.66 243.56 211.04 222.13 211.25 215.11 Z" />
</g>
<g id="#414755ff">
<path fill="#414755" opacity="1.00" d=" M 262.16 216.15 C 270.84 211.06 267.23 229.20 267.66 232.71 C 267.15 236.92 267.73 242.56 261.08 239.97 C 261.21 232.17 259.59 223.35 262.16 216.15 Z" />
</g>
<g id="#333e4cff">
<path fill="#333e4c" opacity="1.00" d=" M 275.06 242.98 C 277.60 237.24 269.35 216.18 279.06 217.82 C 278.98 218.26 278.82 219.15 278.74 219.59 C 273.12 225.89 281.05 239.35 275.06 242.98 Z" />
</g>
<g id="#9c9685ff">
<path fill="#9c9685" opacity="1.00" d=" M 73.81 218.99 C 79.99 217.49 86.52 227.33 83.05 230.98 C 81.11 226.70 79.36 220.98 73.81 218.99 Z" />
</g>
<g id="#273844ff">
<path fill="#273844" opacity="1.00" d=" M 115.30 221.27 C 124.85 221.09 108.75 224.72 110.94 231.03 C 105.38 233.68 111.05 221.82 115.30 221.27 Z" />
</g>
<g id="#aea495ff">
<path fill="#aea495" opacity="1.00" d=" M 69.25 225.11 C 73.94 221.81 81.22 232.39 73.32 231.35 C 60.06 228.84 71.86 250.69 64.03 253.00 C 64.87 243.89 60.94 231.75 69.25 225.11 Z" />
</g>
<g id="#5c6268ff">
<path fill="#5c6268" opacity="1.00" d=" M 120.32 227.25 C 133.69 232.29 113.26 260.28 130.01 262.90 C 128.32 249.31 134.58 266.47 140.33 265.79 C 128.57 266.12 117.58 261.48 106.09 259.91 C 102.67 259.48 104.02 255.41 104.01 252.85 C 106.51 256.34 111.01 257.74 114.77 258.74 C 117.44 252.94 113.55 244.27 116.66 238.36 C 112.71 235.36 115.18 227.48 120.32 227.25 Z" />
</g>
<g id="#968b80ff">
<path fill="#968b80" opacity="1.00" d=" M 68.11 233.01 C 78.01 232.59 71.43 249.35 72.89 256.99 C 62.99 257.40 69.57 240.65 68.11 233.01 Z" />
</g>
<g id="#a39d9bff">
<path fill="#a39d9b" opacity="1.00" d=" M 74.10 233.03 C 81.39 234.50 74.54 249.33 77.61 255.95 C 69.61 259.06 75.49 239.14 74.10 233.03 Z" />
</g>
<g id="#315143fd">
<path fill="#315143" opacity="1.00" d=" M 205.03 254.18 C 213.32 251.30 221.86 248.69 230.80 249.99 C 230.90 252.38 231.40 255.13 233.94 256.09 C 248.88 261.16 263.87 254.40 278.75 254.07 C 283.98 257.52 288.21 262.09 291.63 267.32 C 299.38 275.50 297.24 288.64 306.03 296.18 C 298.47 295.84 299.63 302.13 299.73 308.23 C 300.47 289.68 296.42 267.12 278.31 257.61 C 261.15 252.38 255.51 273.37 250.01 284.73 C 245.17 273.93 243.06 260.57 230.07 255.94 C 206.90 245.82 185.26 269.07 183.12 290.85 C 191.52 292.71 200.32 293.63 208.94 293.08 C 212.09 293.60 227.41 290.97 218.65 295.17 C 223.19 297.84 228.37 299.36 232.49 302.76 C 228.48 303.88 221.37 302.83 220.29 308.45 C 216.51 316.38 225.54 314.21 229.36 316.94 C 227.03 319.88 218.06 314.09 218.17 318.75 C 223.17 319.34 242.13 323.84 231.60 318.10 C 236.56 316.72 243.01 321.12 247.24 317.22 C 249.46 315.52 247.13 310.90 251.20 311.65 C 265.82 313.14 280.16 316.91 294.87 317.90 C 297.30 317.71 299.25 316.21 299.92 313.85 C 301.63 320.49 319.09 318.99 324.08 313.09 C 335.24 304.96 347.33 319.29 359.43 315.42 C 365.83 322.95 379.51 312.80 383.21 324.90 C 378.68 323.46 372.13 317.73 369.26 324.30 C 365.99 330.85 364.78 318.75 360.06 318.89 C 354.26 310.73 350.30 329.62 346.87 321.08 C 343.96 317.28 338.97 315.92 334.75 314.15 C 327.76 317.45 329.05 331.68 318.21 326.10 C 304.07 324.64 289.62 330.80 276.03 327.98 C 270.44 327.17 264.80 326.78 259.24 325.76 C 248.86 326.58 232.89 317.03 226.19 325.92 C 225.69 320.08 216.92 322.56 212.98 320.93 C 205.02 320.69 193.17 315.84 189.65 325.69 C 188.68 341.41 188.34 357.77 189.57 373.46 C 196.39 376.27 196.05 361.70 204.13 363.85 C 197.19 367.21 199.05 379.77 189.22 375.30 C 188.39 388.43 187.24 401.63 188.39 414.78 C 188.17 416.06 187.77 417.29 187.20 418.47 C 186.75 409.89 187.17 401.32 186.79 392.75 C 187.78 369.15 185.71 344.98 188.66 321.66 C 190.16 308.12 179.81 293.43 166.17 290.39 C 154.56 288.52 153.33 304.71 143.05 305.41 C 132.85 303.90 130.00 291.18 120.05 288.88 C 111.92 286.29 103.68 291.47 98.12 297.09 C 96.45 298.40 94.83 299.95 92.72 300.52 C 94.13 298.36 95.54 296.21 97.12 294.18 C 100.44 291.72 102.25 287.98 104.26 284.50 C 114.87 285.84 125.29 288.32 135.74 290.53 C 140.08 291.50 145.86 292.19 143.93 286.07 C 155.94 287.30 167.97 288.21 179.66 290.95 C 179.83 274.42 191.56 262.00 205.03 254.18 Z" />
</g>
<g id="#efebe4ff">
<path fill="#efebe4" opacity="1.00" d=" M 183.12 290.85 C 185.26 269.07 206.90 245.82 230.07 255.94 C 243.06 260.57 245.17 273.93 250.01 284.73 C 250.02 293.51 250.01 302.29 249.83 311.07 C 244.10 308.74 238.67 305.77 233.19 302.93 C 229.25 294.37 239.53 293.54 244.43 290.14 C 232.47 288.93 220.78 292.13 208.94 293.08 C 200.32 293.63 191.52 292.71 183.12 290.85 Z" />
</g>
<g id="#8c95a1ff">
<path fill="#8c95a1" opacity="1.00" d=" M 250.01 284.73 C 255.51 273.37 261.15 252.38 278.31 257.61 C 296.42 267.12 300.47 289.68 299.73 308.23 C 299.82 310.10 299.89 311.97 299.92 313.85 C 299.25 316.21 297.30 317.71 294.87 317.90 C 280.16 316.91 265.82 313.14 251.20 311.65 C 250.86 311.51 250.17 311.22 249.83 311.07 C 250.01 302.29 250.02 293.51 250.01 284.73 M 273.30 282.18 C 266.61 289.61 274.92 302.71 269.07 311.04 C 270.95 310.49 281.09 312.65 277.10 309.91 C 268.09 303.45 282.92 284.07 273.30 282.18 Z" />
</g>
<g id="#dfe0e2ff">
<path fill="#dfe0e2" opacity="1.00" d=" M 135.79 275.83 C 139.52 264.68 139.74 289.52 135.74 290.53 C 134.58 285.74 134.53 280.58 135.79 275.83 Z" />
</g>
<g id="#40474bff">
<path fill="#40474b" opacity="1.00" d=" M 273.30 282.18 C 282.92 284.07 268.09 303.45 277.10 309.91 C 281.09 312.65 270.95 310.49 269.07 311.04 C 274.92 302.71 266.61 289.61 273.30 282.18 Z" />
</g>
<g id="#697960fb">
<path fill="#697960" opacity="1.00" d=" M 46.96 305.42 C 51.45 293.47 63.88 284.32 77.03 288.93 C 84.49 289.45 86.85 299.93 92.72 300.52 C 94.83 299.95 96.45 298.40 98.12 297.09 C 95.98 300.36 94.11 303.84 91.75 306.97 C 84.17 301.58 80.27 289.45 68.94 290.95 C 57.08 290.61 52.04 302.79 46.28 311.03 C 41.49 300.69 27.43 291.43 16.92 299.93 C 9.43 302.82 7.61 311.61 1.08 315.35 C 7.09 296.39 26.89 290.17 44.76 295.95 C 44.30 299.32 43.71 303.27 46.96 305.42 Z" />
</g>
<g id="#efede8ff">
<path fill="#efede8" opacity="1.00" d=" M 98.12 297.09 C 103.68 291.47 111.92 286.29 120.05 288.88 C 130.00 291.18 132.85 303.90 143.05 305.41 C 141.63 326.53 141.92 347.70 142.04 368.86 C 141.96 392.24 142.02 415.62 142.00 439.00 L 94.85 439.00 C 99.07 418.31 90.81 396.12 96.45 375.49 C 101.49 372.50 122.27 382.46 119.14 370.99 C 116.00 365.73 124.97 345.55 114.89 348.80 L 113.96 348.98 C 112.15 349.09 110.34 349.20 108.53 349.31 C 107.61 347.98 108.68 347.32 109.77 346.74 C 121.42 351.01 120.39 338.19 110.92 339.78 C 99.07 345.58 108.50 364.27 104.10 372.79 C 87.96 377.28 98.39 356.40 96.28 348.51 C 103.93 350.25 101.13 341.38 104.90 337.63 C 101.54 339.32 100.70 345.31 96.10 344.03 C 95.38 336.45 97.04 324.18 95.22 319.37 C 92.79 355.33 94.47 393.09 93.26 428.28 C 88.67 425.37 88.72 419.90 86.27 415.63 C 88.59 396.56 65.76 392.11 51.91 397.30 C 50.99 390.71 49.90 381.32 52.80 376.36 C 58.87 376.43 76.28 383.26 75.10 373.11 C 71.97 367.85 81.00 347.55 70.89 350.80 L 69.96 350.98 C 68.15 351.10 66.34 351.20 64.54 351.31 C 63.59 349.96 64.68 349.30 65.80 348.75 C 73.35 351.19 78.11 345.63 71.09 341.52 C 49.16 338.41 74.02 382.34 52.06 374.54 C 49.80 368.37 55.84 354.80 50.05 351.98 C 49.83 367.66 50.07 383.34 50.06 399.02 C 47.63 402.53 45.40 404.10 45.43 398.57 C 45.43 403.85 43.52 408.81 43.01 414.02 C 42.81 422.34 43.03 430.67 43.01 439.00 L 3.10 439.00 C 4.38 421.05 1.99 402.99 3.00 384.98 C 1.68 370.83 28.38 390.24 27.10 376.11 C 23.97 370.85 33.00 350.55 22.89 353.80 L 21.96 353.98 C 20.15 354.09 18.35 354.20 16.54 354.31 C 15.59 352.96 16.68 352.30 17.80 351.75 C 25.35 354.19 30.11 348.63 23.09 344.52 C 1.17 341.27 25.97 386.41 3.75 377.17 C 3.00 369.94 4.03 361.78 4.13 354.18 C 11.94 354.21 9.93 342.16 17.87 338.62 C 29.66 335.97 30.26 356.72 41.98 348.13 C 32.72 350.48 28.97 331.88 17.87 338.62 C 11.11 339.19 10.81 349.90 4.10 349.03 C 3.67 344.99 5.50 316.47 1.60 331.20 C 1.28 325.92 0.61 320.63 1.08 315.35 C 7.61 311.61 9.43 302.82 16.92 299.93 C 27.43 291.43 41.49 300.69 46.28 311.03 C 52.04 302.79 57.08 290.61 68.94 290.95 C 80.27 289.45 84.17 301.58 91.75 306.97 C 94.11 303.84 95.98 300.36 98.12 297.09 M 112.98 331.92 C 119.37 335.66 125.73 350.90 133.96 342.14 C 124.24 344.81 122.70 331.13 112.98 331.92 M 69.35 334.30 C 61.06 336.70 73.38 334.88 75.28 338.73 C 77.26 345.01 84.77 349.95 90.17 344.12 C 80.26 347.38 79.20 332.72 69.35 334.30 M 120.87 372.04 C 120.52 378.34 139.83 375.82 131.94 372.02 C 129.17 372.02 123.64 372.04 120.87 372.04 Z" />
</g>
<g id="#a9a8a9ff">
<path fill="#a9a8a9" opacity="1.00" d=" M 166.17 290.39 C 179.81 293.43 190.16 308.12 188.66 321.66 C 185.71 344.98 187.78 369.15 186.79 392.75 C 185.20 408.12 186.30 423.58 186.01 439.00 L 182.00 439.00 C 181.68 418.71 182.71 398.39 181.40 378.14 C 187.73 375.78 182.83 374.46 178.95 371.99 C 178.14 363.95 175.34 350.86 185.00 346.60 C 183.66 345.20 181.66 344.94 179.98 344.16 C 185.61 338.01 184.90 320.56 180.36 310.62 C 181.13 321.79 179.47 332.96 179.98 344.16 C 178.07 342.74 176.59 340.71 174.34 339.81 C 174.59 350.54 171.67 361.15 173.01 372.05 C 173.71 376.00 168.88 372.41 167.18 371.57 C 166.14 360.77 170.60 349.71 167.42 339.14 C 174.42 336.52 166.30 331.44 162.01 332.93 C 155.96 333.29 155.50 342.10 149.29 342.68 C 148.39 351.65 150.03 360.87 147.68 369.68 C 146.78 372.52 143.79 369.33 142.04 368.86 C 141.92 347.70 141.63 326.53 143.05 305.41 C 153.33 304.71 154.56 288.52 166.17 290.39 Z" />
</g>
<g id="#babcbdff">
<path fill="#babcbd" opacity="1.00" d=" M 208.94 293.08 C 220.78 292.13 232.47 288.93 244.43 290.14 C 239.53 293.54 229.25 294.37 233.19 302.93 L 232.49 302.76 C 228.37 299.36 223.19 297.84 218.65 295.17 C 227.41 290.97 212.09 293.60 208.94 293.08 Z" />
</g>
<g id="#7b825aff">
<path fill="#7b825a" opacity="1.00" d=" M 232.49 302.76 L 233.19 302.93 C 238.67 305.77 244.10 308.74 249.83 311.07 C 250.17 311.22 250.86 311.51 251.20 311.65 C 247.13 310.90 249.46 315.52 247.24 317.22 C 243.01 321.12 236.56 316.72 231.60 318.10 C 242.13 323.84 223.17 319.34 218.17 318.75 C 218.06 314.09 227.03 319.88 229.36 316.94 C 225.54 314.21 216.51 316.38 220.29 308.45 C 221.37 302.83 228.48 303.88 232.49 302.76 Z" />
</g>
<g id="#e0dcdaff">
<path fill="#e0dcda" opacity="1.00" d=" M 180.36 310.62 C 184.90 320.56 185.61 338.01 179.98 344.16 C 179.47 332.96 181.13 321.79 180.36 310.62 Z" />
</g>
<g id="#b1aea6ff">
<path fill="#b1aea6" opacity="1.00" d=" M 318.21 326.10 C 329.05 331.68 327.76 317.45 334.75 314.15 C 338.97 315.92 343.96 317.28 346.87 321.08 C 350.30 329.62 354.26 310.73 360.06 318.89 C 364.78 318.75 365.99 330.85 369.26 324.30 C 372.13 317.73 378.68 323.46 383.21 324.90 C 383.81 325.72 384.41 326.55 385.00 327.39 L 385.00 439.00 L 321.90 439.00 C 323.91 402.07 322.56 365.03 323.89 328.11 C 322.12 328.05 318.57 327.95 316.80 327.89 C 317.15 327.44 317.86 326.55 318.21 326.10 M 334.36 368.38 C 319.82 374.77 331.11 399.54 328.95 411.05 C 331.11 402.45 324.16 385.24 332.98 376.89 C 334.75 387.83 329.64 400.83 335.35 410.75 C 347.29 411.39 359.33 410.49 371.27 411.88 C 369.57 407.98 363.80 410.48 362.58 406.40 C 359.24 395.86 367.15 376.74 357.12 372.17 C 369.18 367.17 349.32 366.75 349.96 373.96 C 349.86 385.57 350.20 397.18 349.92 408.80 C 332.93 413.07 343.06 388.53 339.01 382.00 C 334.78 387.46 341.61 399.75 337.01 406.06 C 336.84 396.64 337.04 387.21 336.98 377.79 C 340.35 383.89 343.67 369.25 334.94 373.74 C 337.48 370.34 342.42 367.56 334.36 368.38 M 376.36 368.38 C 362.20 372.57 373.52 392.52 370.01 403.04 C 374.03 396.50 366.79 383.08 374.96 376.90 C 375.73 386.83 373.48 397.51 376.09 406.96 C 384.39 401.90 376.05 386.24 378.93 377.88 C 381.90 384.41 384.59 367.78 376.93 373.80 C 379.38 370.34 384.49 367.57 376.36 368.38 Z" />
</g>
<g id="#d1c8b6ff">
<path fill="#d1c8b6" opacity="1.00" d=" M 95.22 319.37 C 97.04 324.18 95.38 336.45 96.10 344.03 C 100.70 345.31 101.54 339.32 104.90 337.63 C 101.13 341.38 103.93 350.25 96.28 348.51 C 98.39 356.40 87.96 377.28 104.10 372.79 C 108.50 364.27 99.07 345.58 110.92 339.78 C 110.44 342.08 110.18 344.42 109.77 346.74 C 108.68 347.32 107.61 347.98 108.53 349.31 C 113.78 356.03 102.43 372.27 113.98 371.00 C 114.24 363.65 113.32 356.32 113.96 348.98 L 114.89 348.80 C 118.86 355.11 109.86 370.92 119.14 370.99 C 122.27 382.46 101.49 372.50 96.45 375.49 C 90.81 396.12 99.07 418.31 94.85 439.00 L 87.26 439.00 C 88.81 431.17 86.25 423.45 86.27 415.63 C 88.72 419.90 88.67 425.37 93.26 428.28 C 94.47 393.09 92.79 355.33 95.22 319.37 Z" />
</g>
<g id="#aea6a8ff">
<path fill="#aea6a8" opacity="1.00" d=" M 189.65 325.69 C 193.17 315.84 205.02 320.69 212.98 320.93 C 216.92 322.56 225.69 320.08 226.19 325.92 C 207.87 334.06 231.06 364.32 215.88 375.62 C 218.39 376.46 223.07 375.46 220.01 381.04 C 220.06 400.36 219.96 419.68 220.00 439.00 L 189.98 439.00 C 189.01 430.96 189.03 422.84 188.39 414.78 C 187.24 401.63 188.39 388.43 189.22 375.30 C 199.05 379.77 197.19 367.21 204.13 363.85 C 196.05 361.70 196.39 376.27 189.57 373.46 C 188.34 357.77 188.68 341.41 189.65 325.69 M 203.31 370.10 C 200.86 371.77 197.53 378.29 203.00 377.06 C 209.81 381.48 213.12 365.43 203.31 370.10 M 204.09 377.88 C 203.75 384.26 204.18 390.65 204.00 397.04 C 199.37 393.66 208.33 377.92 199.33 378.88 C 202.68 387.82 191.64 408.41 206.89 407.00 C 206.62 398.99 208.74 396.49 208.05 407.06 C 211.16 399.48 207.73 386.89 209.09 377.88 C 207.51 380.92 206.21 379.08 204.09 377.88 Z" />
</g>
<g id="#6a755eff">
<path fill="#6a755e" opacity="1.00" d=" M 226.19 325.92 C 232.89 317.03 248.86 326.58 259.24 325.76 C 247.01 325.83 233.39 325.72 222.13 330.34 C 221.81 363.54 222.09 396.75 221.99 429.96 C 224.61 426.73 221.96 418.64 223.62 413.73 C 223.90 422.13 224.66 430.69 222.96 439.00 L 220.00 439.00 C 219.96 419.68 220.06 400.36 220.01 381.04 C 223.07 375.46 218.39 376.46 215.88 375.62 C 231.06 364.32 207.87 334.06 226.19 325.92 Z" />
</g>
<g id="#cfc6b8fd">
<path fill="#cfc6b8" opacity="1.00" d=" M 1.60 331.20 C 5.50 316.47 3.67 344.99 4.10 349.03 C 10.81 349.90 11.11 339.19 17.87 338.62 C 9.93 342.16 11.94 354.21 4.13 354.18 C 4.03 361.78 3.00 369.94 3.75 377.17 C 25.97 386.41 1.17 341.27 23.09 344.52 C 18.28 343.96 17.90 348.07 17.80 351.75 C 16.68 352.30 15.59 352.96 16.54 354.31 C 18.57 361.36 18.33 368.86 17.00 375.99 C 27.55 377.18 19.16 360.76 21.96 353.98 L 22.89 353.80 C 26.84 360.18 17.91 375.65 27.10 376.11 C 28.38 390.24 1.68 370.83 3.00 384.98 C 1.99 402.99 4.38 421.05 3.10 439.00 L 2.04 439.00 C 1.70 403.07 2.54 367.12 1.60 331.20 Z" />
</g>
<g id="#b6ada4ff">
<path fill="#b6ada4" opacity="1.00" d=" M 222.13 330.34 C 233.39 325.72 247.01 325.83 259.24 325.76 C 264.80 326.78 270.44 327.17 276.03 327.98 C 278.43 344.05 280.29 360.92 279.81 377.64 C 266.23 379.83 284.95 377.76 279.98 385.05 C 282.22 393.68 276.03 405.88 282.05 412.98 C 284.00 415.30 281.00 413.46 279.83 413.13 C 261.39 411.82 242.05 413.13 223.85 412.87 L 223.62 413.73 C 221.96 418.64 224.61 426.73 221.99 429.96 C 222.09 396.75 221.81 363.54 222.13 330.34 M 232.97 365.13 C 227.78 364.09 219.97 380.43 228.52 375.54 C 228.20 371.74 240.24 365.73 232.97 365.13 M 262.41 368.31 C 258.25 369.63 257.24 374.55 255.20 377.91 C 259.88 381.12 258.75 372.76 262.23 371.22 C 264.25 369.51 272.38 366.24 262.41 368.31 M 234.80 372.04 C 241.93 382.22 235.23 397.26 239.00 407.01 C 242.67 398.37 236.69 384.35 242.01 374.88 C 240.73 372.46 238.00 370.12 234.80 372.04 M 267.05 382.02 C 267.57 390.29 265.59 401.31 268.00 408.01 C 269.24 402.46 271.06 385.89 267.05 382.02 Z" />
</g>
<g id="#9a9782ff">
<path fill="#9a9782" opacity="1.00" d=" M 276.03 327.98 C 289.62 330.80 304.07 324.64 318.21 326.10 C 317.86 326.55 317.15 327.44 316.80 327.89 C 306.35 328.80 295.85 329.03 285.44 330.32 C 278.74 345.16 283.16 362.22 282.11 377.93 C 293.40 378.85 304.61 376.73 315.88 376.95 C 306.80 380.08 293.12 378.25 282.09 379.15 C 281.82 390.09 281.96 401.04 282.04 411.99 L 282.05 412.98 C 276.03 405.88 282.22 393.68 279.98 385.05 C 284.95 377.76 266.23 379.83 279.81 377.64 C 280.29 360.92 278.43 344.05 276.03 327.98 Z" />
</g>
<g id="#f2f1edff">
<path fill="#f2f1ed" opacity="1.00" d=" M 285.44 330.32 C 295.85 329.03 306.35 328.80 316.80 327.89 C 318.57 327.95 322.12 328.05 323.89 328.11 C 322.56 365.03 323.91 402.07 321.90 439.00 L 309.02 439.00 C 308.81 433.91 309.71 428.71 308.47 423.72 C 300.29 418.60 290.88 415.80 282.04 411.99 C 281.96 401.04 281.82 390.09 282.09 379.15 C 293.12 378.25 306.80 380.08 315.88 376.95 C 304.61 376.73 293.40 378.85 282.11 377.93 C 283.16 362.22 278.74 345.16 285.44 330.32 Z" />
</g>
<g id="#a49e86ff">
<path fill="#a49e86" opacity="1.00" d=" M 112.98 331.92 C 122.70 331.13 124.24 344.81 133.96 342.14 C 125.73 350.90 119.37 335.66 112.98 331.92 Z" />
</g>
<g id="#84858bff">
<path fill="#84858b" opacity="1.00" d=" M 149.29 342.68 C 155.50 342.10 155.96 333.29 162.01 332.93 C 166.30 331.44 174.42 336.52 167.42 339.14 C 170.60 349.71 166.14 360.77 167.18 371.57 C 168.88 372.41 173.71 376.00 173.01 372.05 C 171.67 361.15 174.59 350.54 174.34 339.81 C 176.59 340.71 178.07 342.74 179.98 344.16 C 181.66 344.94 183.66 345.20 185.00 346.60 C 175.34 350.86 178.14 363.95 178.95 371.99 C 182.83 374.46 187.73 375.78 181.40 378.14 L 181.19 378.96 C 172.97 373.67 161.16 376.88 151.31 375.31 C 143.40 378.90 150.56 391.50 147.23 398.18 C 141.28 411.11 148.26 425.31 145.99 439.00 L 142.00 439.00 C 142.02 415.62 141.96 392.24 142.04 368.86 C 143.79 369.33 146.78 372.52 147.68 369.68 C 150.03 360.87 148.39 351.65 149.29 342.68 Z" />
</g>
<g id="#9f9981ff">
<path fill="#9f9981" opacity="1.00" d=" M 69.35 334.30 C 79.20 332.72 80.26 347.38 90.17 344.12 C 84.77 349.95 77.26 345.01 75.28 338.73 C 73.38 334.88 61.06 336.70 69.35 334.30 Z" />
<path fill="#9f9981" opacity="1.00" d=" M 17.87 338.62 C 28.97 331.88 32.72 350.48 41.98 348.13 C 30.26 356.72 29.66 335.97 17.87 338.62 Z" />
</g>
<g id="#6b5c3fff">
<path fill="#6b5c3f" opacity="1.00" d=" M 110.92 339.78 C 120.39 338.19 121.42 351.01 109.77 346.74 C 110.18 344.42 110.44 342.08 110.92 339.78 Z" />
</g>
<g id="#d2c9baff">
<path fill="#d2c9ba" opacity="1.00" d=" M 52.06 374.54 C 74.02 382.34 49.16 338.41 71.09 341.52 C 66.28 340.96 65.90 345.07 65.80 348.75 C 64.68 349.30 63.59 349.96 64.54 351.31 C 69.77 358.03 58.43 374.27 69.98 373.00 C 70.24 365.65 69.32 358.32 69.96 350.98 L 70.89 350.80 C 74.84 357.18 65.91 372.65 75.10 373.11 C 76.28 383.26 58.87 376.43 52.80 376.36 C 49.90 381.32 50.99 390.71 51.91 397.30 C 51.29 397.87 50.67 398.44 50.06 399.02 C 50.07 383.34 49.83 367.66 50.05 351.98 C 55.84 354.80 49.80 368.37 52.06 374.54 Z" />
</g>
<g id="#6c5c40ff">
<path fill="#6c5c40" opacity="1.00" d=" M 65.80 348.75 C 65.90 345.07 66.28 340.96 71.09 341.52 C 78.11 345.63 73.35 351.19 65.80 348.75 Z" />
<path fill="#6c5c40" opacity="1.00" d=" M 17.80 351.75 C 17.90 348.07 18.28 343.96 23.09 344.52 C 30.11 348.63 25.35 354.19 17.80 351.75 Z" />
</g>
<g id="#625142ff">
<path fill="#625142" opacity="1.00" d=" M 114.89 348.80 C 124.97 345.55 116.00 365.73 119.14 370.99 C 109.86 370.92 118.86 355.11 114.89 348.80 Z" />
<path fill="#625142" opacity="1.00" d=" M 70.89 350.80 C 81.00 347.55 71.97 367.85 75.10 373.11 C 65.91 372.65 74.84 357.18 70.89 350.80 Z" />
<path fill="#625142" opacity="1.00" d=" M 22.89 353.80 C 33.00 350.55 23.97 370.85 27.10 376.11 C 17.91 375.65 26.84 360.18 22.89 353.80 Z" />
</g>
<g id="#605537ff">
<path fill="#605537" opacity="1.00" d=" M 108.53 349.31 C 110.34 349.20 112.15 349.09 113.96 348.98 C 113.32 356.32 114.24 363.65 113.98 371.00 C 102.43 372.27 113.78 356.03 108.53 349.31 Z" />
<path fill="#605537" opacity="1.00" d=" M 64.54 351.31 C 66.34 351.20 68.15 351.10 69.96 350.98 C 69.32 358.32 70.24 365.65 69.98 373.00 C 58.43 374.27 69.77 358.03 64.54 351.31 Z" />
</g>
<g id="#5e5336ff">
<path fill="#5e5336" opacity="1.00" d=" M 16.54 354.31 C 18.35 354.20 20.15 354.09 21.96 353.98 C 19.16 360.76 27.55 377.18 17.00 375.99 C 18.33 368.86 18.57 361.36 16.54 354.31 Z" />
</g>
<g id="#555a5fff">
<path fill="#555a5f" opacity="1.00" d=" M 232.97 365.13 C 240.24 365.73 228.20 371.74 228.52 375.54 C 219.97 380.43 227.78 364.09 232.97 365.13 Z" />
</g>
<g id="#5a584cff">
<path fill="#5a584c" opacity="1.00" d=" M 262.41 368.31 C 272.38 366.24 264.25 369.51 262.23 371.22 C 258.75 372.76 259.88 381.12 255.20 377.91 C 257.24 374.55 258.25 369.63 262.41 368.31 Z" />
</g>
<g id="#74705cff">
<path fill="#74705c" opacity="1.00" d=" M 334.36 368.38 C 342.42 367.56 337.48 370.34 334.94 373.74 C 343.67 369.25 340.35 383.89 336.98 377.79 C 337.04 387.21 336.84 396.64 337.01 406.06 C 341.61 399.75 334.78 387.46 339.01 382.00 C 343.06 388.53 332.93 413.07 349.92 408.80 C 350.20 397.18 349.86 385.57 349.96 373.96 C 349.32 366.75 369.18 367.17 357.12 372.17 C 367.15 376.74 359.24 395.86 362.58 406.40 C 363.80 410.48 369.57 407.98 371.27 411.88 C 359.33 410.49 347.29 411.39 335.35 410.75 C 329.64 400.83 334.75 387.83 332.98 376.89 C 324.16 385.24 331.11 402.45 328.95 411.05 C 331.11 399.54 319.82 374.77 334.36 368.38 M 354.45 377.44 C 346.34 385.57 353.08 398.91 351.09 408.97 C 362.08 409.60 351.64 382.83 354.45 377.44 Z" />
</g>
<g id="#676763ff">
<path fill="#676763" opacity="1.00" d=" M 376.36 368.38 C 384.49 367.57 379.38 370.34 376.93 373.80 C 384.59 367.78 381.90 384.41 378.93 377.88 C 376.05 386.24 384.39 401.90 376.09 406.96 C 373.48 397.51 375.73 386.83 374.96 376.90 C 366.79 383.08 374.03 396.50 370.01 403.04 C 373.52 392.52 362.20 372.57 376.36 368.38 Z" />
</g>
<g id="#56544aff">
<path fill="#56544a" opacity="1.00" d=" M 203.31 370.10 C 213.12 365.43 209.81 381.48 203.00 377.06 C 197.53 378.29 200.86 371.77 203.31 370.10 Z" />
</g>
<g id="#d9d0c2ff">
<path fill="#d9d0c2" opacity="1.00" d=" M 120.87 372.04 C 123.64 372.04 129.17 372.02 131.94 372.02 C 139.83 375.82 120.52 378.34 120.87 372.04 Z" />
</g>
<g id="#534f46ff">
<path fill="#534f46" opacity="1.00" d=" M 234.80 372.04 C 238.00 370.12 240.73 372.46 242.01 374.88 C 236.69 384.35 242.67 398.37 239.00 407.01 C 235.23 397.26 241.93 382.22 234.80 372.04 Z" />
</g>
<g id="#aba9aaff">
<path fill="#aba9aa" opacity="1.00" d=" M 151.31 375.31 C 161.16 376.88 172.97 373.67 181.19 378.96 C 174.65 398.62 180.34 418.70 178.99 439.00 L 145.99 439.00 C 148.26 425.31 141.28 411.11 147.23 398.18 C 150.56 391.50 143.40 378.90 151.31 375.31 Z" />
</g>
<g id="#aca9a6ff">
<path fill="#aca9a6" opacity="1.00" d=" M 354.45 377.44 C 351.64 382.83 362.08 409.60 351.09 408.97 C 353.08 398.91 346.34 385.57 354.45 377.44 Z" />
</g>
<g id="#e2dedbff">
<path fill="#e2dedb" opacity="1.00" d=" M 181.40 378.14 C 182.71 398.39 181.68 418.71 182.00 439.00 L 178.99 439.00 C 180.34 418.70 174.65 398.62 181.19 378.96 L 181.40 378.14 Z" />
</g>
<g id="#53534cff">
<path fill="#53534c" opacity="1.00" d=" M 204.09 377.88 C 206.21 379.08 207.51 380.92 209.09 377.88 C 207.73 386.89 211.16 399.48 208.05 407.06 C 208.74 396.49 206.62 398.99 206.89 407.00 C 191.64 408.41 202.68 387.82 199.33 378.88 C 208.33 377.92 199.37 393.66 204.00 397.04 C 204.18 390.65 203.75 384.26 204.09 377.88 Z" />
</g>
<g id="#6b644fff">
<path fill="#6b644f" opacity="1.00" d=" M 267.05 382.02 C 271.06 385.89 269.24 402.46 268.00 408.01 C 265.59 401.31 267.57 390.29 267.05 382.02 Z" />
</g>
<g id="#7b855bff">
<path fill="#7b855b" opacity="1.00" d=" M 186.01 439.00 C 186.30 423.58 185.20 408.12 186.79 392.75 C 187.17 401.32 186.75 409.89 187.20 418.47 C 187.77 417.29 188.17 416.06 188.39 414.78 C 189.03 422.84 189.01 430.96 189.98 439.00 L 186.01 439.00 Z" />
</g>
<g id="#7d754fff">
<path fill="#7d754f" opacity="1.00" d=" M 51.91 397.30 C 65.76 392.11 88.59 396.56 86.27 415.63 C 86.25 423.45 88.81 431.17 87.26 439.00 L 82.91 439.00 C 83.45 430.70 91.50 410.81 77.10 411.95 C 76.62 420.94 77.88 430.13 75.83 439.00 L 73.81 439.00 C 72.31 428.80 81.21 410.93 68.12 405.85 L 67.30 405.51 C 65.95 395.11 52.40 408.53 54.89 414.93 C 51.35 412.46 47.00 413.86 43.01 414.02 C 43.52 408.81 45.43 403.85 45.43 398.57 C 45.40 404.10 47.63 402.53 50.06 399.02 C 50.67 398.44 51.29 397.87 51.91 397.30 Z" />
</g>
<g id="#e4ddccff">
<path fill="#e4ddcc" opacity="1.00" d=" M 54.89 414.93 C 52.40 408.53 65.95 395.11 67.30 405.51 C 57.27 410.79 60.13 423.49 60.05 432.87 C 52.93 446.31 56.38 419.20 54.89 414.93 Z" />
</g>
<g id="#0eb36cff">
<path fill="#0eb36c" opacity="1.00" d=" M 60.05 432.87 C 60.13 423.49 57.27 410.79 67.30 405.51 L 68.12 405.85 C 69.58 416.83 68.92 427.95 68.98 439.00 L 57.65 439.00 C 60.24 437.77 60.86 435.50 60.05 432.87 Z" />
</g>
<g id="#0a6125ff">
<path fill="#0a6125" opacity="1.00" d=" M 68.12 405.85 C 81.21 410.93 72.31 428.80 73.81 439.00 L 68.98 439.00 C 68.92 427.95 69.58 416.83 68.12 405.85 Z" />
</g>
<g id="#cfb599ff">
<path fill="#cfb599" opacity="1.00" d=" M 77.10 411.95 C 91.50 410.81 83.45 430.70 82.91 439.00 L 75.83 439.00 C 77.88 430.13 76.62 420.94 77.10 411.95 Z" />
</g>
<g id="#787850ff">
<path fill="#787850" opacity="1.00" d=" M 223.85 412.87 C 242.05 413.13 261.39 411.82 279.83 413.13 C 281.00 413.46 284.00 415.30 282.05 412.98 L 282.04 411.99 C 290.88 415.80 300.29 418.60 308.47 423.72 C 308.39 424.46 308.22 425.93 308.14 426.66 C 299.09 422.97 289.98 418.21 280.27 417.11 C 273.89 422.74 291.89 426.45 280.85 425.16 C 280.41 425.08 279.54 424.93 279.10 424.85 C 268.78 425.66 257.28 420.75 248.21 427.62 C 245.89 426.67 244.11 424.84 242.44 423.05 C 241.94 418.21 231.41 419.12 227.66 415.27 C 232.92 414.80 238.45 415.35 243.46 413.29 C 236.92 412.92 230.38 412.99 223.85 412.87 Z" />
</g>
<g id="#c0af93ff">
<path fill="#c0af93" opacity="1.00" d=" M 43.01 414.02 C 47.00 413.86 51.35 412.46 54.89 414.93 C 56.38 419.20 52.93 446.31 60.05 432.87 C 60.86 435.50 60.24 437.77 57.65 439.00 L 43.01 439.00 C 43.03 430.67 42.81 422.34 43.01 414.02 Z" />
</g>
<g id="#363c2cff">
<path fill="#363c2c" opacity="1.00" d=" M 223.85 412.87 C 230.38 412.99 236.92 412.92 243.46 413.29 C 238.45 415.35 232.92 414.80 227.66 415.27 C 231.41 419.12 241.94 418.21 242.44 423.05 C 236.53 420.59 241.06 435.21 238.93 439.00 L 222.96 439.00 C 224.66 430.69 223.90 422.13 223.62 413.73 L 223.85 412.87 Z" />
</g>
<g id="#a19270ff">
<path fill="#a19270" opacity="1.00" d=" M 280.27 417.11 C 289.98 418.21 299.09 422.97 308.14 426.66 C 308.22 425.93 308.39 424.46 308.47 423.72 C 309.71 428.71 308.81 433.91 309.02 439.00 L 283.91 439.00 C 285.35 434.34 285.44 428.08 280.85 425.16 C 291.89 426.45 273.89 422.74 280.27 417.11 Z" />
</g>
<g id="#9b8b7bff">
<path fill="#9b8b7b" opacity="1.00" d=" M 238.93 439.00 C 241.06 435.21 236.53 420.59 242.44 423.05 C 244.11 424.84 245.89 426.67 248.21 427.62 C 257.28 420.75 268.78 425.66 279.10 424.85 C 279.05 429.55 279.02 434.28 278.98 439.00 L 238.93 439.00 Z" />
</g>
<g id="#ddd1bbff">
<path fill="#ddd1bb" opacity="1.00" d=" M 279.10 424.85 C 279.54 424.93 280.41 425.08 280.85 425.16 C 285.44 428.08 285.35 434.34 283.91 439.00 L 278.98 439.00 C 279.02 434.28 279.05 429.55 279.10 424.85 Z" />
</g>
</svg>
