<?xml version="1.0" standalone="no"?>
<!DOCTYPE svg PUBLIC "-//W3C//DTD SVG 1.1//EN" "http://www.w3.org/Graphics/SVG/1.1/DTD/svg11.dtd" >
<svg xmlns="http://www.w3.org/2000/svg" xmlns:xlink="http://www.w3.org/1999/xlink" version="1.1">
<metadata></metadata>
<defs>
<font id="bukyvede_lightregular" horiz-adv-x="1064" >
<font-face units-per-em="2048" ascent="1638" descent="-410" />
<missing-glyph horiz-adv-x="512" />
<glyph horiz-adv-x="0" />
<glyph unicode="&#xd;" horiz-adv-x="0" />
<glyph horiz-adv-x="0" />
<glyph horiz-adv-x="0" />
<glyph unicode=" "  horiz-adv-x="512" />
<glyph unicode="&#x09;" horiz-adv-x="512" />
<glyph unicode="&#xa0;" horiz-adv-x="512" />
<glyph unicode="!" horiz-adv-x="516" d="M195 33v139q0 25 24.5 41t56.5 16q35 0 59.5 -16t24.5 -39v-143q0 -23 -24.5 -37t-59.5 -14q-33 0 -57 14t-24 39zM195 401v938q0 25 24.5 40.5t56.5 15.5q35 0 59.5 -15.5t24.5 -38.5v-940q0 -23 -24.5 -38t-59.5 -15q-33 0 -57 15.5t-24 37.5z" />
<glyph unicode="&#x22;" horiz-adv-x="712" d="M147 948v402q0 25 20.5 39t49.5 14t49.5 -14.5t20.5 -36.5v-297q0 -10 -9.5 -33t-25.5 -45.5t-40 -39.5t-50 -17q-14 0 -15 28zM465 948v402q0 25 21.5 39t50.5 14t49 -14.5t20 -36.5v-297q0 -12 -9 -35t-26.5 -45.5t-40 -38.5t-49.5 -16q-16 0 -16 28z" />
<glyph unicode="#" horiz-adv-x="1206" d="M66.5 505.5q3.5 18.5 14.5 35t28 16.5h231l33 137q4 25 9 48.5t11 48.5h-231q-16 0 -21.5 15t-2.5 33.5t13.5 34t26.5 15.5h232q10 55 25.5 120.5t27.5 120.5l49 224q4 14 20.5 23t32.5 9t27.5 -8t7.5 -24q0 -2 -5 -28t-15 -62q0 -4 -2.5 -10.5t-2.5 -10.5 q-4 -25 -10 -49.5t-12 -50.5l-55 -254h260q10 55 25.5 120.5t27.5 120.5l49 224q4 14 20.5 23t32.5 9t27.5 -8t7.5 -24q0 -2 -5 -28t-15 -62q0 -4 -2 -10.5t-2 -10.5q-4 -25 -10.5 -49.5t-12.5 -50.5l-55 -254h235q31 0 49 -23q0 -6 2.5 -11t0.5 -24q0 -8 -1.5 -15t-1.5 -15 q0 -4 -1 -6t-1 -7v-10q-4 -41 -8 -63.5t-7 -33.5t-7 -14t-6 -3t-9.5 13t-17.5 34q-31 53 -70.5 66.5t-93.5 13.5h-80q-6 -25 -11 -48.5t-9 -48.5l-33 -137h236q35 0 47 -22h2q-2 -8 -2 -17q0 -8 -1 -19.5t-1 -21.5q0 -8 2 -6t2 -6q0 -4 -1 -6t-1 -6v-11q-6 -41 -10.5 -63.5 t-7.5 -33.5t-6 -14t-5 -3q-4 0 -26 47q-33 57 -73 68.5t-93 11.5h-80q-4 -25 -10.5 -47.5t-10.5 -45.5q-4 -20 -8 -38.5t-8 -36.5l-33 -154q-4 -14 -6 -21.5t-3 -16.5t-2 -25.5t-1 -51.5h-12q-4 -16 -17.5 -24t-30.5 -8q-18 0 -29.5 14t-4.5 37q-2 -2 6 43t24 106 q10 41 20.5 87t20.5 100q4 20 8.5 40.5t8.5 41.5h-260q-4 -25 -10.5 -47.5t-10.5 -45.5q-4 -20 -8 -38.5t-8 -36.5l-33 -154q-4 -14 -6 -21.5t-3 -16.5t-2 -25.5t-1 -51.5h-13q-4 -16 -17 -24t-30 -8q-18 0 -29.5 14t-5.5 37q-2 -2 6.5 43t24.5 106q10 41 20.5 87t20.5 100 q4 20 8 40.5t9 41.5h-232q-16 0 -21.5 16t-2 34.5zM428 557h260l33 137q4 25 9 48.5t11 48.5h-260q-6 -25 -11 -48.5t-9 -48.5z" />
<glyph unicode="$" horiz-adv-x="1122" d="M131 10q0 100 76 170q41 33 79 42t79 9l73 -36l64 -29l43 -21h26v519h-18q-6 0 -14 2h-2l-54 8h-2l-53 8q-27 4 -51.5 14.5t-42.5 20.5q-57 41 -92 115.5t-35 177.5q0 340 346 352h18v160h50v-162h18q344 -29 344 -346q0 -63 -63 -64q-55 0 -75 22.5t-36 69.5l-27 166 q-12 25 -51 46.5t-88 35.5h-22v-549h16q131 -16 237 -73q37 -25 67 -48.5t50.5 -53t30.5 -66.5t10 -86q0 -193 -74.5 -295.5t-228.5 -102.5q-23 0 -45 1t-43 6h-20v-189h-50v205h-12q-53 14 -92 31h-2q-2 0 -2 1t-2 1q-23 8 -45.5 14t-38.5 6q-37 0 -59.5 -21.5t-43.5 -45.5 l-6 -9q-16 -23 -34.5 -40t-28.5 -17q-74 0 -74 51zM381 1026q0 -119 42 -197.5t130 -83.5h18v551h-18q-47 -2 -82 -26.5t-57 -65.5q-33 -72 -33 -178zM621 115h18q66 0 106.5 23.5t63.5 51.5q43 57 43 179q0 168 -82 231q-33 27 -127 47h-22v-532z" />
<glyph unicode="%" horiz-adv-x="1089" d="M31 1137q0 55 19.5 104t53 87t79.5 59.5t98 21.5q51 0 97 -21.5t80 -58.5t53 -87t19 -105t-20.5 -104.5t-54 -86.5t-78.5 -57.5t-96 -20.5q-101 0 -179 78q-37 37 -54 86t-17 105zM61 0v12h2q4 6 41 67.5t95.5 158t131 216t146.5 242.5q174 291 395 654q10 18 22.5 33.5 t18.5 15.5q12 0 38 -6.5t44 -14.5q47 -20 64.5 -34.5t17.5 -26.5q0 -14 -12 -25.5t-43 -13.5q-41 -4 -67.5 -13.5t-43 -22.5t-28 -29.5t-23.5 -36.5l-2 -7l-30 -49q-31 -49 -80.5 -130t-114 -184.5t-131 -213t-132 -215t-117.5 -192.5t-87 -144.5t-41 -69.5q-8 -14 -16 -14 q-16 0 -32 12.5t-16 30.5zM100 1145q0 -29 14.5 -56.5t37.5 -54.5q23 -23 56.5 -34t67.5 -11q37 0 69 12.5t55.5 34t37 50t13.5 59.5q0 63 -49.5 110.5t-125.5 47.5q-74 0 -125 -46.5t-51 -111.5zM549 246q0 55 19.5 104t53 87t80 59.5t97.5 21.5t97 -21.5t80 -58.5 t53.5 -87t19.5 -105t-20.5 -104.5t-54.5 -86.5t-79 -57.5t-96 -20.5q-100 0 -178 78q-37 37 -54.5 86t-17.5 105zM623 254q0 -29 14 -56.5t37 -54.5q23 -23 56.5 -34t68.5 -11q37 0 68.5 12.5t55 34t37 50t13.5 59.5q0 63 -49.5 110.5t-124.5 47.5q-74 0 -125 -46.5 t-51 -111.5z" />
<glyph unicode="&#x26;" horiz-adv-x="1347" d="M86 379q0 78 18.5 133t50 98t72.5 77t86 67q18 12 44 31.5t44 35.5q-27 27 -54.5 58.5t-50 67.5t-36.5 77t-14 88q0 61 20.5 115.5t55 94.5t78.5 63.5t94 23.5q45 0 88 -18.5t74.5 -52t51 -82t19.5 -109.5q0 -98 -45 -169t-123 -104q43 -35 77 -69.5t68.5 -75.5t72.5 -91 t89 -118l41 -53h29q55 84 93 141.5t61 93.5q25 37 37 56.5t19 29t9 11.5t6 2q6 0 24.5 -13.5t38 -32t35 -37t15.5 -30.5q0 -8 -6 -14q-43 6 -81 -13.5t-77 -57.5t-78 -92t-84 -122h-2q6 -14 17.5 -37.5t19.5 -38.5q20 -41 47 -88t60.5 -86t73.5 -64.5t83 -25.5h33h39t12 4h2 q2 -2 12.5 -15t4 -28.5t-42 -29t-127.5 -13.5q-55 0 -101.5 24.5t-85.5 64.5t-68.5 92.5t-54.5 107.5h-32q-39 -57 -81 -110.5t-90.5 -94.5t-101.5 -65.5t-112 -24.5q-76 0 -142.5 31t-117 86t-79 132t-28.5 169zM250 442q0 -61 16.5 -119.5t48 -103.5t80.5 -71.5t117 -26.5 q43 0 130 50t179 159q-72 94 -147.5 189t-141.5 173l-83 99l-15 -13q-35 -29 -68.5 -65.5t-59 -79.5t-41 -91t-15.5 -100zM358 1174q0 -35 14.5 -74t37 -75t48 -65.5t50.5 -46.5h22q33 33 50.5 62t26.5 53.5t11.5 47t2.5 44.5v21q0 39 -2.5 74.5t-13.5 63.5t-36.5 44 t-70.5 16q-72 0 -106 -46t-34 -119z" />
<glyph unicode="'" horiz-adv-x="516" d="M209 948v402q0 25 20.5 39t49.5 14t49 -14.5t20 -36.5v-297q0 -10 -9 -33t-25.5 -45.5t-40 -39.5t-50.5 -17q-14 0 -14 28z" />
<glyph unicode="(" horiz-adv-x="710" d="M135 627q0 143 35 257.5t88 202t115.5 149.5t119 102t96.5 58.5t50 18.5q4 0 12 -7t8 -40q0 -16 -26 -29h-2l-51 -36q-66 -51 -127.5 -108.5t-107.5 -135.5t-73.5 -183.5t-27.5 -250.5q0 -184 42 -312.5t99 -211.5t116.5 -129t96.5 -66q20 -14 20 -23q0 -4 -1 -14 t-2 -20.5t-3 -18.5l-2 -8q-18 2 -60 19.5t-95.5 57.5t-109.5 101t-103 150.5t-77 207t-30 269.5z" />
<glyph unicode=")" horiz-adv-x="710" d="M135 1368q0 33 8.5 40t12.5 7q8 0 49 -18.5t97 -58.5t118.5 -102t116 -149.5t88 -202t34.5 -257.5q0 -150 -29.5 -268.5t-76.5 -208t-103.5 -150.5t-109.5 -101t-95 -58.5t-61 -18.5l-2 8t-3 18.5t-2 20.5t-1 14q0 8 21 23q37 20 96 66t116.5 129t99.5 211t42 313 q0 145 -27.5 250.5t-74 183.5t-107.5 135t-127 109l-16 10l-37 26q-10 8 -18.5 13.5t-8.5 15.5z" />
<glyph unicode="*" horiz-adv-x="761" d="M98.5 1349.5q-2.5 16.5 1.5 30t13.5 18.5t21.5 -7q2 -4 60.5 -62.5t142.5 -138.5h31v180q0 16 10 25.5t24 9.5q10 0 20.5 -9.5t10.5 -25.5v-180h31q39 39 74.5 73.5t62.5 61.5t43.5 44t18.5 20q12 12 21 7t14.5 -17.5t4 -29t-13.5 -26.5l-233 -233l159 -158l29.5 -29.5 t24.5 -23.5q12 -12 22 -21h-2q12 -12 12 -27.5t-6 -25.5t-17 -13.5t-24 7.5l-190 190h-31v-180q0 -16 -10 -24.5t-21 -8.5q-14 0 -24 8.5t-10 24.5v182h-31l-87 -87t-67 -66l-39 -39q-10 -10 -21 -7t-17.5 13t-6.5 25.5t13 27.5l231 232q-39 39 -79 78.5t-72.5 73.5 t-55 55.5t-26.5 25.5q-10 10 -12.5 26.5z" />
<glyph unicode="+" horiz-adv-x="954" d="M74 506q0 20 3 37.5t11 17.5h354v324q0 16 12.5 24.5t28.5 8.5q14 0 25.5 -8.5t11.5 -24.5v-324h328q35 0 53 -22q2 -2 5 -30t7 -52q2 -4 2 -11.5v-11.5q4 -41 5.5 -63.5t0.5 -32.5t-4.5 -13t-5.5 -3q-6 0 -41 47q-23 31 -42 47t-40.5 23t-45 8.5t-50.5 1.5h-172v-381 q0 -16 -11 -24.5t-26 -8.5q-16 0 -28.5 8t-12.5 25v381h-354q-6 0 -10 17t-4 40z" />
<glyph unicode="," horiz-adv-x="411" d="M125 -231l84 401q10 45 61 45q29 0 46.5 -14.5t11.5 -36.5l-62 -297q-2 -10 -13 -31.5t-28.5 -43t-41 -37t-50.5 -15.5q-4 0 -7 9t-1 20z" />
<glyph unicode="-" horiz-adv-x="970" d="M82 506q0 20 3 37.5t11 17.5h760q35 0 53 -22q2 -2 5.5 -30t7.5 -52q2 -4 2 -11.5v-11.5q4 -41 5 -63.5t0 -32.5t-4 -13t-5 -3q-6 0 -41 47q-23 31 -42.5 47t-41 23t-45 8.5t-50.5 1.5h-604q-6 0 -10 17t-4 40z" />
<glyph unicode="." horiz-adv-x="368" d="M121 14v119q0 25 24.5 39t59.5 14q33 0 57.5 -14t24.5 -37v-123q0 -23 -24.5 -38t-57.5 -15q-35 0 -59.5 15.5t-24.5 39.5z" />
<glyph unicode="/" horiz-adv-x="847" d="M-51 20q4 6 37.5 68t88 158t121 216t136.5 243q162 291 366 655q10 20 30 29.5t26 11.5q10 2 36.5 -4t47.5 -17q66 -27 76 -45t-1 -37q-12 -12 -49 -18q-41 -4 -65.5 -12t-41 -19.5t-26.5 -26t-20 -32.5l-11 -21l-28 -49q-27 -49 -72 -130t-103.5 -185.5t-119 -214 t-119.5 -216t-107.5 -193.5t-80 -144.5t-37.5 -69.5q-8 -12 -24.5 -11t-33 10t-25.5 23.5t-1 30.5z" />
<glyph unicode="0" d="M74 674q0 137 29.5 244.5t76.5 189.5t103.5 140.5t109.5 94t95 52t61 16.5q8 0 48 -12.5t93 -42t113.5 -79.5t111 -126t84 -180.5t33.5 -241.5q0 -145 -31.5 -257t-79 -193.5t-104.5 -137t-107.5 -89.5t-88.5 -48t-46 -14t-49 14t-97 46t-118.5 84t-115 128t-87 177.5 t-34.5 234.5zM186 887q0 -98 34 -191.5t86 -177.5t113.5 -154.5t116 -122t92.5 -80t46 -28.5h2q29 4 64.5 27.5t69.5 57.5t62.5 75t40.5 78q12 35 17.5 69.5t5.5 69.5q0 96 -35 190.5t-87 181.5t-113.5 161.5t-117 130t-95 87t-48.5 31.5q-29 -4 -61.5 -29.5t-65 -61.5 t-59.5 -77t-41 -77q-27 -78 -27 -160z" />
<glyph unicode="1" d="M469 57v1272q0 35 24.5 54.5t65.5 19.5t58.5 -18.5t17.5 -53.5v-1278q0 -35 -17.5 -53t-58.5 -18t-65.5 19t-24.5 56z" />
<glyph unicode="2" d="M195 1073q0 18 4 35q2 8 4 12q51 90 108.5 144.5t108.5 84t89 39t50 9.5q16 0 51 -9.5t80 -39t96.5 -82t104.5 -138.5q4 -10 8 -22q4 -10 7 -26.5t3 -39.5q0 -31 -14 -72.5t-40 -87.5t-58.5 -94.5t-69.5 -93.5q-41 -49 -87 -110.5t-87 -131t-74 -145.5t-45 -151h342 q53 0 86 -52.5t43 -115.5v-11q0 -4 1 -5t1 -3q2 -10 2 -24.5v-18.5q0 -35 -2 -43t-6 -8q-6 0 -41 47q-23 31 -43 47.5t-41.5 23.5t-44 8t-49.5 1h-440q-14 0 -15 57q0 35 9 43h2q14 70 53 161t84 178t88 157t67 96q43 49 86 104.5t80 108.5t66 99.5t41 78.5q-4 16 -28.5 47 t-56.5 62t-63.5 53.5t-48.5 22.5q-2 0 -28.5 -6.5t-67.5 -25.5t-90 -59t-94 -108q-31 -39 -42.5 -71.5t-15.5 -55.5q-4 -10 -4 -15v-9q-10 8 -21.5 27.5t-22.5 43t-18 46t-7 38.5zM264 918q2 -7 8 -7h-6q-2 0 -2 7z" />
<glyph unicode="3" d="M117 1057q0 74 33.5 138.5t90 111.5t131 73.5t154.5 26.5q193 0 296.5 -83t103.5 -249q0 -127 -50.5 -218t-154.5 -144q117 -47 191.5 -138.5t74.5 -230.5q0 -68 -24.5 -131t-71.5 -110.5t-119 -75t-166 -27.5q-4 0 -8 2h-2q-2 0 -3 1t-3 1q-25 4 -66 11.5t-82 7.5 q-51 0 -75 -13h-2q-113 -68 -158 -67q-23 0 -30 17t-7 40q0 174 156 174q4 0 24.5 -10t46.5 -25q31 -16 65 -30.5t58 -14.5q127 0 203 65.5t76 188.5q0 29 -11.5 62.5t-29 67.5t-39 62.5t-41.5 47.5q-51 33 -168 55h-2q-41 6 -63.5 15.5t-33 18.5t-13.5 21.5t-3 24.5v8 q0 47 23.5 62.5t83.5 15.5q131 0 193.5 76t62.5 196q0 135 -51.5 188.5t-167.5 53.5q-92 0 -151.5 -60.5t-82.5 -168.5q-6 -35 -24.5 -64t-83.5 -29q-80 0 -80 56z" />
<glyph unicode="4" d="M197 633v84q39 150 96 268.5t118.5 206.5t119 145.5t94.5 81.5q6 0 19 -12t24.5 -26.5t17.5 -28t0 -19.5q-27 -20 -73 -81.5t-96 -145.5t-95 -184.5t-66 -196.5h17q31 -4 65 -6q29 -2 68 -3t82 -1q35 0 67.5 1t61.5 5h16v254q0 35 45 35h80q49 0 49 -35l-4 -950l-10 -11 l-2 -4h-4q-16 -14 -32.5 -25.5t-39.5 -11.5q-33 0 -57.5 14.5t-24.5 43.5v604h-18q-41 -4 -125 -6t-168 -2q-72 0 -134.5 1t-90.5 5z" />
<glyph unicode="5" d="M147 219q0 23 25 44.5t47 21.5q41 0 67.5 -9.5t44 -23.5t29 -32.5t21.5 -37.5q8 -18 19.5 -34.5t30 -30t46 -21.5t72.5 -8q113 0 169 86t56 221q0 82 -8 142.5t-37 102.5t-84 66.5t-151 32.5l-238 2q4 53 18.5 129t30.5 156q18 92 34.5 187.5t27.5 181.5h77h203t221 -4 h17q20 0 32.5 -2.5t20.5 -13.5t11 -35.5t3 -69.5q0 -53 -2 -84t-5 -46.5t-8 -19.5t-11 -4h-21q-4 0 -12 15.5t-19 37.5q-12 25 -29.5 52.5t-47 50t-75.5 37t-116 10.5l-69 -4h-19l-94 -496h47q8 0 15.5 1t15.5 1q90 0 173 -17.5t145.5 -60.5t100 -115.5t37.5 -185.5 q0 -100 -19 -185t-57 -146.5t-96.5 -95t-136.5 -33.5q-102 0 -193 10t-160 37.5t-109 72.5t-40 117z" />
<glyph unicode="6" d="M182 453q18 254 107.5 471t216.5 376q92 111 131 109q4 -2 6 -6t6 -27q2 -18 -15.5 -47t-39.5 -61l-6 -8q-8 -12 -18.5 -29t-19.5 -30t-15.5 -21.5t-4.5 -3.5l-47 -84v-7h-2q-33 -53 -62.5 -112.5t-39.5 -118.5h31q45 41 102 56.5t100 11.5q63 -6 119.5 -57.5t98.5 -124 t67 -154.5t25 -150q-8 -84 -46 -166t-97.5 -148.5t-135.5 -107.5t-162 -41q-78 6 -136 51.5t-97 112t-55.5 149.5t-10.5 167zM330 465q0 -39 2 -78t6 -63q12 -37 33.5 -75t53.5 -66.5t77 -46t106 -17.5q25 0 49.5 18.5t44 52t34 80.5t18.5 103q4 49 -9.5 118.5t-45 135 t-80 113.5t-115.5 53q-66 4 -107 -29t-55 -115q-6 -35 -9 -85t-3 -99z" />
<glyph unicode="7" d="M176 1391h41.5t52.5 2q18 0 38 1t40 1q53 2 118.5 3t119.5 1q51 0 95 -2t75 -6q27 -16 38 -59.5t17 -129.5q4 -98 -9.5 -209.5t-41.5 -228.5h155q18 -4 25.5 -20.5t4.5 -37t-15 -36t-33 -15.5h-166q-25 -92 -56.5 -183t-68.5 -173t-77 -151.5t-80 -120.5q-41 -51 -80 -76 t-56 -23q-6 0 -6 10.5t8 26.5q4 4 14.5 17.5t22.5 33.5l13 27q47 84 80.5 163t54.5 156q14 49 32.5 127t38.5 164h-18q-31 0 -64.5 -1t-61.5 -1h-47.5h-25.5t-10 17.5t-4 40.5q0 20 3 37.5t11 17.5h240q23 111 37 213t10 170q-2 45 -3 71.5t-3 45.5q0 4 -1 6t-1 6v8h-15 q-25 6 -81 6q-59 0 -135 -6t-140 -12l-78 -8z" />
<glyph unicode="8" d="M215 356q0 41 30.5 102.5t86.5 135.5q16 23 33.5 47.5t29.5 38.5q-6 4 -16 14.5t-10 7.5l-13 13q-66 53 -103.5 125.5t-37.5 152.5q0 41 30.5 103.5t86.5 134.5q59 76 117.5 124t99.5 48q49 0 151 -68q92 -63 141.5 -139t49.5 -164q0 -53 -26.5 -115.5t-78.5 -132.5 l-22 -24q-12 -16 -28.5 -33.5t-26.5 -28.5q84 -61 133 -139t49 -164q0 -55 -26.5 -117.5t-78.5 -132.5q-129 -164 -254 -163q-29 0 -72.5 24.5t-103.5 69.5q-68 53 -104.5 124.5t-36.5 155.5zM346 428q0 -160 164 -252q57 -35 102 -35q138 0 138 133q0 84 -34 151t-87 116 q-45 35 -87 53t-96 18q-100 0 -100 -184zM346 1067q0 -78 42 -142.5t122 -111.5h2q29 -16 54.5 -25.5t45.5 -9.5q138 0 138 135q0 82 -34 149.5t-87 117.5q-45 33 -87 51t-96 18q-100 0 -100 -182z" />
<glyph unicode="9" d="M182 950q10 98 46 181t93.5 143.5t136.5 94.5t175 34q78 -6 135 -52t94 -115t52.5 -152.5t7.5 -165.5q-49 -512 -324 -824q-53 -57 -97 -88t-67 -39q-18 -4 -15 8.5t9 26.5q8 16 21.5 37.5t27.5 40.5q27 37 55.5 77t40.5 62l15 27q18 33 40.5 76t44 87t39 89t27.5 84h-30 q-47 -39 -105.5 -53.5t-99.5 -10.5q-68 6 -129.5 50t-105.5 107.5t-68.5 136.5t-18.5 138zM350 1012q2 -49 20.5 -110.5t52.5 -117t82 -94.5t107 -45q66 -8 113 22.5t55 116.5q10 41 11 80q0 31 -4.5 61.5t-8.5 59.5q0 4 -1 7t-1 7l-8 52q-12 37 -42 73.5t-69 66.5t-79.5 48 t-73.5 23q-25 2 -48.5 -16.5t-45 -53.5t-38 -82t-22.5 -98z" />
<glyph unicode=":" horiz-adv-x="442" d="M158 53v142q0 25 24.5 39t59.5 14q33 0 57.5 -14.5t24.5 -36.5v-146q0 -23 -25 -38t-57 -15q-35 0 -59.5 15.5t-24.5 39.5zM158 698v183q0 25 24.5 39t59.5 14q33 0 57.5 -14.5t24.5 -36.5v-187q0 -23 -25 -38t-57 -15q-35 0 -59.5 15.5t-24.5 39.5z" />
<glyph unicode=";" horiz-adv-x="456" d="M141 -231l84 401q10 45 62 45q29 0 46 -14.5t11 -36.5l-61 -297q-2 -10 -13.5 -31.5t-29 -43t-41 -37t-49.5 -15.5q-4 0 -7.5 9t-1.5 20zM190 739v142q0 25 25 39t59 14q33 0 57.5 -14.5t24.5 -36.5v-146q0 -23 -24.5 -38t-57.5 -15q-35 0 -59.5 15.5t-24.5 39.5z" />
<glyph unicode="&#x3c;" horiz-adv-x="622" d="M74 457q72 117 134 210t128 185h2l14 25q41 57 76 107t82 120l80 -64l-64 -90l-75 -106l-103 -144q-39 -55 -82 -115.5t-84 -121.5q4 -4 6 -9t7 -10q35 -51 74.5 -106t74.5 -102q61 -86 121.5 -174.5t118.5 -178.5l-82 -61q-43 66 -78 114t-72 99l-16 22q-31 41 -60.5 84 t-62.5 91.5t-66.5 103.5t-72.5 121z" />
<glyph unicode="=" horiz-adv-x="1005" d="M100 268q0 18 3 33.5t12 15.5h759q35 0 54 -20h4l2 -4q-10 0 -6 -8q0 -6 4 -15q0 -2 1 -3t1 -3q6 -70 5 -92t-5 -22l-47 47q-18 18 -47 20t-64 0h-33q-6 0 -12 -1t-12 -1h-604q-6 0 -10.5 16.5t-4.5 36.5zM100 657q0 18 3 34t12 16h817q8 0 11 -15.5t3 -34.5 q0 -20 -4 -36.5t-10 -16.5h-817q-6 0 -10.5 16.5t-4.5 36.5z" />
<glyph unicode="&#x3e;" horiz-adv-x="624" d="M74 1040l80 64q47 -70 81.5 -120t75.5 -107l15 -25h2q66 -92 128 -185.5t134 -209.5q-72 -123 -139.5 -222.5t-122.5 -177.5l-17 -22q-37 -51 -71.5 -99.5t-77.5 -113.5l-86 63q100 123 173 225.5t146 208.5l27 39l70 101q-55 80 -118 167t-116 158l-74 103 q-29 39 -55.5 75.5t-54.5 77.5z" />
<glyph unicode="?" horiz-adv-x="876" d="M102 1083q2 18 7 37q51 92 110.5 147.5t111.5 84t90 37t46 8.5q18 0 52 -10.5t79 -39t96 -81t103 -138.5h2q4 -10 8 -22q4 -10 7 -26.5t3 -39.5q0 -47 -24 -98q-20 -35 -65.5 -95.5t-104.5 -133.5q-6 -10 -17.5 -27.5t-23 -38t-19.5 -37t-8 -22.5l2 -168q0 -23 -24.5 -37 t-57.5 -14t-58.5 14t-25.5 39v164q4 20 12 43q6 16 13.5 34.5t17.5 28.5q37 37 81 95.5t84 121t69.5 118.5t42.5 87q6 14 -21.5 45t-65.5 61.5t-74 52t-46 19.5q-6 -2 -34 -13t-66.5 -38t-84 -69t-88.5 -103q-29 -41 -41 -72.5t-16 -52.5q-2 -6 -3 -10t-1 6l-23 29l-6 8 l-22 31q-12 20 -15.5 39.5t-1.5 35.5zM391 31v141q0 25 25.5 40t58.5 15t57.5 -15t24.5 -38v-143q0 -25 -24.5 -39.5t-57.5 -14.5t-58.5 14.5t-25.5 39.5z" />
<glyph unicode="@" horiz-adv-x="1927" d="M96 408q0 72 16.5 177t57.5 221t112.5 232.5t182 208.5t265.5 150.5t364 58.5q152 0 279.5 -48t220 -135t144.5 -211t52 -274q0 -96 -10.5 -182t-37 -163.5t-71.5 -149.5t-112 -135q-49 -47 -100.5 -64.5t-102.5 -17.5h-29q-2 0 -3 -1t-5 -1q-55 0 -76.5 3t-21.5 13 q2 47 20.5 113.5t34.5 132.5l10 41q20 78 34.5 138t14.5 81q0 29 -45 43h-90q-41 0 -65.5 -20.5t-46 -80t-44 -168t-55.5 -284.5q-10 -59 -27.5 -81.5t-58.5 -22.5q-43 0 -54 8t-11 24l129 604q-4 10 -37 16.5t-82 6.5q-109 0 -117 -41l-104 -479q-4 -8 -16.5 -11.5 t-53.5 -3.5q-37 0 -49 3.5t-12 9.5l120 551q2 10 4.5 17t4.5 11q2 6 2 11h264q43 0 74.5 27.5t42.5 74.5q12 59 23 116.5t26 119.5q-33 -23 -79 -36.5t-110 -13.5q-31 0 -67.5 7.5t-69.5 20.5t-55.5 34.5t-28.5 50.5l37 29q27 -31 69 -43.5t91 -12.5q43 0 81 8.5t74.5 18.5 t73.5 18.5t76 8.5q47 0 47 -31q0 -23 -8 -55l-51 -248q-2 -8 -2 -23q0 -82 139 -82q14 0 34.5 2t40 4.5t38 4.5t28.5 2q55 0 55 -47q0 -2 -1 -4.5t-1 -6.5l-102 -450h12q8 -4 27.5 -5t30.5 -1q70 0 120 52t80.5 130t45 170t14.5 170q0 131 -51.5 246.5t-138.5 202.5 t-204.5 137.5t-250.5 50.5q-162 0 -311.5 -60.5t-260.5 -162.5q-51 -47 -97 -127t-82 -175.5t-56.5 -194.5t-20.5 -183q0 -172 58.5 -318.5t164 -252t254 -166t326.5 -60.5q256 0 449.5 115.5t304.5 371.5l61 64h29q-72 -203 -207 -344q-90 -94 -175 -158.5t-170 -104.5 t-175 -58.5t-193 -18.5q-186 0 -342.5 67.5t-270.5 187.5t-177.5 280.5t-63.5 349.5z" />
<glyph unicode="A" horiz-adv-x="1200" d="M78 45q0 25 34.5 126t104.5 273q47 115 154 347l55 120q18 39 44 95.5t58 132.5q10 35 11 61q0 35 -15.5 59.5t-38.5 36.5l-86 19q-20 4 -33.5 17.5t-13.5 29.5q0 37 162 37q55 0 107.5 -40t99.5 -114q31 -47 66.5 -137t66.5 -186l86 -281l219 -606l2 -6q0 -29 -22 -29 h-117q-39 0 -70 88l-186 506h-31l-450 -373h-2q-4 -12 -5.5 -23.5t-3.5 -21.5q0 -6 -2 -12t-2 -12q-10 -45 -15 -69t-5 -28q-33 -65 -116 -65h-3q-53 0 -53 55zM303 315h31l405 342h2l-157 428h-37q-53 -129 -113.5 -318t-130.5 -452z" />
<glyph unicode="B" horiz-adv-x="1069" d="M133 70v1267q0 53 41 54h490q180 0 180 -127q0 -98 -116 -219t-318 -250q131 -96 235.5 -187.5t178 -174.5t112.5 -157t39 -133q0 -82 -74 -112q-66 -31 -139 -31h-576q-53 0 -53 70zM299 74h309q140 0 140 88q0 264 -271 504q-79 73 -118 73h-1q-59 0 -59 -32v-633z M299 842h18q125 0 246 157q121 154 121 267q0 69 -228 69h-7h-91q-59 0 -59 -55v-438z" />
<glyph unicode="C" horiz-adv-x="888" d="M100 688q0 195 154 445q86 137 189.5 204.5t187.5 67.5q39 0 110 -115q61 -102 62 -170q0 -66 -29 -94q-12 -12 -32.5 -29.5t-45.5 -31.5l-22 2q-6 88 -47 166q-25 51 -69 76.5t-85 25.5q-53 0 -97 -39t-73 -111q-20 -53 -33.5 -114.5t-13.5 -108.5q0 -58 -4 -116 q-1 -19 -1 -39q0 -38 5 -74q12 -92 33.5 -157.5t62.5 -133.5q88 -147 191 -147q14 0 39.5 3t53.5 9t53.5 14t41.5 21q14 10 34.5 27.5t49.5 45.5l6 7l8 -5q-12 -59 -151 -194q-37 -37 -76 -63.5t-72.5 -45t-58.5 -28t-33 -9.5q-123 0 -239 293q-98 246 -99 418z" />
<glyph unicode="D" horiz-adv-x="1191" d="M147 49v1297q0 20 18.5 33.5t59.5 13.5h387q86 0 170 -56.5t151.5 -153t108.5 -225.5t41 -274q0 -139 -36.5 -264t-101 -218t-151.5 -147.5t-188 -54.5h-366q-92 0 -93 49zM313 80h19q29 -2 55 -2q23 0 50 2t50 8q113 27 185.5 76t114.5 121.5t58.5 169t16.5 217.5 q0 49 -5 117.5t-19.5 141.5t-42 143.5t-71.5 125.5t-108.5 90t-152.5 35h-150v-1245z" />
<glyph unicode="E" horiz-adv-x="954" d="M133 688q0 195 154 445q86 137 189.5 204.5t187.5 67.5q39 0 110 -115q61 -102 62 -170q0 -66 -29 -94q-12 -12 -32.5 -29.5t-45.5 -31.5l-22 2q-6 88 -48 166q-12 25 -33.5 44t-47 31.5t-52 18.5t-47.5 6q-53 0 -94 -38t-70 -110q-20 -53 -33.5 -114.5t-13.5 -108.5 q0 -59 5.5 -116.5t15.5 -112.5h26q365 207 408 207q18 0 38.5 -17.5t37.5 -46.5q12 -23 21 -53t9 -59q0 -59 -49 -93q-25 -16 -48 -24t-48 -8q-2 0 -53 82h-2q-54 81 -83 81h-1q-39 0 -133 -53q-109 -61 -109 -82q0 -92 82 -225q88 -147 190 -147q14 0 40 3t53.5 9t53.5 14 t42 21q14 10 34.5 27.5t49.5 45.5l6 7l8 -5q-12 -59 -151 -194q-37 -37 -76 -63.5t-73 -45t-58.5 -28t-32.5 -9.5q-123 0 -240 293q-98 246 -98 418z" />
<glyph unicode="F" horiz-adv-x="942" d="M129 39v1309q0 43 33 43h600q27 0 44 -9.5t27.5 -34t15.5 -67.5t5 -111q0 -53 -2 -83.5t-5 -46t-8 -19.5t-12 -4h-20q-2 0 -14.5 23.5t-27.5 54t-30.5 60.5t-21.5 42v6q-33 49 -91.5 81t-117.5 32h-43q-96 0 -131 -24.5t-35 -82.5v-440h27q72 41 128 54.5t95 13.5 q29 0 52.5 -4.5t41.5 -8.5h2q6 0 11 -2t12 -2q16 -6 35.5 -16t37 -26.5t28.5 -39t11 -53.5q0 -47 -44 -65.5t-101 -18.5q2 0 -18.5 20.5l-45.5 45.5l-22 22q-31 35 -53 35q-2 0 -17 6q-14 4 -34.5 9t-47.5 5q-23 0 -46 -5t-48 -19h-4v-684q0 -45 -86 -45q-80 0 -80 49z" />
<glyph unicode="G" horiz-adv-x="1107" d="M119 586q0 266 90 453.5t258 320.5q31 25 73 35t58 10q31 0 71 -19.5t75.5 -55.5t59 -88t23.5 -118q0 -25 -11 -56.5t-27.5 -59t-34 -48t-29.5 -20.5q-4 16 -15.5 55t-17.5 62l-4 14q-4 8 -12 38t-30.5 61.5t-62.5 55.5q-34 20 -89 20q-9 0 -19 -1q-49 -4 -90 -42 t-68.5 -95t-43 -122.5t-15.5 -121.5q0 -31 8 -93t23.5 -139t38 -158t51.5 -147.5t62.5 -109.5t72.5 -43q12 0 51 10.5t88 29.5t96.5 47t75.5 63q16 20 20.5 58t4.5 81q0 39 -1 64.5t-3 52.5h-213q-14 0 -25.5 24.5t-11.5 42.5q0 14 9 24.5t36 10.5h373q8 -10 11 -26.5 t3 -34.5q0 -16 -1 -32t-5 -26q-25 -135 -84 -236.5t-127 -172t-130.5 -110.5t-92.5 -50q-6 -2 -22.5 -3t-34 -2t-31 -2t-15.5 -1q-66 0 -121 62.5t-137 184.5q-66 98 -87 187.5t-21 165.5z" />
<glyph unicode="H" horiz-adv-x="1210" d="M143 41v1317q0 43 82 43q84 0 84 -43v-586h631v588q0 41 78 41q88 0 88 -49v-1313q0 -49 -74 -49q-92 0 -92 53v662h-18q-74 0 -149 -1.5t-148 -1.5h-316v-661q0 -51 -73 -51q-92 0 -93 51z" />
<glyph unicode="I" horiz-adv-x="481" d="M178 33v1325q0 41 105 41q61 0 61 -43v-1323q0 -43 -61 -43q-104 0 -105 43z" />
<glyph unicode="J" horiz-adv-x="581" d="M68 1260v118l41 4q59 6 120.5 10.5t120.5 4.5h43.5t40.5 -2h-8q23 -12 37 -54.5t24 -130.5q6 -57 10.5 -115.5t4.5 -117.5q0 -119 -18.5 -253t-51.5 -263t-80 -244t-104 -197q-39 -53 -75 -80.5t-54 -27.5q-12 0 0 33l33 55q4 10 8 18.5t8 18.5q35 78 63.5 162t44.5 159 q8 39 18.5 104.5t20 138.5t15.5 143.5t6 121.5q0 176 -12 275q-4 45 -7.5 70.5t-7.5 43.5q-4 16 -4 23h-14q-29 7 -57 7l-29 -2q-43 -5 -86 -13q-2 0 -3 -1t-3 -1z" />
<glyph unicode="K" horiz-adv-x="1091" d="M119 39v1317q0 49 88 49q78 0 78 -41v-1321q0 -53 -92 -53q-74 0 -74 49zM403 737q0 61 30 135t83 156q121 176 213 276.5t141 100.5q47 0 82 -74q27 -57 27 -129q0 -23 -5 -48.5t-13 -53.5q-4 -16 -8.5 -29.5t-8.5 -23.5q-4 -12 -8 -23l-88 111q-35 41 -66.5 64.5 t-50.5 23.5q-53 0 -129 -136q-80 -133 -80 -172q0 -70 50.5 -173t142.5 -230q39 -49 116.5 -144.5t188.5 -220.5h-6q-2 -25 -13.5 -51t-27.5 -53q-43 -61 -70 -61q-6 0 -59 62t-129 155q-70 86 -122 159.5t-81 114.5q-51 78 -80 144.5t-29 119.5z" />
<glyph unicode="L" horiz-adv-x="942" d="M129 43v1311q0 49 80 49q86 0 86 -45v-1176q0 -61 51 -90h2q33 -16 113 -16h43q57 0 111.5 28.5t84.5 75.5l11 15q25 41 51 116q12 35 26.5 70t18.5 35q47 0 47 -256q0 -41 -1 -51.5t-3 -16.5l-6 -12q-12 -37 -32.5 -58.5t-49.5 -21.5h-600q-33 0 -33 43z" />
<glyph unicode="M" horiz-adv-x="1468" d="M145 27v1327q0 37 21 37h176q6 0 12 -16.5t13 -45.5l133 -624q49 -221 117.5 -342t152.5 -121q156 0 279 585l104 502q6 29 13.5 45.5t17.5 16.5h164q14 0 14 -37v-1327q0 -43 -68 -43q-98 0 -98 43l10 1144h-28q-43 -260 -81 -449.5t-73 -320.5t-67.5 -213t-66.5 -127 t-69 -60t-73 -15q-59 0 -112.5 79.5t-100.5 227.5q-16 53 -50 163.5t-63 266.5l-82 446h-39q0 -143 1 -285.5t3 -285.5l6 -571q0 -43 -75 -43q-90 0 -91 43z" />
<glyph unicode="N" horiz-adv-x="1210" d="M143 33v1325q0 43 82 43q84 0 84 -43l2 -197h2q74 -94 148 -187t149 -186q74 -94 149 -186t148 -184h33v942q0 41 78 41q88 0 88 -49v-1321q0 -49 -74 -49q-92 0 -92 53l-2 248h-2l-594 747h-33v-997q0 -51 -73 -51q-92 0 -93 51z" />
<glyph unicode="O" horiz-adv-x="1032" d="M117 711q0 123 54 252t153 251q74 90 138 141.5t105 51.5q27 0 115 -78q272 -246 272 -584q0 -406 -319 -688q-83 -71 -116 -71h-1q-39 0 -127 86q-274 274 -274 639zM233 874q0 -377 267 -606q77 -69 135 -69h2q115 0 164 137q37 98 37 217q0 381 -242 586 q-72 61 -129 61q-104 0 -172 -123q-61 -109 -62 -203z" />
<glyph unicode="P" horiz-adv-x="972" d="M129 33v1298q0 59 113 60q135 0 237.5 -2.5t175.5 -24.5q115 -39 171.5 -121.5t56.5 -193.5q0 -238 -178 -369q-168 -127 -392 -127h-18v-520q0 -43 -96 -43q-70 0 -70 43zM295 680q0 -70 57 -70q186 0 281 127q90 117 90 291q0 119 -74 211q-74 98 -207 98 q-147 0 -147 -61v-596z" />
<glyph unicode="Q" horiz-adv-x="1032" d="M53 711q0 123 52.5 251t154.5 252q72 90 137.5 141.5t106.5 51.5q27 0 114 -78q272 -246 273 -584q0 -176 -62.5 -330.5t-177.5 -279.5l60 -67l32 -45q29 -37 65 -61.5t71 -24.5q47 0 108 47l37 -23q-57 -61 -100 -90t-84 -29q-35 0 -94.5 23.5t-124.5 95.5l-70 76h-25 l-26 -23q-14 -12 -25.5 -20t-19.5 -8q-39 0 -127 86q-274 268 -275 639zM170 874q0 -377 266 -606q77 -69 135 -69h2q45 0 82 27.5t63.5 74.5t41 112.5t14.5 139.5q0 381 -242 586q-72 61 -129 61q-45 0 -87 -31.5t-74.5 -80t-52 -105.5t-19.5 -109z" />
<glyph unicode="R" horiz-adv-x="1015" d="M137 57v1280q0 53 43 54h518q180 0 181 -127q0 -53 -28 -112.5t-85 -121t-143 -122t-205 -113.5q150 -74 247 -182.5t153 -221t79 -215t23 -162.5q0 -20 -6.5 -25t-18.5 -5q-10 0 -24.5 2t-32.5 2h-37q-18 2 -35.5 4t-28.5 6l-4 152q-10 59 -29.5 126.5t-50 136 t-72.5 133t-98 120.5q-39 35 -69.5 54t-51.5 19q-59 0 -59 -32v-684q-4 -23 -26.5 -29t-55.5 -6h-31q-53 0 -53 69zM303 842h19q70 0 140 44t127.5 108.5t93.5 138.5t36 133q0 35 -74 52t-192 17h-91q-59 0 -59 -55v-438z" />
<glyph unicode="S" horiz-adv-x="1122" d="M123 -25q0 109 78 181q41 35 76.5 44t76.5 9q0 -2 26 -13.5t58 -25.5q27 -14 58.5 -28.5t59.5 -27t50.5 -20.5t34.5 -8q63 0 106.5 23.5t65.5 56.5h2q41 63 41 188q0 86 -21.5 148.5t-60.5 97.5q-27 23 -89 39t-148 31l-56 8l-51 8q-33 6 -57.5 16.5t-44.5 20.5 q-127 80 -127 309q0 373 374 373q416 0 416 -367q0 -67 -63 -67h-2q-57 0 -77 23.5t-36 72.5q-6 45 -12 88t-15 88q-10 20 -33.5 37.5t-54 30t-66.5 19.5t-73 7q-49 0 -87 -25.5t-60 -72.5q-16 -41 -25.5 -89t-9.5 -99q0 -63 11 -117.5t33.5 -94.5t56.5 -62.5t81 -22.5 q190 0 322 -82q39 -25 68.5 -50.5t50 -56t30.5 -70.5t10 -94q0 -203 -76.5 -311t-232.5 -108q-86 0 -150.5 19t-111.5 36q-29 10 -51.5 17t-44.5 7q-37 0 -59.5 -21.5t-43.5 -47.5q-20 -27 -38.5 -48.5t-32.5 -21.5q-76 0 -76 53z" />
<glyph unicode="T" horiz-adv-x="1202" d="M86 1169q0 184 27 205q23 16 59 17h934q49 0 49 -193q0 -237 -49 -237q-10 0 -37 94q-16 59 -32.5 103t-32.5 73q-59 94 -189 94q-106 0 -106 -106v-1194q0 -43 -93 -43q-74 0 -73 47v1194q0 102 -125 102q-80 0 -133.5 -36t-77.5 -91l-41 -129q-10 -27 -16.5 -45 t-10.5 -31q-6 -14 -8 -26q-14 0 -33 84q-12 57 -12 118z" />
<glyph unicode="U" horiz-adv-x="1243" d="M193 346v1020q0 33 88 33q43 0 56 -8.5t13 -24.5l4 -1012q0 -135 69 -217t222 -82q102 0 156.5 21.5t79 65.5t28.5 108.5t4 150.5v977q0 18 91 19q45 0 66.5 -2t21.5 -19v-919q0 -131 -15.5 -223.5t-62.5 -150.5t-133 -86t-230 -28h-63q-80 0 -151.5 8.5t-126 45 t-86 112.5t-31.5 211z" />
<glyph unicode="V" horiz-adv-x="1083" d="M94 1331q0 70 96 70q43 0 60 -8q10 -4 15 -19.5t9 -38.5q27 -137 55.5 -280.5t57.5 -286.5l113 -567h37q45 274 91 501.5t93 425.5q68 279 180 279q18 0 43 -38t45 -93q18 -51 29.5 -99t11.5 -83q0 -12 -4 -37t-12 -51.5t-18.5 -46t-22.5 -19.5q-33 0 -49.5 41t-26.5 84 q-8 31 -20.5 53.5t-40.5 22.5q-16 0 -34 -22.5t-35 -59.5t-33.5 -86t-28.5 -101q-20 -92 -40 -193t-38.5 -199.5t-33.5 -188.5t-24 -164q-8 -61 -12 -95t-8 -34h-109q-78 0 -92 76l-252 1235v10q0 2 -1 4t-1 8z" />
<glyph unicode="W" horiz-adv-x="1708" d="M121 956q0 219 28.5 331t88.5 112q116 0 116 -57q0 -6 -6 -46q-4 -26 -12 -55l-23 -76q-10 -29 -14 -78t-4 -122q0 -74 8 -158t24.5 -166t38 -157.5t48 -133t57.5 -92.5t66 -35q14 0 30.5 29t37 75t46 105.5t60.5 120.5q78 147 106.5 244.5t28.5 126.5v8q0 16 2 38.5 t1 51.5t-8 63.5t-28 75.5q-16 35 -22.5 67t-6.5 58q0 27 -3 47.5t0 34.5t16.5 22.5t44.5 8.5q57 0 92 -32t61.5 -104.5t48 -192.5t50.5 -296l45 -268q6 -39 20.5 -77t30.5 -67.5t33.5 -48t27.5 -18.5q23 0 50.5 35t55 88t52.5 118.5t44.5 128t30.5 113.5t11 76 q0 119 -38 243t-77 253q0 2 -1 3t-1 5q0 41 72 41q47 0 80 -12.5t54.5 -51.5t31.5 -109.5t10 -189.5q0 -111 -29.5 -237.5t-87.5 -257.5q-12 -29 -37.5 -82t-57.5 -115.5t-67.5 -127t-71.5 -116.5q-37 -52 -69 -84q-31 -30 -52 -30h-3q-10 0 -34.5 52t-56.5 150.5t-70 239.5 t-72 322q-27 -14 -58 -76t-64.5 -147t-70.5 -180t-74 -175t-73.5 -133t-73.5 -53q-25 0 -121 137q-262 377 -262 833z" />
<glyph unicode="X" horiz-adv-x="1050" d="M98 68q0 33 21.5 100.5t62.5 161.5t99.5 211.5t130.5 251.5q-66 115 -121 213t-95 172.5t-61.5 119.5t-21.5 56q0 43 75 43q47 0 69 -31t34 -53l184 -344h33q25 47 50.5 92t47 84t37.5 66.5t23 37.5q53 76 98 117t80 41q57 0 100 -64q35 -53 35 -135q0 -68 -23 -129 q-14 -37 -29.5 -60.5t-29.5 -23.5l-74 105q-74 106 -102 106q-12 0 -34.5 -27.5t-51.5 -71.5t-59.5 -99.5t-59.5 -110.5l463 -827q14 -29 14 -64q0 -14 -6 -16t-29 -2h-30q-74 0 -103 51l-366 668h-33q-80 -180 -119 -348.5t-39 -309.5q0 -61 -100 -61q-39 0 -55 14 q-14 12 -15 66z" />
<glyph unicode="Y" horiz-adv-x="1048" d="M102 1339q-4 10 4.5 22.5t21.5 24t28.5 19.5t25.5 8q35 0 56 -33l59 -145q35 -86 72 -165t70.5 -144.5t64.5 -114.5t55 -76h27q12 16 27.5 57.5t33 93.5t33.5 109.5t30.5 108.5t23.5 89t14 50q18 72 57 119t72 47q41 0 75.5 -29t34.5 -84q0 -29 -4 -69.5t-12 -79.5 t-17.5 -66.5t-19.5 -27.5q-4 0 -16.5 19.5t-28 42t-26.5 43t-11 22.5h-18q-33 0 -40.5 -28t-15.5 -56q-16 -49 -47 -151.5t-70.5 -228.5t-82.5 -259t-85 -243t-78 -179.5t-59 -69.5h-26.5t-44 4t-41 17.5t-17.5 42.5q0 10 9.5 22t22.5 25.5t28.5 26t25.5 22.5q43 43 76 99.5 t56.5 109.5t36 98t12.5 68q0 27 -36 79t-92.5 147t-126 243.5t-137.5 369.5z" />
<glyph unicode="Z" horiz-adv-x="1056" d="M115 1192q0 100 22 141q33 57 117 58h635q59 0 59 -45q0 -23 -3 -43.5t-11 -36.5q-10 -23 -95 -175.5t-245 -439.5q-66 -121 -109 -216t-67.5 -164.5t-34.5 -111.5t-10 -55q0 -30 69 -30h4h408q41 0 90 -39q37 -37 37 -96q0 -143 -141 -238q-129 -80 -271 -80 q-53 0 -53 33t66 47q55 10 93 21.5t54 21.5h2q84 49 84 137q0 131 -205 131h-41t-39 -4q-4 0 -8 -1t-8 -1l-61 -6q-70 -8 -125.5 -11t-87.5 -3q-115 0 -115 53q0 12 7 30.5t18 41.5l548 1108q27 45 27 84q0 34 -129 34h-8q-207 0 -293 -108q-4 -4 -23.5 -38t-52.5 -97 q-61 -115 -63 -115q-41 0 -41 213z" />
<glyph unicode="[" horiz-adv-x="595" d="M119 -168q0 18 1 54t3 77v12q0 18 1 39t3 37q2 18 2 40v32q0 16 -1 46t-3 62q-2 31 -2 57.5v41.5v57q0 25 1 54.5t1 58.5v125v35.5t-2 50.5q0 16 -1 29.5t-1 25.5v25v24t2 37q2 20 3 38.5t1 29.5v18q0 8 -1 17.5t-1 19.5q-2 16 -2 37.5v27.5v320v12t2 19h389l2 -41 q-37 0 -58.5 1t-37.5 1h-31q-104 0 -123 -23h-2q-2 -12 -4 -51t-4 -96.5t-3 -129t-1 -149.5v-46t2 -64q0 -20 1 -40t1 -36v-148q0 -16 -1 -34.5t-1 -38.5v-126.5t2 -117.5v-113q0 -31 1 -61.5t1 -65.5v-31.5t-2 -41.5q0 -10 -1 -22.5t-1 -22.5v-23q0 -66 2 -102.5t9 -54 t22.5 -22.5t40.5 -9q2 -2 8 -2h26h49t72 -3h17q4 0 7 -1t7 -1v-43h-391q-2 49 -2 87v63q0 29 -2 49z" />
<glyph unicode="\" horiz-adv-x="847" d="M-33 1298q-10 16 1.5 35t76.5 47q18 8 45 15.5t37 5.5q6 -2 23.5 -9.5t27.5 -27.5q188 -338 387 -688t387 -688q8 -16 -1 -28.5t-25.5 -20t-33 -6t-24.5 13.5q-6 12 -38.5 70.5t-82 146.5t-111 197.5t-123.5 221t-122.5 217t-106.5 188.5t-75 133l-29 50l-2 7 q-12 20 -23.5 36.5t-27.5 29.5t-43 22.5t-68 13.5q-41 6 -49 18z" />
<glyph unicode="]" horiz-adv-x="595" d="M115 1346v43h10q23 2 51.5 3t56.5 1h46q86 0 154.5 -1t76.5 -3v-78q0 -29 1 -59.5t1 -57.5v-76q0 -10 -1 -28.5t-3 -40.5v-11q-2 -23 -3 -44t-1 -31q0 -16 1 -47t3 -68v-12q2 -39 3 -82t1 -62v-598q0 -25 1 -76t3 -106v-12q2 -51 3 -94.5t1 -65.5v-72q0 -10 -1 -18 t-1 -19l-397 -2v43h110q96 0 138 19h4q2 8 4 48t4 100.5t3 136t1 155.5v46t-2 65q-2 29 -3 63.5t-1 65.5q0 33 -1 68.5t-2 68.5t-1 59.5v42.5v23.5t2 32.5q0 6 1 16t1 16v17q0 23 -1 69.5t-3 100.5q-2 51 -3 97t-1 69v29.5t2 41.5q2 23 3 46.5t1 35.5q0 82 -12 123h-13 q-49 18 -225 19h-12z" />
<glyph unicode="^" horiz-adv-x="999" d="M76 643l393 748h102l379 -748q-37 -16 -59 -16q-12 0 -25.5 5t-27.5 11l-301 606h-33l-158 -303l-158 -305q-27 -16 -51 -16q-12 0 -28.5 5t-32.5 13z" />
<glyph unicode="_" horiz-adv-x="1030" d="M2 -97.5q0 15.5 8 29t25 13.5h788q27 0 50.5 1t45 8t41 23.5t41.5 47.5q33 45 41 45q2 0 5.5 -3.5t4.5 -13.5t0 -33.5t-5 -62.5q-4 -23 -7.5 -46.5t-7.5 -27.5q-18 -23 -53 -22h-944q-16 0 -24.5 13t-8.5 28.5z" />
<glyph unicode="`" horiz-adv-x="516" d="M109 1393q47 10 92 11t96 -11l125 -340h-33z" />
<glyph unicode="a" horiz-adv-x="944" d="M98 131q0 49 31 129t77 165t101 161t103 119q-23 35 -41.5 72.5t-30.5 71.5t-18.5 57.5t-6.5 29.5q0 20 93 20q84 0 96 -22l411 -836q17 -28 17 -63q0 -41 -78 -41q-55 0 -66 14l-129 213h-30q-35 -47 -89.5 -89t-116 -75.5t-121.5 -53t-105 -19.5q-37 0 -67 45t-30 102z M236 262q0 -104 120 -104q78 0 154 29.5t123 84.5h2l-193 383h-28q-25 -25 -56.5 -77t-58.5 -111t-45 -115.5t-18 -89.5z" />
<glyph unicode="b" horiz-adv-x="890" d="M160 70v1214q0 27 24.5 39t59.5 12q33 0 54 -12t21 -37v-401h13q156 -49 253 -98.5t152.5 -117t76 -162.5t20.5 -239q0 -51 -18.5 -99t-53.5 -86t-84 -60.5t-111 -22.5h-323q-37 0 -60.5 15.5t-23.5 54.5zM319 113q0 -29 18.5 -41.5t76.5 -12.5h82q45 0 78.5 33t54 82 t31 106.5t10.5 106.5q0 129 -30 199.5t-77 108.5t-103.5 56.5t-111.5 45.5h-29v-684z" />
<glyph unicode="c" horiz-adv-x="671" d="M137 477q0 76 34 161t82 155.5t99 117.5t86 47q20 0 47 -21.5t50.5 -55t39 -76.5t15.5 -86q0 -12 -7.5 -30.5t-17.5 -37.5l-22 -45l-74 109q-29 39 -66.5 57.5t-60.5 18.5q-47 0 -71.5 -68t-24.5 -195q0 -41 17.5 -100t46 -114.5t66.5 -94.5t81 -39q16 0 45 23l16 12 q18 12 40.5 26.5t57.5 30.5q4 0 5 -2q0 -10 -16.5 -63t-78.5 -119q-51 -53 -95 -78.5t-52 -25.5q-33 0 -107 86q-135 160 -135 407z" />
<glyph unicode="d" horiz-adv-x="923" d="M135 266q0 141 24.5 232.5t82 157t154 118.5t241.5 119h12v393q0 25 21.5 37t54.5 12q35 0 59.5 -12t24.5 -39v-1214q0 -39 -23.5 -54.5t-60.5 -15.5h-324q-61 0 -110 22.5t-84 59.5t-53.5 85t-18.5 99zM299 385q0 -49 10 -105.5t30.5 -105.5t53.5 -82t80 -33h82 q57 0 75.5 12.5t18.5 41.5v692h-26q-12 -8 -31 -15.5t-35 -13.5q-41 -14 -87 -36.5t-84 -64.5t-62.5 -111.5t-24.5 -178.5z" />
<glyph unicode="e" horiz-adv-x="704" d="M121 500q0 68 31.5 144.5t87.5 150.5q61 78 122.5 120.5t118.5 42.5q25 0 76 -67q23 -29 35 -56.5t12 -52.5q0 -49 -33 -92q-20 -25 -27 -34t-9 -9l-13 19q-41 63 -47 69q-27 35 -61.5 50.5t-57.5 15.5q-29 0 -50 -19.5t-34 -52.5q-6 -27 -10 -52.5t-4 -53.5 q0 -78 14.5 -119t42.5 -41q41 0 146 49q100 47 137 47q4 -4 8 -10q6 -14 21 -33q12 -20 19 -33.5t7 -25.5q0 -41 -30 -68q-29 -23 -38.5 -21.5t-17.5 15.5q-2 2 -6 7t-20 22q-43 49 -72 49q-23 0 -54.5 -10.5t-52.5 -24.5q-53 -35 -53 -66q0 -27 10.5 -57.5t32.5 -69.5 q42 -81 109 -81h2q41 0 91 24.5t85 50.5l8 -12q-23 -41 -64.5 -86t-74.5 -74q-39 -33 -76 -52t-63 -19q-78 0 -170 213q-78 186 -78 303z" />
<glyph unicode="f" horiz-adv-x="675" d="M53 883q0 31 8 47h156v160q6 104 35 167.5t71 98.5t93 46t100 11q51 0 92 -8t71 -30.5t45 -63.5t15 -109q0 -12 -3 -35.5t-8 -47t-11 -41t-12 -17.5q-20 49 -39 90q-16 35 -32 65.5t-22 38.5q-18 41 -37.5 61.5t-38 30t-35 9.5t-28.5 -2q-2 0 -4 -1t-8 -1 q-14 0 -29.5 -6.5t-29 -28t-23.5 -60t-14 -102.5v-225h180q4 -10 8 -21.5t4 -27.5q0 -27 -12 -47h-180v-412q0 -104 1 -205.5t1 -204.5q0 -29 -62 -32h-20q-68 0 -68 38v816h-156q-8 16 -8 49z" />
<glyph unicode="g" horiz-adv-x="811" d="M131 449q0 49 25.5 121.5t70.5 166.5q27 51 56.5 91t58.5 68t53.5 43t42.5 15t59.5 -17t82.5 -58q37 -39 62.5 -72t42.5 -74t24.5 -98t7.5 -143v-100.5t2 -92.5q0 -23 1 -42t1 -40v-78q0 -59 -2 -123.5t-10 -128.5v-8q0 -18 -5.5 -65t-23.5 -95.5t-53 -86.5t-97 -38 q-23 0 -36 7.5t-23 17.5t-26.5 17.5t-59.5 7.5q-33 0 -45 -10.5t-23 -26.5q-12 -16 -27.5 -30.5t-43.5 -14.5q-53 0 -68.5 23.5t-15.5 90.5q0 49 25.5 64.5t76.5 15.5q41 0 81 -16t71 -33h2q2 0 2 -1t2 -1q16 -10 34.5 -17t35.5 -7q43 0 67.5 14t34.5 36.5t13 50.5t3 56 v23.5t2 21.5q1 35 1 66t-1 57q-2 29 -3 56.5t3 56.5h-32q-18 -23 -44 -46.5t-53.5 -42t-53.5 -30.5t-42 -12q-35 0 -79 40t-83 104.5t-66.5 147t-27.5 169.5zM231 532q0 -66 20.5 -137t54.5 -130.5t75 -99.5t84 -40q53 0 85 22.5t32 71.5v10q0 2 -1 4.5t-1 8.5v18 q0 248 -55.5 377t-186.5 129q-41 0 -74 -59.5t-33 -174.5z" />
<glyph unicode="h" horiz-adv-x="987" d="M162 1296.5v22.5q0 55 71 55q84 0 84 -61v-20.5t-2 -28.5v-506q47 55 86 92t75 60.5t71 32.5t76 9q47 0 90 -16t74.5 -45t51 -67t19.5 -81v-714q0 -20 -26.5 -32.5t-57.5 -12.5q-23 0 -41 10t-18 33v641q0 94 -39 145t-117 51q-41 0 -75.5 -17.5t-65.5 -42t-55.5 -54 t-45.5 -54.5h-2v-676q0 -38 -71 -38h-4q-74 0 -74 38l-2 1248q-2 12 -2 28.5z" />
<glyph unicode="i" horiz-adv-x="514" d="M203 1159v139q0 66 65 66q74 0 74 -72v-135q0 -70 -74 -70q-66 0 -65 72zM211 20v889q0 35 45 35h45q49 0 49 -35v-889q0 -34 -46 -34h-3h-59q-31 0 -31 34z" />
<glyph unicode="j" horiz-adv-x="444" d="M18 -461q0 16 9.5 39t23.5 51l6 17q70 141 98.5 316t28.5 417q0 78 -2 155.5t-8 143.5q0 12 -3 36.5t-6 53.5t-6 56.5t-3 45.5q0 29 10 45.5t27.5 25.5t38 11t40.5 2q12 0 24.5 -44t21 -111.5t13.5 -148t5 -154.5q-2 -260 -54.5 -478.5t-154.5 -388.5q-35 -57 -60.5 -89 t-39.5 -32q-8 0 -9 31zM143 1149v139q0 66 66 66q72 0 72 -74v-133q0 -70 -72 -70q-66 0 -66 72z" />
<glyph unicode="k" horiz-adv-x="1034" d="M158 18v1338q0 41 73 41q74 0 74 -39v-1342q0 -36 -76 -36h-4q-68 0 -67 38zM379 467q0 35 49 104.5t141 169.5q94 102 158 156.5t88 54.5q31 0 53.5 -15t37 -40t20.5 -53.5t6 -55.5q0 -16 -5 -41.5t-11.5 -49t-13.5 -41t-11 -17.5q0 4 -17 16q-74 102 -163 103 q-33 0 -66 -23.5t-59.5 -55.5t-43 -63.5t-16.5 -48.5q0 -23 19.5 -62.5t51.5 -85.5t71 -94.5t78.5 -87t76.5 -63t64 -24.5q35 0 98 40q6 1 6 -34q0 -25 -29.5 -57.5t-67.5 -63.5t-73 -51.5t-45 -20.5q-41 0 -219 213q-88 104 -133 181t-45 110z" />
<glyph unicode="l" horiz-adv-x="475" d="M184 18v1338q0 41 74 41t74 -39v-1342q0 -36 -76 -36h-4q-68 0 -68 38z" />
<glyph unicode="m" horiz-adv-x="1468" d="M178 31v897h39q29 0 92.5 1t182.5 1h495q76 0 129 -10.5t89 -32t58.5 -55t39.5 -78.5q8 -23 13 -67t8 -88t4 -81t1 -45l-2 -457q0 -12 -14.5 -14t-42.5 -2h-31q-43 0 -56.5 4t-13.5 14v514q0 61 -6 121t-25.5 108t-56.5 76.5t-98 28.5q-29 0 -52.5 -1t-39.5 -1h-37h-18 q0 -197 -2.5 -392.5t-2.5 -389.5v-66q0 -16 -23.5 -17t-45.5 -1q-35 0 -61.5 3t-26.5 17v514q0 61 -6 121t-25.5 108t-56.5 76.5t-99 28.5q-29 0 -52 -1t-40 -1h-37h-18q0 -211 -2 -418.5t-2 -414.5q0 -16 -13.5 -24.5t-56.5 -8.5q-88 0 -88 33z" />
<glyph unicode="n" horiz-adv-x="985" d="M164 31v897h53q35 0 105.5 1t195.5 1q76 0 129 -10.5t89 -32t58.5 -55t39.5 -78.5q8 -23 13 -67t8 -88t4 -81t1 -45l-2 -457q0 -12 -14.5 -14t-42.5 -2h-31q-43 0 -56.5 4t-13.5 14v514q0 61 -6 121t-25.5 108t-56.5 76.5t-98 28.5q-29 0 -58.5 -1t-54.5 -1h-57h-18 q0 -211 -2 -418.5t-2 -414.5q0 -16 -13.5 -24.5t-56.5 -8.5q-88 0 -88 33z" />
<glyph unicode="o" horiz-adv-x="714" d="M104 449q0 49 26 123.5t71 168.5q51 102 95 156.5t77 54.5q37 0 119 -82q157 -157 157 -372q0 -127 -88 -308q-103 -202 -200 -202h-1q-43 0 -141 116q-115 139 -115 345zM205 537q0 -193 133 -310q49 -43 88 -43q113 0 113 166q0 205 -97 326q-70 88 -151 88 q-86 0 -86 -227z" />
<glyph unicode="p" horiz-adv-x="917" d="M160 -354v1214q0 39 23.5 54.5t60.5 15.5h323q61 0 110.5 -22.5t84.5 -60.5t53.5 -86t18.5 -99q0 -143 -20.5 -246t-76 -177.5t-153 -130t-252.5 -104.5h-13v-360q0 -25 -21.5 -37.5t-53.5 -12.5q-35 0 -59.5 12.5t-24.5 39.5zM319 92h29q14 10 27.5 15.5t25.5 11.5 q41 18 88.5 44.5t87 74t66.5 121t27 184.5q0 49 -10.5 106.5t-31 106.5t-54 81.5t-78.5 32.5h-82q-57 0 -76 -12t-19 -41v-725z" />
<glyph unicode="q" horiz-adv-x="907" d="M119 662q0 51 18.5 99t53 86t84 60.5t110.5 22.5h324q37 0 60.5 -15.5t23.5 -54.5v-1214q0 -27 -25 -39.5t-59 -12.5q-33 0 -54.5 12.5t-21.5 37.5v360h-12q-156 49 -253.5 104.5t-152.5 130t-75.5 177t-20.5 246.5zM283 543q0 -109 26.5 -181.5t66.5 -120.5t88 -77 t91 -47q10 -4 23.5 -10.5t25.5 -14.5h29v725q0 29 -18.5 41t-75.5 12h-82q-47 0 -80 -32.5t-53.5 -81.5t-30.5 -106.5t-10 -106.5z" />
<glyph unicode="r" horiz-adv-x="645" d="M96 897q2 10 2 20.5t9.5 17.5t35 12t80.5 5h17h16q18 0 24.5 -6t6.5 -33q0 -23 -3 -61.5t-3 -101.5v-134l104 175q47 78 90 119.5t84 41.5q47 0 60.5 -43t13.5 -129q0 -4 -5 -20.5t-12.5 -33.5t-17.5 -31.5t-20 -14.5l-8 10q-7 10 -15 23.5t-16.5 27t-12.5 21.5 q-4 23 -20.5 27t-38.5 4q-12 0 -28.5 -8.5t-38 -34t-50 -72.5t-69.5 -125v-541q0 -29 -62 -32h-18q-51 0 -66 10l-2 26q-2 27 -2 63v58q0 78 2 157t2 157q0 109 -8 217t-31 229z" />
<glyph unicode="s" horiz-adv-x="931" d="M123 88q0 137 106 137q16 2 57.5 -9t104.5 -54q66 -45 101.5 -66.5t62.5 -21.5t47.5 16t33.5 42t20.5 59.5t7.5 70.5q0 92 -19.5 136t-79.5 44h-10t-16 -2l-50 -4q-23 -2 -45 -5t-32 -1q-135 0 -193.5 63.5t-58.5 186.5q0 57 24.5 107.5t67.5 87t99.5 58t119.5 21.5 q68 0 127 -18t103 -54t70 -88t26 -120q0 -23 -44 -32t-112 -9q2 12 2 24.5v24.5q0 213 -178 213q-78 0 -118 -59.5t-40 -145.5q0 -76 33 -135t94 -59q14 0 43 4t60.5 8t61.5 8t46 4q82 0 135.5 -65.5t53.5 -175.5q0 -147 -75 -220t-206 -73q-10 0 -26.5 8t-39.5 22 q-8 6 -19 18.5t-27.5 25t-39 20.5t-55.5 8t-48 -16.5t-25.5 -35t-23.5 -34.5t-42 -16q-53 0 -68.5 21.5t-15.5 80.5z" />
<glyph unicode="t" horiz-adv-x="681" d="M100 930h162v176l23 31q35 41 70.5 80.5t56.5 42.5v-330h233q14 -26 14.5 -50t-14.5 -46h-233v-814q0 -38 -72 -38h-4q-74 0 -74 38v814h-160q-13 28 -13 52q0 23 11 44z" />
<glyph unicode="u" horiz-adv-x="985" d="M135 455l2 479q0 12 14.5 14t43.5 2h30q43 0 56.5 -4t13.5 -14v-537q0 -61 6 -120.5t25.5 -107.5t56.5 -77t98 -29h33q61 0 98 29t56.5 77t25.5 107.5t6 120.5v537q0 10 13.5 14t56.5 4h31q29 0 43 -2t14 -14l2 -479q0 -10 -1 -46t-4 -81t-8 -88t-13 -66 q-16 -43 -38 -75.5t-53.5 -54t-79 -33t-114.5 -11.5h-72q-78 0 -130 10t-88 30.5t-58.5 53.5t-38.5 80q-8 23 -13.5 66t-8.5 88t-4 80.5t-1 46.5z" />
<glyph unicode="v" horiz-adv-x="892" d="M88 907q0 47 98 47q41 0 56 -45l90 -387q23 -98 46 -195.5t46 -191.5h37q33 168 59.5 288t44.5 185q51 172 104.5 261t106.5 89q31 0 76 -81q16 -33 26.5 -65.5t10.5 -61.5q0 -20 -6 -44t-17 -47q-29 -61 -43 -61q-2 8 -10 18q-6 10 -15.5 23.5t-19.5 32.5q-45 76 -73 76 q-29 0 -62 -75t-74 -220q-35 -129 -55 -219.5t-29 -147.5q-2 -14 -3 -21.5t-2 -15.5t-3 -19.5t-8 -31.5l-135 2q-16 0 -39 49q-12 29 -41 135.5t-76 288.5q-43 180 -66.5 292t-23.5 142z" />
<glyph unicode="w" horiz-adv-x="1349" d="M98 846q0 76 21.5 94t68.5 18q41 0 58 -120l26 -232q2 -33 10.5 -77t26 -94t43 -104.5t64.5 -107.5h26q18 18 41 65.5t48.5 114t52 147.5t51.5 171q-35 76 -55.5 131t-20.5 72q0 16 27.5 25t64.5 9q31 0 54.5 -20t52.5 -61q6 -10 13 -33t16.5 -50.5t19.5 -59.5t27 -62 l34 -111q33 -94 56.5 -159.5t42 -105.5t33 -57.5t30.5 -17.5q31 0 54.5 30t40 73t24.5 93t8 91v61q0 10 1 18.5t1 18.5v35q0 41 -4 76t-14 63q-55 147 -56 150q0 28 73 28h5q31 0 55.5 -10t40 -36.5t23.5 -72.5t8 -116v-59q0 -109 -40 -229t-99 -220t-126 -165.5t-120 -65.5 q-10 0 -61 149l-60 176q-27 76 -50 149.5t-50 149.5h-37q-31 -72 -51.5 -126t-35.5 -100t-27.5 -87t-24.5 -86l-41 -135q-29 -90 -59 -90q-14 0 -44 33.5t-65 91.5q-98 158 -149.5 351t-51.5 386z" />
<glyph unicode="x" horiz-adv-x="983" d="M59 -510q0 27 27 104.5t73 191.5t110.5 255t142.5 299l-332 586q14 30 93 30h5q86 0 101 -20l208 -379h33l135 240q89 161 173 161h1q94 0 95 -172q0 -27 -3 -42t-10 -31l-10 -29q-8 -20 -20.5 -39.5t-32.5 -19.5q-2 0 -8 2t-15.5 9t-18.5 21.5t-18 40.5 q-16 47 -37.5 56.5t-35.5 9.5q-29 0 -76 -62.5t-117 -201.5q440 -776 441 -799q0 -25 -43 -25q-59 0 -100.5 16.5t-59.5 45.5l-309 536h-33q-47 -96 -79 -182t-60 -176l-84 -250q-76 -223 -105 -223q-31 0 -31 47z" />
<glyph unicode="y" horiz-adv-x="980" d="M117 850q0 23 12 45.5t31 38.5l8 6q18 16 25.5 20.5t19.5 4.5l8 -28t19.5 -71t23.5 -94t23 -98l10 -53q14 -84 32.5 -142.5t42 -103.5t53.5 -82t69 -76h30v82q0 102 25.5 217t70 212t104.5 161.5t128 64.5q12 0 29.5 -3t35 -12t31 -25.5t13.5 -45.5q0 -12 1 -22t1 -21 v-30q0 -49 -2.5 -75t-8.5 -37t-14 -13t-20 -2h-15q-14 0 -34.5 20.5t-37.5 42.5l-6 8q-16 23 -32.5 39.5t-42.5 16.5q-16 0 -43 -39t-52.5 -125t-46 -221.5t-24.5 -325.5l-6 -107q-8 -131 -17.5 -225t-22 -164.5t-31 -124t-44.5 -102.5l-19 -33q-23 -41 -56.5 -70.5 t-53.5 -29.5q-29 0 -37 25.5t-8 37.5q0 16 2 23v8q0 2 1 4t1 4q63 100 105 170t65.5 134.5t34 137t10.5 179.5l-2 61h-17q-18 2 -52 23.5t-87 99.5q-68 100 -112.5 203.5t-71.5 199t-38 176.5t-11 136z" />
<glyph unicode="z" horiz-adv-x="860" d="M84 805q0 125 61 125h621q14 0 14 -15v-8q0 -12 -1 -20t-4 -18.5t-12 -26t-24 -41.5l-100 -178q-31 -53 -45 -80t-22.5 -43.5t-14.5 -28.5t-18 -37l-19 -37l-37 -71q-8 -20 -14 -29q63 -10 107.5 -43t71 -80t37.5 -106.5t11 -124.5q0 -106 -57 -181t-138 -122.5t-168 -69 t-145 -21.5q-25 0 -40 7.5t-15 17.5q0 25 22.5 33t57.5 14q2 0 3 1t3 1h2q45 8 99.5 24.5t101.5 49.5t77.5 89t30.5 144v21q0 31 -2 73t-17 82.5t-50 74.5t-99 46q-27 6 -51 9.5t-24 1.5q0 23 6 44t29.5 66t67.5 123t120 213l35 61q12 25 19 38.5t10.5 21.5t4.5 15t1 18 q0 30 -93 30h-6q-201 0 -262 -131l-43 -110q-10 -23 -17 -39.5t-12 -26.5l-10 -20q-53 0 -53 264z" />
<glyph unicode="{" horiz-adv-x="856" d="M186 469v43q45 4 87 22.5t74 46t50.5 63.5t18.5 77q0 20 -6.5 59t-16.5 86q0 4 -1 6t-1 7q-10 47 -16 92t-6 67q0 74 26.5 139.5t72.5 117t108.5 84t132.5 40.5v-76q-57 -12 -99.5 -26t-71 -34.5t-43 -50.5t-14.5 -73q0 -25 7.5 -70t15.5 -94l8 -49q6 -35 10 -64.5 t4 -45.5q0 -53 -9 -105.5t-32.5 -97.5t-62.5 -81t-96 -58q59 -25 98 -62t61.5 -82t31.5 -97t9 -108q0 -16 -4 -45.5t-10 -64.5l-8 -49q-8 -49 -16.5 -94.5t-6.5 -69.5q0 -84 56.5 -122t171.5 -65v-75q-72 10 -133.5 42.5t-107.5 84t-72.5 117t-26.5 139.5q0 23 7 66.5t16 93 t16.5 93.5t7.5 64q0 39 -18.5 75t-49.5 63.5t-73 47t-89 23.5z" />
<glyph unicode="|" horiz-adv-x="575" d="M250 483q0 211 2 451t6 520h92q8 -199 11.5 -398.5t3.5 -404.5q0 -240 -4.5 -479.5t-10.5 -482.5h-92q-4 174 -6 368.5t-2 425.5z" />
<glyph unicode="}" horiz-adv-x="856" d="M186 -365q113 27 170.5 65t57.5 122q0 25 -7.5 70t-15.5 94l-8 49q-6 35 -10 64.5t-4 45.5q0 55 9 107.5t31.5 97.5t61.5 82t98 62q-59 23 -97 58.5t-61.5 80.5t-32.5 97t-9 106q0 16 4 45.5t10 64.5l8 49q8 49 15.5 94.5t7.5 69.5q0 43 -14.5 73t-43 50.5t-70.5 34.5 t-100 26v76q70 -8 132.5 -40.5t108.5 -84t72.5 -117t26.5 -139.5q0 -23 -7 -66.5t-16 -92t-16.5 -93.5t-7.5 -65q0 -41 18.5 -77t50.5 -63.5t73 -46t88 -22.5v-43q-47 -4 -89 -23.5t-73 -47t-49.5 -63.5t-18.5 -75q0 -20 7.5 -64t16.5 -93.5t16 -93.5t7 -66 q0 -74 -26.5 -139.5t-72.5 -117t-108.5 -84t-132.5 -42.5v75z" />
<glyph unicode="~" horiz-adv-x="1243" d="M143 432q147 123 297 123q68 0 197 -39q135 -41 209 -41q186 0 266 68l27 -33q-25 -33 -66 -62.5t-94 -52.5t-104.5 -36t-90.5 -13q-35 0 -95 11.5t-134 33.5q-74 23 -137.5 34t-106.5 11q-33 0 -80 -20q-8 -4 -19 -7t-5 -3l-17 -9q0 -2 -2 -1t-4 5q-4 4 -13 11.5 t-28 19.5z" />
<glyph unicode="&#xa6;" d="M526 274h52v-720h-52v720zM526 668v723h52v-723h-52z" />
<glyph unicode="&#xa8;" horiz-adv-x="741" d="M96 1237q0 47 27 80t63 33q41 0 70 -33t29 -78q0 -47 -27 -80t-65 -33q-41 0 -69 33t-28 78zM492 1237q0 47 26.5 80t67.5 33q37 0 63.5 -32t26.5 -77q0 -47 -26.5 -81t-63.5 -34q-41 0 -67.5 33t-26.5 78z" />
<glyph unicode="&#xab;" d="M141 459q10 10 45 44t95 87l135 123q49 49 151 139v-16q0 -27 -71.5 -126.5t-190.5 -244.5q57 -74 104.5 -137.5t82 -112.5t54 -80t19.5 -39q0 -18 -4 -22q0 4 -22.5 26.5t-63.5 59.5l-100 92q-94 86 -156.5 141.5t-77.5 65.5zM532 459q37 33 92.5 82t129.5 116 q98 92 152.5 146.5t47.5 54.5q4 1 4 -22q0 -10 -19 -43t-54 -82t-83 -111.5t-106 -134.5q57 -74 104.5 -137.5t82.5 -112.5t54 -80t19 -39q0 -18 -4 -22q0 4 -22.5 26.5t-63.5 59.5l-100 92q-94 86 -156.5 141.5t-77.5 65.5zM567 852q2 6 8 6z" />
<glyph unicode="&#xad;" horiz-adv-x="841" d="M82 506q0 20 3 37.5t11 17.5h596q33 2 48.5 -12t16.5 -33.5t-10.5 -39t-31.5 -27.5h-178h-441q-6 0 -10 17t-4 40z" />
<glyph unicode="&#xb4;" horiz-adv-x="516" d="M133 1051l125 340h191l-283 -340h-33z" />
<glyph unicode="&#xb6;" horiz-adv-x="968" d="M59 967q0 98 47 188q57 102 148 145q33 14 69.5 24.5t77.5 18.5q82 12 246 13h303v-39h6q-59 -6 -84 -27q-23 -20 -38 -60t-23 -93q-12 -98 -12 -275v-557q0 -244 -60 -368q-115 -236 -417 -236q-43 0 -81 9t-65 26h-2q-43 25 -47 90q0 43 20 63q29 23 54 23 q29 0 49 -25.5t24 -62.5q2 -8 1 -17.5t-5 -13.5h-2q-4 -10 -7 -18t-5 -11h14q61 -2 106.5 29t67.5 86q23 63 35 232q2 10 2 61v25q0 8 1 17t1 19v342h-18q-184 0 -297 113q-109 109 -109 279zM362 -248q0 -2 1.5 -3t1.5 -3h22q221 47 285 223q39 109 39 400v383q0 106 2 190 t6 148q6 88 21.5 146t41.5 81h-176q-31 0 -55 -45q-27 -47 -29 -58q-8 -23 -10 -59q-2 -6 -2 -47v-21q0 -6 -1 -12t-1 -14v-57q0 -8 -1 -15.5t-1 -15.5v-604q0 -311 -23 -437q-10 -59 -38.5 -102t-73.5 -72l-6 -6h-3z" />
<glyph unicode="&#xb7;" horiz-adv-x="606" d="M225 602q0 47 27.5 81t66.5 34q43 0 73 -35t30 -84q0 -47 -30 -81t-70 -34q-41 0 -69 35t-28 84z" />
<glyph unicode="&#xbb;" d="M147 74q2 2 3 22q0 8 19 39t53 80t81 112.5t105 137.5q-121 150 -191 248t-70 123q0 23 3 22l4 -4q2 -4 14 -16q4 -4 18.5 -19.5t20.5 -21.5q49 -43 118.5 -108.5t155.5 -145.5l27 -25l63 -59l-65 -53l-49 -44q-68 -59 -148 -133.5t-162 -154.5zM539 74q2 2 2 22 q0 23 70.5 121t187.5 248q-121 150 -190.5 248t-69.5 123v14q74 -66 177 -161t247 -230l-66 -53l-49 -44q-70 -59 -145.5 -130.5t-163.5 -157.5z" />
<glyph unicode="&#xdf;" horiz-adv-x="933" d="M86 883q0 31 8 47h53v160q6 104 35 167.5t71 98.5t93 46t100 11q51 0 92.5 -8t71 -30.5t45 -63.5t15.5 -109q0 -12 -3 -35.5t-8.5 -47t-11.5 -41t-12 -17.5q-20 49 -39 90q-16 35 -31.5 65.5t-21.5 38.5q-18 41 -38 61.5t-38 30t-34.5 9.5t-29.5 -2q-2 0 -4 -1t-8 -1 q-14 0 -29.5 -6.5t-29 -28t-23.5 -60t-14 -102.5v-225h539q14 0 14 -15h20q-6 -6 -22.5 -25.5t-39 -47t-48 -61t-49.5 -68.5q-61 -82 -134 -181h15q76 -4 126 -34.5t80.5 -78.5t44 -111.5t13.5 -133.5q0 -106 -57.5 -181t-138 -122t-168 -68.5t-144.5 -21.5q-25 0 -40 7 t-15 17q0 25 22.5 33t57.5 15q2 0 3 1t3 1h2q45 8 99 24.5t101.5 49t78 89t30.5 144.5v20q0 35 -3 84t-25.5 94.5t-73.5 77t-148 29.5l252 358h-395v-407q0 -102 1 -202.5t1 -203.5q0 -29 -61 -32h-21q-68 0 -68 38v816h-53q-8 16 -8 49z" />
<glyph unicode="&#x130;" horiz-adv-x="481" d="M178 33v1317q0 41 105 41q61 0 61 -43v-1315q0 -43 -61 -43q-104 0 -105 43zM193 1589v140q0 66 65 65q74 0 74 -72v-135q0 -70 -74 -69q-66 0 -65 71z" />
<glyph unicode="&#x131;" horiz-adv-x="514" d="M207 20v889q0 35 45 35h45q49 0 49 -35v-889q0 -35 -49 -34h-59q-31 0 -31 34z" />
<glyph unicode="&#x400;" horiz-adv-x="872" d="M109 688q0 195 153 445q172 272 336 272q39 0 111 -115q61 -102 61 -170q0 -66 -29 -94q-12 -12 -32.5 -29.5t-44.5 -31.5l-23 2q-6 88 -47 166q-49 100 -139 100q-53 0 -94.5 -38t-69.5 -110q-20 -53 -33.5 -114.5t-13.5 -108.5q0 -59 5 -116.5t15 -112.5h27 q365 207 407 207q18 0 39 -17.5t37 -46.5q12 -23 21.5 -53t9.5 -59q0 -59 -49 -93q-25 -16 -48.5 -24t-48.5 -8q-2 0 -53 82h-2q-55 82 -84 81q-39 0 -133 -53q-109 -61 -108 -82q0 -92 81 -225q88 -147 191 -147q63 0 127 47q14 10 34.5 27.5t49.5 45.5l6 7l8 -5 q-12 -59 -151 -194q-152 -145 -179 -146q-123 0 -239 293q-98 246 -98 418zM346 1825h176l60 -328l-37 2z" />
<glyph unicode="&#x401;" horiz-adv-x="872" d="M109 688q0 195 153 445q172 272 336 272q39 0 111 -115q61 -102 61 -170q0 -66 -29 -94q-12 -12 -32.5 -29.5t-44.5 -31.5l-23 2q-6 88 -47 166q-49 100 -139 100q-53 0 -94.5 -38t-69.5 -110q-20 -53 -33.5 -114.5t-13.5 -108.5q0 -59 5 -116.5t15 -112.5h27 q365 207 407 207q18 0 39 -17.5t37 -46.5q12 -23 21.5 -53t9.5 -59q0 -59 -49 -93q-25 -16 -48.5 -24t-48.5 -8q-2 0 -53 82h-2q-55 82 -84 81q-39 0 -133 -53q-109 -61 -108 -82q0 -92 81 -225q88 -147 191 -147q63 0 127 47q14 10 34.5 27.5t49.5 45.5l6 7l8 -5 q-12 -59 -151 -194q-152 -145 -179 -146q-123 0 -239 293q-98 246 -98 418zM227 1599q0 25 9.5 52.5t21.5 50.5q20 31 49 31t49 -31q12 -23 21.5 -51.5t9.5 -51.5q0 -49 -22 -88q-29 -45 -58 -45t-57 45q-23 39 -23 88zM635 1599q0 25 9 52.5t22 50.5q20 31 49 31t49 -31 q12 -23 21.5 -51.5t9.5 -51.5q0 -133 -80 -133q-29 0 -58 45q-23 39 -22 88z" />
<glyph unicode="&#x402;" horiz-adv-x="1107" d="M102 1186v88h121v186q0 43 80 43q86 0 86 -43v-186h383q12 -41 0 -88h-383v-381h37q12 35 32.5 70.5t51.5 65.5t74 48.5t102 18.5q168 0 264.5 -84t96.5 -232v-442q0 -66 -30 -118t-78 -89t-110.5 -57.5t-130.5 -20.5q-16 0 -26 9.5t-11.5 21.5t6 23.5t25.5 17.5l35 6 q35 4 68.5 14.5t56.5 32.5q14 23 24.5 60.5t16.5 81.5t9 90.5t3 89.5q0 25 -1 46t-1 40v55q2 92 -10 161.5t-43 118t-83 73t-130 24.5q-76 0 -138.5 -62.5t-109.5 -150.5v-666q0 -23 -6 -37t-16 -14h-129q-8 0 -11.5 14.5t-3.5 34.5v1137h-121z" />
<glyph unicode="&#x403;" horiz-adv-x="942" d="M129 49v1299q0 43 33 43h600q57 0 82 -80q10 -37 10 -142q0 -256 -47 -256q-4 0 -17.5 31t-27.5 74q-23 63 -39 113.5t-35 78.5q-31 49 -78 77t-106 28h-43q-80 0 -113 -17h-2q-51 -29 -51 -90v-1163q0 -45 -86 -45q-80 0 -80 49zM399 1497l60 328h176l-197 -326z" />
<glyph unicode="&#x404;" horiz-adv-x="1398" d="M109 705q0 133 45 247.5t133 216.5q203 229 540 230q145 0 293 -72q164 -80 164 -225q0 -43 -16 -66q-27 -33 -45 -32q-20 0 -45 23.5t-52 64.5q-35 53 -67.5 99t-48.5 64q-86 88 -226 88q-258 0 -385 -231q-94 -168 -94 -295q0 -49 62 -49h80.5t65.5 1t65.5 2t80.5 1 l375 6q68 0 68 -82q0 -76 -26.5 -102.5t-92.5 -26.5q-90 0 -90 82v9.5t2 9.5q0 2 1 3t1 3q4 16 4 24q0 16 -51 17h-22.5h-60.5t-112.5 -1t-181.5 -1q-164 0 -164 -41q0 -82 21.5 -168t56.5 -158q39 -72 98.5 -135.5t137.5 -104.5q80 -43 161 -43q111 0 188 27t113 74 q8 14 24.5 62t41.5 126q33 100 127 101q51 0 51 -113q0 -166 -186 -266q-74 -35 -166 -61.5t-168 -26.5q-168 0 -328 80q-76 37 -140.5 94t-117.5 125q-53 78 -83.5 184t-30.5 236z" />
<glyph unicode="&#x405;" horiz-adv-x="1122" d="M123 -25q0 109 78 181q41 35 76.5 44t76.5 9q0 -2 26 -13.5t58 -25.5q27 -14 58.5 -28.5t59.5 -27t50.5 -20.5t34.5 -8q63 0 106.5 23.5t65.5 56.5h2q41 63 41 188q0 86 -21.5 148.5t-60.5 97.5q-27 23 -89 39t-148 31l-56 8l-51 8q-33 6 -57.5 16.5t-44.5 20.5 q-127 80 -127 309q0 373 374 373q416 0 416 -367q0 -68 -65 -67q-57 0 -77 23.5t-36 72.5q-6 45 -12 88t-15 88q-10 20 -33.5 37.5t-54 30t-66.5 19.5t-73 7q-49 0 -87 -25.5t-60 -72.5q-16 -41 -25.5 -89t-9.5 -99q0 -63 11 -117.5t33.5 -94.5t56.5 -62.5t81 -22.5 q190 0 322 -82q39 -25 68.5 -50.5t50 -56t30.5 -70.5t10 -94q0 -203 -76.5 -311t-232.5 -108q-86 0 -150.5 19t-111.5 36q-29 10 -51.5 17t-44.5 7q-37 0 -59.5 -21.5t-43.5 -47.5q-20 -27 -38.5 -48.5t-32.5 -21.5q-76 0 -76 53z" />
<glyph unicode="&#x406;" horiz-adv-x="481" d="M178 23v1337q0 41 105 41q61 0 61 -43v-1335q0 -43 -61 -43q-104 0 -105 43z" />
<glyph unicode="&#x407;" horiz-adv-x="661" d="M68 1599q0 25 9 52.5t21 50.5q20 31 49 31t50 -31q12 -23 21 -51.5t9 -51.5q0 -49 -22 -88q-29 -45 -58 -45t-57 45q-23 39 -22 88zM268 23v1337q0 41 105 41q61 0 61 -43v-1335q0 -43 -61 -43q-104 0 -105 43zM477 1599q0 57 19 89q31 45 59 45q31 0 49 -29 q14 -27 22.5 -53.5t8.5 -51.5q0 -133 -80 -133q-31 0 -49 29q-29 49 -29 104z" />
<glyph unicode="&#x408;" horiz-adv-x="581" d="M94 1260v118l41 4q59 6 120.5 10.5t121.5 4.5h43t41 -2h-8q23 -12 37 -54.5t24 -130.5q6 -57 10 -115.5t4 -117.5q0 -119 -18 -254t-51 -266t-80 -248t-105 -199q-39 -53 -74.5 -80.5t-54.5 -27.5q-12 0 0 32l33 56q4 10 8 18t9 19q35 78 63.5 161.5t44.5 159.5 q8 39 18.5 105.5t19.5 141.5t15 147.5t6 123.5q0 176 -12 275q-4 45 -7 70.5t-7 43.5q-4 16 -4 23h-15q-43 10 -86 5t-86 -13q-2 0 -3 -1t-3 -1z" />
<glyph unicode="&#x409;" horiz-adv-x="1718" d="M98 -63q8 10 20.5 29.5t22.5 43.5q84 178 119 338q6 37 11 104.5t8.5 144.5t5.5 151.5t2 128.5q0 82 -3 152.5t-8 121.5q-10 72 -17 116t-13 64h8q0 16 8 39t37 23q154 0 259.5 -1t175 -1h108.5h58.5h24.5h9q49 0 53 -37l6 -543h4l201 -106q78 -41 155 -98.5t146 -127.5 q164 -163 164 -317q0 -162 -285 -162h-514q-43 0 -43 43v1274h-409q8 -35 18 -96q6 -57 10 -115.5t4 -118.5q0 -117 -15 -253t-45 -269t-74 -253t-101 -202q-80 -109 -109 -108q-8 0 -2 35zM217 1331q0 27 7.5 37t21.5 -37h-29zM987 162q0 -92 96 -92h199q160 -1 160 118 q0 164 -144 326q-41 49 -112.5 106.5t-169.5 124.5h-29v-583z" />
<glyph unicode="&#x40a;" horiz-adv-x="1808" d="M139 31v1325q0 41 105 41q61 0 61 -43v-541h559v547q0 37 113 37q49 0 53 -37l6 -549h4l203 -106q78 -43 154 -98.5t145 -127.5q78 -78 122 -160.5t44 -156.5q0 -162 -285 -162h-514q-45 0 -45 43v694h-559v-706q0 -43 -61 -43q-104 0 -105 43zM1030 162q0 -92 98 -92 h197q162 -1 162 118q0 166 -141 326q-41 47 -113 104.5t-174 126.5h-29v-583z" />
<glyph unicode="&#x40b;" horiz-adv-x="1169" d="M51 1208v97h121v186q0 43 80 43q86 0 86 -43v-186h393q23 -43 -2 -97h-391v-403h33q33 41 73.5 71.5t81.5 50t80 30t70 10.5q147 0 252 -76q53 -41 80.5 -101.5t27.5 -138.5v-495q0 -68 80 -68q39 0 41 2q0 -104 -186 -104q-104 0 -105 225v40.5t2 59.5q0 16 1 57.5 t2 84.5t1 78.5v43.5q0 63 -12 119t-31 90q-27 41 -79 63.5t-121 22.5q-72 0 -147.5 -30.5t-141.5 -96.5h-2v-700q0 -43 -23 -43h-129q-14 0 -14 41v1167h-121z" />
<glyph unicode="&#x40c;" horiz-adv-x="1091" d="M119 39v1313q0 49 88 49q78 0 78 -41v-1317q0 -53 -92 -53q-74 0 -74 49zM403 737q0 61 30 135t83 156q121 176 213 276.5t141 100.5q47 0 82 -74q27 -57 27 -129q0 -23 -5 -48.5t-13 -53.5q-4 -16 -8.5 -29.5t-8.5 -23.5q-4 -12 -8 -23l-88 111q-35 41 -66.5 64.5 t-50.5 23.5q-53 0 -129 -136q-80 -133 -80 -172q0 -70 50.5 -173t142.5 -230q39 -49 116.5 -138t188.5 -216h-6q-2 -25 -13.5 -51.5t-27.5 -53.5q-43 -61 -70 -61q-6 0 -59 62.5t-129 154.5q-70 86 -122 154.5t-81 109.5q-51 78 -80 144.5t-29 119.5zM461 1497l57 328h176 l-196 -326z" />
<glyph unicode="&#x40d;" horiz-adv-x="1226" d="M152 39v1315q0 49 88 49q78 0 77 -41v-954h33l297 370l299 385h2v197q0 43 84 43q82 0 82 -43v-1319q0 -51 -104 -51q-61 0 -62 51v999h-33l-596 -747h-2v-250q0 -53 -92 -53q-74 0 -73 49zM451 1825h176l57 -328l-37 2z" />
<glyph unicode="&#x40e;" horiz-adv-x="1048" d="M102 1337q0 23 29 48.5t51 25.5q35 0 56 -33l59 -145q37 -86 73 -165t69.5 -144.5t64.5 -114.5t55 -76h27q12 16 28.5 57t33 93.5t32.5 110t30.5 108.5t23.5 89t14 50q20 72 58 119t71 47q41 0 75.5 -29t34.5 -84q0 -29 -4 -69.5t-12 -79.5t-17.5 -66.5t-19.5 -27.5 q-4 0 -16.5 19.5t-28 42t-26.5 43t-11 22.5h-18q-20 0 -27.5 -7.5t-11.5 -23.5q-23 -72 -46.5 -145.5t-46.5 -151.5l-20 -70q-41 -129 -83 -261t-89 -263q-25 -66 -48.5 -119t-45 -91t-38 -59.5t-22.5 -21.5q-2 0 -18 10q-4 2 -12.5 4.5t-12.5 6.5q-6 2 -17 6t-17 8 q-14 6 -15.5 20.5t4.5 32t15.5 32.5t15.5 26l14 14q23 16 53.5 48t59.5 87q41 88 54.5 143.5t13.5 96.5q0 6 -16.5 35.5t-53.5 91.5l-121 213q-45 84 -82 161.5t-63.5 143t-41 116t-14.5 76.5zM334 1651q0 141 98 141q16 0 17 -12q0 -20 -17 -47q-25 -33 -24 -47 q0 -57 143 -58q57 0 121 21q78 20 108 51l51 53q37 37 48 37q2 0 2 -21q0 -25 -23 -57q-63 -84 -147 -135t-191 -51q-92 0 -139 36t-47 89z" />
<glyph unicode="&#x40f;" horiz-adv-x="1325" d="M190 37v1333q0 31 89 31q90 0 90 -19l-4 -1253q0 -47 73 -47h414q51 0 95 30.5t44 73.5l4 1184q0 33 90 33q88 0 89 -33v-1333q0 -37 -37 -37h-369v-293q0 -41 -28 -54t-46 -13q-29 0 -60.5 13t-31.5 54l4 293h-387q-29 0 -29 37z" />
<glyph unicode="&#x410;" horiz-adv-x="1200" d="M78 45q0 25 36 126t105 273q47 115 154 347l55 120q18 39 44 95.5t58 132.5q10 35 11 61q0 35 -15.5 59.5t-38.5 36.5l-86 19q-20 4 -33.5 17.5t-13.5 29.5q0 37 162 37q55 0 107.5 -40t99.5 -114q31 -47 66.5 -137t66.5 -186l86 -281l219 -606l2 -6q0 -29 -22 -29h-117 q-39 0 -70 88l-186 506h-31l-450 -373h-2q-4 -12 -5 -23.5t-4 -21.5q-23 -111 -26 -121q-33 -66 -119 -65q-53 0 -53 55zM305 315h31l405 342h2l-157 428h-37q-53 -129 -113.5 -318t-130.5 -452z" />
<glyph unicode="&#x411;" horiz-adv-x="1030" d="M127 74v1247q0 70 47 70h623q61 0 88 -41q16 -27 16 -113q0 -297 -33 -297q-14 0 -57 88q-74 158 -84 174h-2q-31 45 -67.5 78t-73.5 45q-23 6 -65 10t-97 4q-35 0 -62.5 -9t-42.5 -21q-10 -16 -17 -41t-7 -54v-391h12q84 -37 182.5 -102.5t208.5 -159.5 q119 -104 183.5 -197t64.5 -171q0 -193 -307 -193h-420q-90 0 -90 74zM293 137q0 -43 33 -65h2q20 -12 78 -13h186q33 0 61.5 9.5t48.5 29.5q50 50 50 99q0 129 -150 325q-70 92 -142.5 147.5t-144.5 73.5h-22v-606z" />
<glyph unicode="&#x412;" horiz-adv-x="1069" d="M133 70v1267q0 53 41 54h490q180 0 180 -127q0 -98 -116 -219t-318 -250q131 -96 235.5 -187.5t178 -174.5t112.5 -157t39 -133q0 -82 -74 -112q-66 -31 -139 -31h-576q-53 0 -53 70zM299 74h309q140 0 140 88q0 264 -271 504q-80 74 -119 73q-59 0 -59 -32v-633z M299 842h18q125 0 246 157q121 154 121 267q0 70 -235 69h-91q-59 0 -59 -55v-438z" />
<glyph unicode="&#x413;" horiz-adv-x="942" d="M129 39v1309q0 43 33 43h600q57 0 82 -80q10 -37 10 -142q0 -256 -47 -256q-4 0 -17.5 31t-27.5 74q-23 63 -39 113.5t-35 78.5q-31 49 -78 77t-106 28h-43q-80 0 -113 -17h-2q-51 -29 -51 -90v-1173q0 -45 -86 -45q-80 0 -80 49z" />
<glyph unicode="&#x414;" horiz-adv-x="1497" d="M87 -93q1 46 11 68q45 92 119 93h27q4 0 8 -1t8 -1h12q82 0 107 77q23 68 43 154t43 195l18 88q20 104 36 175.5t20 88.5q10 47 27.5 119.5t45.5 164.5q29 63 29 80q0 41 -68 113q4 43 43 57q39 18 70 19q121 0 315 -578q41 -119 94.5 -301t118.5 -430h3q27 -20 126 -20 q107 0 107 -88q0 -59 -4 -116t-14 -85q-31 -96 -107 -96q-41 0 -56.5 19t-11.5 52q6 37 11.5 98.5t5.5 120.5q0 37 -80 37h-195q-61 2 -108 2h-80h-223q-61 0 -117.5 -3t-95.5 -7q-41 -6 -66.5 -29.5t-36.5 -54.5l-16 -164q-16 -35 -34.5 -52t-57.5 -17q-10 0 -23.5 8 t-27.5 20q-25 25 -25 60v47q-2 41 -1 87zM408 102q6 -39 61 -39h565q-96 506 -323 1051h-23l-29 -8h-14l-119 -502q-31 -127 -60.5 -252t-57.5 -250z" />
<glyph unicode="&#x415;" horiz-adv-x="872" d="M109 688q0 195 153 445q172 272 336 272q39 0 111 -115q61 -102 61 -170q0 -66 -29 -94q-12 -12 -32.5 -29.5t-44.5 -31.5l-23 2q-6 88 -47 166q-49 100 -139 100q-53 0 -94.5 -38t-69.5 -110q-20 -53 -33.5 -114.5t-13.5 -108.5q0 -59 5 -116.5t15 -112.5h27 q365 207 407 207q18 0 39 -17.5t37 -46.5q12 -23 21.5 -53t9.5 -59q0 -59 -49 -93q-25 -16 -48.5 -24t-48.5 -8q-2 0 -53 82h-2q-55 82 -84 81q-39 0 -133 -53q-109 -61 -108 -82q0 -92 81 -225q88 -147 191 -147q63 0 127 47q14 10 34.5 27.5t49.5 45.5l6 7l8 -5 q-12 -59 -151 -194q-152 -145 -179 -146q-123 0 -239 293q-98 246 -98 418z" />
<glyph unicode="&#x416;" horiz-adv-x="1425" d="M80 125q0 16 13 59t28 80q80 166 219 312.5t317 248.5q-123 51 -234.5 132t-191.5 176q-78 96 -77 163q0 18 17 36t42 34q59 35 88 35q10 0 23 -53l12 -78q8 -59 35.5 -117.5t66.5 -112.5q82 -104 207 -147h25v432q0 33 20.5 54.5t44.5 21.5q76 0 76 -60v-444h18 q123 0 191 131q16 37 37.5 97.5t44.5 146.5q37 131 47 131t32.5 -9.5t51.5 -25.5q59 -31 59 -61q0 -49 -65 -156q-39 -63 -85 -115.5t-89 -85.5q-37 -29 -97.5 -62.5t-132.5 -66.5h-2q186 -119 322.5 -266t210.5 -313q32 -82 32 -129q0 -59 -61 -99q-61 -37 -111 -37 q-27 0 -38 86l-9 123q-6 70 -31.5 151t-70.5 167q-94 184 -227 244h-25v-687q0 -76 -74 -75q-70 0 -69 69v686h-27q-57 -31 -109.5 -83t-93.5 -115h-2q-33 -55 -63.5 -128t-48.5 -132l-62 -244q-6 -23 -17 -37t-22 -14q-37 0 -94 45q-51 41 -51 92z" />
<glyph unicode="&#x417;" horiz-adv-x="1118" d="M129 -70q0 123 53 156q47 27 164 27q6 0 30.5 -6.5t47.5 -14.5q33 -10 66.5 -18t58.5 -8q127 0 205 75q41 41 63.5 97.5t22.5 109.5q0 31 -10.5 66t-28 68.5t-39 61t-43.5 44.5q-51 39 -170 55q-41 6 -63.5 12.5t-26.5 16.5l-10 14h-3q-4 4 -7 13.5t-3 31.5q0 41 4 48 t15 12l14 6q20 12 74 12q131 0 193.5 76t62.5 196q0 115 -35 170q-20 35 -71.5 53.5t-112.5 18.5q-186 0 -234 -238q-2 -8 -5 -21t-13 -36q-16 -27 -90 -27q-80 0 -80 56q0 160 133 258q59 41 132 66.5t144 25.5q193 0 296.5 -83t103.5 -249q0 -127 -50.5 -218t-154.5 -144 q117 -47 191.5 -138.5t74.5 -230.5q0 -57 -20.5 -109.5t-57.5 -95.5t-86 -76.5t-106 -52.5q-29 -8 -52.5 -10t-54.5 -2h-121q-23 0 -48 1t-58 1q-53 0 -90 -20q-49 -29 -49 -68q0 -6 41 -70q16 -29 26 -48t10 -32q0 -57 -59 -57q-53 0 -117 80q-57 74 -57 145z" />
<glyph unicode="&#x418;" horiz-adv-x="1210" d="M143 39v1317q0 49 88 49q78 0 78 -41v-956h33l297 370l299 373h2v211q0 43 84 43q82 0 82 -43v-1321q0 -51 -105 -51q-61 0 -61 51v999h-33l-596 -747h-2v-250q0 -53 -92 -53q-74 0 -74 49z" />
<glyph unicode="&#x419;" horiz-adv-x="1200" d="M139 39v1313q0 49 88 49q78 0 78 -41v-952h33l297 370l299 373h2v207q0 43 84 43q82 0 82 -43v-1317q0 -51 -105 -51q-61 0 -61 51v999h-33l-596 -747h-2v-250q0 -53 -92 -53q-74 0 -74 49zM379 1640q0 143 98 144q16 0 17 -15q0 -16 -29 -63q-12 -18 -12 -31 q0 -57 143 -57q27 0 57.5 5t63.5 15q33 14 63.5 27.5t44.5 24.5l52 55q39 35 47 35q2 0 2 -21q0 -25 -23 -57q-63 -84 -147 -135t-191 -51q-94 0 -140 35.5t-46 88.5z" />
<glyph unicode="&#x41a;" horiz-adv-x="1091" d="M119 39v1315q0 49 88 49q78 0 78 -41v-1319q0 -53 -92 -53q-74 0 -74 49zM403 737q0 61 30 135t83 156q121 176 213 276.5t141 100.5q47 0 82 -74q27 -57 27 -129q0 -23 -5 -48.5t-13 -53.5q-4 -16 -8.5 -29.5t-8.5 -23.5q-4 -12 -8 -23l-88 111q-35 41 -66.5 64.5 t-50.5 23.5q-53 0 -129 -136q-80 -133 -80 -172q0 -70 50.5 -173t142.5 -230q39 -49 116.5 -144.5t188.5 -220.5h-6q-2 -25 -13.5 -51t-27.5 -53q-43 -61 -70 -61q-6 0 -59 62t-129 155q-70 86 -122 159.5t-81 114.5q-51 78 -80 144.5t-29 119.5z" />
<glyph unicode="&#x41b;" horiz-adv-x="1175" d="M106 66q0 57 25 153t66 203q43 109 85 192.5t78 128.5l89 107q61 78 61 115q0 16 -23.5 68t-72.5 132q-88 160 -88 189q0 45 47 45q133 0 157 -47l553 -1227q10 -27 17.5 -51.5t7.5 -42.5q0 -41 -78 -41q-55 0 -82 10q-18 8 -47 66l-323 755q-8 14 -22.5 24.5t-31.5 10.5 q-16 0 -36.5 -29.5t-47.5 -83.5q-59 -131 -93 -261t-34 -230q0 -12 1 -31.5t5 -40.5q4 -20 6.5 -38.5t2.5 -30.5q0 -84 -29 -107q-23 -14 -104 -14q-88 0 -89 76z" />
<glyph unicode="&#x41c;" horiz-adv-x="1468" d="M145 27v1327q0 37 21 37h176q6 0 12 -16.5t13 -45.5l133 -624q49 -221 117.5 -342t152.5 -121q156 0 279 585l104 502q6 29 13.5 45.5t17.5 16.5h164q14 0 14 -37v-1331q0 -43 -68 -43q-98 0 -98 43l10 1148l-57 -2q-43 -260 -79 -448.5t-67.5 -320.5t-60.5 -213 t-59.5 -126t-63.5 -60t-71 -15q-59 0 -112.5 79.5t-100.5 227.5q-16 53 -40 163.5t-53 266.5l-82 446h-59q0 -143 1 -285.5t3 -285.5l6 -571q0 -43 -75 -43q-90 0 -91 43z" />
<glyph unicode="&#x41d;" horiz-adv-x="1210" d="M143 31v1327q0 43 82 43q84 0 84 -43l2 -197h2q74 -94 148 -187t149 -186q74 -94 149 -186t148 -184h33v942q0 41 78 41q88 0 88 -49v-1323q0 -49 -74 -49q-92 0 -92 53l-2 270h-2l-594 748h-33v-1020q0 -51 -73 -51q-92 0 -93 51z" />
<glyph unicode="&#x41e;" horiz-adv-x="1032" d="M117 711q0 123 54 252t153 251q74 90 138 141.5t105 51.5q27 0 115 -78q272 -246 272 -584q0 -406 -319 -688q-84 -72 -117 -71q-39 0 -127 86q-274 274 -274 639zM233 874q0 -377 267 -606q78 -70 137 -69q115 0 164 137q37 98 37 217q0 381 -242 586q-72 61 -129 61 q-104 0 -172 -123q-61 -109 -62 -203z" />
<glyph unicode="&#x41f;" horiz-adv-x="1300" d="M184 33v1308q0 49 35 50h899q39 0 39 -50v-1306q0 -39 -27 -43h-2q-8 -2 -25.5 -2h-39.5q-45 0 -53 2h-2q-16 2 -17 41v1227q0 63 -112 63h-441q-88 0 -88 -72l2 -1231q0 -31 -82 -30q-86 0 -86 43z" />
<glyph unicode="&#x420;" horiz-adv-x="972" d="M129 23v1308q0 59 113 60q135 0 237.5 -2.5t175.5 -24.5q115 -39 171.5 -121.5t56.5 -193.5q0 -238 -178 -369q-168 -127 -392 -127h-18v-530q0 -43 -96 -43q-70 0 -70 43zM295 680q0 -70 57 -70q186 0 281 127q90 117 90 291q0 119 -74 211q-74 98 -207 98 q-147 0 -147 -61v-596z" />
<glyph unicode="&#x421;" horiz-adv-x="888" d="M106 629q0 242 90.5 427t254.5 304q63 45 92 45q39 0 81 -32t85 -89q37 -51 58 -104.5t21 -102.5q0 -45 -40 -110q-47 -74 -70 -74q4 0 -5 21.5t-26 62.5q-18 47 -36.5 85t-41.5 71q-29 43 -63.5 63.5t-75.5 20.5q-94 0 -143 -136q-39 -104 -39 -202q0 -188 80 -398 q98 -264 270 -264q59 0 199 129h28q-231 -360 -272 -360q-135 0 -299 247q-147 227 -148 396z" />
<glyph unicode="&#x422;" horiz-adv-x="1202" d="M70 1169q0 184 26 205q23 16 60 17h934q49 0 49 -193q0 -238 -49 -237q-10 0 -37 94q-16 59 -32.5 103t-33.5 73q-59 94 -188 94q-106 0 -107 -106v-1196q0 -43 -92 -43q-74 0 -74 47v1196q0 102 -125 102q-80 0 -133 -36t-78 -91l-40 -129q-10 -27 -16.5 -45t-10.5 -31 q-6 -14 -8 -26q-14 0 -33 84q-12 57 -12 118z" />
<glyph unicode="&#x423;" horiz-adv-x="1019" d="M88 1329q0 23 28.5 48.5t51.5 25.5q35 0 55 -33l60 -145q35 -86 71.5 -164t70.5 -141.5t64.5 -111.5t55.5 -75h26q12 16 27.5 57t33 93.5t34 110t31 108.5t23.5 89t13 50q18 72 57 119t72 47q41 0 76 -29t35 -84q0 -29 -4 -69.5t-12.5 -79.5t-17.5 -66.5t-19 -27.5 q-4 0 -17.5 19.5t-29 43t-29 46t-17.5 28.5h-18q-16 0 -25.5 -10.5t-13.5 -20.5q-16 -43 -48 -148.5t-73 -237.5t-86 -274.5t-87 -261t-78 -194.5t-56 -76q-10 2 -29.5 8.5t-40 16.5t-36 23.5t-15.5 29.5q0 18 8.5 34.5t19.5 29t21 18.5l9 6l6 4q27 16 63.5 44t63.5 81 q37 80 52 140.5t15 99.5q2 6 -16.5 34.5t-52.5 92.5l-121 213q-45 84 -82 160.5t-63.5 141t-41 113t-14.5 74.5z" />
<glyph unicode="&#x424;" horiz-adv-x="1478" d="M102 575q0 147 45.5 264t123 197t185 123t230.5 43h19v45q0 467 141 510q45 14 137 15q63 0 64 -48q0 -25 -46 -69l-69 -70q-29 -35 -46.5 -67.5t-27.5 -73.5t-13 -98.5t-3 -143.5h18q113 0 214.5 -40t177 -111.5t119.5 -173t44 -224.5q0 -561 -571 -569h-19 q-6 -113 -31.5 -229.5t-63.5 -221t-83 -189.5t-92 -134h-39q-18 14 -18 61q98 180 148 355.5t50 357.5h-18q-129 0 -234.5 31.5t-181.5 94t-118 155t-42 210.5zM260 629q0 -211 103.5 -333t318.5 -122h18v942h-18q-94 0 -172 -42t-133 -110.5t-86 -155.5t-31 -179zM831 174 h19q98 0 175 39t130 104.5t81 153.5t28 184q0 88 -35 170t-93.5 146.5t-133 103.5t-152.5 41h-19v-942z" />
<glyph unicode="&#x425;" horiz-adv-x="1050" d="M98 59q0 33 21.5 102.5t62.5 165t99.5 214t130.5 252.5q-66 115 -121 213t-95 172.5t-61.5 119.5t-21.5 56q0 43 75 43q47 0 69 -31t34 -53l184 -344h33q25 47 50.5 92t47 84t37.5 66.5t23 37.5q53 76 98 117t80 41q57 0 100 -64q35 -53 35 -135q0 -68 -23 -129 q-14 -37 -29.5 -60.5t-29.5 -23.5l-74 105q-74 106 -102 106q-12 0 -34.5 -27.5t-51.5 -71.5t-59.5 -99.5t-59.5 -110.5q53 -100 113.5 -206.5t118.5 -211.5l231 -418q14 -29 14 -63q0 -14 -6 -16t-29 -2h-30q-74 0 -103 51l-366 676h-33q-80 -180 -119 -352.5t-39 -313.5 q0 -61 -100 -61q-39 0 -55 14q-14 12 -15 65z" />
<glyph unicode="&#x426;" horiz-adv-x="1372" d="M135 53v1307q0 45 88 45q78 0 78 -43v-1221q0 -72 74 -71h434q80 0 80 82v1214q0 37 49 37q117 0 117 -33v-1216q0 -68 80 -82h2l92 -9q47 -8 47 -96q0 -102 -59 -217q-37 -68 -65 -101.5t-62 -33.5q-6 0 -21.5 12.5t-28.5 24.5q-4 4 -5 23.5t-1 29.5q0 2 1 4t1 4 q0 39 39 123q20 43 31.5 76t11.5 55q0 33 -112 33h-828q-43 0 -43 53z" />
<glyph unicode="&#x427;" horiz-adv-x="1292" d="M117 1155q0 68 32.5 124t88.5 95q23 14 43 23.5t30 9.5q12 0 34 -15.5t44 -39.5q20 -23 32.5 -48.5t12.5 -48.5q0 -12 -31 -26l-51 -21q-35 -23 -55.5 -55.5t-20.5 -77.5q0 -109 148 -178q113 -53 246 -53q61 0 124.5 15t116.5 38q66 37 106 83t40 95q0 45 -22.5 79 t-57.5 54l-51 21q-12 6 -19.5 11t-7.5 15q0 23 12.5 48.5t32.5 48.5q23 25 44.5 40t33.5 15q72 0 137 -84q27 -35 42.5 -78t15.5 -90q0 -90 -37 -162.5t-107 -128.5q-137 -106 -305 -106h-18v-721q0 -57 -86 -57q-80 0 -80 57v721h-19q-168 0 -305 106q-70 55 -106.5 128 t-36.5 163z" />
<glyph unicode="&#x428;" horiz-adv-x="1918" d="M141 43v1311q0 47 54 47q113 0 112 -51v-1221q0 -59 74 -59h416q86 0 86 53v1218q0 43 24 54q16 8 64 8q78 0 78 -53v-1225q0 -55 75 -55h453q74 0 74 53v1233q0 43 28 45h29q8 0 18.5 1t22.5 1q68 0 68 -45v-1315q0 -43 -43 -43h-1608q-25 0 -25 43z" />
<glyph unicode="&#x429;" horiz-adv-x="1921" d="M143 43v1311q0 47 54 47q113 0 112 -51v-1221q0 -59 74 -59h416q86 0 86 53v1218q0 43 24 54q16 8 64 8q78 0 78 -53v-1225q0 -55 75 -55h453q74 0 74 53v1233q0 43 28 45h29q8 0 18.5 1t22.5 1q68 0 68 -45v-1315q0 -43 -43 -43h-725v-391q0 -51 -68 -51q-98 0 -98 55 v387h-717q-25 0 -25 43z" />
<glyph unicode="&#x42a;" horiz-adv-x="1210" d="M82 1085v224q0 82 70 82h688q33 0 32 -48q0 -37 -16 -91t-45 -113q-66 -137 -66 -205q0 -10 115 -143q63 -74 112.5 -138.5t88.5 -120.5q106 -165 106 -276q0 -160 -112 -213q-43 -20 -107.5 -31.5t-144.5 -11.5h-500q-51 0 -51 47q0 14 6 33l404 1153q12 33 12 70 q0 20 -119 20q-270 0 -326 -119l-26 -71q-8 -18 -14.5 -37t-12.5 -35q-43 -104 -67 -105q-2 0 -7.5 17.5t-9.5 38.5q-6 20 -8 38.5t-2 34.5zM453 104q0 -37 53 -36h176q27 0 54.5 1t58.5 1q192 2 192 219q0 57 -20.5 133t-55.5 166q-39 90 -82 155.5t-90 98.5h-28 q-258 -735 -258 -738z" />
<glyph unicode="&#x42b;" horiz-adv-x="1411" d="M129 121v1202q0 37 45 72q16 10 41 10q31 0 54.5 -24.5t25.5 -59.5l6 -494h4q707 -326 707 -643q0 -184 -211 -184h-596q-29 0 -55 41q-20 31 -21 80zM295 121q0 -55 70 -55h356q53 0 84 43h2q10 18 17 40.5t7 40.5q1 171 -194 359q-131 125 -315 217h-27v-645zM1155 61 v1256q0 51 23 63h2q31 25 59 25q29 0 57 -23q25 -18 25 -61v-1260q0 -43 -25 -61q-32 -23 -57 -23q-84 0 -84 84z" />
<glyph unicode="&#x42c;" horiz-adv-x="1054" d="M125 43v1321q0 37 113 37q49 0 53 -37l6 -553h4l203 -106q160 -84 299 -226q78 -78 122 -160.5t44 -156.5q0 -162 -285 -162h-514q-45 0 -45 43zM291 162q0 -92 98 -92h197q162 -1 162 118q0 166 -142 326q-41 47 -112.5 104.5t-174.5 126.5h-28v-583z" />
<glyph unicode="&#x42d;" horiz-adv-x="1398" d="M109 340q0 113 51 113q94 0 127 -101q23 -78 41 -128t22 -60h2q37 -47 114 -74t187 -27q82 0 162 43q74 41 134.5 104.5t101.5 135.5q35 72 56 158t21 168q0 41 -163 41q-111 0 -172.5 1t-92 1h-39h-12.5q-51 0 -51 -17q0 -8 4 -24q0 -2 1 -3t1 -3q2 -4 2 -9.5v-9.5 q0 -82 -90 -82q-66 0 -92 27q-27 20 -27 102t68 82l606 -10q61 0 62 49q0 133 -95 301q-127 231 -385 232q-139 0 -225 -88q-16 -18 -49 -64.5t-68 -99.5q-27 -41 -51 -64.5t-45 -23.5q-18 0 -35 20q-10 18 -18 39t-8 39q0 70 45 127t120 98q70 35 145 53.5t146 18.5 q334 0 541 -236q88 -102 133 -216.5t45 -247.5q0 -131 -29.5 -237t-85.5 -183q-106 -145 -258 -219q-160 -80 -327 -80q-76 0 -167 26.5t-167 61.5q-186 100 -186 266z" />
<glyph unicode="&#x42e;" horiz-adv-x="1622" d="M133 23v1341q0 43 60 43q106 0 106 -43v-512h410q16 74 59 161t109 177q76 100 144.5 158.5t121.5 58.5q33 0 114 -76q133 -123 203 -270.5t70 -315.5q0 -197 -82 -369.5t-238 -318.5q-37 -35 -66.5 -53t-49.5 -18q-41 0 -127 86q-274 274 -275 643q0 35 1 45t1 14h-395 v-751q0 -43 -90 -43q-76 0 -76 43zM809 874q0 -174 73.5 -331.5t192.5 -274.5q37 -33 73 -51t62 -18q117 0 166 135q37 100 37 219q0 381 -242 586q-72 61 -131 61q-49 0 -93 -33.5t-79 -89.5q-27 -51 -43 -104t-16 -99z" />
<glyph unicode="&#x42f;" horiz-adv-x="1015" d="M137 27q0 59 22.5 159.5t79 211t153.5 217t247 180.5q-119 53 -206 113.5t-143.5 122t-84 120.5t-27.5 113q0 127 180 127h519q43 0 43 -54v-1267q0 -70 -54 -70h-32q-31 0 -53.5 6t-26.5 29v672q0 33 -60 32q-16 0 -49 -20.5t-72 -52.5q-55 -55 -97 -120t-72.5 -130.5 t-50 -131t-29.5 -122.5q0 -45 2 -75t-2.5 -48.5t-18.5 -27.5t-49 -11h-37q-20 0 -33.5 -3t-27.5 -3q-10 0 -15.5 6t-5.5 27zM338 1266q0 -59 36 -133t93 -138.5t128 -108.5t140 -44h19v438q0 55 -60 55h-90q-119 0 -192.5 -17t-73.5 -52z" />
<glyph unicode="&#x430;" horiz-adv-x="948" d="M96 131q0 49 35 124t86 152.5t110.5 147.5t106.5 113q-70 106 -96.5 182t-26.5 86q0 20 92 20q84 0 97 -22l411 -850q17 -29 17 -64q0 -41 -78 -40q-59 0 -74 26l-121 215h-30q-35 -47 -89.5 -89t-116 -75.5t-121.5 -53t-105 -19.5q-37 0 -67 45t-30 102zM233 262 q0 -104 121 -104q78 0 154 29.5t123 84.5h2l-166 346h-29q-25 -25 -60.5 -70.5t-67 -99t-54.5 -104.5t-23 -82z" />
<glyph unicode="&#x431;" horiz-adv-x="942" d="M131 53v838q0 45 25 45h569q70 0 70 -117q0 -217 -47 -217q-4 0 -46 72q-23 43 -45 76.5t-43 56.5q-66 72 -165 72q-170 0 -170 -70v-195h12q90 -35 177 -75.5t163 -87.5q106 -66 162.5 -135t56.5 -132q0 -102 -86 -143q-74 -41 -172 -41h-430q-31 0 -31 53zM281 152 q0 -33 27.5 -57.5t66.5 -24.5h135q154 0 154 135q0 70 -140 215q-135 135 -225 135h-18v-403z" />
<glyph unicode="&#x432;" horiz-adv-x="911" d="M133 53v834q0 49 35 49h403q66 0 129 -27q31 -16 49.5 -39.5t18.5 -58.5q0 -106 -129 -182q-53 -31 -109.5 -54.5t-115.5 -37.5q61 -31 128.5 -75t121.5 -85q72 -59 113.5 -118t41.5 -112q0 -100 -53 -127q-41 -20 -141 -20h-455q-37 0 -37 53zM276 170q0 -119 203 -119 q154 1 154 103q0 86 -119 217q-53 55 -109.5 89t-109.5 36h-19v-326zM281 580h18q47 0 95 14t83 37q43 31 67.5 69.5t24.5 77.5q0 41 -59 76q-47 25 -102 25q-127 0 -127 -119v-180z" />
<glyph unicode="&#x433;" horiz-adv-x="817" d="M133 20v869q0 47 19 47h555q77 0 77 -182q0 -29 -3 -66t-9 -70q-8 -43 -16 -71.5t-15 -28.5q-10 0 -36.5 54.5t-63.5 150.5q-16 45 -39.5 79t-42.5 50q-33 23 -153 22q-125 0 -125 -75l2 -789q0 -31 -70 -30q-80 0 -80 40z" />
<glyph unicode="&#x434;" horiz-adv-x="1132" d="M74 -74q0 111 21.5 151t66.5 40q14 0 45 -11q6 -2 14 -3t17 -3q8 -2 18 -4h2q18 0 28.5 18.5t20.5 59.5q8 31 19.5 74t27.5 98l27 80q4 16 9 32.5t11 33.5l91 270h-3q-45 63 -45 86q0 18 13.5 35.5t36.5 34.5q23 14 45 24t32 10q8 0 113 -202l18 -39l31 -62 q14 -29 26.5 -76t26.5 -106l9 -35q16 -66 38.5 -151.5t63.5 -180.5h2q14 -10 41 -10q18 0 27.5 4t17.5 8q16 10 23 11q51 0 61 -17q18 -31 18 -96q0 -43 -4 -88t-24 -92q-23 -53 -41 -86t-41 -33t-40 22.5t-17 51.5q0 31 12 96q4 23 4 41t-2 35v18q0 51 -92 51q-27 0 -37 -2 q-2 0 -2 -1t-4 -1l-54 -8q-47 -4 -81.5 -7t-57.5 -3h-23.5t-17.5 2t-27.5 3t-58.5 3l-94 6q-16 2 -29.5 2h-31.5q-35 0 -60.5 -22.5t-42.5 -61.5l-33 -151q-31 -84 -67 -84q-29 0 -38 58t-9 177zM330 84h14q63 -12 105.5 -18.5t101.5 -6.5q27 0 45 1t32.5 2t27 3.5t28.5 6.5 q4 0 4 1t4 1h2l29 6h14q-16 59 -30.5 113.5t-26.5 107.5q-27 111 -55.5 208t-92.5 189h-30q-45 -94 -75 -208.5t-60 -245.5z" />
<glyph unicode="&#x435;" horiz-adv-x="675" d="M104 500q0 68 32 141.5t87 146.5q61 78 123 121t119 43q25 0 76 -67q23 -29 35 -56.5t12 -52.5q0 -49 -33 -92q-23 -27 -34 -36t-19 -11l-13 18q-41 63 -47 70q-49 70 -102 70q-29 0 -50.5 -19.5t-33.5 -52.5q-6 -27 -10 -52.5t-4 -54.5q0 -154 57 -153q41 0 145 49 q100 47 138 47q4 -4 8 -10q6 -14 20 -33q12 -20 19.5 -33.5t7.5 -25.5q0 -41 -31 -68q-37 -31 -57 -31q2 0 -45 48q-43 49 -72 49q-23 0 -45 -8.5t-41 -20.5q-53 -37 -53 -66q0 -27 10 -57.5t33 -69.5q43 -82 110 -81q80 0 146 49l8 -13q-49 -80 -108 -133q-41 -35 -77 -53 t-63 -18q-78 0 -170 213q-78 186 -78 303z" />
<glyph unicode="&#x436;" horiz-adv-x="1265" d="M98 113q0 41 45 113.5t114 144t149.5 124t154.5 52.5h19v26h-19q-49 0 -112.5 29t-121 74t-97.5 98t-40 100q0 29 38 51.5t79 22.5q-2 -2 3 -18.5t14 -40.5l14 -41q33 -104 88 -159.5t135 -55.5h19v278q0 35 67 35q80 0 80 -31v-282h18q78 0 133.5 54t88.5 155 q35 106 30 106q18 0 39 -5t38.5 -15t29.5 -23.5t12 -30.5q0 -49 -37 -102t-92 -97t-120.5 -73t-121.5 -29h-18v-26h18q84 0 175.5 -68.5t191.5 -187.5q47 -57 71.5 -102.5t24.5 -75.5q0 -23 -16 -45.5t-41 -43t-52.5 -32.5t-49.5 -12q-2 0 -12.5 34.5t-26.5 94.5 q-53 186 -114.5 286.5t-150.5 100.5h-18v-476q0 -40 -80 -40q-68 0 -67 45v471h-19q-35 0 -70.5 -23.5t-67.5 -64.5t-57.5 -94.5t-39.5 -110.5q-29 -123 -43.5 -173t-24.5 -50q-20 0 -48 13t-52.5 33.5t-42 44t-17.5 42.5z" />
<glyph unicode="&#x437;" horiz-adv-x="835" d="M115 -47q0 68 28.5 95.5t116.5 27.5q14 0 44 -2t58 -6q4 0 6.5 -1t6.5 -1q23 -4 41 -5.5t28 -1.5q39 0 75 14.5t61.5 39t41 57.5t15.5 68q0 98 -82 141h-2q-2 0 -4 1t-4 1t-10 4q-25 4 -49.5 11t-49.5 12q-27 6 -39 13t-12 42q0 72 49 82l39 6h2q33 6 60.5 14t48 25.5 t33 47.5t12.5 81q0 80 -47 121t-125 41q-18 0 -41 -4.5t-44.5 -11.5t-39 -18t-25.5 -24l-35 -118q-10 -20 -20 -30.5t-33 -10.5q-29 0 -50.5 17t-21.5 52q0 47 9.5 79t50.5 60q20 12 52 25.5t63.5 24t62.5 16.5t51 6q135 0 222 -59.5t87 -169.5q0 -180 -139 -248 q72 -29 114 -85.5t42 -148.5q0 -123 -68.5 -178t-220.5 -55h-10q-6 0 -18.5 1t-32.5 1q-152 0 -158 -63q23 -45 36 -71t13 -30q0 -20 -25.5 -29.5t-48.5 -9.5t-43 15.5t-35.5 38t-25.5 49t-10 51.5z" />
<glyph unicode="&#x438;" horiz-adv-x="946" d="M150 12v903q0 37 77 37q70 0 70 -41v-563h31l358 363h2v204q0 37 72 37q76 0 76 -45v-891q0 -37 -99 -36q-49 0 -49 43v604h-31l-358 -365h-2v-250q0 -33 -78 -32q-70 0 -69 32z" />
<glyph unicode="&#x439;" horiz-adv-x="946" d="M150 12v899q0 37 77 37q70 0 70 -41v-559h31l358 363h2v200q0 37 72 37q76 0 76 -45v-887q0 -37 -99 -36q-49 0 -49 43v604h-31l-358 -365h-2v-250q0 -33 -78 -32q-70 0 -69 32zM268 1159q0 143 99 144q14 0 14 -15q0 -8 -5 -19.5t-14 -25.5q-10 -16 -16 -28.5t-6 -20.5 q0 -55 143 -55q59 0 121 20q78 20 109 51l53 54q35 35 45 34q4 0 4 -18q0 -14 -6 -28.5t-16 -28.5q-63 -86 -148.5 -136.5t-191.5 -50.5q-92 0 -138.5 36t-46.5 87z" />
<glyph unicode="&#x43a;" horiz-adv-x="1036" d="M121 18v887q0 41 74 41t73 -39v-891q0 -37 -80 -36q-68 0 -67 38zM342 467q0 35 49 104.5t141 169.5q94 102 158 156.5t88 54.5q23 0 44.5 -10t33.5 -27q39 -59 39 -127q0 -18 -3 -40.5t-11 -45.5t-15.5 -43t-9.5 -20q2 2 -12.5 13.5t-36.5 27.5l-23 18 q-35 29 -63.5 44.5t-46.5 15.5q-27 0 -59.5 -21.5t-61.5 -50.5q-63 -76 -64 -119q0 -29 39 -90t105 -141q68 -80 124 -123t93 -43q35 0 98 41q6 0 6 -35q0 -45 -90 -117q-94 -76 -125 -75q-37 0 -219 213q-88 104 -133 170.5t-45 99.5z" />
<glyph unicode="&#x43b;" horiz-adv-x="948" d="M59 35q0 23 21.5 88t62.5 151q53 113 125 214.5t158 185.5h2q-59 106 -90 170.5t-31 70.5q0 37 107 37q51 0 75 -24q4 -6 18.5 -33t34 -68t44 -93t51.5 -109l8 -17l68 -145q92 -201 142 -322t50 -131q0 -31 -49 -30q-102 0 -117 30l-278 613h-31q-92 -111 -139 -283 q-23 -78 -33 -166t-10 -166q0 -29 -107 -28q-82 0 -82 55z" />
<glyph unicode="&#x43c;" horiz-adv-x="1214" d="M135 20v877q0 39 25 39h151q29 0 43 -51l68 -375q31 -125 83 -198.5t122 -73.5q72 0 127 70.5t88 180.5q10 45 23.5 136.5t27.5 224.5q8 86 41 86h166q18 0 18 -39v-870q0 -39 -16 -45q-8 -2 -53 -2h-33t-21 2q-10 4 -16 13t-6 30l20 729h-75q-68 -772 -304 -772 q-59 0 -110 85t-92 240q-16 61 -35 174t-43 273h-72l21 -734q0 -41 -107 -40q-41 0 -41 40z" />
<glyph unicode="&#x43d;" horiz-adv-x="935" d="M162 14v891q0 43 71 43q66 0 66 -35l4 -186h2l340 -346h31v528q0 39 65 39q74 0 74 -35v-903q0 -31 -53 -30q-86 0 -86 32l-4 287h-2l-340 346h-31v-625q0 -41 -66 -40q-72 0 -71 34z" />
<glyph unicode="&#x43e;" horiz-adv-x="714" d="M104 449q0 49 26 123.5t71 168.5q51 102 95 156.5t77 54.5q37 0 119 -82q157 -157 157 -372q0 -127 -88 -308q-104 -203 -201 -202q-43 0 -141 116q-115 139 -115 345zM205 537q0 -193 133 -310q49 -43 88 -43q113 0 113 166q0 205 -97 326q-70 88 -151 88 q-86 0 -86 -227z" />
<glyph unicode="&#x43f;" horiz-adv-x="948" d="M139 16v875q0 39 17 39h675q18 0 19 -56v-860q0 -35 -76 -34q-72 0 -72 34v783q0 68 -75 67h-258q-82 0 -82 -65v-785q0 -33 -80 -32q-68 0 -68 34z" />
<glyph unicode="&#x440;" horiz-adv-x="755" d="M115 -801q104 129 104 328q0 29 -11 143.5t-30 286.5q-14 119 -20 226.5t-6 195.5q0 80 23.5 169t68.5 181q53 106 114.5 164.5t122.5 58.5q41 0 113 -86q88 -111 88 -299q0 -260 -238 -485l-55 -47q-35 -29 -55 -35h-12q14 -217 20 -330.5t6 -124.5q0 -166 -96 -290 q-70 -88 -111 -89q-27 0 -26 33zM283 545q0 -25 30 -455h19q111 0 166 174q45 133 45 252q0 203 -183 281h-24q-53 -133 -53 -252z" />
<glyph unicode="&#x441;" horiz-adv-x="616" d="M104 477q0 78 33 161t88 161q53 72 94 111.5t66 39.5q51 0 107 -88q45 -78 45 -151q0 -33 -29 -84q-18 -29 -19 -29l-73 109q-27 33 -55.5 54t-51.5 21q-96 0 -96 -254q0 -80 57 -206q33 -68 73 -105t81 -37q16 0 127 62q2 0 2 -29q0 -12 -30.5 -49t-67.5 -76 q-100 -104 -109 -104q-33 0 -106 86q-135 164 -136 407z" />
<glyph unicode="&#x442;" horiz-adv-x="1046" d="M90 770q0 96 10 115q18 51 74 51h731q35 0 53 -8q37 -17 37 -189q0 -197 -47 -196q-10 0 -23.5 24.5t-23.5 59.5q-41 139 -51 155q-41 84 -131 84q-113 0 -113 -75v-775q0 -37 -71 -36q-76 0 -76 36v768q0 88 -103 88q-82 0 -127 -84q-10 -31 -20 -63.5t-21 -60.5 l-12 -33q-16 -37 -31.5 -60.5t-27.5 -23.5q-27 0 -27 223z" />
<glyph unicode="&#x443;" horiz-adv-x="970" d="M117 842q0 23 12 45t31 39l8 6q18 16 25.5 20t19.5 4q-2 0 27 -84q16 -49 28.5 -107t22.5 -114l6 -33q10 -59 20.5 -109t26.5 -79q57 -117 150 -213h30v82q0 41 6.5 94t17.5 111.5t27.5 115t38.5 103.5q53 106 115 164.5t123 58.5q41 0 113 -86h-4q-10 -160 -18.5 -221 t-18.5 -61q2 0 -10.5 20t-28.5 49h-2q-2 2 -1 3t-1 3q-14 25 -29.5 49.5t-34 44t-39 32t-43.5 12.5q-16 0 -41.5 -39t-51.5 -123t-45 -219.5t-24 -325.5l-8 -156q-6 -123 -10 -194.5t-12 -117.5t-20.5 -83t-35.5 -92l-45 -113q-20 -47 -57 -75.5t-57 -22.5q-33 12 -37 38.5 t0 45.5v8q0 2 1 4t1 4q63 100 105 170t65.5 134.5t34 137t10.5 179.5v10q0 4 -1 9t-1 12v30h-17q-18 2 -52 23.5t-87 99.5q-68 100 -112.5 202.5t-71.5 197t-38 173t-11 134.5z" />
<glyph unicode="&#x444;" horiz-adv-x="1464" d="M94 457q0 106 47 186t138 135q78 45 172 69.5t198 24.5h19v381q0 233 141 336q57 41 84 41q68 0 68 -41q0 -16 -5.5 -23t-13.5 -16l-2 -4h-6q0 -2 -2 -4t-2 -4q-6 -6 -12.5 -14t-12.5 -15q-8 -8 -12 -14l-59 -88h-3q-16 -27 -20 -74t-4 -116v-56q0 -16 1 -33.5t1 -35.5 v-88q0 -27 1 -55.5t1 -59.5v-10h18q322 0 471 -150q111 -110 111 -260q0 -104 -52 -185t-142 -132q-78 -39 -179.5 -62.5t-206.5 -23.5h-18q-68 -698 -299 -887q-61 -49 -108 -49h-5l-2 2q162 203 217 440q43 180 43 485h-18q-102 0 -196.5 23.5t-170.5 64.5 q-86 51 -133 130t-47 182zM270 465q0 -139 117 -238q104 -92 262 -92h19v660h-19q-154 0 -260 -95q-119 -100 -119 -235zM811 135h18q154 0 267 101q114 108 114 245q0 59 -33.5 115.5t-93.5 108.5q-53 41 -119.5 65.5t-134.5 24.5h-18v-660z" />
<glyph unicode="&#x445;" horiz-adv-x="983" d="M41 -551q0 29 27.5 105.5t79 192.5t124 266.5t160.5 326.5q-37 59 -80 135t-86 154l-166 291q14 31 99 30q86 0 100 -20l209 -379h33l135 240q94 162 174 161q94 0 94 -172q0 -35 -9 -72.5t-26 -72.5q-41 -92 -84 -92q6 2 -28 106q-37 109 -64 109q-59 0 -190 -264 q440 -776 440 -793q0 -25 -43 -25q-59 0 -100 16.5t-60 45.5l-153 268l-156 268h-33q-74 -154 -138 -314.5t-124 -334.5q-76 -223 -104 -223q-31 0 -31 47z" />
<glyph unicode="&#x446;" horiz-adv-x="1038" d="M131 63v834q0 53 70 53q78 0 78 -47v-790q0 -49 63 -50h303q63 0 64 46v788q0 41 20 49q20 4 53 4q41 0 58 -6q16 -6 16 -53v-795q0 -16 26.5 -24.5t92.5 -20.5q47 -14 47 -61q0 -272 -158 -273q-14 0 -39 25q-18 18 -14 39q12 33 22.5 70.5t10.5 82.5q0 66 -78 66h-604 q-31 0 -31 63z" />
<glyph unicode="&#x447;" horiz-adv-x="991" d="M90 782q0 74 53 121q57 49 117 49q10 0 39 -30q23 -25 25 -62q-94 -88 -95 -131q0 -158 291 -158q285 0 285 158q0 41 -117 135q0 37 31 62q39 27 55 26q55 0 115 -49q23 -23 38 -54.5t15 -66.5q0 -133 -108 -204q-102 -66 -228 -66h-18v-496q0 -39 -74 -39q-68 0 -68 39 v496h-18q-133 0 -231 61q-106 68 -107 209z" />
<glyph unicode="&#x448;" horiz-adv-x="1497" d="M152 39v870q0 37 75 37q72 0 72 -37v-792q0 -51 66 -51h260q70 0 69 49v784q0 47 74 47t74 -41v-790q0 -49 67 -49h269q61 0 61 45v794q0 41 74 41q72 0 71 -49v-846q0 -51 -16 -51h-1194q-23 0 -22 39z" />
<glyph unicode="&#x449;" horiz-adv-x="1488" d="M147 39v872q0 37 76 37q72 0 72 -37v-794q0 -51 65 -51h261q70 0 69 49v786q0 47 74 47t74 -41v-792q0 -49 67 -49h269q61 0 61 45v796q0 41 74 41q72 0 71 -49v-848q0 -51 -16 -51h-526v-313q0 -39 -70 -39q-78 0 -78 51v301h-520q-23 0 -23 39z" />
<glyph unicode="&#x44a;" horiz-adv-x="1122" d="M96 797q0 150 58 149h614q25 0 25 -26q0 -6 -32 -95.5t-93 -265.5h4q395 -193 395 -424q0 -66 -63 -100q-29 -14 -61 -24.5t-58 -10.5h-561q-25 0 -25 43q0 10 8 31l160 409q27 70 51.5 133.5t43 112.5t28.5 79t10 34q0 53 -141 53q-84 0 -141.5 -34t-86.5 -95 q-6 -16 -14 -38.5t-18 -41.5l-21 -47q-31 -61 -49 -61q-33 0 -33 219zM483 100q0 -35 66 -34h182q68 0 107 45q43 49 43 102q0 39 -16.5 84t-51.5 94q-68 102 -162 107h-18q-150 -389 -150 -398z" />
<glyph unicode="&#x44b;" horiz-adv-x="1300" d="M152 35v880q0 31 75 31q72 0 72 -31v-331h12q88 -29 173 -71t161 -89q98 -66 150.5 -135.5t52.5 -141.5q0 -147 -242 -147h-430q-25 0 -24 35zM299 123q0 -25 23.5 -43.5t56.5 -18.5h172q49 0 85 28t36 69q0 88 -131 213q-111 109 -217 143h-25v-391zM1040 20v887 q0 39 74 39t74 -37v-889q0 -35 -107 -34q-41 0 -41 34z" />
<glyph unicode="&#x44c;" horiz-adv-x="897" d="M133 37v883q0 33 78 32q76 0 76 -30v-314h12q94 -31 182 -72.5t166 -93.5q102 -68 156.5 -141t54.5 -147q0 -154 -252 -154h-448q-25 0 -25 37zM287 129q0 -27 24.5 -46.5t59.5 -19.5h178q51 0 88 29t37 72q0 86 -137 219q-119 117 -226 154h-24v-408z" />
<glyph unicode="&#x44d;" horiz-adv-x="1060" d="M125 707q0 55 36 101t99 81q123 63 236 63q190 0 346 -121q160 -123 159 -329q0 -229 -145 -371q-74 -72 -165 -110.5t-195 -38.5q-86 0 -163 27.5t-143 80.5q-27 23 -44 48.5t-17 47.5q0 47 27 74q33 33 63 33l41 -57q27 -31 54.5 -60t52.5 -49q39 -27 87 -42t101 -15 q154 0 225 143q59 117 60 268h-17q-25 2 -40 4t-30.5 3t-34 1h-46.5h-156q4 -63 -16.5 -86.5t-73.5 -23.5q-59 0 -74 8q-33 23 -33 84q0 78 103 78q74 0 231 -6q39 -2 62.5 -3t41 -1h32h32.5h19q0 125 -84 229q-86 111 -226 111q-119 0 -186 -62q-49 -39 -92 -110 q-16 -25 -27.5 -43.5t-15.5 -18.5q-84 1 -84 62z" />
<glyph unicode="&#x44e;" horiz-adv-x="1198" d="M123 20v891q0 35 76 35q86 0 86 -31v-331h303q51 180 188 317q57 57 62 57q39 0 120 -81q158 -158 158 -377q0 -127 -90 -312q-106 -205 -203 -204q-39 0 -139 118q-57 70 -88 157t-31 192q0 18 2 37.5t6 35.5h-286v-504q0 -35 -92 -34q-72 0 -72 34zM668 539 q0 -197 135 -314q47 -41 88 -41q113 0 113 166q0 98 -27 183t-70 147q-35 41 -75.5 65.5t-75.5 24.5q-88 0 -88 -231z" />
<glyph unicode="&#x44f;" horiz-adv-x="866" d="M145 811q0 37 16.5 61.5t41 38t56.5 19.5t63 6h403q35 0 35 -49v-850q0 -49 -39 -53q-55 -4 -81 12t-24 45v455h-18q-53 -2 -96 -37t-92 -88q-47 -57 -66.5 -115.5t-28.5 -99.5l-6 -31v-55q0 -14 1 -28.5t1 -27.5q-10 -12 -24 -21t-37 -9q-8 0 -23.5 2t-31.5 6h2 q-27 12 -35 43t-8 82q0 57 30.5 117.5t77.5 118t103.5 105.5t109.5 79q-113 29 -221 92q-66 39 -87.5 85t-21.5 97zM324 778q0 -35 27.5 -75.5t64.5 -71.5q35 -23 83 -37t95 -14h18v180q0 119 -127 119q-57 0 -100 -25q-61 -35 -61 -76z" />
<glyph unicode="&#x450;" horiz-adv-x="700" d="M104 500q0 68 32 141.5t87 146.5q61 78 123 121t119 43q25 0 76 -67q23 -29 35 -56.5t12 -52.5q0 -49 -33 -92q-23 -27 -34 -36t-19 -11l-13 18q-41 63 -47 70q-49 70 -102 70q-29 0 -50.5 -19.5t-33.5 -52.5q-6 -27 -10 -52.5t-4 -54.5q0 -154 57 -153q41 0 145 49 q100 47 138 47q4 -4 8 -10q6 -14 20 -33q12 -20 19.5 -33.5t7.5 -25.5q0 -41 -31 -68q-37 -31 -57 -31q2 0 -45 48q-43 49 -72 49q-23 0 -45 -8.5t-41 -20.5q-53 -37 -53 -66q0 -27 10 -57.5t33 -69.5q43 -82 110 -81q80 0 146 49l8 -13q-49 -80 -108 -133q-41 -35 -77 -53 t-63 -18q-78 0 -170 213q-78 186 -78 303zM213 1384h176l60 -327l-37 2z" />
<glyph unicode="&#x451;" horiz-adv-x="700" d="M104 500q0 68 32 141.5t87 146.5q61 78 123 121t119 43q25 0 76 -67q23 -29 35 -56.5t12 -52.5q0 -49 -33 -92q-23 -27 -34 -36t-19 -11l-13 18q-41 63 -47 70q-49 70 -102 70q-29 0 -50.5 -19.5t-33.5 -52.5q-6 -27 -10 -52.5t-4 -54.5q0 -154 57 -153q41 0 145 49 q100 47 138 47q4 -4 8 -10q6 -14 20 -33q12 -20 19.5 -33.5t7.5 -25.5q0 -41 -31 -68q-37 -31 -57 -31q2 0 -45 48q-43 49 -72 49q-23 0 -45 -8.5t-41 -20.5q-53 -37 -53 -66q0 -27 10 -57.5t33 -69.5q43 -82 110 -81q80 0 146 49l8 -13q-49 -80 -108 -133q-41 -35 -77 -53 t-63 -18q-78 0 -170 213q-78 186 -78 303zM166 1118v139q0 66 72 66q68 0 67 -72v-135q0 -70 -67 -69q-72 0 -72 71zM467 1118v139q0 66 65 66q72 0 72 -72v-135q0 -70 -72 -69q-66 0 -65 71z" />
<glyph unicode="&#x452;" horiz-adv-x="1015" d="M84 973q-12 47 0 96h160v27.5v44t-1 50.5t-1 50q0 23 -1 41t-1 29v10q0 55 71 55q43 0 60.5 -15t17.5 -46v-246h236q8 -20 10 -41.5t-10 -54.5h-236v-277h29l22 15q45 27 77 46t59.5 30.5t56.5 16.5t67 5q57 0 102.5 -19.5t74 -52t44 -76t15.5 -92.5v-569 q0 -47 -23.5 -98.5t-57.5 -93t-73 -69.5t-67 -28q-18 0 -25.5 16.5t-7.5 32.5t24.5 34t36.5 26q39 23 53.5 75t14.5 125v33v72t-1 94t-1 100q0 63 -1 114.5t-1 74.5v12q0 37 -11.5 73t-34 64.5t-54 46t-70.5 17.5q-78 0 -138.5 -25.5t-107.5 -58.5h-2v-617q0 -39 -72 -38 q-74 0 -73 38v953h-160z" />
<glyph unicode="&#x453;" horiz-adv-x="806" d="M133 20v869q0 47 19 47h555q77 0 77 -182q0 -29 -3 -66t-9 -70q-8 -43 -16 -71.5t-15 -28.5q-10 0 -36.5 54.5t-63.5 150.5q-16 45 -39.5 79t-42.5 50q-33 23 -153 22q-125 0 -125 -75l2 -789q0 -31 -70 -30q-80 0 -80 40zM377 1057l57 327h178l-198 -325z" />
<glyph unicode="&#x454;" horiz-adv-x="1085" d="M125 502q0 207 160 329q156 121 346 121q109 0 235 -63q63 -35 99 -81t36 -101q0 -61 -83 -62q-6 0 -44 62q-23 37 -45 64.5t-45 45.5q-72 61 -188 62q-139 0 -225 -111q-84 -104 -84 -229h18q39 0 95.5 2t134.5 6q154 6 231 6q102 0 102 -78q0 -61 -32 -84 q-14 -8 -74 -8q-53 0 -73.5 23.5t-16.5 87.5h-156q-115 0 -213 -13h-16q0 -152 59 -268q72 -143 225 -143q53 0 101.5 15t87.5 42q23 18 52.5 50t53.5 59q10 12 16.5 22t12.5 18t12 17q31 0 64 -33q27 -27 26 -74q0 -23 -17 -48t-44 -48q-66 -53 -142.5 -80.5t-162.5 -27.5 q-102 0 -194.5 38.5t-166.5 110.5q-145 141 -145 371z" />
<glyph unicode="&#x455;" horiz-adv-x="978" d="M98 84q0 74 49 117q51 45 111 45q33 0 170 -88q139 -88 201 -88q74 0 110 69q33 57 33 121q0 180 -131 180h-23.5t-29.5 -2h-10q-4 0 -7.5 -1t-7.5 -1q-18 -2 -41.5 -2h-34.5q-307 0 -307 244q0 135 119 209q106 68 236 67q137 0 239 -63q47 -35 77 -91t30 -128 q0 -41 -158 -41q2 12 2 24.5v24.5q0 215 -199 215q-47 0 -83.5 -17.5t-63.5 -46.5q-23 -33 -37 -70.5t-14 -72.5q0 -66 39 -127h2q49 -68 123 -67q41 0 120 12q80 12 117 12q88 0 145 -69q20 -29 34 -74t14 -99q0 -295 -295 -294q-41 0 -125 45l-101 65h-2l-24 12h-2 q-63 0 -90 -61q-29 -61 -88 -61q-53 0 -76 16q-20 16 -21 86z" />
<glyph unicode="&#x456;" horiz-adv-x="514" d="M207 18v891q0 37 45 37h45q49 0 49 -37v-891q0 -35 -49 -34h-59q-31 0 -31 34z" />
<glyph unicode="&#x457;" horiz-adv-x="514" d="M57 1118v139q0 66 70 66q68 0 68 -72v-135q0 -70 -68 -69q-70 0 -70 71zM207 20v889q0 35 45 35h45q49 0 49 -35v-889q0 -35 -49 -34h-59q-31 0 -31 34zM356 1118v139q0 66 66 66q74 0 74 -72v-135q0 -70 -74 -69q-66 0 -66 71z" />
<glyph unicode="&#x458;" horiz-adv-x="444" d="M45 -461q0 16 9 39t24 51l6 17q16 35 28.5 61.5t20.5 44.5q41 123 59.5 278.5t18.5 348.5q0 78 -2 155.5t-8 143.5q0 6 -1 19.5t-3 23.5q-4 35 -9.5 80t-5.5 69q0 29 10.5 45.5t28 25.5t38 11t40.5 2q12 0 24.5 -44t20.5 -111.5t13 -148t5 -154.5q0 -260 -54 -477.5 t-154 -389.5q-35 -57 -59.5 -89t-41.5 -32q-8 0 -8 31zM170 1149v139q0 66 66 66q72 0 71 -74v-133q0 -70 -71 -70q-66 0 -66 72z" />
<glyph unicode="&#x459;" horiz-adv-x="1484" d="M109 37q0 55 16 78.5t51 27.5q37 8 61.5 47t39 94.5t20.5 118t6 117.5q0 49 -2 86t-4 51v16.5t-2 31.5q0 10 -1 21t-1 24q-2 27 -3 57.5t-1 46.5q0 55 28.5 69.5t67.5 14.5l446 -2q70 -2 70 -33v-295h12q123 -41 225.5 -93t177.5 -112.5t116 -124t41 -124.5 q0 -154 -252 -154h-449q-25 0 -24 37v833h-320q0 -35 -1 -92t-1 -112q-2 -66 -2 -136q-2 -90 -28.5 -186t-65.5 -176t-84 -131t-82 -51q-27 0 -41 17t-14 34zM901 129q0 -27 24.5 -46.5t59.5 -19.5h178q51 0 88 29t37 72q0 86 -137 219q-119 117 -225 154h-25v-408z" />
<glyph unicode="&#x45a;" horiz-adv-x="1447" d="M121 25v884q0 37 43 37h47q47 0 47 -37v-303h442v307q0 33 78 33q76 0 76 -31v-307h12q94 -31 182.5 -72.5t165.5 -93.5q102 -68 156.5 -141t54.5 -147q0 -154 -251 -154h-449q-25 0 -25 37v504h-442v-516q0 -35 -47 -35h-61q-29 0 -29 35zM854 129q0 -27 24.5 -46.5 t59.5 -19.5h178q51 0 88 29t37 72q0 86 -137 219q-119 117 -225 154h-25v-408z" />
<glyph unicode="&#x45b;" horiz-adv-x="1079" d="M70 1065h161v78q0 27 -1 52.5t-1 45.5v27q-2 12 -2 28.5v22.5q0 55 72 55q84 0 84 -61v-20.5t-2 -28.5v-199h233q29 -51 0 -96h-233v-262h27l26 16l27 14q41 27 68.5 42.5t50 24.5t47 12t61.5 3q47 0 90 -16.5t75 -45t51.5 -66.5t19.5 -81v-444q0 -10 5 -26.5t13 -32 t20.5 -26.5t24.5 -11q16 0 42 12t48 24h2q4 4 9.5 7.5t7.5 3.5l6 4q0 -63 -55.5 -101t-141.5 -38q-27 0 -49 15t-39.5 40.5t-27 58.5t-9.5 68v371q0 94 -39 145t-116 51q-78 0 -136.5 -20.5t-105.5 -53.5h-2v-637q0 -39 -76 -38q-74 0 -74 38v949h-159q-25 53 -2 96z" />
<glyph unicode="&#x45c;" horiz-adv-x="1036" d="M121 18v887q0 41 74 41t73 -39v-891q0 -37 -80 -36q-68 0 -67 38zM342 467q0 35 49 104.5t141 169.5q94 102 158 156.5t88 54.5q23 0 44.5 -10t33.5 -27q39 -59 39 -127q0 -18 -3 -40.5t-11 -45.5t-15.5 -43t-9.5 -20q2 2 -12.5 13.5t-36.5 27.5l-23 18 q-35 29 -63.5 44.5t-46.5 15.5q-27 0 -59.5 -21.5t-61.5 -50.5q-63 -76 -64 -119q0 -29 39 -90t105 -141q68 -80 124 -123t93 -43q35 0 98 41q6 0 6 -35q0 -45 -90 -117q-94 -76 -125 -75q-37 0 -219 213q-88 104 -133 170.5t-45 99.5zM444 1067l60 317h176l-199 -323z" />
<glyph unicode="&#x45d;" horiz-adv-x="946" d="M150 14v897q0 37 77 37q70 0 70 -41v-559h31l358 363h2v200q0 37 72 37q76 0 76 -45v-885q0 -37 -99 -36q-49 0 -49 43v602h-31l-358 -365h-2v-248q0 -33 -78 -32q-70 0 -69 32zM291 1384h176l59 -327l-37 2z" />
<glyph unicode="&#x45e;" horiz-adv-x="1038" d="M117 842q0 23 12 45t31 39l8 6q18 16 25.5 20t19.5 4q-2 0 27 -84q16 -49 28.5 -107t22.5 -114l6 -33q10 -59 20.5 -109t26.5 -79q57 -117 150 -213h30v82q0 41 6.5 94t17.5 111.5t27.5 115t38.5 103.5q53 106 115 164.5t123 58.5q41 0 113 -86h-4q-10 -160 -18.5 -221 t-18.5 -61q2 0 -10.5 20t-28.5 49h-2q-2 2 -1 3t-1 3q-14 25 -29.5 49.5t-34 44t-39 32t-43.5 12.5q-16 0 -41.5 -39t-51.5 -123t-45 -219.5t-24 -325.5l-8 -156q-6 -123 -10 -194.5t-12 -117.5t-20.5 -83t-35.5 -92l-45 -113q-20 -47 -57 -75.5t-57 -22.5q-33 12 -37 38.5 t0 45.5v8q0 2 1 4t1 4q63 100 105 170t65.5 134.5t34 137t10.5 179.5v10q0 4 -1 9t-1 12v30h-17q-18 2 -52 23.5t-87 99.5q-68 100 -112.5 202.5t-71.5 197t-38 173t-11 134.5zM283 1190q0 141 98 141q14 0 14 -12q0 -10 -5 -21.5t-13 -25.5q-10 -16 -16.5 -28.5t-6.5 -18.5 q0 -57 144 -58q59 0 120 21q78 20 109 51l53 53q35 35 45 35q4 0 4 -18q0 -14 -9 -31.5t-25 -42.5q-57 -76 -139.5 -123t-188.5 -47q-92 0 -138 36t-46 89z" />
<glyph unicode="&#x45f;" horiz-adv-x="1032" d="M172 0v930h133v-877h461v879h133v-932h-291v-283h-145l-2 283h-289z" />
<glyph unicode="&#x460;" horiz-adv-x="1708" d="M121 956q0 219 28.5 333t88.5 114q117 0 116 -57q-2 -18 -6 -45t-12 -56l-23 -76q-8 -29 -14 -80t-4 -124q0 -111 20.5 -236t55.5 -231.5t80 -176t96 -69.5q14 0 29.5 23.5t34 64.5t42 96.5t58.5 116.5q172 309 172 371v20v31q2 35 -7.5 83t-37.5 107q-41 84 -61.5 133.5 t-20.5 69.5q0 35 69 35q59 0 99.5 -43t72 -138.5t61 -251t66.5 -378.5l15 -86q10 -37 30.5 -70t43 -55.5t43 -35.5t30.5 -13q23 0 48.5 31.5t48 81t43 110.5t36 118.5t24.5 106.5t9 74q0 121 -38 246t-77 254q0 2 -1 3t-1 5q0 41 72 41q49 0 82 -13.5t54.5 -53.5 t30.5 -112.5t9 -191.5q0 -111 -29.5 -235.5t-87.5 -255.5q-12 -29 -37.5 -81t-57.5 -114.5t-67.5 -126t-71.5 -116t-68.5 -85t-55.5 -32.5q-12 0 -25.5 34.5t-27 87t-26.5 113t-23 111.5q-12 57 -21.5 94t-18 63.5t-14.5 48t-14 50.5l-8 30q-10 35 -19.5 66t-27.5 59h-27 q-43 -41 -100.5 -131t-110.5 -196q-18 -49 -42.5 -123t-51.5 -141.5t-51.5 -116.5t-38.5 -49q-25 0 -121 137q-262 377 -262 833z" />
<glyph unicode="&#x461;" horiz-adv-x="1349" d="M98 836q0 72 19 88q20 25 71 24q51 0 68 -121l18 -155l17 -148q14 -55 49 -123.5t88 -140.5h27q35 41 82 162t98 299q-35 76 -55.5 126t-20.5 66q0 35 72 35q70 0 127 -82q23 -35 56.5 -116.5t70.5 -188.5l106 -317q10 -23 39 -23q66 0 100 121q27 92 27 166 q0 76 -9 144.5t-28 117.5q-55 147 -55 150q0 29 78 28q88 0 125 -67q23 -45 22 -158v-59q0 -190 -112 -406q-72 -131 -141 -202.5t-132 -71.5q-10 0 -45 149q-59 258 -178 475h-35q-39 -94 -70.5 -181t-48.5 -142q-10 -35 -24.5 -89.5t-36.5 -121.5q-31 -90 -59 -90 q-14 0 -44 34.5t-65 90.5q-96 158 -148.5 345t-52.5 382z" />
<glyph unicode="&#x462;" horiz-adv-x="1482" d="M92 958q0 119 7 179.5t18.5 85t28 25.5t34.5 1h430v213q0 37 80 37q86 0 86 -39v-211h477q94 0 95 -196q0 -227 -33 -228q-25 0 -78 113l-66 154q-29 45 -102.5 69.5t-191.5 24.5q-49 0 -74 -18.5t-27 -47.5l8 -250q154 -102 274 -189t202.5 -169t127 -162t44.5 -168 q0 -182 -156 -182h-627q-39 0 -39 49v1071q0 66 -73 66q-236 0 -299 -127q-16 -43 -34 -90t-33 -87t-27.5 -65.5t-18.5 -25.5q-33 0 -33 167zM776 186q0 -111 156 -110h74q229 0 229 162q0 158 -145 303q-10 12 -69.5 63t-156.5 129l-57 47h-31v-594z" />
<glyph unicode="&#x463;" horiz-adv-x="1126" d="M96 766q0 164 68 164h315v192q0 35 68 35q61 0 61 -35v-194h346q23 0 36.5 -10.5t23.5 -32.5q10 -25 10 -94q0 -225 -39 -226q-2 0 -12 22.5t-27 61.5l-22 53q-4 12 -10.5 29t-12.5 27q-55 111 -274 110h-19v-278h13q66 -16 137 -57t145 -101q78 -63 122 -129.5 t44 -132.5q0 -102 -43 -135q-47 -35 -131 -35h-389q-27 0 -27 37v831h-117q-90 0 -135 -88l-49 -162q-27 -88 -55 -88q-27 0 -27 236zM608 133q0 -68 144 -67q88 0 116 16h2q50 28 50 98q0 102 -93 213q-84 104 -194 142h-25v-402z" />
<glyph unicode="&#x464;" horiz-adv-x="1394" d="M143 23v1327q0 53 84 53t84 -49v-547h301q16 82 52 164t81 147q51 72 115 134.5t127 103.5q80 49 125 49q37 0 105 -119q59 -109 59 -172q0 -29 -9.5 -52.5t-23.5 -39.5q-10 -12 -32.5 -27.5t-47.5 -31.5l-22 2q0 80 -41 168q-47 104 -135 104q-74 0 -138 -92 q-88 -121 -88 -299q0 -59 3 -109.5t12 -93.5h26q365 193 412 193q35 0 72 -66q10 -25 19 -55.5t9 -59.5t-14 -50t-37 -38q-23 -14 -48.5 -22t-47.5 -8q-4 8 -12 20q-6 10 -16.5 25.5t-22.5 38.5q-51 84 -84 84q-41 0 -136 -52q-111 -59 -110 -75q0 -47 20.5 -105.5 t57.5 -126.5q41 -70 88 -109.5t96 -39.5q96 0 223 120l4 -4q-6 -63 -153 -192q-70 -61 -120 -99t-67 -38q-121 0 -225 288q-86 240 -86 445q0 4 1 6t1 6v27h-293v-733q0 -43 -86 -43q-82 0 -82 43z" />
<glyph unicode="&#x465;" horiz-adv-x="1054" d="M113 35v868q0 33 32 33q115 0 115 -33v-344h240q23 125 133 250q127 143 221 143q25 0 78 -67q47 -63 47 -109q0 -49 -33 -92q-37 -47 -53 -47q-104 158 -164 158q-57 0 -80 -72q-18 -59 -18 -107q0 -154 57 -153q43 0 141 49q104 47 142 47l30 -43q12 -18 19.5 -32.5 t7.5 -26.5q0 -41 -31 -68q-41 -31 -55 -31l-47 48q-47 49 -74 49q-20 0 -42.5 -8.5t-43.5 -20.5q-53 -37 -53 -66q0 -27 11.5 -60.5t29.5 -68.5q47 -80 115 -79q78 0 143 49l10 -13q-43 -80 -108 -135q-82 -70 -142 -69q-39 0 -82 55t-86 158q-39 92 -59 167.5t-20 135.5 h-234v-465q0 -37 -57 -37q-90 0 -90 37z" />
<glyph unicode="&#x466;" horiz-adv-x="1556" d="M86 35q0 47 43 169t121 288q74 154 133 267t96 169l129 178q53 74 81 116t28 46q0 43 -90 98q23 41 114 41h35q158 -8 641 -1116q47 -109 69.5 -179.5t22.5 -86.5q0 -45 -106 -45q-84 0 -115 73l-149 396q-10 23 -52.5 35t-113.5 12q-113 0 -113 -47v-426q0 -43 -92 -43 q-78 0 -78 43v403q0 72 -160 72q-59 0 -95 -15.5t-48 -38.5q-23 -74 -48.5 -156.5t-47.5 -158.5l-27 -88q-10 -29 -30.5 -45t-49.5 -16q-98 0 -98 55zM436 580q0 -29 207 -29h102q343 0 345 33q-182 444 -326 587h-25q-37 -31 -85 -102.5t-101 -177.5q-55 -111 -86 -190.5 t-31 -120.5z" />
<glyph unicode="&#x467;" horiz-adv-x="1128" d="M98 43q0 27 32 103.5t95 181.5q63 104 106.5 167.5t65.5 88.5q20 23 49 55.5t68 77.5l18 22h5l-5 9q-16 33 -24 53t-8 35q0 20 11 41.5t28 37.5q45 33 75 33q23 0 90.5 -104.5t178.5 -308.5q104 -195 161.5 -336.5t57.5 -188.5q0 -31 -88 -30q-63 0 -84 34l-76 193 q-47 96 -141 96q-84 0 -84 -47l2 -242q0 -35 -90 -34q-45 0 -45 34v246q0 43 -88 43q-47 0 -82 -22.5t-52 -55.5q0 -8 -4 -16q0 -4 -2 -10t-2 -11q-6 -33 -13 -66.5t-15 -62.5q-29 -80 -91 -79q-29 0 -41 10h-2q-6 2 -6 53zM354 379q0 -25 64 -25h291q55 1 55 21 q0 33 -80 178q-78 141 -119 141q-55 0 -133 -137q-78 -131 -78 -178z" />
<glyph unicode="&#x468;" horiz-adv-x="2009" d="M123 23v1331q0 53 80 53q78 0 78 -49l2 -377h698q197 276 197 287q0 41 -88 98q23 41 108 41h35q74 -4 227.5 -287.5t376.5 -828.5q18 -45 33.5 -90t28 -82t19.5 -62.5t7 -31.5q0 -45 -98 -45q-82 0 -109 73l-143 396q-16 47 -158 47q-106 0 -106 -47v-426q0 -43 -86 -43 q-76 0 -76 43v403q0 72 -152 72q-119 0 -135 -54q-33 -102 -59 -202l-58 -201q-23 -61 -75 -61q-94 0 -95 55q0 59 94.5 287.5t282.5 607.5h-669v-907q0 -43 -82 -43q-78 0 -78 43zM907 580q0 -29 197 -29h74q350 0 352 33q-29 72 -53.5 126t-40.5 93l-29 69q-2 4 -6 11.5 t-4 9.5q-41 88 -87 159.5t-87 118.5h-27q-35 -29 -81 -101.5t-97 -176.5q-51 -109 -81 -190.5t-30 -122.5z" />
<glyph unicode="&#x469;" horiz-adv-x="1509" d="M139 14v883q0 39 70 39q76 0 76 -35v-289h508q4 4 7 7.5t7 7.5q23 20 50.5 49t57.5 63h3l-39 97q0 47 39 79q45 33 75 33q51 0 271 -416q106 -205 159.5 -340t53.5 -188q0 -25 -84 -24q-63 0 -84 32l-76 174q-23 47 -58.5 82t-82.5 35q-82 0 -82 -47v-242q0 -35 -88 -34 q-47 0 -48 34v246q0 43 -88 43q-47 0 -79.5 -21.5t-49.5 -56.5l-20 -80q0 -4 -2 -10t-2 -10l-17 -66q-35 -80 -90 -79q-57 0 -57 57q0 25 31.5 99.5t87.5 168.5q49 86 90 149.5t70 102.5h-463v-543q0 -35 -101 -34q-45 0 -45 34zM733 379q0 -25 64 -25h290q56 1 56 21 q0 33 -80 178q-78 141 -119 141q-55 0 -133 -137q-78 -131 -78 -178z" />
<glyph unicode="&#x46a;" horiz-adv-x="1501" d="M92 129q0 23 29 77t74 124.5t101 149.5t109.5 150.5t99.5 127t73 78.5q59 51 90.5 81.5t31.5 36.5q-2 10 -17 30t-40 36l-432 268q-33 20 -33 49q0 53 58 54h1101q43 0 43 -41q0 -47 -112 -117l-162 -90q-47 -27 -88 -55.5t-74 -53t-51.5 -43t-18.5 -24.5 q0 -14 51.5 -65.5t147.5 -129.5l41 -35q33 -29 83 -103.5t116 -182.5q63 -111 99 -202t36 -132q0 -33 -20.5 -59.5t-48 -46t-56.5 -31t-47 -11.5q-10 0 -19.5 19.5t-18.5 51.5t-18.5 72t-15.5 81l-30 176q-10 51 -37 116.5t-64 120.5q-18 29 -55 76t-90 115h-29 q-37 -49 -37 -148q0 -39 3 -114.5t7.5 -157.5t7.5 -156t3 -110q0 -123 -95 -123q-37 0 -56 24.5t-26.5 62.5t-5.5 84t7.5 89t10.5 76.5t5 50.5v426h-57q-113 -111 -197 -279t-129 -354l-27 -113q-25 -82 -41 -82q-20 0 -51 14.5t-59.5 37t-49 50t-20.5 54.5zM381 1286 q0 -18 48 -56t132 -87h2q82 -47 139.5 -73t88.5 -26q74 0 368 240h2v27h-360q-86 0 -171 1t-171 1q-78 0 -78 -27z" />
<glyph unicode="&#x46b;" horiz-adv-x="1355" d="M100 137q0 33 30 99.5t85 144.5q80 104 166 164q113 80 207 80h18l-6 24h-2q-55 35 -111.5 63.5t-101.5 45.5l-98 35q-20 6 -37 11t-12 5q-84 37 -84 92q0 35 45 35h968q27 0 27 -31q0 -43 -111 -92q-27 -10 -51 -19.5t-51 -19.5l-63 -24q-96 -45 -164 -93h-2v-28h18 q139 0 334 -170q98 -86 145 -177t47 -169q0 -59 -51 -99q-57 -35 -106 -34q-10 0 -33 59q-10 41 -26.5 108.5t-41.5 145.5q-12 35 -40.5 77t-63.5 85q-41 47 -85 73.5t-79 28.5h-18v-549q0 -29 -74 -28q-72 0 -72 34v545h-18q-41 0 -83 -29.5t-83 -83.5h-2 q-29 -45 -53.5 -91t-38.5 -89l-11 -57q0 -4 -2 -11.5t-2 -11.5l-12 -67q-25 -139 -68 -139q-35 0 -88 53q-45 45 -45 104zM326 852q0 -6 120 -55q170 -76 228 -76q18 0 61 15.5t96 37.5q66 31 101 50.5t35 29.5q0 16 -43 16h-557q-41 0 -41 -18z" />
<glyph unicode="&#x46c;" horiz-adv-x="1945" d="M133 23v1314q0 53 84 54q84 0 84 -50v-534h651q152 127 152 147q0 31 -55 66l-373 229q-41 29 -66.5 50.5t-25.5 37.5q0 53 55 54h1104q41 0 41 -41q0 -49 -115 -119l-12 -6q-6 -4 -13.5 -9.5t-17.5 -9.5h-2l-35 -18l-80 -45q-63 -35 -112 -69t-82 -66q-37 -37 -37 -41 q0 -10 28.5 -41t79.5 -76l132 -113q29 -29 82 -113.5t118 -195.5q61 -109 97 -189.5t36 -121.5q0 -27 -18 -54.5t-45 -48.5q-63 -45 -109 -45q-18 0 -30 51l-72 349q-20 72 -80.5 185.5t-163.5 242.5h-33q-18 -129 -18 -314v-83t2 -113t2 -103.5v-72.5q0 -123 -94 -123 q-33 0 -53.5 30.5t-20.5 71.5q0 12 2 194.5t6 516.5h-55q-111 -109 -191.5 -270.5t-134.5 -362.5q-53 -195 -69 -195q-41 0 -111 52q-70 51 -69 104q0 35 47 125t125 203q74 104 134 181t99 118h-600v-733q0 -43 -86 -43q-82 0 -82 43zM784 1286q0 -18 48.5 -56t132.5 -87h2 q82 -47 139 -73t88 -26q74 0 369 240h2v27h-361q-86 0 -171 1t-171 1q-78 0 -78 -27z" />
<glyph unicode="&#x46d;" horiz-adv-x="1730" d="M129 10v893q0 33 80 33q66 0 65 -31v-373h476q123 90 223 93h18l-6 24h-4l-102 60q-47 16 -101.5 37.5t-101.5 37.5q-137 51 -137 117q0 35 45 35h968q27 0 27 -31q0 -41 -113 -92l-163 -63q-96 -45 -164 -93h-2v-28h18q139 0 334 -170q98 -86 145 -177.5t47 -168.5 q0 -63 -53 -99q-53 -35 -104 -34q-14 0 -33 59q-10 41 -26.5 108.5t-41.5 145.5q-12 31 -40.5 74t-63.5 88q-41 47 -85 73.5t-79 28.5h-18v-549q0 -29 -74 -28q-72 0 -72 34v545h-18q-41 0 -83 -29.5t-83 -83.5q-70 -102 -94 -180l-31 -162q0 -2 -1 -3t-1 -3 q-20 -96 -43 -114q-4 -2 -8 -3t-11 -1q-35 0 -88 53q-45 45 -45 104q0 29 18.5 83t53.5 106q31 45 61.5 82.5t59.5 64.5h-404v-459q0 -35 -38 -34q-106 0 -107 30zM680 852q0 -6 121 -55q170 -76 227 -76q18 0 61.5 15.5t96.5 37.5q66 31 100.5 50.5t34.5 29.5q0 16 -43 16 h-557q-41 0 -41 -18z" />
<glyph unicode="&#x46e;" horiz-adv-x="1116" d="M109 -66q0 37 16 72t44 60.5t62.5 41t71.5 15.5q23 0 70 -4t100 -10t102.5 -11.5t75.5 -5.5q45 0 80 29t58.5 75t35 102t11.5 112q0 55 -18.5 105t-51.5 87t-78 59.5t-96 22.5q-55 0 -88 -11t-64 -46q-68 -74 -67 -164q0 -82 -17 -82h-155q-14 0 -15 72q0 72 41 127 t101.5 92t131 56.5t132.5 19.5q45 0 80 19t57.5 53t33.5 78t11 91q0 92 -48 152.5t-144 60.5q-49 0 -94.5 -19.5t-80 -52t-55 -75.5t-20.5 -88v-41h-129v63q0 51 23.5 99.5t62.5 85t87 59t97 22.5q55 1 55 15q0 8 -22.5 44t-71.5 99q-86 113 -86 133q0 31 19 31h82l149 -301 h33l94 199q47 102 127 102q66 0 66 -61q0 -90 -54 -91h-10q-4 0 -10 1t-13 1q-12 2 -25 2.5t-20 0.5q-12 0 -29.5 -16.5t-32.5 -39t-25.5 -46t-10.5 -38.5q0 -25 82 -61q41 -16 74 -33.5t49 -34.5q31 -25 47 -72t16 -88q0 -49 -11 -93t-34.5 -80.5t-61.5 -61.5t-91 -33h-2 q285 -131 284 -362q0 -29 -6 -71t-18 -86t-29.5 -84t-40.5 -60q-47 -41 -96 -52.5t-102 -11.5q-20 0 -60.5 1t-85.5 5h-12q-41 4 -77 6t-54 2q-41 0 -73 -13t-52.5 -33.5t-30.5 -45t-10 -45.5q0 -63 26.5 -84.5t88.5 -21.5q82 0 229 53q145 51 219 51q190 0 191 -194 q0 -55 -199 -56q2 2 -4 9l-8 10q-6 10 -33 33l-8 6q-29 25 -53.5 40t-43.5 15q-27 0 -80 -9t-100 -32q-98 -41 -137 -41q-137 0 -204.5 75t-67.5 197z" />
<glyph unicode="&#x46f;" horiz-adv-x="925" d="M104 -57q0 63 46.5 106t101.5 43q10 0 34.5 -2t53.5 -6l55 -6q43 -4 84 -8t64 -4q78 0 115.5 57t37.5 153q0 45 -15 86t-42 73t-63.5 50.5t-79.5 18.5q-106 0 -150 -68q-6 -10 -8 -17t-6 -18q-4 -12 -8.5 -28.5t-14.5 -40.5q-10 -29 -21.5 -48.5t-19.5 -19.5h-102 q-20 0 -21 60q0 66 22.5 103.5t88.5 72.5q113 57 240 57q31 0 58.5 17.5t48 45t32.5 61.5t12 67q0 152 -162 151q-76 0 -122 -45t-74 -135q-6 -25 -12.5 -44.5t-8.5 -19.5h-84q-20 0 -20 45q0 174 190 236q86 25 86 33t-65 104l-74 107q0 39 25 39l6 -2h28l138 -246h32 q33 72 51.5 111.5t22.5 45.5q57 88 121 89q59 0 59 -58q0 -61 -61 -61h-14q-61 0 -82 -21q-2 -2 -11.5 -16t-19.5 -31.5t-18.5 -34t-8.5 -22.5q0 -31 72 -60q88 -37 102 -47q51 -33 52 -108q0 -59 -36 -118.5t-104 -96.5h-2q88 -51 146.5 -132t58.5 -167 q0 -113 -62.5 -186.5t-162.5 -73.5q-16 0 -50 4t-71 8t-70.5 7t-50.5 3q-143 0 -143 -82q0 -98 125 -98q29 0 78 9t102 20q53 10 98 18t68 8q143 0 143 -78q0 -68 -24.5 -96.5t-92.5 -28.5q-31 0 -100 50q-35 25 -55.5 37t-32.5 12q-20 0 -53 -7.5t-68 -17.5 q-37 -10 -69.5 -17t-44.5 -7q-98 0 -158 58t-60 157z" />
<glyph unicode="&#x470;" horiz-adv-x="1431" d="M90 1290q0 27 11.5 47.5t27.5 34.5t33.5 21.5t30.5 7.5q8 0 23 -34t30.5 -79t30 -90t24.5 -65l23 -54q2 -4 5 -13t7 -13q68 -147 136.5 -224t113.5 -90h22v617q0 45 82 45q84 0 84 -39v-703h19q47 2 91 67t103 206l152 356q25 57 50 87t56 30q135 0 135 -145 q0 -23 -7 -59t-18.5 -70.5t-22.5 -60.5t-19 -26q2 0 -11.5 26t-33 57.5t-41 57t-33.5 25.5q-10 0 -22.5 -13t-24.5 -33.5t-22.5 -46t-16.5 -50.5q-27 -109 -68 -200t-86 -161.5t-91 -119.5t-85 -70h-4v-493q0 -43 -88 -43q-80 0 -80 43l-6 471q-47 29 -102.5 83 t-112.5 122.5t-110.5 147.5t-94.5 157.5t-65.5 152.5t-24.5 133z" />
<glyph unicode="&#x471;" horiz-adv-x="1368" d="M82 821q0 20 10 41t27.5 38.5t38 27.5t41.5 10q14 0 27.5 -40t25.5 -83l12 -41q31 -117 108 -252t201 -270h15q25 4 35 24.5t12 49.5l-19 446q-4 113 -8 223.5t-8 223.5q0 37 15.5 71.5t41 62t59.5 45t68 17.5v-53q0 -23 -1 -64t-3 -88q-2 -41 -2 -75.5v-51.5v-905h2 q8 -10 33 -10q29 0 63.5 37t68.5 96t64.5 134t51.5 153q23 92 38 149.5t19 71.5q53 145 123 145q27 0 49.5 -18t40 -49t26.5 -72t9 -86q0 -49 -16.5 -94t-40.5 -45q-10 16 -29 39q-33 41 -90 114h-14q-29 0 -49.5 -22.5t-32.5 -58.5l-27 -115q-31 -129 -96.5 -261 t-169.5 -268h-2v-92q0 -20 1 -37.5t1 -33.5v-33q0 -150 -23.5 -264.5t-65.5 -192.5t-99.5 -118t-125.5 -40q-27 0 -26 52q0 16 28 30l52 25h2q98 70 98 383v55v64t-2 86q0 20 -2 42.5t-6 45.5h-2q-61 41 -125 105.5t-123 141t-114.5 162.5t-102.5 172q-39 76 -60.5 140.5 t-21.5 109.5z" />
<glyph unicode="&#x472;" horiz-adv-x="1032" d="M117 711q0 123 54 252t153 251q74 90 138 141.5t105 51.5q27 0 115 -78q272 -246 272 -584q0 -406 -319 -688q-84 -72 -117 -71q-39 0 -127 86q-274 274 -274 639zM233 874q0 -377 267 -606q78 -70 137 -69q115 0 164 137q37 98 37 217q0 381 -242 586q-72 61 -129 61 q-104 0 -172 -123q-61 -109 -62 -203zM260 680q80 68 164 68q39 0 106 -21q37 -12 66 -17t49 -5q100 0 148 36l14 -18q-29 -39 -88 -64q-64 -26 -107 -26q-45 0 -127 24q-41 12 -75.5 18.5t-57.5 6.5q-8 0 -19 -2t-24 -8q-4 -2 -11 -4t-3 -2l-8 -4q0 -2 -4 2q-4 2 -8.5 6 t-14.5 10z" />
<glyph unicode="&#x473;" horiz-adv-x="714" d="M104 449q0 33 14.5 83t37 106t51.5 111.5t58.5 100.5t58 73.5t49.5 28.5q37 0 119 -82q158 -158 157 -372v-13q0 -74 -29.5 -159.5t-72.5 -161.5t-93.5 -126t-93.5 -50q-27 0 -69.5 36.5t-84.5 100t-72 147.5t-30 177zM205 506q37 10 65 10q14 0 45 -7t65 -14.5 t64.5 -14.5t47.5 -7h36q-10 61 -33.5 114.5t-56 92.5t-70.5 61.5t-77 22.5q-86 0 -86 -227v-31zM211 451q8 -43 29.5 -90.5t51.5 -86t64.5 -64.5t69.5 -26q113 0 113 166q0 16 -1 32.5t-3 33.5q-23 -6 -41.5 -10.5t-34.5 -4.5t-49 7.5t-69 16.5t-72 16.5t-58 9.5z" />
<glyph unicode="&#x474;" horiz-adv-x="1083" d="M94 1331q0 70 96 70q43 0 60 -8q10 -4 15 -19.5t9 -38.5q27 -137 55.5 -280.5t57.5 -286.5l113 -567h37q88 547 184 940q68 279 180 278q18 0 43 -38t45 -93q18 -51 29.5 -99t11.5 -83q0 -25 -7 -57.5t-19 -71.5q-31 -96 -52 -96l-14 28q-8 14 -17.5 35t-23.5 49 q-53 113 -80 113q-31 0 -59.5 -60.5t-52.5 -160.5q-20 -92 -40 -195.5t-38.5 -204t-33.5 -192.5t-24 -166q-8 -61 -12 -95t-8 -34h-109q-78 0 -92 76l-252 1235v10q0 2 -1 4t-1 8z" />
<glyph unicode="&#x475;" horiz-adv-x="907" d="M88 903q0 47 98 47q41 0 56 -45l90 -385q23 -98 46 -194.5t46 -190.5h37q33 168 59.5 286t44.5 183q51 172 104.5 261t106.5 89q31 0 76 -82q16 -33 26.5 -65.5t10.5 -61.5q0 -20 -6 -43.5t-17 -46.5q-29 -61 -43 -61q-2 8 -10 18q-6 10 -15.5 23.5t-19.5 32.5 q-45 76 -73 75q-55 0 -136 -290q-35 -129 -55 -219.5t-29 -147.5q-2 -4 -2 -10t-2 -17q0 -4 -1 -10t-1 -8q0 -4 -1 -6t-1 -4v-8q-4 -12 -6 -19q-2 -4 -2 -6l-135 2q-16 0 -39 49q-25 59 -117 420q-43 180 -66.5 291.5t-23.5 142.5z" />
<glyph unicode="&#x476;" horiz-adv-x="1083" d="M104 1320v11q0 70 97 70q43 0 59 -8q10 -4 15.5 -19.5t9.5 -38.5l204 -1134h37q45 274 91.5 498.5t93.5 420.5q35 133 81 206t99 73q20 0 42.5 -35t45.5 -94q18 -53 29.5 -100.5t11.5 -84.5q0 -25 -7 -56.5t-20 -72.5q-31 -94 -51 -94l-55 111q-27 57 -48.5 84.5 t-31.5 27.5q-63 0 -113 -221q-23 -96 -42 -195.5t-36.5 -194.5t-32 -184t-24.5 -163q-8 -61 -12 -95t-8 -34h-109q-78 0 -92 76l-232 1235q-2 4 -2 11zM158 1825h176l57 -328l-37 2zM510 1825h176l59 -328l-38 2z" />
<glyph unicode="&#x477;" horiz-adv-x="907" d="M90 901q0 47 98 47q41 0 56 -45l90 -385l90 -383h37q33 168 59.5 286t44.5 183q51 172 104.5 261t106.5 89q31 0 76 -82q16 -33 26.5 -65.5t10.5 -61.5q0 -20 -6 -43.5t-17 -46.5q-29 -61 -43 -61q-2 8 -10 18q-6 10 -15.5 23.5t-19.5 32.5q-45 76 -73 75 q-55 0 -136 -290q-35 -129 -55 -219.5t-29 -147.5q-2 -4 -2 -10t-2 -17q0 -4 -1 -10t-1 -8q0 -4 -1 -6t-1 -4v-8q-4 -12 -6 -19q-2 -4 -2 -6l-135 2q-16 0 -39 49q-25 59 -117 420q-43 180 -65.5 290.5t-22.5 141.5zM145 1391h156l61 -344l-18 2zM485 1391h156l61 -344 l-18 2z" />
<glyph unicode="&#x478;" horiz-adv-x="1935" d="M100 707q0 121 52.5 249.5t150.5 251.5q72 92 133.5 142.5t102.5 50.5q12 0 42.5 -21.5t67.5 -56.5q131 -123 200 -269.5t69 -312.5q0 -201 -81 -372.5t-235 -313.5q-76 -69 -113 -69t-120 84q-268 268 -269 637zM201 872q0 -180 68.5 -337.5t197.5 -278.5 q39 -37 76 -55.5t65 -18.5q51 0 90 29t66 79t40 116.5t13 142.5q0 184 -63.5 336.5t-178.5 259.5q-33 29 -70.5 46t-64.5 17q-53 0 -97 -33.5t-75.5 -84t-49 -109.5t-17.5 -109zM1051 848q0 23 12 45t31 39l8 6q18 16 25.5 20.5t19.5 4.5l8 -31t20.5 -77t25.5 -99.5 t24 -98.5l8 -39q16 -80 33.5 -136t40 -100t51 -81t69.5 -78h31v82q0 106 26.5 220t73 209t104.5 156.5t124 61.5q41 0 112 -86h-4q-10 -160 -20 -221t-21 -61q-6 0 -22 32.5t-41 72.5t-57.5 74t-71.5 34q-16 0 -42 -37t-51.5 -120t-45 -218t-23.5 -332q-4 -113 -9 -191.5 t-5 -134.5v-26q0 -61 -3 -102.5t-12.5 -81t-27 -90t-45.5 -130.5q-16 -45 -50 -72.5t-57 -27.5q-29 0 -38 24.5t-9 39.5q0 16 2 22v8q0 2 1 4t1 4q63 100 102.5 170t60 134.5t26.5 137t8 179.5q0 10 -1 30.5t-3 30.5h-17q-8 2 -19 5.5t-28.5 14.5t-39 35.5t-52.5 67.5 q-72 100 -117 204t-70.5 197t-35.5 173t-10 133z" />
<glyph unicode="&#x479;" horiz-adv-x="1572" d="M111 449q0 49 25.5 123.5t70.5 168.5q51 102 95 156.5t77 54.5q37 0 119 -82q157 -157 157 -372q0 -127 -88 -308q-104 -203 -200 -202q-43 0 -142 116q-115 139 -114 345zM211 537q0 -193 133 -310q49 -43 88 -43q113 0 113 166q0 205 -96 326q-70 88 -152 88 q-86 0 -86 -227zM731 848q0 23 12.5 45t32.5 41l8 8h2q16 14 22.5 17.5t16.5 3.5q2 -12 9 -27q4 -12 9 -26.5t9 -30.5q14 -47 26.5 -103.5t22.5 -109.5l8 -41q12 -53 24.5 -106.5t24.5 -82.5q57 -117 150 -213h31q-2 23 -2 42.5v39.5q0 41 6 94.5t17 111.5t28.5 114.5 t40.5 103.5q53 106 114.5 164.5t122.5 58.5q41 0 113 -86h-4q-10 -160 -20.5 -221t-20.5 -61l-16 24q-14 20 -35 58q-14 23 -28.5 46t-32 42.5t-38 31t-45.5 11.5q-18 0 -43.5 -39t-50 -123t-44 -219t-23.5 -326q-6 -117 -9.5 -196.5t-5.5 -135.5v-28q-2 -59 -4 -99.5 t-10 -80t-24.5 -89t-47.5 -127.5q-20 -47 -57 -75.5t-57 -22.5q-33 14 -36 42t1 48v10q63 100 101 170t58.5 134.5t27.5 137t7 179.5v10q0 4 -1 9.5t-1 11.5v30h-16q-18 2 -52 23.5t-87 99.5q-68 100 -113 202.5t-71.5 197t-38 173.5t-11.5 134z" />
<glyph unicode="&#x47a;" horiz-adv-x="1560" d="M92 729q0 121 31 217t91 173t152.5 138.5t215.5 112.5q168 70 219 70q12 0 40.5 -7.5t63.5 -19.5q154 -57 267.5 -120.5t187.5 -143.5t110.5 -182.5t36.5 -237.5q0 -424 -262 -602q-10 -6 -43 -21.5t-77 -34t-94 -38t-96 -35.5t-83 -26.5t-51 -10.5q-23 -2 -52.5 6 t-64.5 21l-61 20q-2 0 -3.5 1t-3.5 1l-51 21q-221 74 -347 251t-126 447zM283 725q0 -113 21.5 -224.5t61.5 -199.5t94 -142.5t120 -54.5q25 0 57.5 10.5t64 21.5t58.5 21.5t41 10.5q12 0 39.5 -10.5t60.5 -21.5t65.5 -21.5t53.5 -10.5q63 0 118.5 58.5t95.5 148.5t62.5 200 t22.5 214q0 96 -20.5 195.5t-58.5 180.5t-94 132t-128 51q-20 0 -54 -13.5t-68 -28.5t-60.5 -28.5t-34.5 -13.5q-10 0 -39 13.5t-61.5 28.5t-65.5 28.5t-53 13.5q-70 0 -125.5 -48t-94 -127t-59 -179.5t-20.5 -204.5z" />
<glyph unicode="&#x47b;" horiz-adv-x="1417" d="M94 467q0 233 211 369q195 119 424 118q297 0 481 -166q154 -139 154 -321q0 -119 -58.5 -210t-149.5 -152.5t-203.5 -92t-223.5 -30.5t-223.5 30.5t-204.5 92t-149.5 151.5t-57.5 211zM301 467q0 -80 35 -154.5t94 -131t136 -91.5t163 -35t164 34t136 90.5t93 131 t35 156.5q0 86 -33.5 160.5t-92 130t-136.5 86t-166 30.5q-90 0 -168 -30.5t-135 -86t-91 -130t-34 -160.5z" />
<glyph unicode="&#x47c;" horiz-adv-x="1988" d="M133 731q0 63 13.5 137t37 149t55 144.5t68.5 122.5t76 86t78 33q141 0 141 -107q0 -74 -26.5 -114.5t-79.5 -40.5q-74 0 -122 -51.5t-77 -120t-40 -140t-11 -114.5q0 -37 11 -96.5t32.5 -127t54.5 -136t74 -123t90 -89t106 -34.5q33 0 76 21.5t87 60t86 92t75 114.5l4 9 q10 18 21.5 31.5t37.5 13.5q31 0 45.5 -18.5t30.5 -53.5q25 -47 58.5 -95t73.5 -87t87 -63.5t101 -24.5q172 0 256 147t84 412q0 143 -57.5 326.5t-145.5 381.5q0 31 20 31q72 0 207 -250q66 -125 100.5 -257t34.5 -236q0 -143 -37.5 -267.5t-104 -216.5t-155 -144 t-188.5 -52q-117 0 -215 68.5t-178 187.5h-29q-92 -119 -181 -187.5t-181 -68.5q-104 0 -194.5 60t-157 162.5t-104.5 238t-38 286.5zM506 1673q0 25 17.5 57.5t47.5 67.5q170 193 385 193q57 0 112.5 -18.5t110 -48.5t107.5 -66.5t107 -75.5l10 -8q31 -31 77 -52.5 t79 -33.5l18 -7q18 -8 32.5 -14t26.5 -20q6 -10 6 -17q0 -10 -12 -14t-16 -4q-18 2 -47 14t-60.5 30.5t-62.5 38t-55 38.5q-195 145 -420 145q-55 0 -111.5 -16.5t-102.5 -39t-78 -49t-40 -47.5q-10 -25 -18.5 -44t2.5 -48q-8 -4 -50 -4q-8 0 -19 -1t-21.5 1t-17.5 11.5 t-7 31.5zM848 1698q20 14 49 27.5t56.5 23.5t53 15t42.5 5q23 0 41 -14t30.5 -35.5t19.5 -48t7 -53.5q0 -39 -17 -82q-4 -8 -20 -24.5t-38.5 -33t-47.5 -28.5t-45 -12q-15 0 -21 4q-6 2 -6 8q0 10 24.5 27.5t54.5 38t54.5 39t24.5 32.5q0 41 -35 57.5t-78 16.5 q-53 0 -114 -23l-13 -4z" />
<glyph unicode="&#x47d;" horiz-adv-x="1490" d="M131 477q0 31 7 77t21.5 99.5t35 105.5t46 95t56.5 69.5t68 26.5q96 0 96 -69q0 -45 -15.5 -64.5t-37 -28t-45 -11.5t-41.5 -15q-14 -20 -27.5 -53t-24 -74t-16.5 -87t-6 -89t14 -108.5t44 -128t73 -107.5t98 -45q25 0 54.5 16t60.5 45t60.5 67t54.5 78v3q10 18 18 26 t31 8t32 -9t19 -28h2q2 -2 1 -3t1 -3q18 -35 43 -69.5t53.5 -64.5t62.5 -48t70 -18q104 0 167 96t63 270q0 47 -9.5 106.5t-26.5 124t-43 132t-56 131.5q6 25 22 24q33 0 64.5 -31.5t58.5 -80.5t48.5 -110.5t37.5 -119t24.5 -105.5t8.5 -73q0 -92 -25.5 -174t-72 -143.5 t-110 -96t-138.5 -34.5q-84 0 -154 49t-129 127h-29q-66 -78 -130 -127t-126 -49q-78 0 -142 40t-111.5 107.5t-74 156.5t-26.5 187zM229 1247q0 25 19.5 58.5t48.5 68.5q84 94 180 143.5t203 49.5q57 0 112.5 -17.5t109.5 -46t106.5 -65.5t101.5 -74l35 -27 q27 -20 55.5 -33.5t57 -24.5t55 -24.5t49.5 -31.5l-6 -2q0 -6 -1 -19.5t-1 -11.5h-19q-18 0 -46.5 12t-59.5 30.5t-61.5 39t-55.5 37.5q-96 66 -206.5 106.5t-213.5 40.5q-49 0 -102 -16.5t-101.5 -41t-85 -54t-51.5 -58.5q-6 -6 -4 -19.5t2 -26.5t-10 -22.5t-43 -9.5h-18 q-25 0 -37.5 6.5t-12.5 32.5zM571 1274q47 31 102.5 51.5t96.5 20.5q51 0 75.5 -44.5t24.5 -107.5q0 -20 -5 -43t-13 -39q-4 -8 -20.5 -24.5t-38 -33t-47 -28.5t-46.5 -12q-4 0 -16 4v8q0 14 23.5 32.5t51 38t51.5 37t24 29.5q0 41 -33 57.5t-80 16.5q-35 0 -71 -5t-58 -18z " />
<glyph unicode="&#x47e;" horiz-adv-x="1716" d="M125 956q0 438 117 439q117 0 116 -58q0 -18 -5 -44.5t-13 -55.5l-23 -76q-6 -18 -6 -20q-12 -55 -12 -176q0 -156 27.5 -298.5t87.5 -267.5q68 -147 137 -147q27 0 47 53q16 41 46 106.5t71 141.5q172 309 172 371v20q2 35 -3 87t-42 126q-41 86 -61.5 134t-20.5 69 q0 35 69 35q41 0 61.5 -10.5t43.5 -32.5q55 -57 97 -248t97 -512l15 -86q10 -37 30.5 -70t43 -55.5t43 -35.5t30.5 -13q72 0 144 231q66 213 65 291q0 55 -10 121.5t-27 130.5q-16 55 -38.5 119.5t-39.5 120.5q0 2 -1 3t-1 5q0 41 72 41q70 0 113 -33q63 -51 63 -330 q0 -111 -29.5 -235.5t-87.5 -255.5q-39 -86 -101 -202t-140 -245q-31 -51 -60.5 -79.5t-56.5 -28.5q-12 0 -25.5 34.5t-28 87t-26.5 113t-22 111.5q-8 37 -15.5 69.5t-11.5 49.5q-14 37 -23.5 71.5t-17.5 65.5l-8 30q-10 35 -19.5 66t-27.5 59h-27q-43 -41 -100.5 -131 t-110.5 -196q-35 -92 -70.5 -189.5t-68.5 -189.5q-27 -51 -45 -51q-25 0 -121 137q-262 377 -262 833zM276 1724q-4 53 9 54h1147q12 0 8 -60q-23 -31 -41.5 -71.5t-44.5 -100.5q-16 -35 -19 -35q-4 0 -35 70q-27 57 -139 92q-86 31 -172 31q-14 0 -25.5 -11.5t-15.5 -23.5 q-2 -12 -2 -31.5v-35.5q0 -20 1 -26.5t3 -23.5q0 -53 -14 -53h-152q-4 0 -3 18.5t-3 53.5q4 16 0 37.5t-4 54.5q0 43 -43 43q-84 0 -174 -29q-59 -18 -95 -42.5t-46 -49.5q-27 -70 -35 -69q-6 0 -21 30z" />
<glyph unicode="&#x47f;" horiz-adv-x="1361" d="M104 836q0 72 19 88q20 25 72 24q51 0 67 -121l19 -155l16 -148q14 -55 49 -123.5t88 -140.5h27q35 41 82 162t98 299q-35 76 -55.5 126t-20.5 66q0 35 72 35q70 0 127 -82q23 -35 56.5 -116.5t70.5 -188.5l106 -317q10 -23 39 -23q66 0 101 121q27 92 26 166 q0 76 -9 144.5t-28 117.5q-55 147 -55 150q0 29 78 28q88 0 125 -67q23 -45 22 -158v-59q0 -190 -112 -406q-72 -131 -141 -202.5t-132 -71.5q-10 0 -45 149q-59 258 -178 475h-35q-39 -94 -70.5 -181t-47.5 -142q-10 -35 -24.5 -89.5t-37.5 -121.5q-31 -90 -59 -90 q-14 0 -44 34.5t-65 90.5q-96 158 -148.5 345t-52.5 382zM293 1290q0 25 2 44.5t6 27.5q8 12 26.5 21.5t43.5 9.5h659q49 0 49 -76q0 -53 -18 -111q-10 -33 -21.5 -54.5t-19.5 -21.5q-2 0 -25 54q-12 35 -23 59.5t-22 40.5h-2q-41 53 -106 53q-98 0 -99 -69v-187 q0 -74 -63 -73q-53 0 -53 73v191q0 68 -88 67q-86 0 -127 -53h-2q-8 -12 -20.5 -37.5t-27.5 -64.5q-23 -53 -32 -54q-4 0 -10.5 18.5t-14.5 49.5q-12 49 -12 92z" />
<glyph unicode="&#x480;" horiz-adv-x="1144" d="M96 705q0 129 34 242.5t95 211.5q76 113 171.5 171.5t209.5 58.5q453 0 453 -336q0 -117 -82 -117q-96 0 -131 53q-14 25 -21 125q-10 84 -61 141q-57 63 -146 64q-184 0 -253 -258q-25 -86 -36.5 -181.5t-11.5 -205.5q0 -90 16.5 -178t53.5 -179q90 -231 258 -231 q51 0 88 21.5t58 56.5l43 143q27 76 65 76q74 0 98 -35q8 -10 13.5 -38.5t5.5 -71.5q0 -133 -162 -220h-4q-12 -211 -43 -370q-49 -287 -127 -287q-84 0 -115 18q-31 27 -30 115v14l114 166q51 66 87 151t61 187h-19q-682 12 -682 693z" />
<glyph unicode="&#x481;" horiz-adv-x="860" d="M104 475q0 102 31 189.5t82 152t116.5 100t135.5 35.5q326 0 326 -260q0 -112 -80 -112q-47 0 -72 10t-36 27.5t-13 42t-4 53.5q-4 66 -37 97.5t-76 31.5t-75.5 -31t-55 -83t-34 -122.5t-11.5 -152.5q0 -59 13.5 -125t39 -120t61.5 -90t81 -36q51 0 66.5 27.5t25.5 72.5 l12 49q23 53 64 54q59 0 80.5 -30t21.5 -101q0 -106 -107 -166h-4q-6 -104 -20 -189.5t-32.5 -147t-40 -94t-44.5 -32.5q-33 0 -55.5 4t-37.5 17.5t-22.5 39t-7.5 68.5q0 8 20.5 37.5t48.5 72.5t55.5 97.5t41.5 109.5h-18q-438 8 -439 504z" />
<glyph unicode="&#x482;" horiz-adv-x="694" d="M100 219q0 70 39 70t92 -43h29q10 18 23.5 36.5t23.5 36.5h-2q-90 59 -90 107q0 29 17.5 48.5t39.5 19.5q20 0 95 -56h24q162 145 225 146q16 0 17 -37q0 -14 -51.5 -55t-143.5 -107q33 -25 51.5 -51.5t18.5 -48.5q0 -72 -41 -72q-16 0 -92 63h-27l-49 -71 q41 -31 66.5 -61.5t25.5 -57.5q0 -29 -12 -52.5t-31 -23.5q-29 0 -88 53h-24q-37 -31 -37 -106q0 -55 53 -154q49 -96 49 -104q0 -82 -86 -82q-104 0 -104 238q0 57 22 135q12 43 27.5 74.5t27.5 44.5h-2q-86 43 -86 110z" />
<glyph unicode="&#x483;" horiz-adv-x="0" d="M-799 1110v152q0 61 20.5 94t53.5 35h451q57 0 89.5 22.5t41.5 56.5q2 14 2 45t-2 72h77v-174q0 -100 -59 -106h-475q-66 -2 -93.5 -30t-27.5 -75v-92h-78z" />
<glyph unicode="&#x484;" horiz-adv-x="0" d="M-262 1057q0 78 80 145q86 70 145 70q31 0 72 -19.5t96 -58.5q106 -76 107 -145v-15l-78 64q-92 74 -195 73q-92 0 -147 -67h-2q-4 -25 -7.5 -41t-3.5 -25l-4 -18q-8 -4 -45 -4q-18 0 -18 41zM238 1034l2 -2q-2 -2 -2 2z" />
<glyph unicode="&#x485;" horiz-adv-x="0" d="M-606 1378q0 115 155 115q55 0 111 -12v-72h-16q-90 0 -128 -22.5t-38 -69.5q0 -55 42 -107.5t138 -103.5l-2 -35q-61 27 -110.5 55.5t-83 63.5t-51 80t-17.5 108z" />
<glyph unicode="&#x486;" horiz-adv-x="0" d="M-477 1421v72q29 4 56.5 8t53.5 4q156 0 156 -114q0 -59 -20.5 -108.5t-56.5 -88.5t-83 -68.5t-102 -48.5l-2 39q96 53 139 105.5t43 105.5q0 47 -39 70.5t-129 23.5h-16z" />
<glyph unicode="&#x487;" horiz-adv-x="0" d="M-1085 1214q0 27 19 60t48 67q84 94 180.5 143.5t202.5 49.5q57 0 118.5 -21.5t139.5 -64.5t180.5 -107.5t241.5 -150.5q-4 -10 -5 -23.5t-1 -11.5h-16q-20 2 -49 14.5t-60 31t-61.5 39t-55.5 36.5q-94 66 -204.5 106.5t-215.5 40.5q-47 0 -98 -14t-97 -36.5t-83 -50.5 t-51 -52q-6 -10 -7.5 -25.5t-4.5 -31t-10 -26.5t-25 -11h-37q-25 0 -37 5t-12 33z" />
<glyph unicode="&#x488;" horiz-adv-x="782" d="M-1681 365q12 109 71 163q63 68 154 68q178 0 231 -231h-14q-49 113 -217 112q-172 0 -215 -112h-10zM-1450 877q35 231 225 231q176 0 232 -231h-15q-51 113 -217 112q-176 0 -215 -112h-10zM-1448 -176q33 227 225 227q176 0 232 -227h-17q-53 111 -215 110 q-176 0 -215 -110h-10zM-659 1245q6 55 24.5 95t46.5 69q63 68 154 68q178 0 231 -232h-14q-49 115 -217 115q-172 0 -215 -115h-10zM-651 -539q35 231 225 232q176 0 231 -232h-14q-51 113 -217 113q-176 0 -215 -113h-10zM119 -176q33 227 225 227q176 0 231 -227h-14 q-53 111 -217 110q-176 0 -215 -110h-10zM119 877q35 231 225 231q176 0 231 -231h-14q-51 113 -217 112q-176 0 -215 -112h-10zM322 365q12 109 71 163q63 68 154 68q178 0 231 -231h-14q-49 113 -217 112q-172 0 -215 -112h-10z" />
<glyph unicode="&#x489;" horiz-adv-x="782" d="M-1640 365l22 36q68 -27 133 -26q98 0 99 33l-11 8q-45 63 -45 102q0 37 24.5 60.5t53.5 23.5q16 0 33.5 -11t30.5 -28q10 -14 17 -33.5t7 -48.5q0 -86 -61 -125q-63 -41 -133 -41q-84 0 -170 50zM-1321 -432l2 45q78 8 128 30.5t73 55.5q-2 2 -11.5 10t-60.5 41 q-35 29 -35 74q0 43 25 65q27 27 53 27q39 0 76 -39q29 -29 29 -92q0 -106 -91 -166q-86 -53 -182 -53zM-1268 1114q0 31 6 66l9 -4q0 -66 14 -125q10 -37 30.5 -62.5t47.5 -25.5q20 10 24 14t4 6q29 35 49.5 55.5t32.5 20.5q25 0 56 -33q23 -23 22 -68q0 -53 -35 -81 q-44 -35 -77 -35q-76 0 -136 94q-23 37 -35 83t-12 95zM-561 1368q0 172 162 248l14 -37q-135 -96 -135 -164q0 -14 33 -14l38 6q90 0 91 -88q0 -102 -84 -102q-45 0 -86 45q-16 16 -24.5 43.5t-8.5 62.5zM-514 -379q0 100 84 100q45 0 86 -45q33 -39 33 -106 q0 -170 -162 -250l-16 39q137 94 137 164q0 10 -12.5 11t-59.5 -3q-90 0 -90 90zM145 993q0 90 74 164q35 33 69 54.5t62 29.5l12 -45q-165 -73 -165 -141q0 -6 30 -15h2q16 0 36 -5t36 -15t27.5 -26.5t11.5 -39.5q0 -43 -22.5 -73.5t-57.5 -30.5q-43 0 -82 43 q-16 16 -24.5 43t-8.5 57zM150 -223q0 29 9 48t25 36q39 33 78 33q76 0 135 -93q47 -78 47 -178q0 -12 -1 -29.5t-3 -33.5l-10 2q0 156 -70 209q-29 4 -37 -2.5t-12 -10.5l-51 -61q-23 -18 -37 -19q-25 0 -51 31q-23 23 -22 68zM379 463q0 66 43 102q49 39 98 39 q137 0 244 -149l-23 -17q-96 96 -178 97q-49 -1 -39 -21q6 -29 8.5 -44t2.5 -21q0 -92 -78 -93q-35 0 -56.5 31t-21.5 76z" />
<glyph unicode="&#x490;" horiz-adv-x="974" d="M147 23l5 1368l415 2q106 0 156 71q12 20 27.5 69.5t29 101t22.5 90t9 40.5q55 -59 55 -309v-67q-55 -86 -229 -86q-16 0 -47 2t-51 2h-37q-129 0 -168 -45h-2q-12 -20 -20.5 -60.5t-8.5 -99.5v-350q0 -70 1 -171.5t1 -207t1 -199.5t1 -149q0 -25 -37 -25h-114 q-8 2 -9 23z" />
<glyph unicode="&#x491;" horiz-adv-x="899" d="M135 0v938h412q72 0 108 80q20 45 35 149q6 61 6 78h13q96 -242 96 -291q0 -12 -23 -47h-4q-23 -12 -54.5 -21t-76.5 -14l-141 -14q-74 -14 -118 -25.5t-54 -21.5q-18 -20 -27 -170v-39v-55v-76t1 -86t1 -86q0 -29 1 -55.5t1 -50.5v-166q0 -27 -26 -27h-150zM696 1245 q0 4 4 0h-4zM700 1245q0 -2 5 -2q2 0 2 -2v4h-7z" />
<glyph unicode="&#x4a4;" horiz-adv-x="1411" d="M131 74v1243q0 57 16.5 69.5t57.5 12.5h29.5t21.5 -7.5t12 -24.5t4 -50l2 -242l412 -561h33q0 98 -1 196.5t-1 198.5v400q0 59 14 70.5t39 11.5h250h154q147 0 147 -121v-240q0 -27 -14.5 -50.5t-32.5 -23.5q-8 0 -25.5 16.5t-21.5 45.5l-27 164q-8 33 -21.5 65.5 t-45.5 46.5q-6 6 -26 8.5t-44.5 3.5t-49 1h-42.5h-115v-1233q0 -33 -4 -50.5t-12.5 -25.5t-21.5 -9t-32 -1q-43 0 -56 14t-13 72l-2 291l-422 565h-33l12 -856q0 -51 -15 -68.5t-52 -17.5q-35 0 -54.5 13t-19.5 73z" />
<glyph unicode="&#x4a5;" horiz-adv-x="1165" d="M111 35v854q0 47 22 53q6 0 16.5 1t30.5 1q47 0 47 -55l4 -154h2l357 -387h31v535q0 55 55 55h321q98 0 99 -88v-137q0 -47 -15 -47q-8 0 -32 57q-14 33 -26.5 57.5t-29.5 46.5q-41 55 -127 56h-127v-848q0 -49 -16 -51q-6 -4 -20.5 -4h-36.5q-45 0 -45 55l-5 241h-2 l-356 390h-31v-631q0 -55 -57 -55q-35 0 -47 6t-12 49z" />
<glyph unicode="&#x4d0;" horiz-adv-x="1200" d="M76 39q0 25 38 129t107 276q47 115 154 347l55 120q18 39 44 95.5t58 132.5q10 35 11 61q0 35 -15.5 59.5t-38.5 36.5l-86 19q-20 4 -33.5 17.5t-13.5 29.5q0 37 162 37q55 0 107.5 -40t99.5 -114q31 -47 66.5 -137t66.5 -186l86 -281l219 -606l2 -6q0 -29 -22 -29h-117 q-39 0 -70 88l-186 506h-31l-450 -373h-2q-10 -41 -16.5 -72.5t-10.5 -54.5q-6 -25 -10 -45h-2q-31 -66 -119 -65q-53 0 -53 55zM307 315h31l405 342h2l-157 428h-37q-53 -129 -113.5 -318t-130.5 -452zM371 1640q0 143 98 144q16 0 16 -15q0 -6 -6 -18t-10 -22q-4 -4 -4 -7 q-20 -35 -21 -47q0 -57 144 -57q25 0 56.5 5t62.5 15t63.5 25.5t46.5 26.5l51 55q39 35 45 35q4 0 5 -21q0 -25 -23 -57q-63 -84 -148 -135t-192 -51q-92 0 -138 35.5t-46 88.5z" />
<glyph unicode="&#x4d1;" horiz-adv-x="983" d="M96 131q0 55 28 128t75 155q49 82 94 142t92 99h2l-59 88h-2q-53 78 -85 129.5t-32 63.5q0 20 92 20q82 0 86 -6q61 -104 131 -219t135 -223q66 -109 130.5 -214.5t127.5 -209.5q17 -29 17 -64q0 -41 -78 -40q-55 0 -76 26l-45 70h-2l-98 145h-29q-35 -47 -82 -87 t-102 -75q-131 -76 -223 -75q-16 0 -35 14t-35 37q-10 16 -18.5 42.5t-8.5 53.5zM205 1159q0 143 100 144q14 0 14 -15q0 -8 -5 -19.5t-13 -25.5q-10 -16 -16 -28.5t-6 -20.5q0 -55 143 -55q57 0 121 20q78 20 108 51l54 54q35 35 45 34q4 0 4 -18q0 -27 -25 -57 q-63 -80 -149 -133.5t-189 -53.5q-92 0 -139 36t-47 87zM233 262q0 -104 121 -104q78 0 141.5 29.5t110.5 84.5h2l-190 334h-29q-33 -29 -57.5 -68.5t-46.5 -93.5q-51 -111 -52 -182z" />
<glyph unicode="&#x2000;" horiz-adv-x="1024" />
<glyph unicode="&#x2001;" horiz-adv-x="2048" />
<glyph unicode="&#x2002;" horiz-adv-x="1024" />
<glyph unicode="&#x2003;" horiz-adv-x="2048" />
<glyph unicode="&#x2004;" horiz-adv-x="681" />
<glyph unicode="&#x2005;" horiz-adv-x="512" />
<glyph unicode="&#x2006;" horiz-adv-x="342" />
<glyph unicode="&#x2007;" horiz-adv-x="1036" />
<glyph unicode="&#x2008;" horiz-adv-x="301" />
<glyph unicode="&#x2009;" horiz-adv-x="174" />
<glyph unicode="&#x200a;" horiz-adv-x="83" />
<glyph unicode="&#x200b;" horiz-adv-x="0" />
<glyph unicode="&#x200c;" horiz-adv-x="0" />
<glyph unicode="&#x200d;" horiz-adv-x="0" />
<glyph unicode="&#x200e;" horiz-adv-x="0" />
<glyph unicode="&#x200f;" horiz-adv-x="0" />
<glyph unicode="&#x2010;" horiz-adv-x="722" d="M113 397v129h536v-129h-536z" />
<glyph unicode="&#x2011;" horiz-adv-x="722" d="M113 397v129h536v-129h-536z" />
<glyph unicode="&#x2012;" horiz-adv-x="722" d="M113 397v129h536v-129h-536z" />
<glyph unicode="&#x2013;" horiz-adv-x="1040" d="M147 426v100h787v-100h-787z" />
<glyph unicode="&#x2014;" horiz-adv-x="2105" d="M166 532q0 35 8 43q8 6 37 7q66 0 96 -19h2q0 -2 2 -14t4 -41l7 -55q45 -92 251 -93q98 0 220 6.5t260 18.5q117 12 239.5 24.5t239.5 22.5q147 14 255.5 21.5t162.5 7.5q20 0 24 -25l6 -143h-18q-6 0 -17.5 13t-25.5 36h-2q-35 51 -94 51q-82 0 -205 -9t-295 -30 l-446 -53q-256 -25 -447 -25q-143 0 -203 48q-61 49 -61 208z" />
<glyph unicode="&#x2015;" d="M45 412v100h1016v-100h-1016z" />
<glyph unicode="&#x2016;" horiz-adv-x="1095" d="M268 -176v1866h138v-1866h-138zM731 -176v1866h137v-1866h-137z" />
<glyph unicode="&#x2018;" horiz-adv-x="559" d="M176 1057q0 170 135 264q80 57 88 57q6 0 7 -22q0 -10 -2.5 -14.5t-6.5 -8.5l-8 -6q-78 -57 -120 -118.5t-42 -118.5q0 -59 49 -60q12 0 17 2q2 0 2 1t4 1h4h2l4 2h2l23 8q4 0 6 1.5t8 1.5q33 0 53.5 -27t20.5 -72q0 -47 -24.5 -76.5t-63.5 -29.5q-70 0 -114 60.5 t-44 154.5z" />
<glyph unicode="&#x2019;" horiz-adv-x="559" d="M176 1272q0 47 24.5 76.5t63.5 29.5q68 0 113 -60.5t45 -154.5q0 -82 -36 -148.5t-101 -115.5q-80 -57 -88 -57q-4 0 -4 22q0 12 10 23l6 6q78 57 120 118.5t42 118.5q0 59 -49 60q-14 0 -19 -2q2 0 -10 -4h-8l-17 -8q-6 -2 -20 -2q-31 0 -51.5 26.5t-20.5 71.5z" />
<glyph unicode="&#x201a;" horiz-adv-x="923" d="M358 84q0 47 25 76.5t63 29.5q70 0 114 -60t44 -153q0 -84 -34.5 -151.5t-100.5 -114.5q-80 -57 -88 -57q-4 0 -4 22q0 18 8 25l6 4h4q82 61 120 119.5t38 118.5q0 59 -49 59q-12 0 -17 -2q-2 0 -2 -1t-4 -1h-4l-4 -2h-2l-12 -4h-2q-16 -6 -25 -6q-33 0 -53.5 27.5 t-20.5 70.5z" />
<glyph unicode="&#x201b;" horiz-adv-x="526" d="M160 1202q0 35 10 68t29.5 58.5t46 40.5t59.5 15q45 0 74 -31.5t29 -84.5q0 -57 -33 -81t-76 -24q-4 0 -20 4q-6 2 -12.5 3t-16.5 1q-18 0 -32.5 -9t-14.5 -19q0 -31 17.5 -62.5t43 -59.5t55 -51.5t54.5 -39.5l-13 -33q-39 18 -74.5 48t-63 69t-45 87t-17.5 101z" />
<glyph unicode="&#x201c;" horiz-adv-x="923" d="M176 1057q0 170 135 264q80 57 88 57q6 0 7 -22q0 -10 -2.5 -14.5t-6.5 -8.5l-8 -6q-78 -57 -120 -118.5t-42 -118.5q0 -59 49 -60q12 0 17 2q2 0 2 1t4 1h4h2l4 2h2l23 8q4 0 6 1.5t8 1.5q33 0 53.5 -27t20.5 -72q0 -47 -24.5 -76.5t-63.5 -29.5q-70 0 -114 60.5 t-44 154.5zM541 1057q0 164 137 264q80 57 88 57q4 0 4 -22q0 -10 -3 -14.5t-7 -8.5l-6 -6q-162 -115 -162 -237q0 -59 51 -60q12 0 16 2q2 0 2.5 1t4.5 1h4h2l4 2h2l22 8q4 0 6.5 1.5t8.5 1.5q31 0 51 -27t20 -72q0 -47 -24.5 -76.5t-63.5 -29.5q-68 0 -112.5 60.5 t-44.5 154.5z" />
<glyph unicode="&#x201d;" horiz-adv-x="923" d="M176 1272q0 47 24.5 76.5t63.5 29.5q68 0 113 -60.5t45 -154.5q0 -164 -137 -264q-80 -57 -88 -57q-4 0 -4 22q0 12 10 23l6 6q162 115 162 237q0 59 -52 60q-12 0 -16 -2q-2 0 -2 -1t-4 -1h-4l-2 -2h-4h-2l-17 -8q-6 -2 -20 -2q-31 0 -51.5 26.5t-20.5 71.5zM541 1272 q0 47 24.5 76.5t63.5 29.5q70 0 113.5 -60.5t43.5 -154.5q0 -82 -34.5 -149.5t-100.5 -114.5q-80 -57 -88 -57q-6 0 -6 22q0 10 2 14.5t6 8.5l8 6q78 57 120 118.5t42 118.5q0 59 -49 60q-12 0 -16 -2q-2 0 -2 -1t-4 -1h-5l-2 -2h-4h-2l-16 -8q-6 -2 -21 -2q-33 0 -53 26.5 t-20 71.5z" />
<glyph unicode="&#x201e;" horiz-adv-x="923" d="M176 84q0 47 24.5 76.5t63.5 29.5q68 0 113 -60t45 -153q0 -84 -36 -150.5t-101 -115.5q-78 -57 -88 -57q-4 0 -4 24q0 10 10 21l8 6q84 63 122 120.5t38 117.5q0 59 -49 59q-14 0 -19 -2q-2 0 -2 -1t-2 -1t-4 -1t-6 -1h-2l-13 -4h-2q-16 -6 -24 -6q-31 0 -51.5 27.5 t-20.5 70.5zM541 84q0 47 24.5 76.5t63.5 29.5q70 0 113.5 -60t43.5 -153q0 -84 -33.5 -151.5t-101.5 -114.5q-80 -57 -88 -57q-4 0 -4 22q0 18 4 23l12 6h3q82 61 119.5 119.5t37.5 118.5q0 59 -49 59q-14 0 -20 -2l-11 -4h-2l-12 -4h-2q-16 -6 -25 -6q-33 0 -53 27.5 t-20 70.5z" />
<glyph unicode="&#x201f;" horiz-adv-x="923" d="M176 1163q0 94 44 154.5t114 60.5q39 0 63.5 -29.5t24.5 -76.5q0 -45 -20.5 -71.5t-53.5 -26.5q-2 0 -22 4l-21 6h-2q-2 0 -3 1t-3 1t-2 1t-2 1q-4 2 -17 2q-49 0 -49 -60q0 -61 38 -118.5t124 -118.5l8 -6q4 -4 6.5 -8.5t2.5 -14.5q0 -23 -7 -22q-8 0 -90 57 q-66 47 -99.5 115.5t-33.5 148.5zM541 1163q0 94 45 154.5t112 60.5q39 0 63.5 -29.5t24.5 -76.5q0 -45 -20.5 -71.5t-50.5 -26.5q-10 0 -19 2h-2q-2 0 -2 1t-2 1l-18 6h-2q-2 0 -3 1t-3 1t-2 1t-3 1q-4 2 -16 2q-51 0 -51 -60q0 -63 38 -118.5t124 -118.5q2 -2 2 -4 q14 -12 14 -25q0 -23 -4 -22q-6 0 -24.5 11t-65.5 46q-135 98 -135 264z" />
<glyph unicode="&#x2020;" horiz-adv-x="915" d="M63 745q0 66 41 66q27 0 68 -5t96 -18q55 -10 98.5 -15t73.5 -5h19v10q0 84 -25 244t-24 242q0 31 22 45q10 2 19.5 3t13.5 1q43 0 63 -10q12 -6 13 -64q0 -37 -5.5 -93t-19.5 -134q-12 -76 -17 -132.5t-5 -97.5v-14h28q-2 0 4 1t19 3l63 10h2q94 16 162 25.5t96 9.5 q23 0 23 -117q0 -53 -31 -53q-33 0 -76 5t-98 16l-39 6l-127 18q-2 0 -5 1t-5 1h-18v-12q-6 -72 -7 -152q0 -78 8.5 -198.5t24.5 -280.5q16 -162 25.5 -281.5t9.5 -199.5q0 -70 -70 -70q-49 0 -57 6q-20 14 -20 78q0 76 5 186.5t15 262.5q10 150 15 261.5t5 184.5 q0 37 7 109q4 35 6 61.5t2 42.5h-41q-59 0 -170 -24q-111 -25 -162 -25q-25 0 -25 102z" />
<glyph unicode="&#x2021;" horiz-adv-x="915" d="M90 18q0 53 29 66h14q51 0 158 -23q61 -14 102 -21t62 -11h20l-49 372q0 18 4 51t8 64l21 117q0 2 3 41t11 117h-18q-57 -4 -164 -31q-53 -12 -92 -19.5t-66 -7.5q-23 0 -35 27q-4 12 -4 59q0 68 25 68q51 0 164 -23q113 -20 172 -24h18l-6 39q-2 10 -3 20t-1 21l-14 108 l-15 143q-4 33 -6 55.5t-2 26.5q0 63 63 64q53 0 54 -70q0 -37 -6.5 -87t-16.5 -116q-14 -72 -20 -123t-8 -81h18q4 0 7 -1t9 -1h13q55 0 157 24q98 27 148 27h8l12 -17v-38q0 -4 1 -8.5t1 -8.5q0 -82 -22 -82q-39 0 -96 15l-101 24h-2q-41 6 -137 17h-21 q20 -182 30.5 -279.5t10.5 -108.5q0 -29 -5 -73.5t-15 -98.5q-10 -53 -14.5 -99t-4.5 -75v-12t3 -18h22l109 24l45 10h2q47 12 86 18.5t67 6.5q4 0 7.5 -1t7.5 -1h4q25 -23 24 -96q0 -51 -30 -51q-51 0 -160 22q-109 23 -168 27h-19q4 -39 10.5 -97.5t16.5 -136.5 q12 -84 19 -123q4 -23 6 -41q0 -82 -37 -82q-84 0 -84 48q0 31 8 69q12 51 12 70q4 49 11.5 120.5t21.5 168.5h-18q-78 0 -183 -25q-104 -27 -149 -27q-33 0 -33 88z" />
<glyph unicode="&#x2022;" horiz-adv-x="788" d="M211 737q0 45 15.5 85t42 70t63.5 47t78 17q43 0 80.5 -17t66.5 -47t45 -70t16 -85q0 -47 -15 -88t-41.5 -71.5t-63.5 -48t-78 -17.5q-43 0 -81 17.5t-66.5 48t-45 71.5t-16.5 88z" />
<glyph unicode="&#x2023;" horiz-adv-x="790" d="M182 213v831l471 -415z" />
<glyph unicode="&#x2024;" horiz-adv-x="540" d="M221 90q0 23 8.5 45.5t22.5 44.5q12 17 37 17q23 0 51 -35q18 -29 18 -72t-18 -72q-29 -35 -51 -34q-10 0 -24.5 11t-24.5 23q-18 29 -19 72z" />
<glyph unicode="&#x2025;" horiz-adv-x="1144" d="M246 90q0 23 8 45.5t22 44.5q12 17 37 17q23 0 52 -35q18 -29 18 -72t-18 -72q-29 -35 -52 -34q-10 0 -24.5 11t-24.5 23q-18 29 -18 72zM801 88q0 25 5 42t15 32q25 35 49 35q20 0 37 -19q14 -23 22.5 -45t8.5 -45q0 -43 -18 -72q-25 -35 -50 -34q-25 0 -43 24 q-26 43 -26 82z" />
<glyph unicode="&#x2026;" horiz-adv-x="1699" d="M250 90q0 23 8 45.5t23 44.5q11 17 36 17q23 0 52 -35q18 -29 18 -72t-18 -72q-29 -35 -52 -34q-10 0 -24 11t-25 23q-18 29 -18 72zM805 88q0 25 5 42t15 32q25 35 49 35q20 0 37 -19q14 -23 22.5 -45t8.5 -45q0 -43 -18 -72q-25 -35 -50 -34q-25 0 -43 24 q-26 43 -26 82zM1356 88q0 45 18 74q25 35 49 35q23 0 52 -35q16 -27 16 -72t-16 -72q-29 -35 -52 -34q-10 0 -23.5 10t-23.5 22q-20 27 -20 72z" />
<glyph unicode="&#x202f;" horiz-adv-x="398" />
<glyph unicode="&#x2039;" horiz-adv-x="585" d="M117 504l360 446h29l-232 -446l232 -449h-29z" />
<glyph unicode="&#x203a;" horiz-adv-x="585" d="M119 55l233 449q-29 53 -58.5 110.5t-57.5 112.5q-29 53 -59 111.5t-58 111.5h28l363 -446l-363 -449h-28z" />
<glyph unicode="&#x203b;" horiz-adv-x="1593" d="M143 127l568 567l-568 572l105 104l555 -559h24l557 559l105 -104l-567 -572l567 -567l-105 -104l-557 555h-24l-555 -555zM158 692q0 51 29.5 85t70.5 34q43 0 71.5 -34t28.5 -85q0 -49 -28.5 -84t-71.5 -35q-41 0 -70.5 35t-29.5 84zM717 123q0 49 29.5 84t70.5 35 q43 0 73 -35t30 -84q0 -51 -30 -86t-73 -35q-41 0 -70.5 35t-29.5 86zM717 1268q0 49 29.5 83.5t70.5 34.5q43 0 73 -34.5t30 -83.5t-30 -84t-73 -35q-41 0 -70.5 35t-29.5 84zM1280 692q0 51 29.5 85t70.5 34t71 -34t30 -85q0 -49 -30 -84t-71 -35t-70.5 35t-29.5 84z" />
<glyph unicode="&#x203e;" horiz-adv-x="1406" d="M59 1427v113h1330v-113h-1330z" />
<glyph unicode="&#x203f;" horiz-adv-x="1550" d="M82 0h80q74 -57 143.5 -98t144 -68t158.5 -39t189 -12q102 0 186 12t159 39t144.5 68t143.5 98h79q-59 -94 -140 -159.5t-173 -106.5t-194.5 -59.5t-204.5 -18.5q-104 0 -206 18.5t-195 59.5t-174 106.5t-140 159.5z" />
<glyph unicode="&#x2040;" horiz-adv-x="1550" d="M82 1366q61 94 141 159.5t172 107.5t194.5 60.5t207.5 18.5q102 0 203.5 -18.5t194.5 -60.5t173 -107.5t141 -159.5h-79q-74 57 -143.5 99t-144.5 69t-159 39t-186 12q-104 0 -188.5 -12t-159 -39t-144 -69t-143.5 -99h-80z" />
<glyph unicode="&#x2050;" horiz-adv-x="1550" d="M82 0h80q74 -57 143.5 -98t144 -68t158.5 -39t189 -12q102 0 186 12t159 39t144.5 68t143.5 98h79q-59 -94 -140 -159.5t-173 -106.5t-194.5 -59.5t-204.5 -18.5q-104 0 -206 18.5t-195 59.5t-174 106.5t-140 159.5zM82 1366q61 94 141 159.5t172 107.5t194.5 60.5 t207.5 18.5q102 0 203.5 -18.5t194.5 -60.5t173 -107.5t141 -159.5h-79q-74 57 -143.5 99t-144.5 69t-159 39t-186 12q-104 0 -188.5 -12t-159 -39t-144 -69t-143.5 -99h-80z" />
<glyph unicode="&#x2053;" horiz-adv-x="1007" d="M25 432q147 123 294 123q68 0 197 -39q135 -41 209 -41q193 0 266 68l6 -6h2l21 -27q-25 -31 -66 -60.5t-94 -54.5q-53 -23 -104 -36t-90 -13q-78 0 -232 45q-78 23 -138 34t-103 11q-33 0 -80 -20q-4 -2 -8.5 -3t-8.5 -3q-6 -2 -10 -4t-6 -2.5t-6 -2.5l-8 -4q4 4 4 25 h-17q-6 0 -14 4z" />
<glyph unicode="&#x2054;" horiz-adv-x="1550" d="M82 -344q59 94 140 159.5t174 106.5t194.5 59.5t206.5 18.5q102 0 204.5 -18.5t194.5 -59.5t173 -106.5t140 -159.5h-79q-74 57 -143.5 98t-144.5 67.5t-159 39t-186 12.5q-104 0 -188.5 -12.5t-159 -39t-144 -67.5t-143.5 -98h-80z" />
<glyph unicode="&#x2056;" horiz-adv-x="628" d="M129 410q0 49 25.5 80.5t42.5 31.5q14 0 30.5 -7t30.5 -20.5t24.5 -34.5t10.5 -50q0 -55 -27.5 -85t-52.5 -30t-54.5 29.5t-29.5 85.5zM346 106q0 29 10.5 48.5t25.5 32t31.5 18.5t30.5 6q10 0 25.5 -8t31 -23.5t27 -38t11.5 -49.5q0 -45 -27 -70.5t-66 -25.5 q-10 0 -27.5 6t-33.5 20.5t-27.5 35t-11.5 48.5zM369 694q0 25 10 43.5t24.5 28.5t31 15t30.5 5q67 0 67 -96q0 -111 -63 -110q-33 0 -66.5 27.5t-33.5 86.5z" />
<glyph unicode="&#x2058;" horiz-adv-x="886" d="M150 408q0 47 24.5 79.5t44.5 32.5q25 0 59.5 -25.5t34.5 -86.5q0 -59 -27 -87t-50 -28q-25 0 -55.5 27.5t-30.5 87.5zM362 104q0 55 33 80t68 25q10 0 25.5 -7t31 -21.5t26.5 -37t11 -53.5q0 -94 -90 -94q-12 0 -30.5 6t-35 20.5t-28 34t-11.5 47.5zM362 758 q0 23 10.5 40t25 28.5t31.5 16.5t30 5q66 0 65 -94q0 -111 -61 -111q-41 0 -71 33t-30 82zM612 430q0 27 11.5 48.5t26 36.5t29.5 22.5t23 7.5q76 0 76 -99q0 -61 -28.5 -88.5t-57.5 -27.5q-8 0 -21.5 7t-26.5 20.5t-22.5 32t-9.5 40.5z" />
<glyph unicode="&#x2059;" horiz-adv-x="999" d="M154 104q0 55 32.5 80t67.5 25q10 0 25.5 -7t31 -21.5t26.5 -37t11 -53.5q0 -94 -90 -94q-12 0 -29.5 6t-35 20.5t-28.5 34t-11 47.5zM154 758q0 47 32 65h2q33 25 64 25q63 0 63 -94q0 -111 -61 -111q-41 0 -70.5 33t-29.5 82zM442 428q0 59 26 87t44 28q29 0 61.5 -27 t32.5 -88q0 -59 -28.5 -87t-51.5 -28t-53.5 31t-30.5 84zM692 104q0 29 10.5 49.5t25.5 33t32.5 17.5t32.5 5q10 0 25.5 -7t30.5 -21.5t26.5 -37t11.5 -53.5q0 -94 -90 -94q-12 0 -29.5 6t-34 19.5t-29 34t-12.5 48.5zM692 758q0 23 10.5 39t25.5 27.5t32.5 17.5t30.5 6 q63 0 63 -94q0 -111 -61 -111q-41 0 -71 33t-30 82z" />
<glyph unicode="&#x205c;" horiz-adv-x="1654" d="M137 627v174h645v565h136v-563h641v-176h-641v-627h-138v627h-643zM256 233q0 59 31 91q35 35 75 34q39 0 78 -34q31 -31 31 -91q0 -29 -7.5 -51.5t-23.5 -36.5q-37 -39 -78 -39q-39 0 -75 39q-31 31 -31 88zM264 1130q0 57 31 89q37 37 76 36q33 0 75 -36q33 -33 33 -89 q0 -55 -33 -88q-39 -39 -75 -38q-39 0 -76 38q-31 31 -31 88zM1237 1135q0 57 31 88q37 37 75 37q41 0 78 -37q31 -31 31 -88q0 -60 -31 -91q-37 -37 -78 -36q-39 0 -75 39q-31 31 -31 88zM1239 242q0 55 31 86q37 39 76 39t75 -37q33 -33 33 -88q0 -57 -33 -90 q-37 -39 -75 -39q-39 0 -76 39q-31 31 -31 90z" />
<glyph unicode="&#x205f;" horiz-adv-x="497" />
<glyph unicode="&#x20ac;" horiz-adv-x="1077" d="M133 539q0 18 3 33.5t11 15.5h115q-6 51 -6 100v37h-109q-6 0 -10 16.5t-4 36.5q0 18 3 33.5t11 15.5h127q29 123 88.5 228.5t133 183.5t150.5 122t140 44q18 0 47 -31t57 -76t48 -93t20 -85q0 -59 -25.5 -92t-80.5 -63l-23 2q-4 55 -21 103t-46 84t-70 57.5t-90 21.5 q-47 0 -86 -36t-66.5 -90t-43 -119.5t-15.5 -125.5v-35h430q8 0 11.5 -15t3.5 -34q0 -20 -4.5 -36.5t-10.5 -16.5h-424q0 -2 1 -4t1 -4l7 -29q4 -12 5 -28.5t1 -26.5l6 -45h260q8 0 11 -15.5t3 -33.5q0 -20 -4 -37t-10 -17h-240q47 -129 118 -209.5t142 -80.5 q74 0 137.5 24.5t135.5 95.5l6 7l8 -5q-12 -59 -151 -194q-37 -37 -76 -63.5t-73 -45t-58.5 -28t-32.5 -9.5q-39 0 -83 40t-86 110t-79 162t-63 196h-136q-6 0 -10 16.5t-4 37.5z" />
<glyph unicode="&#x20bd;" horiz-adv-x="972" d="M88 315q0 18 3 34t11 16h70v966q0 59 113 60q262 0 413 -48q227 -78 228 -294q0 -238 -178 -369q-168 -127 -392 -127h-18v-188h438q8 0 11.5 -15.5t3.5 -34.5q0 -20 -4.5 -36.5t-10.5 -16.5h-438v-229q0 -43 -96 -43q-70 0 -70 43v229h-70q-6 0 -10 16.5t-4 36.5z M338 680q0 -70 57 -70q186 0 281 127q90 117 90 291q0 119 -74 211q-74 98 -207 98q-147 0 -147 -61v-596z" />
<glyph unicode="&#x25fc;" horiz-adv-x="962" d="M0 0v963h963v-963h-963z" />
<glyph unicode="&#xe043;" horiz-adv-x="0" d="M-625 1165v400h82v-158h215v158h82v-400h-82v195h-215v-195h-82z" />
<glyph unicode="&#xf8ff;" horiz-adv-x="1961" d="M70 1006q23 8 35 27.5t22 41.5q12 33 30.5 64.5t59.5 36.5q25 0 56.5 -11.5t66.5 -25.5h2l4 -4h2q35 -16 71 -28.5t70 -12.5q49 0 83 40t34 150q0 72 -17.5 111t-47 56t-67.5 20.5t-79 3.5q-37 0 -72.5 4t-63.5 26.5t-45 70.5t-19 138q0 45 19 89t56 79t88.5 55.5 t114.5 20.5q82 0 137.5 -24.5t88 -65.5t47 -93.5t16.5 -107.5l-137 -16q0 29 -3.5 73.5t-16.5 85.5t-41.5 72t-82.5 31q-33 0 -57.5 -16.5t-39.5 -44t-23.5 -63.5t-8.5 -73q0 -29 7.5 -59.5t19.5 -57t29.5 -48t35.5 -33.5q12 0 35 -2.5t39 -4.5q4 0 8 -1t9 -1q37 -2 77.5 -8 t76.5 -30.5t58.5 -72.5t22.5 -134v-19q-2 -59 -19.5 -99t-46 -64.5t-64.5 -36t-75 -11.5q-74 0 -155 33q-10 4 -22.5 6t-22.5 2q-41 0 -65 -18.5t-42 -40.5q-20 -25 -40.5 -45.5t-47.5 -20.5l-16 2q-23 4 -38.5 11.5t-25.5 17.5q-12 10 -20 25zM242 213q0 117 26.5 190.5 t69.5 116.5t97 59.5t110 16.5q47 0 91 -7t81 -17.5t61.5 -19.5t34.5 -13q8 -6 14 -7h7h18q14 72 34.5 123.5t55.5 110.5q29 45 49.5 72.5t46.5 52.5l90 -45q-47 -16 -79.5 -40t-61.5 -54q-20 -27 -36.5 -58.5t-27 -62.5t-16.5 -56.5t-6 -42.5h31q14 12 39.5 26.5t58.5 27 t70 20.5t76 8q53 0 106 -19.5t107 -72.5l8 -6l6 -4q16 -14 44 -49t52 -113q-14 6 -31.5 8t-40.5 2q-47 0 -90 -16t-74.5 -44t-51 -64.5t-19.5 -79.5v-13.5t2 -13.5q6 -35 27.5 -69.5t54.5 -62.5t75 -44t87 -16q43 0 45 2q-45 -156 -88 -253.5t-84 -151.5t-82 -73.5 t-82 -19.5q-27 0 -56.5 5t-60.5 11q-35 8 -72.5 14.5t-85.5 6.5q-39 -2 -73.5 -8.5t-69.5 -12.5l-18 -4h-2q-37 -8 -72 -14t-66 -6q-47 0 -91 29.5t-85 100t-75.5 187.5t-63.5 289q-8 47 -11 93t-3 81zM1198 1061v51h62v770h-62v51h279v-51h-62v-334h19q92 0 143 21.5 t75.5 62.5t31 103.5t6.5 146.5h-62v51h279v-51h-62q0 -98 -25.5 -160.5t-61.5 -100.5t-77 -56.5t-71 -26.5l-23 -6h2q96 0 152.5 -32t85 -79t37 -105.5t8.5 -109.5q0 -8 -1 -15t-1 -13v-66h61v-51h-276v51h61q0 129 -5 205t-32.5 116t-85 51t-159.5 11h-19v-383h62v-51h-279 zM1501 346h8l23 -10h-27q-4 12 -4 10z" />
<glyph unicode="&#xfb01;" horiz-adv-x="989" d="M154 883q0 31 8 47h155v160q6 104 35 167.5t71 98.5t93 46t100 11q51 0 92.5 -8t71 -30.5t45 -63.5t15.5 -109q0 -12 -3 -35.5t-8.5 -47t-11.5 -41t-12 -17.5q-20 49 -39 90q-16 35 -31.5 65.5t-21.5 38.5q-18 41 -38 61.5t-38.5 30t-34.5 9.5t-29 -2q-2 0 -4 -1t-8 -1 q-14 0 -29.5 -6.5t-29 -28t-23.5 -60t-14 -102.5v-225h272q14 14 45 14h45q49 0 50 -35v-889q0 -35 -50 -34h-59q-31 0 -31 34v814h-272v-412q0 -104 1 -205.5t1 -204.5q0 -29 -61 -32h-21q-68 0 -68 38v816h-155q-8 16 -8 49z" />
<glyph unicode="&#xfb02;" horiz-adv-x="1083" d="M156 883q0 31 8 47h155v160q6 104 35 167.5t71 98.5t93 46t100 11q55 0 98.5 -9t74.5 -36h28q12 29 74 29q74 0 74 -39v-1342q0 -37 -80 -36q-68 0 -68 38v1049q-8 57 -27.5 109.5t-50 91.5t-74.5 61.5t-104 22.5q-14 0 -29.5 -6.5t-28.5 -28t-23.5 -60t-14.5 -102.5 v-225h180q4 -10 8 -21.5t4 -27.5q0 -27 -12 -47h-180v-412q0 -104 1 -205.5t1 -204.5q0 -29 -61 -32h-21q-68 0 -68 38v816h-155q-8 16 -8 49z" />
<glyph unicode="&#xfb03;" horiz-adv-x="1470" d="M156 883q0 31 8 47h155v160q6 104 35 167.5t71 98.5t93 46t100 11q74 0 126.5 -18.5t78.5 -75.5h31q47 57 108.5 75.5t120.5 18.5q51 0 92.5 -8t71 -30.5t45 -63.5t15.5 -109q0 -12 -3.5 -35.5t-8.5 -47t-11 -41t-12 -17.5q-20 49 -39 90q-16 35 -31.5 65.5t-21.5 38.5 q-18 41 -38 61.5t-38.5 30t-34.5 9.5t-29 -2q-2 0 -4 -1t-8 -1q-14 0 -29.5 -6.5t-29 -28t-23.5 -60t-14 -102.5v-225h18q43 0 87 -1t89 -1h177q39 0 45 -21q0 -2 1 -3t1 -5q4 -12 4 -16l2 -863q0 -35 -49 -34h-60q-31 0 -30 34v814h-285v-412q0 -104 1 -205.5t1 -204.5 q0 -29 -62 -32h-20q-68 0 -68 38v816h-317v-412q0 -104 1 -205.5t1 -204.5q0 -29 -61 -32h-21q-68 0 -68 38v816h-155q-8 16 -8 49zM467 930h317v160q0 119 -55 190.5t-166 71.5q-14 0 -29.5 -6.5t-28.5 -28t-23.5 -60t-14.5 -102.5v-225z" />
<glyph unicode="&#xfb04;" horiz-adv-x="1540" d="M156 883q0 31 8 47h155v160q6 104 35 167.5t71 98.5t93 46t100 11q74 0 126.5 -18.5t78.5 -75.5h31q47 57 108.5 75.5t120.5 18.5q53 0 95.5 -8t72.5 -33h29q14 25 72 25q74 0 73 -39v-1342q0 -37 -79 -36q-63 0 -68 38q0 154 -1 299.5t-1 267.5v212v133v131 q-10 43 -29.5 94t-48.5 94t-71 73t-99 30q-14 0 -29.5 -6.5t-29 -28t-23.5 -60t-14 -102.5v-225h180q4 -10 8 -21.5t4 -27.5q0 -27 -12 -47h-180v-412q0 -104 1 -205.5t1 -204.5q0 -29 -62 -32h-20q-68 0 -68 38v816h-317v-412q0 -104 1 -205.5t1 -204.5q0 -29 -61 -32h-21 q-68 0 -68 38v816h-155q-8 16 -8 49zM467 930h317v160q0 119 -55 190.5t-166 71.5q-14 0 -29.5 -6.5t-28.5 -28t-23.5 -60t-14.5 -102.5v-225z" />
</font>
</defs>
</svg>
