<?xml version="1.0" standalone="no"?>
<!DOCTYPE svg PUBLIC "-//W3C//DTD SVG 1.1//EN" "http://www.w3.org/Graphics/SVG/1.1/DTD/svg11.dtd" >
<svg xmlns="http://www.w3.org/2000/svg" xmlns:xlink="http://www.w3.org/1999/xlink" version="1.1">
<metadata></metadata>
<defs>
<font id="bukyvedebold" horiz-adv-x="1024" >
<font-face units-per-em="2048" ascent="1638" descent="-410" />
<missing-glyph horiz-adv-x="512" />
<glyph horiz-adv-x="0" />
<glyph unicode="&#xd;" horiz-adv-x="512" />
<glyph horiz-adv-x="0" />
<glyph horiz-adv-x="0" />
<glyph unicode=" "  horiz-adv-x="512" />
<glyph unicode="&#x09;" horiz-adv-x="512" />
<glyph unicode="&#xa0;" horiz-adv-x="512" />
<glyph unicode="!" horiz-adv-x="475" d="M111 33v139q0 25 34.5 41t81.5 16t83 -16t36 -39v-143q0 -23 -36 -37t-83 -14t-81.5 14t-34.5 39zM111 401v938q0 25 34.5 40.5t81.5 15.5t83 -15.5t36 -38.5v-940q0 -23 -36 -38t-83 -15t-81.5 15.5t-34.5 37.5z" />
<glyph unicode="&#x22;" horiz-adv-x="671" d="M74 948v402q0 25 31.5 39t72.5 14q43 0 74 -14.5t31 -36.5v-297q0 -10 -11.5 -33t-33 -45.5t-50 -39.5t-65.5 -17q-20 0 -34.5 7t-14.5 21zM391 948v402q0 25 32 39t75 14q41 0 72.5 -14.5t31.5 -36.5v-297q0 -12 -12 -35t-33.5 -45.5t-51.5 -38.5t-63 -16q-51 0 -51 28z " />
<glyph unicode="#" horiz-adv-x="1243" d="M-2 474.5q-4 19.5 0 42t16.5 42t28.5 19.5h319l27 116q4 25 9 48.5t12 48.5h-320q-16 0 -20 18t0 40.5t15 41t28 18.5h319l96 445q4 16 31 24t57 8q29 0 51.5 -8t18.5 -24q0 -2 -5 -28t-15 -62q0 -4 -2 -10.5t-2 -10.5q-4 -25 -10.5 -49.5t-12.5 -50.5l-49 -234h190 l97 445q4 16 30.5 24t57.5 8q29 0 51 -8t18 -24q0 -2 -5 -28t-15 -62q0 -4 -2 -10.5t-2 -10.5q-4 -25 -10.5 -49.5t-12.5 -50.5l-49 -234h262q61 0 78 -22q4 -8 3 -30.5t-3 -43.5v-12q0 -4 -1 -6t-1 -7v-10q-4 -41 -10 -63.5t-14.5 -33.5t-17.5 -14t-22 -3q-14 0 -30.5 13 t-26.5 34q-31 57 -61.5 68.5t-71.5 11.5h-107q-6 -25 -11 -48.5t-9 -48.5l-27 -116h262q29 0 50.5 -6.5t27.5 -16.5q4 -10 3 -31.5t-3 -44.5v-14q0 -4 -1 -6t-1 -6v-11q-6 -41 -12 -63.5t-13 -33.5t-16.5 -14t-21.5 -3q-14 0 -30.5 13t-27.5 34q-31 57 -62.5 68.5 t-72.5 11.5h-106l-37 -168l-31 -146q-10 -53 -16 -82.5t-10 -40.5q-4 -16 -29 -24t-53 -8q-31 0 -53.5 8t-24.5 18l39 174q10 41 20 87t21 100q4 20 8 40.5t8 41.5h-190l-37 -168l-31 -146q-10 -53 -16 -82.5t-11 -40.5q-4 -16 -28.5 -24t-53.5 -8q-31 0 -53 8t-24 18 l39 174q10 41 20 87t21 100q4 20 8 40.5t8 41.5h-320q-16 0 -20 19.5zM520 578h191l26 116q4 25 9.5 48.5t11.5 48.5h-191q-6 -25 -11 -48.5t-9 -48.5z" />
<glyph unicode="$" horiz-adv-x="1081" d="M31 10q0 92 88 170q41 33 85 42t97 9q8 0 32.5 -10t55.5 -26l51 -25l31 -14v508q-6 0 -8 2q-29 4 -51 8l-54 8q-74 12 -108 35q-68 41 -106 117.5t-38 175.5q0 330 365 352v160h119v-162h-17q180 -16 279.5 -104.5t99.5 -241.5q0 -63 -98 -64q-41 0 -65.5 5.5t-40 16.5 t-23.5 28.5t-16 41.5l-27 166q-12 25 -38 46.5t-54 31.5v-545h-6q68 -10 132 -28.5t111 -44.5q86 -49 130 -104.5t44 -149.5q0 -193 -83.5 -295.5t-253.5 -102.5q-20 0 -39 1t-35 3v-186h-119l2 205h8q-25 8 -49 15t-43 16q-23 10 -45 16t-33 6q-14 0 -32.5 -19.5 t-36.5 -41.5q-4 -4 -4 -6q-20 -25 -42 -45.5t-57 -20.5q-109 0 -108 51zM350 1026q0 -113 29 -191.5t92 -89.5v551q-29 -6 -51.5 -30.5t-40.5 -61.5q-29 -65 -29 -178zM590 115q41 4 71.5 25.5t53.5 49.5q37 51 37 179q0 176 -70 231q-18 14 -41 25.5t-51 19.5v-530z" />
<glyph unicode="%" horiz-adv-x="1048" d="M-14 1157q0 45 19.5 91t60.5 89q37 37 87 55.5t103 18.5q55 0 105.5 -18.5t87.5 -55.5q78 -84 77 -180q0 -94 -77 -178q-78 -74 -193 -74q-53 0 -103 18.5t-87 55.5q-41 41 -60.5 86t-19.5 92zM4 12q4 6 41 67.5t95.5 158t131 216t146.5 242.5q174 291 395 654 q10 16 28.5 30.5t37.5 18.5q12 2 47 -4t53 -17q37 -16 58.5 -28.5t31.5 -20.5t11 -13t-3 -11q-10 -16 -80 -27q-61 -6 -84.5 -29.5t-44.5 -58.5l-4 -8l-30 -50q-31 -51 -81.5 -131.5t-114 -185t-131 -215.5t-133 -218.5t-118.5 -194.5t-88 -145.5t-41 -70.5 q-8 -12 -30.5 -13t-46 6t-39 19.5t-7.5 28.5zM139 1155q0 -61 33 -94q39 -39 86 -39q45 0 84 39q33 33 33 94q0 63 -33 96q-43 39 -84 39q-43 0 -86 -39q-33 -33 -33 -96zM498 227q0 45 19.5 91.5t60.5 89.5q37 37 87 55t103 18q55 0 105.5 -18.5t87.5 -54.5q78 -84 77 -181 q0 -94 -77 -178q-78 -74 -193 -74q-53 0 -103 18.5t-87 55.5q-41 41 -60.5 86t-19.5 92zM651 225q0 -61 33 -94q39 -39 86 -39q45 0 84 39q33 33 33 94q0 63 -33 97q-43 39 -84 38q-43 0 -86 -38q-33 -33 -33 -97z" />
<glyph unicode="&#x26;" horiz-adv-x="1058" d="M72 700q0 61 33.5 137t91.5 152q61 78 130.5 121t139.5 43q23 0 52.5 -19.5t51.5 -48.5q25 -33 39.5 -60.5t14.5 -47.5q0 -41 -39 -92q-10 -12 -24.5 -16.5t-26.5 -2.5h-33q-33 53 -50.5 78t-23.5 31q-10 16 -33.5 18t-42.5 2h-10q-10 0 -23.5 -20.5t-25.5 -50.5l-19 -43 q-6 -14 -11 -28.5t-5 -35.5q0 -53 6 -94t15 -70h296v166q12 33 32 67t42.5 57.5t43 34.5t36.5 -1q8 -8 16.5 -38t8.5 -46v-240h229q29 -51 0 -96h-229v-557q0 -16 -9.5 -24.5t-60.5 -8.5q-109 0 -109 39v303q-33 -33 -59 -53q-41 -33 -81 -52.5t-81 -19.5q-113 0 -204 213 q-78 186 -78 303zM309 557q0 -8 2 -10q0 -4 1 -6t1 -4q4 -27 11.5 -52.5t23.5 -50.5q43 -82 80 -82q25 0 71 18.5t79 41.5h-3v145h-266z" />
<glyph unicode="'" horiz-adv-x="475" d="M135 948v402q0 25 32 39t73 14q43 0 73.5 -14.5t30.5 -36.5v-297q0 -10 -11 -33t-32.5 -45.5t-50.5 -39.5t-66 -17q-20 0 -34.5 7t-14.5 21z" />
<glyph unicode="(" horiz-adv-x="745" d="M18 692q0 131 37 236.5t94.5 185.5t125 137.5t127 94t102.5 53t53 16.5q6 0 20.5 -9t30 -23.5t26.5 -31t11 -30.5q0 -2 -12 -9t-27 -16l-8 -6l-45 -28q-72 -66 -136.5 -147t-112.5 -177t-76.5 -208t-28.5 -241q0 -61 18.5 -123.5t50 -119t72.5 -103.5t84 -80 q51 -35 83 -49t42 -16q0 -2 16 -6q0 -8 -13 -22.5t-24 -14.5q-18 2 -64 18.5t-102.5 52t-117 93t-110.5 138.5t-83 189.5t-33 245.5z" />
<glyph unicode=")" horiz-adv-x="745" d="M104 61q0 6 25 13h-4q207 92 314.5 282.5t107.5 517.5q0 66 -18.5 127.5t-50.5 117t-72.5 101.5t-86.5 80q-53 35 -83.5 50.5t-40.5 19.5q-4 0 -13 4q-4 2 -8 2q0 6 18.5 19.5t24.5 13.5q18 -2 64.5 -18.5t102.5 -52t116.5 -92t111 -138.5t83 -190.5t32.5 -245.5 q0 -131 -37 -234.5t-94 -182.5t-123.5 -133t-126 -89t-103.5 -50.5t-53 -15.5q-10 0 -24 10.5t-27.5 24.5t-24 30.5t-10.5 28.5z" />
<glyph unicode="*" horiz-adv-x="720" d="M53 830.5q-6 15.5 6 27.5l232 232q-39 39 -79 78.5t-73 73.5t-55.5 55.5t-26.5 25.5q-10 10 -3 24.5t23.5 23.5t36 12t31.5 -9q4 -4 44 -45t100 -98l14 -14v153q0 16 21.5 25.5t48.5 9.5q25 0 45 -9.5t20 -25.5v-153q66 63 108 106t46 47q12 12 31.5 10t36 -11 t25.5 -22.5t-3 -23.5l-233 -233l159 -158l54 -53q10 -10 18 -21h2q12 -12 6 -27.5t-21.5 -25.5t-34 -13.5t-30.5 7.5l-164 164v-154q0 -16 -20.5 -24.5t-44.5 -8.5q-27 0 -48.5 8.5t-21.5 24.5v156l-166 -166q-10 -10 -28.5 -7t-34 13t-21.5 25.5z" />
<glyph unicode="+" horiz-adv-x="913" d="M0 506q0 20 12.5 37.5t36.5 17.5h320v324q0 16 23.5 24.5t51.5 8.5q29 0 50.5 -8.5t21.5 -24.5v-324h293q29 0 50.5 -6t31.5 -16q6 -10 10 -35t8 -47q2 -4 2 -11.5v-11.5q4 -41 3 -63.5t-7 -32.5t-14 -13t-21 -3q-35 0 -69 47q-23 31 -40.5 47t-34.5 23t-35.5 8.5 t-39.5 1.5h-137v-381q0 -16 -21.5 -24.5t-50.5 -8.5t-52 8t-23 25v381h-320q-23 0 -36 17t-13 40z" />
<glyph unicode="," horiz-adv-x="370" d="M59 -231l84 401q10 45 97 45q39 0 64.5 -16.5t27.5 -34.5l-62 -297q-2 -10 -15 -31.5t-34.5 -43t-51.5 -37t-67 -15.5q-20 0 -33.5 7t-9.5 22z" />
<glyph unicode="-" horiz-adv-x="929" d="M0 506q0 20 12.5 37.5t36.5 17.5h760q29 0 50.5 -6t31.5 -16q6 -10 10 -35t8 -47q2 -4 2 -11.5v-11.5q4 -41 3 -63.5t-7 -32.5t-14 -13t-21 -3q-35 0 -69 47q-23 31 -40.5 47t-34.5 23t-35.5 8.5t-39.5 1.5h-604q-23 0 -36 17t-13 40z" />
<glyph unicode="." horiz-adv-x="327" d="M66 14v119q0 25 35.5 39t82.5 14t82 -14t35 -37v-123q0 -23 -35 -38t-82 -15t-82.5 15.5t-35.5 39.5z" />
<glyph unicode="/" horiz-adv-x="806" d="M-117 8q4 6 38 67.5t88 158t121 216t134 244.5q160 293 363 658q10 16 28.5 30.5t36.5 18.5q12 2 47 -4t54 -17q37 -16 58 -28.5t31.5 -20.5t11.5 -13t-3 -11q-10 -16 -80 -27q-59 -8 -84 -31.5t-43 -58.5q-4 -4 -4 -6l-28 -50q-27 -51 -73.5 -132.5t-104.5 -187 t-119.5 -216.5t-121 -218.5t-108.5 -195.5t-81 -146.5t-38 -70.5q-8 -12 -30.5 -13t-46 6t-39 19.5t-7.5 28.5z" />
<glyph unicode="0" d="M-2 674q0 137 32.5 244.5t83 189.5t111 140.5t116.5 94t101 52t66 16.5q8 0 50 -12.5t99.5 -42t122 -79.5t119.5 -126t91 -180.5t36 -241.5q0 -145 -34 -256t-86 -192.5t-113.5 -137t-115.5 -89.5t-94 -49t-48 -15q-10 0 -53.5 14t-103 46t-126 84t-123.5 128t-94 177.5 t-37 234.5zM180 887q0 -96 31 -189.5t78 -177.5t103.5 -154.5t106.5 -121.5t87 -81t45 -30q25 4 55.5 27.5t59 57.5t54 75t38.5 78q12 35 17 69.5t5 69.5q0 92 -29.5 182t-74.5 174t-100.5 158t-106.5 130t-91 92t-57 46q-23 -6 -49 -32.5t-54 -62.5t-52.5 -76t-38.5 -74 q-27 -78 -27 -160z" />
<glyph unicode="1" d="M393 57v1266q0 35 33 54.5t92 19.5t85 -18.5t26 -53.5v-1272q0 -35 -25.5 -53t-85.5 -18q-59 0 -92 19t-33 56z" />
<glyph unicode="2" d="M119 1073q0 20 6 33q2 8 6 14q51 90 112.5 144.5t119 84t100.5 39t55 9.5q20 0 59 -9.5t89.5 -39t105.5 -82t109 -138.5q4 -12 10 -26q4 -12 8 -27.5t4 -34.5q0 -29 -14.5 -69.5t-40 -86.5t-60 -95.5t-73.5 -96.5t-83 -106.5t-84 -129t-72 -146.5t-48 -156h307 q72 0 113 -52.5t51 -115.5v-11q0 -4 1 -5t1 -3q2 -10 2 -24.5v-18.5q0 -35 -13 -43t-30 -8q-35 0 -69 47q-23 31 -41.5 47.5t-36 23.5t-34.5 8t-38 1h-440q-35 0 -42 15.5t-7 41.5q0 23 10 43q16 68 56 159t86 178t89 157t68 98q41 47 83 102.5t77.5 108.5t63.5 100.5 t42 79.5q-4 18 -24.5 49t-46 61t-52 52.5t-39.5 22.5q-2 0 -24.5 -6.5t-57 -25.5t-80 -59t-90.5 -108q-27 -31 -37 -66.5t-14 -60.5q-4 -14 -8 -22.5t-21 -8.5q-8 0 -27.5 18.5t-39 44t-33.5 53.5t-14 46z" />
<glyph unicode="3" d="M41 1057q0 74 37 138.5t98.5 111.5t141 73.5t167.5 26.5q209 0 322 -83t113 -249q0 -121 -54.5 -212t-173.5 -150q125 -49 207 -141.5t82 -227.5q0 -70 -26.5 -132t-78 -110.5t-129 -76t-178.5 -27.5q-6 0 -18 4q-2 0 -4 1t-4 1q-25 4 -65 11.5t-77 7.5q-14 0 -30.5 -4.5 t-28.5 -8.5q-115 -68 -176 -67q-39 0 -55.5 17t-16.5 40q0 174 191 174q16 0 38.5 -10t49.5 -25q31 -16 60.5 -30.5t45.5 -14.5q111 0 177.5 65.5t66.5 188.5q0 33 -10.5 68t-25.5 67.5t-34.5 60t-38.5 44.5q-61 39 -151 55q-47 8 -75 17.5t-43 19.5t-20.5 21.5t-5.5 21.5v8 q0 47 32 62.5t110 15.5q115 0 168 76t53 196q0 135 -42 188.5t-142 53.5q-74 0 -125 -60.5t-74 -168.5q-4 -16 -9 -33t-19.5 -30t-42 -21.5t-72.5 -8.5q-115 0 -115 56z" />
<glyph unicode="4" d="M121 637v80q39 145 99.5 264t125 208t123.5 147.5t96 82.5q6 2 25.5 -8t39 -25.5t32 -31t6.5 -21.5q-25 -23 -70 -83t-93 -144t-91 -183.5t-64 -197.5h-14q6 0 25.5 -2t48 -4t64.5 -3t73 -1q29 0 62.5 1t62.5 5h-15v254q0 35 80 35h80q84 0 84 -35l-4 -938l-25 -23 q-16 -16 -36.5 -28.5t-61.5 -12.5q-47 0 -82 14.5t-35 43.5v602q-41 -4 -117.5 -5t-158.5 -1q-72 0 -141.5 2t-118.5 8z" />
<glyph unicode="5" d="M72 219q0 23 36.5 44.5t69.5 21.5q53 0 86 -9.5t53.5 -23.5t31.5 -32.5t22 -37.5q18 -35 44.5 -64.5t92.5 -29.5q96 0 143 86t47 221q0 80 -9 140.5t-35.5 102.5t-75 66.5t-125.5 34.5l-273 2q4 53 18.5 129t30.5 156q18 92 35 187.5t27 181.5h112h203t221 -4h17 q31 0 50 -2.5t31.5 -13.5t16.5 -35.5t4 -69.5q0 -53 -4 -84t-12 -46.5t-19.5 -19.5t-25.5 -4h-21q-23 0 -37 18.5t-24 34.5q-12 25 -28.5 52.5t-44.5 50t-67.5 37t-97.5 10.5l-53 -4q-23 -115 -48.5 -249t-45.5 -247h18q4 0 10.5 1t14.5 1q98 0 187 -17.5t156.5 -60.5 t107.5 -115.5t40 -185.5q0 -100 -21.5 -185t-64.5 -146.5t-107.5 -95t-150.5 -33.5q-111 0 -208 10t-169.5 37.5t-115.5 72.5t-43 117z" />
<glyph unicode="6" d="M106 453q18 252 107.5 468t222.5 379q92 113 162 109q29 -4 35 -7t10 -26q2 -14 -15.5 -40.5t-41.5 -61.5l-13 -14h2l-55 -84l-37 -68q-2 -4 -8 -15.5t-4 -7.5q-29 -47 -54.5 -97t-39.5 -109q45 27 99 37t95 6q72 -6 135.5 -57.5t109.5 -124t72.5 -154.5t26.5 -150 q-8 -84 -49 -166t-104.5 -148.5t-146.5 -107.5t-175 -41q-84 8 -148.5 53.5t-107.5 113t-63.5 149.5t-14.5 164zM324 465q0 -39 2 -78t6 -63q12 -39 39.5 -75t61.5 -63.5t70 -46t64 -20.5q18 -2 36 16.5t33 52t26.5 81.5t15.5 104q4 49 -7.5 118.5t-38 135t-69.5 113.5 t-100 53q-100 10 -127 -144q-6 -35 -9 -85t-3 -99z" />
<glyph unicode="7" d="M80 1382h58.5t70.5 2q18 0 37.5 1t40.5 1q53 2 118.5 3.5t118.5 1.5q61 0 112.5 -2.5t82.5 -6.5q35 -20 47 -63t18 -125q4 -92 -11 -210t-40 -228h125q18 -4 24.5 -20.5t3.5 -37t-16.5 -36t-33.5 -15.5h-131q-25 -88 -58 -176t-70.5 -170t-78.5 -152.5t-82 -121.5 t-89 -76t-75 -23q-20 0 -33.5 4.5t-9.5 10.5q14 14 47 73l8 9h-2q94 170 141 337q14 49 33 124t39 159q-72 -2 -121 -2h-61q-23 0 -36 17.5t-13 39.5q0 20 12 38t37 18h205q23 106 37 211.5t10 171.5q-2 45 -3 71.5t-3 44.5q0 4 -1 6.5t-1 6.5l2 8h12q-12 4 -32.5 5t-43.5 1 q-59 0 -134 -6t-138 -12l-115 -9z" />
<glyph unicode="8" d="M139 356q0 37 34 100.5t89 137.5q10 14 32.5 38.5t39.5 41.5q-10 6 -17.5 12t-11.5 10h2q-2 2 -6 6.5t-8 6.5q-78 59 -116 129.5t-38 148.5q0 37 32 99.5t91 138.5t126 124t120 48q68 0 170 -68q98 -66 152.5 -141.5t54.5 -161.5q0 -49 -27 -109.5t-78 -130.5l-24 -24 q-14 -16 -34 -35.5t-36 -34.5q96 -68 147.5 -141.5t51.5 -155.5q0 -98 -111 -250q-129 -164 -282 -163q-41 0 -90.5 24.5t-108.5 69.5q-154 117 -154 280zM340 428q0 -164 147 -252q57 -35 84 -35q103 0 103 133q0 88 -30 155t-79 112q-45 33 -83 52t-76 19q-66 0 -66 -184z M340 1061q0 -80 40 -145.5t107 -108.5q57 -35 84 -35q103 0 103 135q0 86 -30 153.5t-79 113.5q-45 33 -83 51t-76 18q-66 0 -66 -182z" />
<glyph unicode="9" d="M106 938q10 98 48.5 181t100.5 143.5t147 94.5t190 34q84 -8 147.5 -54.5t105.5 -115t60 -151.5t10 -165q-25 -250 -109.5 -455.5t-225.5 -367.5q-51 -55 -99.5 -87t-74.5 -40q-29 -8 -42.5 -6t-17.5 8t-1 15.5t7 17.5q4 6 19.5 27.5t31.5 43.5q4 4 5 7q23 33 48 68.5 t46 70.5l14 26l23 39q33 59 67.5 131t50.5 144q-47 -29 -101 -37t-95 -4q-74 6 -141.5 50t-116.5 107.5t-76 136t-21 138.5zM344 999q0 -49 17.5 -108.5t47 -113.5t71.5 -95t95 -49q43 2 82.5 33.5t47.5 105.5q10 41 10 80q0 31 -4 61.5t-9 59.5q0 4 -1 7t-1 7l-8 51 q-12 39 -38.5 75t-60.5 65.5t-70 48t-64 22.5q-16 2 -32.5 -17.5t-33 -54t-30 -80.5t-19.5 -98z" />
<glyph unicode=":" horiz-adv-x="401" d="M88 53v142q0 25 36 39t83 14t82 -14.5t35 -36.5v-146q0 -23 -35 -38t-82 -15t-83 15.5t-36 39.5zM88 698v183q0 25 36 39t83 14t82 -14.5t35 -36.5v-187q0 -23 -35 -38t-82 -15t-83 15.5t-36 39.5z" />
<glyph unicode=";" horiz-adv-x="415" d="M59 -231l84 401q10 45 97 45q39 0 64.5 -16.5t27.5 -34.5l-62 -297q-2 -10 -15 -31.5t-34.5 -43t-51.5 -37t-67 -15.5q-20 0 -33.5 7t-9.5 22zM109 739v142q0 25 35.5 39t82.5 14t82 -14.5t35 -36.5v-146q0 -23 -35 -38t-82 -15t-82.5 15.5t-35.5 39.5z" />
<glyph unicode="&#x3c;" horiz-adv-x="524" d="M41 451q0 16 1 31.5t3 31.5v14q98 205 221 425.5t264 451.5v-295q-92 -141 -183 -308t-171 -341q37 -78 81 -161t89 -168t91 -166t89 -154l4 -301l-124 206q-102 168 -198.5 339t-162.5 333q-2 14 -3 29.5t-1 32.5z" />
<glyph unicode="=" horiz-adv-x="964" d="M20 268q0 18 12.5 33.5t37.5 15.5h759q29 0 50.5 -5t31.5 -15h-2v-6h2q4 -6 9 -10l2 -2v-9q0 -2 1 -3t1 -3q4 -72 -6.5 -93t-32.5 -21q-14 0 -22.5 6t-18.5 16l-25 25q-18 18 -40.5 20t-49.5 0h-31q-6 0 -12 -1t-12 -1h-604q-23 0 -36.5 16.5t-13.5 36.5zM20 657 q0 18 12.5 34t37.5 16h817q25 0 37 -15.5t12 -34.5q0 -20 -13.5 -36.5t-35.5 -16.5h-817q-23 0 -36.5 16.5t-13.5 36.5z" />
<glyph unicode="&#x3e;" horiz-adv-x="524" d="M45 -438l4 250q100 164 188.5 329.5t159.5 319.5q-72 172 -163 336t-189 311v297q135 -219 257 -436t230 -447q6 -25 7 -63q0 -35 -7 -60q-98 -203 -214.5 -411.5t-245.5 -425.5h-27z" />
<glyph unicode="?" horiz-adv-x="835" d="M23 1083q2 18 6 37q51 92 115.5 147.5t123 84t100.5 37t52 8.5q20 -2 60 -12.5t89 -40t103.5 -81t105.5 -135.5l13 -26q4 -12 8 -27.5t4 -34.5q0 -43 -29 -98q-18 -31 -63 -91t-109 -138l-16.5 -27.5t-20.5 -37t-17 -37t-7 -23.5l2 -168q0 -23 -35 -37t-82 -14t-83 14 t-36 39v164q4 16 12 37q6 16 16.5 34.5t26.5 34.5q33 31 75 88.5t80 121t67.5 121.5t42.5 91q6 14 -15.5 44t-51.5 59.5t-58.5 52t-40.5 22.5q-10 -4 -35 -17t-59.5 -39t-74.5 -67t-81 -100q-23 -31 -35 -65.5t-16 -59.5q-10 -41 -19.5 -49t-38.5 31l-32 43h2l-6 8 q-6 6 -14.5 14t-12.5 17q-12 20 -15.5 39.5t-0.5 35.5zM307 31v141q0 25 36 40t83 15t82 -15t35 -38v-143q0 -25 -35 -39.5t-82 -14.5t-83 14.5t-36 39.5z" />
<glyph unicode="@" horiz-adv-x="1929" d="M100 348q0 283 142 516q139 231 389 373l76 41q219 119 438 119q326 0 524 -250q182 -229 182 -557q0 -176 -67 -369q-82 -231 -209 -309q-104 -63 -158 -64q-35 0 -76 16.5t-86 45.5q-47 29 -75.5 60.5t-40.5 66.5v-2q-8 18 -10.5 35.5t-2.5 40.5q0 143 86 266 q-82 18 -133 20q-4 -88 -22.5 -185t-46.5 -189l-183 -80q20 80 41 193.5t43 269.5q-23 2 -45 2h-28q-16 0 -66 -7q-4 -98 -22.5 -187t-47.5 -181l-188 -92q39 113 61.5 224t26.5 226l-70 -12l-104 -17l-2 60l133 78h68q27 -2 64.5 1t90.5 9q41 4 77 7t63 3q4 35 9 83t13 116 q10 70 15.5 123t5.5 92v4q-164 -98 -269 -98q-61 0 -99 37.5t-38 97.5q0 147 330 276l14 -59q-168 -104 -168 -166q0 -25 19 -47q8 -8 21 -15.5t24 -7.5q35 0 90 39q39 31 66.5 48.5t31.5 21.5q-2 0 10 4q14 6 54.5 20.5t78.5 30.5q2 -20 3.5 -43.5t1.5 -27.5 q0 -53 -4.5 -122t-10.5 -153q-12 -115 -18 -171t-8 -79q59 -4 150 -16t220 -35q-154 -147 -153 -305q0 -39 17.5 -75t45.5 -73q31 -35 66 -54t73 -19q2 0 1 1t4 1q92 88 151 274q29 86 43 167t14 159q0 315 -176 528q-184 229 -485 230q-352 0 -600 -285 q-240 -272 -240 -631q0 -152 46 -274.5t132 -216.5q90 -92 214 -141.5t272 -49.5q221 0 510 121l35 -39q-307 -172 -625 -172q-317 0 -516 205q-193 199 -193 524z" />
<glyph unicode="A" horiz-adv-x="1159" d="M6 45q0 25 35 126t104 273q16 43 42 97.5t59 124.5l57 125l55 120q25 51 62 142q8 20 17 41.5t20 44.5q10 35 10 61q0 41 -9 63.5t-22 32.5h2l-82 19q-35 8 -55 20.5t-20 26.5q0 37 196 37q68 0 129.5 -39t108.5 -115q33 -53 70.5 -143t66.5 -180l86 -281l215 -606h-2 l8 -8q0 -27 -57 -27h-117q-74 0 -104 88l-181 490l-211 -177q-51 -43 -107 -90t-103 -90h2q-4 -12 -5.5 -23.5t-3.5 -21.5q-10 -49 -17 -81t-11 -40q-33 -65 -147 -65h-3q-88 0 -88 55zM307 342l365 315h-2l-142 385q-100 -244 -221 -700z" />
<glyph unicode="B" horiz-adv-x="1028" d="M104 70v1267q0 53 76 54h490q215 0 215 -127q0 -92 -122 -215t-329 -254q131 -96 238.5 -188.5t184.5 -176.5t118 -157t41 -130q0 -72 -92 -112q-31 -14 -71 -22.5t-85 -8.5h-575q-88 0 -89 70zM340 74h274q105 0 105 88q0 272 -258 504q-79 73 -96 73q-25 0 -25 -32 v-633zM340 842q47 4 95 45t106 112q51 70 82.5 140t31.5 127q0 69 -194 69h-6h-90q-25 0 -25 -55v-438z" />
<glyph unicode="C" horiz-adv-x="847" d="M55 688q0 190 158 445q43 68 94 119t104.5 84.5t106.5 51t103 17.5q35 0 70.5 -31t70.5 -84q65 -104 65 -168q0 -55 -41 -96q-10 -10 -29.5 -25.5t-54.5 -35.5l-73 2q-6 88 -43 166q-25 51 -71 75.5t-79 24.5q-37 0 -68.5 -38t-60.5 -110q-20 -53 -33.5 -114.5 t-13.5 -108.5q0 -59 5.5 -116.5t15.5 -112.5q10 -96 32.5 -161.5t59.5 -129.5q90 -147 159 -147q12 0 35 3t47.5 9t47 14t38.5 21q14 10 80 71l23 21l51 -23q-10 -35 -164 -188q-37 -37 -79 -63.5t-78.5 -45t-65.5 -28t-39 -9.5q-158 0 -274 293q-98 246 -99 418z" />
<glyph unicode="D" horiz-adv-x="1150" d="M109 49v1297q0 20 27.5 33.5t84.5 13.5h387q92 0 182.5 -56.5t163 -153t116.5 -225.5t44 -274q0 -139 -40 -264t-109.5 -218t-162.5 -147.5t-200 -54.5h-366q-127 0 -127 49zM328 80q16 -2 62 -2t87 10q104 25 171 72t106 119.5t54 171t15 221.5q0 49 -4 117.5 t-18.5 141.5t-39 143.5t-64.5 125.5t-99 90t-139 35h-115v-1245h-16z" />
<glyph unicode="E" horiz-adv-x="913" d="M55 688q0 190 158 445q43 68 94 119t104.5 84.5t106.5 51t103 17.5q35 0 70.5 -31t70.5 -84q65 -104 65 -168q0 -55 -41 -96q-10 -10 -29.5 -25.5t-54.5 -35.5l-73 2q-6 88 -43 166q-25 51 -71 75.5t-79 24.5q-37 0 -68.5 -38t-60.5 -110q-20 -53 -33.5 -114.5 t-13.5 -108.5q0 -109 19 -215q176 98 273 145.5t128 47.5q35 0 61.5 -17.5t44.5 -46.5q16 -27 25.5 -57t9.5 -55q0 -51 -65 -93q-25 -16 -52.5 -24t-62.5 -8q-14 0 -37.5 23.5t-46.5 58.5q-23 33 -40 57t-15 24q-23 0 -117 -53q-90 -53 -90 -82q0 -47 20.5 -104t57.5 -121 q90 -147 159 -147q12 0 35 3t47.5 9t47 14t38.5 21q14 10 80 71l23 21l51 -23q-10 -35 -164 -188q-37 -37 -79 -63.5t-78.5 -45t-65.5 -28t-39 -9.5q-158 0 -274 293q-98 246 -99 418z" />
<glyph unicode="F" horiz-adv-x="901" d="M104 39v1309q0 43 68 43h600q35 0 58.5 -9.5t39 -34t22.5 -67.5t7 -111q0 -53 -4 -83.5t-12.5 -46t-19.5 -19.5t-25 -4h-21q-10 0 -30.5 26.5t-40 60.5t-36 63.5t-18.5 35.5q-31 49 -82 81t-96 32h-43q-76 0 -103.5 -23.5t-27.5 -83.5v-426q63 31 117.5 42.5t97.5 11.5 q31 0 59.5 -4.5t44.5 -8.5q2 0 4.5 -1t4.5 -1q6 -2 18 -2q20 -6 44 -17t44.5 -27.5t33.5 -38t13 -52.5q0 -23 -15 -39t-40 -26.5t-57.5 -14.5t-67.5 -4q-8 0 -35.5 21.5t-50.5 44.5l-25 22q-14 12 -23 21.5t-9 13.5q-6 0 -13.5 2t-11.5 4q-14 4 -32.5 9t-37.5 5 q-16 0 -32.5 -5t-32.5 -19h2v-684q0 -45 -121 -45q-115 0 -115 49z" />
<glyph unicode="G" horiz-adv-x="1067" d="M66 629q16 242 104 420t254 311q16 12 38.5 20.5t45 13.5t41 8t29.5 3q51 0 107 -25.5t101 -85.5q41 -53 48.5 -89t7.5 -81q0 -39 -45 -110q-23 -35 -49.5 -54.5t-51.5 -19.5q-18 0 -26 21l-6 14q-4 8 -7.5 22.5t-3.5 26.5q-2 2 -5 8t-3 8q-10 14 -12 31l-12 31 q-6 16 -12.5 30.5t-10.5 20.5q-29 41 -57.5 66.5t-85.5 25.5q-33 0 -74 -48t-66 -116q-20 -53 -31.5 -111.5t-11.5 -105.5q0 -92 13.5 -187t50.5 -196l16 -43q20 -55 39 -104t39.5 -84t43.5 -55.5t52 -20.5q10 0 40 11.5t67 31t76 47t67 60.5q10 14 14.5 53t4.5 86 q0 39 -1 74.5t-3 62.5h-177q-29 -2 -51 14.5t-22 32.5q0 14 18.5 24.5t61.5 10.5h399q16 -20 19 -58t-3 -61q-25 -135 -86 -236.5t-131.5 -172t-136.5 -109.5t-96 -49q-10 -2 -28.5 -4t-39 -3t-36 -2t-17.5 -1q-43 0 -79 15t-68.5 47t-66.5 78t-75 107q-78 117 -96 217 q-15 78 -15 144q0 18 1 35z" />
<glyph unicode="H" horiz-adv-x="1169" d="M104 41v1317q0 43 117 43q119 0 119 -43v-586h561v588q0 41 113 41q123 0 123 -49v-1313q0 -49 -109 -49q-127 0 -127 53v662q-72 0 -140.5 -1.5t-139.5 -1.5h-281v-661q0 -51 -109 -51q-127 0 -127 51z" />
<glyph unicode="I" horiz-adv-x="440" d="M113 33v1317q0 41 139 41q96 0 96 -43v-1315q0 -43 -96 -43q-139 0 -139 43z" />
<glyph unicode="J" horiz-adv-x="540" d="M10 1245v119l72 8q59 6 121.5 10t124.5 4h41.5t42.5 -2h8q35 -18 52 -60t28 -124q6 -57 10 -115.5t4 -117.5q0 -117 -18.5 -249t-52 -261t-82 -246t-107.5 -201q-39 -53 -84 -80.5t-74 -27.5q-45 0 -39 20q6 8 16.5 26.5t24.5 45.5q41 86 72 179t49 175q8 39 18.5 104.5 t19.5 138.5t15.5 143.5t6.5 121.5q0 176 -13 274q-4 45 -7 71t-7 44q-2 4 -2 23h12q-23 4 -49 4q-17 0 -35 -2q-45 -4 -84 -13l-26 -4q-10 -4 -25.5 -5t-32.5 -3z" />
<glyph unicode="K" horiz-adv-x="1050" d="M104 39v1302q0 49 123 50q113 0 113 -41v-1307q0 -53 -127 -53q-109 0 -109 49zM389 737q0 55 31 130t88 161q121 176 221 276.5t162 100.5q37 0 66.5 -19.5t46.5 -54.5q14 -29 22 -63.5t8 -65.5q0 -23 -5 -48.5t-13 -53.5q-23 -72 -82 -82l-94 117q-35 41 -58.5 64.5 t-29.5 23.5q-23 0 -99 -136q-75 -127 -75 -171q0 -38 14 -84t38.5 -98t58.5 -108.5t75 -113.5q39 -49 114.5 -144.5t186.5 -220.5h4q-4 -43 -45 -104q-43 -61 -100 -61q-18 0 -79 61t-138 156q-70 86 -122.5 159.5t-80.5 114.5q-53 80 -84 148.5t-31 115.5z" />
<glyph unicode="L" horiz-adv-x="901" d="M104 43v1298q0 49 115 50q121 0 121 -45v-1164q0 -66 35 -90q33 -16 96 -16h43q43 0 89 28.5t77 75.5l10 15q10 14 18.5 35.5t28.5 80.5q16 47 36.5 76t43.5 29q82 0 82 -256q0 -35 -2 -47.5t-8 -24.5v-8q-12 -37 -42 -58.5t-75 -21.5h-600q-68 0 -68 43z" />
<glyph unicode="M" horiz-adv-x="1427" d="M104 27v1327q0 37 56 37h176q47 0 59 -62q16 -78 32.5 -156.5t33.5 -156.5l67 -311q49 -227 108.5 -345t127.5 -118q121 0 244 585l104 502q6 29 23.5 45.5t42.5 16.5h163q49 0 50 -37v-1327q0 -43 -103 -43q-133 0 -133 43l10 1060q-31 -184 -56.5 -317t-41.5 -219 q-53 -233 -104.5 -367.5t-106.5 -169.5q-44 -28 -110 -28h-5q-76 0 -138 79.5t-109 227.5q-16 53 -40 164.5t-53 265.5l-71 387l6 -520q2 -147 3 -288.5t1 -274.5q0 -43 -111 -43q-125 0 -125 43z" />
<glyph unicode="N" horiz-adv-x="1169" d="M104 33v1325q0 43 117 43q119 0 119 -43l-2 -197l285 -358l278 -346v903q0 41 113 41q123 0 123 -49v-1321q0 -49 -109 -49q-127 0 -127 53l2 268l-563 709v-979q0 -51 -109 -51q-127 0 -127 51z" />
<glyph unicode="O" horiz-adv-x="991" d="M49 711q0 121 54.5 247.5t158.5 255.5q76 90 147.5 141.5t125.5 51.5q49 0 137 -78q284 -256 284 -584q0 -393 -331 -688q-83 -71 -138 -71h-2q-61 0 -149 86q-287 281 -287 639zM236 874q0 -385 253 -606q77 -69 114 -69h1q80 0 129 137q37 98 37 217q0 389 -229 586 q-72 61 -107 61q-37 0 -72.5 -31.5t-68.5 -91.5q-27 -49 -42 -102t-15 -101z" />
<glyph unicode="P" horiz-adv-x="931" d="M104 33v1298q0 59 148 60q274 0 426 -48q250 -81 250 -294q0 -111 -49.5 -204t-141.5 -165q-80 -57 -180 -91t-217 -36v-520q0 -43 -131 -43q-104 0 -105 43zM340 680q0 -70 22 -70q158 0 252 127q84 113 84 291q0 125 -67 211q-74 98 -178 98q-113 0 -113 -61v-596z" />
<glyph unicode="Q" horiz-adv-x="991" d="M49 711q0 121 54.5 246.5t158.5 256.5q76 90 147.5 141.5t125.5 51.5q49 0 137 -78q284 -255 284 -582q0 -168 -66.5 -324.5t-184.5 -287.5q18 -16 36.5 -34.5t28.5 -32.5l33 -45q27 -35 55.5 -60.5t50.5 -25.5q27 0 105 59l63 -35q-57 -61 -105 -90t-102 -29 q-41 0 -108.5 26t-132.5 93l-62 66l-10 -9q-23 -20 -34 -26t-38 -6q-61 0 -149 86q-287 281 -287 639zM236 874q0 -385 253 -606q77 -69 114 -69h1q37 0 66.5 27.5t52 74.5t35 112.5t12.5 139.5q0 389 -229 586q-72 61 -107 61q-37 0 -72.5 -31.5t-63.5 -80t-45 -105.5 t-17 -109z" />
<glyph unicode="R" horiz-adv-x="974" d="M84 57v1280q0 53 78 54h518q215 0 215 -127q0 -47 -30.5 -105.5t-92 -121t-152 -125t-208.5 -117.5q152 -78 252 -187.5t160.5 -222.5t86 -213t25.5 -158q0 -29 -19.5 -31.5t-56.5 1.5q-10 2 -20.5 3t-20.5 1h-37q-23 2 -46 5t-52 15l-4 142q-10 61 -28.5 129.5 t-47.5 137t-68.5 132t-93.5 117.5q-33 29 -62.5 51t-35.5 22q-25 0 -25 -32v-684q-6 -29 -48 -33q-28 -3 -63 -3q-17 0 -36 1q-88 0 -88 69zM319 842q51 4 113 43t121 114q113 150 113 267q0 35 -64.5 52t-167.5 17h-90q-25 0 -25 -55v-438z" />
<glyph unicode="S" horiz-adv-x="1081" d="M121 156q41 35 86 44t98 9q10 0 25.5 -6t34.5 -17l32 -16q27 -14 57.5 -28.5t57.5 -27t46.5 -20.5t25.5 -8q47 0 84 23.5t59 56.5q37 55 37 188q0 92 -18.5 154.5t-51.5 91.5q-29 23 -87 40t-132 30q-16 0 -25.5 2t-17.5 4q-6 2 -12 2l-55 8q-78 14 -111 37 q-145 94 -145 309q0 373 409 373q451 0 451 -367q0 -67 -98 -67h-3q-41 0 -66.5 6t-41 17.5t-23.5 29.5t-16 43q-6 45 -12.5 88t-14.5 88q-20 41 -76.5 67.5t-115.5 26.5q-39 0 -66.5 -25.5t-50.5 -72.5q-31 -74 -31 -188q0 -63 9.5 -117.5t28 -94.5t46 -62.5t64.5 -22.5 q205 0 340 -82q82 -53 129 -113.5t47 -157.5q0 -203 -85 -311t-259 -108q-94 0 -161 19t-114 36q-29 10 -50 17t-34 7q-16 0 -34.5 -21.5t-38.5 -47.5q-20 -27 -43 -48.5t-58 -21.5q-110 0 -110 52q0 97 90 182z" />
<glyph unicode="T" horiz-adv-x="1161" d="M39 1169q0 174 41 205q23 16 80 17h934q84 0 84 -193q0 -237 -83 -237h-1q-45 0 -72 94q-35 133 -61 176q-57 94 -158 94q-72 0 -72 -106v-1194q0 -43 -127 -43q-109 0 -108 47v1194q0 102 -90 102q-63 0 -108.5 -36t-68.5 -91l-41 -129q-35 -102 -69 -102q-49 0 -68 84 q-12 57 -12 118z" />
<glyph unicode="U" horiz-adv-x="1202" d="M104 346v1020q0 33 123 33q66 0 85.5 -8.5t19.5 -24.5l4 -1012q0 -135 59.5 -217t196.5 -82q88 0 136 21.5t69.5 65.5t24.5 108.5t3 150.5v977q0 18 125 19q61 0 92 -2t31 -19v-919q0 -131 -16.5 -223.5t-66.5 -150.5t-144 -86t-248 -28h-63q-86 0 -165 8.5t-137.5 45 t-93.5 112.5t-35 211z" />
<glyph unicode="V" horiz-adv-x="1042" d="M49 1331q0 70 131 70q59 0 76 -8q37 -20 43 -58q27 -129 51.5 -257t50.5 -251q29 -137 53.5 -262t53.5 -268q41 250 82 454.5t86 389.5q68 278 214 278h1q37 0 68.5 -34.5t54.5 -96.5q18 -53 29.5 -100t11.5 -82q0 -12 -7.5 -37t-19.5 -51.5t-29.5 -46t-35.5 -19.5 q-29 0 -48.5 11.5t-32 30t-18.5 40t-12 43.5q-8 31 -15.5 53.5t-11.5 22.5q-8 0 -19 -22.5t-24.5 -59.5t-27 -86t-25.5 -100q-20 -92 -39.5 -195.5t-38 -204t-34 -192.5t-23.5 -166q-8 -61 -21.5 -95t-33.5 -34h-109q-111 0 -127 76l-252 1235v10q0 2 -1 4t-1 8z" />
<glyph unicode="W" horiz-adv-x="1667" d="M82 956q0 438 151 439q152 0 152 -58q0 -18 -5 -44.5t-13 -55.5l-23 -76q-6 -18 -6 -20q-12 -55 -12 -176q0 -160 27.5 -301.5t82.5 -264.5q61 -141 103 -147q-6 6 16 53q14 33 41 91.5t80 156.5q78 145 104.5 242.5t26.5 128.5v8q0 35 -6 92t-43 133q-20 41 -26.5 72 t-6.5 53q0 14 1 26.5t3 22.5q0 2 1 5t1 5q2 8 2 19q0 35 105 35q53 0 78.5 -10.5t48.5 -32.5q55 -57 90 -209t69 -369l45 -268q10 -37 26.5 -68.5t33 -55.5t32 -37t21.5 -13q37 0 109 231q65 210 65 289q0 57 -10 123.5t-27 130.5q-16 55 -38.5 119.5t-39.5 120.5q0 2 -1 3 t-1 5q0 41 107 41q92 0 135 -33q76 -64 76 -330q0 -104 -31 -231t-90 -260q-39 -86 -101.5 -202t-140.5 -245q-33 -51 -70.5 -79.5t-76.5 -28.5q-31 0 -56.5 44t-47 106.5t-38 132t-26.5 118.5l-4 23l-10 41q-23 80 -44.5 153.5t-27.5 112.5q-37 -45 -81 -121t-93 -180 q-33 -88 -67 -179.5t-64 -179.5q-40 -71 -87 -71h-1q-53 0 -150 137q-268 381 -268 833z" />
<glyph unicode="X" horiz-adv-x="1009" d="M35 68q0 33 21.5 99t63.5 160.5t100.5 212t131.5 253.5q-66 111 -121 209t-95 173.5t-63.5 123t-23.5 55.5q0 43 111 43q33 0 56.5 -9.5t37.5 -21.5t23.5 -26.5t15.5 -26.5q41 -76 85 -158t85 -158q47 84 87 154t58 98q53 76 106.5 117t100.5 41q86 0 131 -64 q39 -59 39 -135q0 -68 -22 -129q-14 -37 -40 -60.5t-59 -23.5q-25 0 -98 105q-37 51 -55 80q-10 16 -19 26q-6 0 -23.5 -27.5t-42 -72.5t-53 -99.5t-55.5 -109.5l463 -827q8 -16 13 -34t5 -30q0 -14 -10 -16t-59 -2h-31q-104 0 -133 51l-352 639q-66 -166 -103 -330 t-37 -299q0 -61 -135 -61q-63 0 -76 14h3q-31 20 -31 66z" />
<glyph unicode="Y" horiz-adv-x="1007" d="M23 1339q0 10 12 23.5t29.5 25t37 18.5t35.5 7q63 0 99 -53l51 -125q72 -174 133 -301t104 -180q14 33 34 94t39 130t36.5 134.5t28.5 104.5l6 26q20 72 69 119t94 47q55 0 100.5 -29t45.5 -84q0 -29 -8 -69.5t-20.5 -79.5t-28 -66.5t-31.5 -27.5q-4 0 -17.5 11t-29 28.5 t-30.5 35t-24 29.5q-4 -4 -4 -8q-4 -12 -8 -25.5t-8 -27.5q-20 -59 -39.5 -121t-38.5 -127q-43 -145 -90 -295t-100 -297q-25 -66 -52.5 -119t-54 -91t-48 -59.5t-34.5 -21.5q-8 0 -23.5 6t-31.5 15q-8 2 -18.5 6t-16.5 8q-18 10 -23 24.5t-3 29t8 25.5t8 13l35 33 q18 14 43.5 41t60.5 94q41 84 52.5 140.5t11.5 99.5q0 16 -49 102l-23 39l-8 14q-23 35 -50.5 84t-56.5 103q-47 86 -85 164.5t-64.5 144.5t-40.5 115t-14 73z" />
<glyph unicode="Z" horiz-adv-x="1015" d="M94 1192q0 96 27 141q35 57 147 58h635q94 0 94 -45q0 -18 -4 -38t-14 -42q-10 -23 -95 -175.5t-245 -439.5q-63 -115 -105 -211t-67 -166.5t-35 -113.5t-10 -56q0 -31 39 -30h407q63 0 113 -39q49 -43 49 -96q0 -139 -158 -238q-129 -80 -288 -80q-88 0 -88 33 q0 25 94 47q47 10 81 21.5t56 21.5q31 23 49.5 56.5t18.5 80.5q0 131 -170 131h-38.5t-37.5 -4q-4 0 -8 -1t-9 -1l-61 -6q-68 -8 -125 -11t-92 -3q-150 0 -150 53q0 10 8.5 29.5t20.5 42.5l549 1108q23 41 23 84q0 34 -97 34h-6q-178 0 -254 -94q-8 -6 -65 -113l-19 -36 q-61 -115 -94 -115q-76 0 -76 213z" />
<glyph unicode="[" horiz-adv-x="555" d="M137 -168q0 18 1 54t3 77v12q0 18 1 39t3 37q2 18 2 40v32q0 16 -1 46t-3 62q-2 31 -2 57.5v41.5v57q0 25 1 54.5t1 58.5v125v35.5t-2 50.5q0 16 -1 29.5t-1 25.5v25v24t2 37q2 20 3 38.5t1 29.5v18q0 8 -1 17.5t-1 19.5q-2 16 -2 37.5v27.5v320v12t2 19h459l2 -41 q-37 0 -69.5 1t-55.5 1h-37q-72 0 -90 -23q-2 -16 -4 -56t-4 -97.5t-3 -127t-1 -145.5v-46t2 -64q0 -20 1 -40t1 -36v-148q0 -16 -1 -34.5t-1 -38.5v-126.5t2 -117.5v-113q0 -31 1 -61.5t1 -65.5v-31.5t-2 -41.5q0 -10 -1 -22.5t-1 -22.5v-23q0 -68 1 -104.5t6 -54 t13.5 -22.5t24.5 -7q4 -2 8 -2h21h49t72 -3q6 0 16 -1t18 -1h31v-43h-461q-2 49 -2 87v63q0 29 -2 49z" />
<glyph unicode="\" horiz-adv-x="806" d="M-109 1307q-8 10 9.5 26.5t87.5 46.5q20 10 55 16.5t47 4.5q18 -4 36.5 -18.5t29.5 -30.5l764 -1364q8 -16 -7.5 -28.5t-39 -20t-46 -6t-30.5 13.5q-6 12 -39 71.5t-83 148.5t-111.5 198.5t-125 222t-123 220t-106.5 190.5t-76 134l-29 52l-4 8q-20 35 -43.5 58.5 t-85.5 29.5q-70 10 -80 27z" />
<glyph unicode="]" horiz-adv-x="555" d="M-39 1346v43q33 2 76 3t78 1h45h91t80 -1t61.5 -3.5t33.5 -4.5v-75q0 -29 1 -58.5t1 -56.5v-76q0 -10 -1 -28.5t-3 -40.5v-11q-2 -23 -3 -44t-1 -31q0 -16 1 -47t3 -68v-12q2 -39 3 -82t1 -62v-598q0 -25 1 -76t3 -106v-12q2 -51 3 -94.5t1 -65.5v-72q0 -10 -1 -18 t-1 -19l-467 -2v43h146q86 0 108 19h-2q2 8 4 48t4 100.5t3 136t1 155.5v46t-2 65q-2 29 -3 63.5t-1 65.5q0 33 -1 68.5t-2 68.5t-1 59.5v42.5v23.5t2 32.5q0 6 1 16t1 16v17q0 23 -1 69.5t-3 100.5q-2 51 -3 97t-1 69v29.5t2 41.5q2 23 3 46.5t1 35.5q0 86 -10 123h8 q-27 8 -81 13.5t-132 5.5h-47z" />
<glyph unicode="^" horiz-adv-x="958" d="M12 524l387 832h164l385 -832h-178l-289 656q-29 -68 -60.5 -135.5t-60.5 -135.5q-43 -98 -86 -192t-84 -193h-178z" />
<glyph unicode="_" horiz-adv-x="989" d="M0 -97.5q0 15.5 8 29t25 13.5h706q20 0 39 1t36 8t34.5 23.5t40.5 47.5q16 23 34.5 34t34.5 11q12 0 20.5 -3.5t14.5 -13.5t7 -33.5t-3 -62.5q-4 -20 -8 -40.5t-12 -33.5q-10 -10 -31.5 -16t-50.5 -6h-862q-16 0 -24.5 13t-8.5 28.5z" />
<glyph unicode="`" horiz-adv-x="536" d="M66 1409h251l125 -340h-96z" />
<glyph unicode="a" horiz-adv-x="942" d="M47 131q0 49 32 129t80 164t104 161t104 120h-2q-27 37 -46.5 75.5t-32 71.5t-18.5 55.5t-6 28.5q0 20 127 20q115 0 127 -22l412 -836q20 -34 20 -63q0 -41 -112 -41q-90 0 -105 26l-110 181q-39 -43 -95.5 -82t-118 -70t-122 -48t-107.5 -17q-51 0 -91 45t-40 102z M254 262q0 -104 86 -104q63 0 132 30.5t116 83.5l-185 363q-25 -31 -50 -82t-47.5 -105.5t-37 -104.5t-14.5 -81z" />
<glyph unicode="b" horiz-adv-x="913" d="M94 70v1214q0 27 36 39t83 12t79 -12t32 -37v-401h-11q156 -49 258.5 -99.5t161 -119t82 -163.5t23.5 -235q0 -51 -21.5 -99t-60.5 -86t-94.5 -60.5t-124.5 -22.5h-324q-51 0 -85 15.5t-34 54.5zM324 113q0 -29 12 -41.5t47 -12.5h82q37 0 63.5 33t44 82t24.5 106.5 t7 106.5q0 117 -22.5 185.5t-56 108.5t-75.5 57.5t-79 29.5l-21 6q-6 2 -14 3t-12 5v-669z" />
<glyph unicode="c" horiz-adv-x="671" d="M68 477q0 74 32.5 159t94.5 171q53 72 113.5 111.5t94.5 39.5q82 0 138 -88q49 -80 49 -151q0 -31 -25 -70q-14 -20 -33.5 -31.5t-52.5 -11.5l-73 109q-29 33 -58 54.5t-41 21.5q-31 0 -46 -68t-15 -195q0 -41 15 -97t38 -109q31 -66 61.5 -104t59.5 -38q0 2 8 7.5 t18 15.5l9 6q20 14 44.5 30.5t57.5 32.5h8q20 2 36.5 0t2.5 -26h-4q4 -2 4 -7.5t-2 -9.5q-6 -16 -22.5 -53t-65.5 -88q-25 -27 -52.5 -46t-52 -32.5t-42 -19.5t-23.5 -6q-61 0 -135 86q-141 168 -141 407z" />
<glyph unicode="d" horiz-adv-x="944" d="M94 266q0 135 29 225.5t91 158t162.5 122.5t241.5 121h-10v393q0 25 32 37t79 12t83 -12t36 -39v-1214q0 -39 -34 -54.5t-85 -15.5h-324q-70 0 -125 22.5t-94 59.5t-60.5 85t-21.5 99zM328 385q0 -49 7 -105.5t24.5 -105.5t44 -82t63.5 -33h82q35 0 47 12.5t12 41.5v678 q-10 -4 -22.5 -7.5t-22.5 -7.5q-37 -12 -79 -33.5t-76.5 -63.5t-57 -111.5t-22.5 -182.5z" />
<glyph unicode="e" horiz-adv-x="692" d="M51 500q0 66 31 140.5t94 154.5q126 163 268 163h2q23 0 52.5 -19t52.5 -48q25 -33 39 -60.5t14 -48.5q0 -41 -39 -92q-16 -20 -32.5 -29.5t-61.5 -13.5q-63 98 -74 109q-18 25 -39.5 35t-35.5 10q-10 0 -23.5 -21.5t-26.5 -50.5q-6 -27 -10 -52.5t-4 -53.5q0 -78 6 -119 t17 -41q27 0 129 49q100 47 153 47q12 0 28.5 -12t31.5 -31q14 -20 22 -35.5t8 -23.5q0 -31 -43 -68q-25 -23 -42 -31t-28.5 -7t-19.5 9.5t-16 20.5l-4 6q-8 12 -21 25q-43 49 -45 49q-14 0 -40.5 -10.5t-47.5 -24.5q-37 -25 -37 -66q0 -57 39 -127q42 -81 79 -81h1 q16 0 40 9t49.5 23.5t51 31.5t47.5 34l27 -37q-8 -16 -24.5 -35.5t-37 -41t-43 -43t-42.5 -38.5q-41 -35 -81 -53t-81 -18q-113 0 -205 213q-78 186 -78 303z" />
<glyph unicode="f" horiz-adv-x="712" d="M31 883q0 10 2 20t10 27h152v160q6 104 37.5 167.5t78.5 98.5t104.5 46t112.5 11q59 0 107.5 -8t82.5 -30.5t51 -63.5t17 -109q0 -12 -10 -35.5t-25.5 -47t-34 -41t-34.5 -17.5q-23 51 -41 94q-16 35 -30.5 67.5t-18.5 37.5q-18 37 -32.5 56t-28 28.5t-23.5 10.5t-19 -1 q-2 0 -4 -1t-4 -1h-8q-8 0 -17.5 -6.5t-17.5 -28t-15 -60t-11 -102.5v-225h176q16 -29 16 -49q0 -23 -16 -47h-176v-88.5t1 -108.5t1 -113.5v-101.5v-410q0 -29 -97 -32h-20q-102 0 -102 38v816h-152q-8 16 -10 27t-2 22z" />
<glyph unicode="g" horiz-adv-x="770" d="M47 449q0 90 100 288q53 106 124 161.5t118 55.5q27 0 75 -17t89 -58q41 -43 69.5 -78t46 -77t25.5 -96.5t8 -135.5v-100.5t3 -92.5q0 -23 1 -42t1 -40v-78q0 -59 -2.5 -123.5t-10.5 -128.5v-8q0 -18 -6 -65t-26.5 -95.5t-63.5 -86.5t-117 -38q-41 0 -56 7.5t-26 17.5 q-10 10 -23.5 17.5t-39.5 7.5q-10 0 -17.5 -9.5t-17.5 -23.5q-12 -16 -31.5 -32.5t-72.5 -16.5q-76 0 -97.5 23.5t-21.5 90.5q0 49 34.5 64.5t102.5 15.5q53 0 95 -16t73 -33l14 -8q14 -8 26.5 -13t18.5 -5q31 0 47.5 14t24.5 36.5t10 50.5t2 56v23.5t2 21.5q0 16 1 31.5 t1 32.5q0 16 -1 31.5t-1 27.5q-2 16 -3 40t1 40q-41 -39 -97 -68.5t-91 -29.5q-39 0 -89 40t-95 104.5t-76 147t-31 169.5zM217 532q0 -66 17.5 -137t46 -130.5t63.5 -99.5t72 -40q35 0 58.5 22.5t23.5 71.5v10q0 2 -1 4.5t-1 8.5v18q0 248 -46.5 377t-160.5 129 q-29 0 -50.5 -59.5t-21.5 -174.5z" />
<glyph unicode="h" horiz-adv-x="1009" d="M115 1296.5v22.5q0 55 106 55q119 0 119 -61v-20.5t-2 -28.5v-461q59 86 121.5 117.5t150.5 31.5q55 0 104.5 -16t86.5 -45t58.5 -67t21.5 -81v-714q0 -20 -38 -32.5t-81 -12.5q-37 0 -65.5 10t-28.5 33v641q0 94 -30 145t-91 51q-29 0 -58.5 -17.5t-57.5 -42t-51.5 -54 t-41.5 -54.5v-676q0 -20 -28.5 -29t-82.5 -9q-109 0 -108 38l-2 1248q-2 12 -2 28.5z" />
<glyph unicode="i" horiz-adv-x="473" d="M125 1159v139q0 66 100 66q109 0 109 -72v-135q0 -70 -109 -70q-100 0 -100 72zM133 20v889q0 35 80 35h45q84 0 84 -35v-889q0 -34 -79 -34h-5h-59q-66 0 -66 34z" />
<glyph unicode="j" horiz-adv-x="403" d="M-31 -461q0 12 12.5 41t30.5 66q8 16 19.5 42.5t25.5 63.5q41 123 59.5 278.5t18.5 348.5q0 78 -2 155.5t-8 143.5q0 6 -1 19.5t-3 23.5q-4 35 -9.5 80t-5.5 69q0 29 14.5 45.5t36 25.5t48 11t53.5 2q20 0 37.5 -44t31 -111.5t21.5 -148t8 -154.5q0 -254 -55 -473.5 t-158 -393.5q-35 -57 -68.5 -89t-62.5 -32q-43 0 -43 31zM94 1149v139q0 66 101 66q106 0 106 -74v-133q0 -70 -106 -70q-100 0 -101 72z" />
<glyph unicode="k" horiz-adv-x="1030" d="M109 18v1338q0 41 108 41q109 0 109 -39v-1342q0 -36 -109 -36h-6q-102 0 -102 38zM330 467q0 29 53 100.5t149 173.5q92 98 163 154.5t106 56.5q78 0 117 -51q34 -50 34 -110q0 -21 -3 -43t-11 -46q-20 -63 -64 -63q-12 0 -22 6t-27 21l-6 4q-4 2 -11 9t-15 13l-9 6 q-35 29 -58.5 44.5t-29.5 15.5q-16 0 -40.5 -19.5t-53.5 -52.5h2q-27 -35 -42 -64.5t-15 -54.5q0 -16 10 -42.5t28.5 -60.5t44 -73t54.5 -76q68 -80 116 -122.5t72 -42.5q14 0 78 40q31 2 46.5 -4.5t15.5 -29.5q0 -33 -103 -117q-94 -76 -147 -76q-66 0 -248 213 q-92 111 -138 186.5t-46 104.5z" />
<glyph unicode="l" horiz-adv-x="434" d="M109 18v1338q0 41 108 41q109 0 109 -39v-1342q0 -36 -109 -36h-6q-102 0 -102 38z" />
<glyph unicode="m" horiz-adv-x="1427" d="M86 31v897h43q33 0 103.5 1t201.5 1h496q88 0 147.5 -10.5t98 -32t63.5 -55t41 -78.5q8 -23 13 -67t8.5 -88t4.5 -81t1 -45l-2 -457q0 -12 -22.5 -14t-70.5 -2h-30q-66 0 -85.5 4t-19.5 14v514q0 61 -5 121t-20.5 108t-45 76.5t-80.5 28.5q-29 0 -52.5 -1t-39.5 -1h-37 h16q0 -98 -1 -195.5t-1 -195.5q-2 -98 -2 -195.5v-195.5v-66q0 -8 -18.5 -11t-36.5 -5q-10 -2 -23.5 -2h-25.5h-28.5t-25.5 2q-31 2 -50 6t-19 12v514q0 61 -5.5 121t-20.5 108t-45 76.5t-81 28.5q-29 0 -52.5 -1t-39.5 -1h-37h16q0 -104 -1 -208.5t-1 -209.5 q-2 -104 -2 -207.5v-207.5q0 -16 -19.5 -24.5t-84.5 -8.5q-123 0 -123 33z" />
<glyph unicode="n" horiz-adv-x="944" d="M86 31v897h70q41 0 117.5 1t201.5 1q88 0 147.5 -10.5t98.5 -32t63.5 -55t40.5 -78.5q8 -23 13.5 -67t8.5 -88t4 -81t1 -45l-2 -457q0 -12 -22.5 -14t-69.5 -2h-31q-66 0 -85 4t-19 14v514q0 61 -5.5 121t-20.5 108t-45 76.5t-81 28.5q-29 0 -58.5 -1t-54.5 -1h-57h16 q0 -104 -1 -208.5t-1 -209.5q-2 -104 -2 -207.5v-207.5q0 -16 -19.5 -24.5t-84.5 -8.5q-123 0 -123 33z" />
<glyph unicode="o" horiz-adv-x="673" d="M47 449q0 94 100 292q104 211 203 211q59 0 142 -82q170 -163 170 -372q0 -127 -93 -308q-103 -202 -230 -202h-1q-72 0 -170 116q-121 145 -121 345zM217 537q0 -98 32 -177t89 -133q49 -43 65 -43q78 0 78 166q0 94 -27.5 182.5t-62.5 143.5q-33 41 -64.5 64.5 t-58.5 23.5q-51 0 -51 -227z" />
<glyph unicode="p" horiz-adv-x="913" d="M98 -354v1214q0 39 34 54.5t85 15.5h324q70 0 125 -22.5t94 -60.5t60.5 -86t21.5 -99q0 -139 -23.5 -241t-82 -177.5t-161 -133t-258.5 -106.5h11v-360q0 -25 -32 -37.5t-79 -12.5t-83 12.5t-36 39.5zM328 98l12 8q4 2 7 4.5t7 4.5l8 4q37 16 80 41.5t80 72t61.5 121 t24.5 189.5q0 49 -7 106.5t-24.5 106.5t-44 81.5t-63.5 32.5h-82q-35 0 -47 -12t-12 -41v-719z" />
<glyph unicode="q" horiz-adv-x="913" d="M98 662q0 51 21.5 99t60.5 86t94.5 60.5t124.5 22.5h324q51 0 85 -15.5t34 -54.5v-1214q0 -27 -36 -39.5t-83 -12.5t-79 12.5t-32 37.5l2 360h9q-158 49 -259.5 106.5t-160 133t-82 177t-23.5 241.5zM332 543q0 -121 24.5 -196t61.5 -121t80 -68.5t80 -38.5l16 -6l18 -9 v713q0 29 -12 41t-47 12h-82q-37 0 -63.5 -32.5t-44 -81.5t-24.5 -106.5t-7 -106.5z" />
<glyph unicode="r" horiz-adv-x="831" d="M35 909q2 12 6 25h22q10 0 20.5 1t18.5 -1q16 -2 47 -3t72 -1q25 0 57.5 2t61.5 6q20 4 37 4q6 0 11 1t9 1q8 2 17.5 2h15.5q18 0 21.5 -3t3.5 -13v-207l39 68q89 161 203 161h1q68 0 88.5 -43t20.5 -129q0 -4 -7 -20.5t-19.5 -33.5t-29 -31.5t-34.5 -14.5q-6 0 -18.5 10 t-26 25.5t-25.5 30t-16 24.5q-4 16 -10.5 19.5t-14.5 3.5q-6 0 -16 -10.5t-27.5 -37t-44 -72.5t-63.5 -120v-541q0 -29 -97 -32h-18q-63 0 -92 22l-10 10v844h-201q-6 27 -2 53z" />
<glyph unicode="s" horiz-adv-x="890" d="M51 88q0 137 142 137q20 0 71 -9t113 -54q8 -8 10 -8q57 -41 87 -60.5t44 -19.5q18 0 31.5 16t23 42t14.5 59.5t5 70.5q0 92 -12.5 136t-51.5 44h-9t-15 -2l-47 -4q-23 -4 -47.5 -5t-34.5 -1q-154 0 -220.5 63.5t-66.5 186.5q0 57 27.5 107.5t75 87t109.5 58t134 21.5 q76 0 141.5 -18t114.5 -54t77 -88.5t28 -119.5q0 -23 -57.5 -32t-151.5 -9h-17q2 12 2 24.5v24.5q0 213 -143 213q-61 0 -92 -59.5t-31 -145.5q0 -76 23.5 -135t68.5 -59q10 0 35 3t53 7q4 0 6.5 1t6.5 1q31 4 62.5 8t47.5 4q96 0 159.5 -65.5t63.5 -175.5 q0 -147 -83.5 -220t-231.5 -73q-23 0 -42 8t-42 22l-37 23q-4 8 -23.5 28.5t-62.5 20.5q-10 0 -17 -12.5t-18 -28.5q-12 -23 -31.5 -42t-72.5 -19q-76 0 -97.5 21.5t-21.5 80.5z" />
<glyph unicode="t" horiz-adv-x="667" d="M41 834q-11 23 -11 46q0 25 13 50h158v172q12 33 38.5 66.5t56.5 57t57.5 34t41.5 0.5q8 -8 16.5 -38t8.5 -46v-246h229q14 -26 14.5 -50t-14.5 -46h-229v-814q0 -20 -29 -29t-82 -9q-109 0 -108 38v814h-160z" />
<glyph unicode="u" horiz-adv-x="944" d="M86 0v920q0 32 116 32h7q66 0 85 -8t19 -24l4 -857q29 0 73 -1t81 -1q51 0 81 29t45 77t20.5 107.5t5.5 120.5v537q0 10 19.5 14t84.5 4h31q47 0 69.5 -2t22.5 -14l2 -479q0 -10 -1 -46t-4 -81t-8 -88t-14 -66q-16 -47 -40.5 -80t-63.5 -53.5t-98.5 -30.5t-147.5 -10 h-389z" />
<glyph unicode="v" horiz-adv-x="897" d="M41 907q0 47 133 47q37 0 61.5 -12t28.5 -33l40 -168t40 -161q23 -94 43.5 -176t42.5 -185q27 135 49.5 234.5t38.5 154.5q51 172 113.5 261t132.5 89q61 0 106 -81q18 -35 29.5 -69.5t11.5 -57.5q0 -16 -8 -42t-18 -49q-29 -61 -74 -61q-16 0 -34.5 19.5t-41.5 54.5 l-12 22q-33 53 -31 54q-10 0 -34.5 -75t-65.5 -220q-35 -129 -55.5 -219.5t-28.5 -147.5q-2 -4 -2 -10t-2 -17q0 -4 -1 -10t-1 -8q0 -4 -1 -6t-1 -4v-8q-6 -25 -43 -25l-135 2q-23 0 -41.5 13.5t-28.5 35.5q-16 41 -47 148.5t-74 275.5q-43 180 -66.5 292t-23.5 142z" />
<glyph unicode="w" horiz-adv-x="1308" d="M29 846q0 55 26 88h-2q19 24 95 24h6q47 0 65.5 -30.5t26.5 -89.5l18 -160l8 -72q2 -20 3 -41.5t6 -40.5q14 -61 42.5 -139t73.5 -143q14 20 34 65t41.5 107.5t46 141.5t50.5 165q-37 78 -58.5 133t-21.5 70q0 16 38 25t89 9t79 -20t57 -61q23 -29 38 -74t33 -101l11 -30 q8 -29 17 -55.5t17 -55.5q45 -137 76 -213t41 -96l6 -8q4 -6 6 -13.5t-2 -9.5q31 0 66 121q26 89 26 161v5v61q0 10 1.5 18.5t1.5 18.5v35q0 41 -4.5 76t-14.5 63q-55 147 -55 150q0 28 105 28h7q59 0 88 -17t48 -50q14 -25 20 -70t6 -98v-59q0 -92 -28.5 -193.5 t-87.5 -212.5q-72 -131 -149 -202.5t-155 -71.5q-45 0 -96 149l-59 176l-25 74q-16 47 -28.5 89t-30.5 95q-25 -61 -42.5 -108t-30.5 -89t-25.5 -80t-24.5 -81q-10 -35 -20.5 -67.5t-20.5 -67.5q-31 -90 -94 -90q-29 0 -66 34.5t-74 90.5q-47 80 -84.5 170t-64.5 185 t-41 191.5t-14 190.5z" />
<glyph unicode="x" horiz-adv-x="942" d="M85 -235.5q89 219.5 267 575.5l-332 586q14 30 123 30h7q115 0 141 -38l184 -334l121 213q93 161 204 161h1q129 0 129 -172q0 -27 -3 -42t-9 -31l-11 -29q-6 -20 -26.5 -39.5t-61.5 -19.5q-4 0 -15 2t-25.5 9t-30 21.5t-23.5 40.5q-16 51 -26.5 58.5t-14.5 7.5 q-29 0 -160 -264q223 -393 334 -593t111 -206q0 -25 -78 -25q-72 0 -121 16.5t-68 45.5l-296 512q-39 -86 -75 -195.5t-71 -212.5l-59 -176q-76 -223 -140 -223q-65 0 -65 46q0 56 89 275.5z" />
<glyph unicode="y" horiz-adv-x="997" d="M68 850q0 16 16 38.5t39 45.5l8 6q18 16 28.5 20.5t39.5 4.5q33 0 61 -84q16 -47 26.5 -100.5t20.5 -106.5l10 -53q10 -66 21.5 -117t21.5 -74q27 -53 54.5 -100t60.5 -84v53q0 39 6 93t18.5 113.5t30 118t39.5 107.5q53 106 123 164.5t146 58.5q16 0 39.5 -3t47 -12 t40 -25.5t16.5 -45.5q0 -12 1 -22t1 -21v-30q0 -49 -5 -75t-14.5 -37t-24.5 -13t-36 -2h-10q-6 -1 -12 -1q-33 0 -53 21q-25 23 -46 51q-16 23 -29.5 39.5t-17.5 16.5q-12 0 -32.5 -39t-41 -125t-37 -221.5t-20.5 -325.5l-6 -107q-8 -125 -17.5 -217t-22.5 -162.5 t-32.5 -127t-46.5 -109.5l-18 -33q-12 -25 -32.5 -45t-44.5 -33.5t-45.5 -19.5t-37.5 0q-47 16 -55 42t-4 44q0 2 1 3t1 3q63 100 105 170t65.5 135.5t34 140t10.5 183.5v10q0 4 -1 9t-1 12l6 30q-29 4 -67 25.5t-89 97.5q-70 104 -116 209t-73.5 200t-38.5 174t-11 132z " />
<glyph unicode="z" horiz-adv-x="819" d="M41 813q0 125 96 125h621q49 0 49 -14v-9q0 -10 -1 -17t-5 -17.5t-13.5 -26.5t-25.5 -45l-100 -178q-57 -109 -102.5 -198t-67.5 -140l-19 -37q-10 -23 -19.5 -40t-17.5 -32q-10 -23 15.5 -36t64.5 -25l21 -6q33 -10 67.5 -20.5t54.5 -26.5q66 -27 100 -84.5t34 -118.5 q0 -66 -46.5 -124t-123.5 -99q-135 -70 -297 -70q-63 0 -64 27q0 12 86 41q94 31 137 65q72 53 72 148v22q2 27 -2 55.5t-36 51t-102.5 37t-201.5 14.5q-51 0 -51 41q0 39 52 145.5t167 313.5q27 49 49.5 89t38.5 68l27 47q12 23 20 37.5t12.5 25.5t5.5 20t1 24q0 31 -64 31 q-172 0 -227 -132l-43 -110q-37 -86 -74 -86q-88 0 -88 264z" />
<glyph unicode="{" horiz-adv-x="815" d="M102 471v39q90 8 160 65t70 146q0 53 -25 158q-23 113 -22 159q0 145 121 260q111 100 288 125v-34q-227 -53 -227 -230q0 -53 22 -162q10 -53 16.5 -93t6.5 -68q0 -111 -98 -215q-35 -37 -91.5 -71t-115.5 -56q61 -25 116.5 -59t90.5 -73q98 -104 98 -217 q0 -29 -6 -68.5t-17 -92.5q-23 -109 -22 -162q0 -176 227 -232v-34q-88 12 -162.5 45.5t-125.5 81.5q-57 53 -89 120.5t-32 139.5q0 49 22 157q25 106 25 160q0 41 -20.5 79t-49.5 67q-33 23 -75 42t-85 23z" />
<glyph unicode="|" horiz-adv-x="534" d="M199 483q0 211 2 451t6 520h121q8 -199 11 -398.5t3 -404.5q0 -240 -4 -479.5t-10 -482.5h-121q-4 174 -6 368.5t-2 425.5z" />
<glyph unicode="}" horiz-adv-x="772" d="M78 -410q227 55 227 232q0 29 -6 68.5t-16 93.5q-25 104 -25 159q0 113 98 217q37 37 93.5 71t115.5 56q-61 25 -116.5 59t-90.5 72q-53 53 -76.5 108.5t-23.5 109.5q0 53 25 161q23 109 22 162q0 176 -227 230v34q178 -25 289 -125q121 -115 120 -260q0 -47 -22 -159 q-12 -53 -17.5 -92t-5.5 -68q0 -92 68 -144q70 -57 160 -65v-39q-45 -4 -87 -22.5t-75 -42.5q-66 -53 -66 -146q0 -27 5.5 -66.5t17.5 -93.5q23 -109 22 -157q0 -145 -120 -260q-109 -102 -289 -127v34z" />
<glyph unicode="~" horiz-adv-x="1202" d="M76 432q147 123 319 123q80 0 209 -39q135 -41 197 -41q166 0 252 76l28 2q16 -14 24.5 -23.5t16.5 -19.5q-37 -53 -176 -115q-53 -23 -107.5 -36t-99.5 -13q-41 0 -104.5 11.5t-136.5 33.5q-74 23 -134.5 34t-97.5 11q-20 0 -67 -20q-23 -10 -38.5 -15.5t-25.5 -5.5 t-12 1t-6 5t-13.5 11.5t-27.5 19.5z" />
<glyph unicode="&#xa6;" d="M453 274h120v-720h-120v720zM453 668v723h120v-723h-120z" />
<glyph unicode="&#xa8;" horiz-adv-x="815" d="M72 1237q0 47 36.5 80t88.5 33q53 0 93 -33t40 -78q0 -47 -37 -80t-90 -33t-92 33t-39 78zM467 1237q0 47 38 80t91 33q51 0 88 -32t37 -77q0 -47 -37 -81t-88 -34q-53 0 -91 33t-38 78z" />
<glyph unicode="&#xab;" d="M76 459q10 10 45 44t94 87l135 123q27 27 67 62.5t93 82.5q49 1 49 -22t-70.5 -120.5t-197.5 -250.5q59 -76 108.5 -140.5t84 -112.5t54 -79t19.5 -37q0 -23 -39 -22q-10 0 -61 45t-129 117l-19 16q-100 92 -159.5 144.5t-73.5 62.5zM467 459q37 33 92 82t129 116 q217 201 223 201q39 1 39 -22q0 -18 -70.5 -118t-197.5 -253q59 -76 108.5 -140.5t84 -112.5t54 -79t19.5 -37q0 -23 -39 -22q-10 0 -61 45t-129 117l-19 16q-100 92 -159.5 144.5t-73.5 62.5z" />
<glyph unicode="&#xad;" horiz-adv-x="929" d="M55 506q0 20 12.5 37.5t36.5 17.5h760q12 -27 16.5 -50.5t-10 -39.5t-52.5 -22.5t-109 0.5h-605q-23 0 -36 17t-13 40z" />
<glyph unicode="&#xb4;" horiz-adv-x="620" d="M127 1069l125 340h254l-283 -340h-96z" />
<glyph unicode="&#xb6;" horiz-adv-x="927" d="M-59 967q0 94 51 188q23 45 64.5 81t97.5 64q57 27 159 43q82 12 250 13h338v-39h-16q-47 -4 -74 -27q-16 -16 -28.5 -55t-20.5 -98q-12 -98 -12 -275v-557q0 -231 -64 -368q-57 -115 -170 -175.5t-278 -60.5q-111 0 -164 35q-61 37 -66 90q0 31 33 63q29 23 76 23 q43 0 74.5 -23.5t33.5 -64.5q4 -16 -6 -31q-2 -4 -6 -10l-12 -19q41 4 71.5 34t53.5 81q23 63 34 232q2 10 2 61v25q0 8 1.5 17t1.5 19v342q-100 2 -174 30t-130 83q-121 127 -120 279zM311 -242h2q0 -2 1 -5t1 -5q90 20 147.5 74.5t90.5 146.5q39 109 39 400v383 q0 106 2 190t6 148q6 78 27.5 137t48.5 90h-154q-2 -2 -6 -10q-4 -6 -8 -15.5t-10 -19.5q-10 -14 -15.5 -27.5t-9.5 -30.5q-8 -23 -10 -59q-2 -6 -2 -47v-21q0 -6 -1 -12t-1 -14v-57q0 -8 -1 -15.5t-1 -15.5v-604q0 -311 -23 -437q-23 -109 -123 -174z" />
<glyph unicode="&#xb7;" horiz-adv-x="565" d="M164 602q0 47 38 81t91 34q57 0 97 -35t40 -84q0 -47 -40 -81t-95 -34q-53 0 -92 35t-39 84z" />
<glyph unicode="&#xbb;" d="M74 836q0 23 37 22q10 0 33.5 -19.5t45.5 -41.5q49 -43 119 -108.5t156 -145.5l27 -25l63 -59l-66 -53l-49 -44q-68 -59 -147.5 -132.5t-157.5 -151.5q-4 0 -6 -2q-2 0 -6 -1t-10 -1q-37 0 -37 22q0 6 19.5 37t54 79t83 112.5t107.5 140.5q-119 147 -192.5 248.5 t-73.5 122.5zM465 836q0 23 47 22q74 -66 182.5 -165t251.5 -234l-65 -53l-50 -44q-70 -59 -144.5 -129.5t-160.5 -154.5q-4 0 -6 -2q-2 0 -6 -1t-10 -1q-37 0 -37 22q0 8 19.5 39t55.5 80t84 112.5t105 137.5q-119 147 -192.5 248.5t-73.5 122.5z" />
<glyph unicode="&#x131;" horiz-adv-x="473" d="M133 20v889q0 35 80 35h45q84 0 84 -35v-889q0 -35 -84 -34h-59q-66 0 -66 34z" />
<glyph unicode="&#x400;" horiz-adv-x="831" d="M55 688q0 190 158 445q172 272 367 272q35 0 70.5 -31t70.5 -84q66 -106 65 -170q0 -53 -41 -94q-10 -10 -29.5 -25.5t-53.5 -35.5l-74 2q-4 41 -15.5 85t-27.5 81q-51 100 -109 100q-37 0 -68.5 -38t-60.5 -110q-20 -53 -33.5 -114.5t-13.5 -108.5q0 -109 19 -215 q176 98 273 145.5t128 47.5q35 0 61.5 -17.5t44.5 -46.5q16 -27 25.5 -57t9.5 -55q0 -51 -65 -93q-25 -16 -52.5 -24t-62.5 -8q-14 0 -37.5 23.5t-46.5 58.5q-23 33 -40 57t-15 24q-23 0 -117 -53q-90 -53 -90 -82q0 -47 20.5 -104t57.5 -121q90 -147 159 -147q43 0 107 47 q14 10 80 71l22 21l52 -23q-10 -35 -164 -188q-152 -145 -201 -146q-158 0 -274 293q-98 246 -99 418zM297 1825h242l59 -328l-102 2z" />
<glyph unicode="&#x401;" horiz-adv-x="831" d="M55 688q0 190 158 445q172 272 367 272q35 0 70.5 -31t70.5 -84q66 -106 65 -170q0 -53 -41 -94q-10 -10 -29.5 -25.5t-53.5 -35.5l-74 2q-4 41 -15.5 85t-27.5 81q-51 100 -109 100q-37 0 -68.5 -38t-60.5 -110q-20 -53 -33.5 -114.5t-13.5 -108.5q0 -109 19 -215 q176 98 273 145.5t128 47.5q35 0 61.5 -17.5t44.5 -46.5q16 -27 25.5 -57t9.5 -55q0 -51 -65 -93q-25 -16 -52.5 -24t-62.5 -8q-14 0 -37.5 23.5t-46.5 58.5q-23 33 -40 57t-15 24q-23 0 -117 -53q-90 -53 -90 -82q0 -47 20.5 -104t57.5 -121q90 -147 159 -147q43 0 107 47 q14 10 80 71l22 21l52 -23q-10 -35 -164 -188q-152 -145 -201 -146q-158 0 -274 293q-98 246 -99 418zM174 1599q0 45 27 89q29 45 88 45t88 -45q27 -43 26 -89q0 -47 -26 -88q-29 -45 -88 -45t-88 45q-27 41 -27 88zM582 1599q0 45 26 89q29 45 88 45t88 -45q27 -43 27 -89 q0 -133 -115 -133q-59 0 -88 45q-27 41 -26 88z" />
<glyph unicode="&#x402;" horiz-adv-x="1067" d="M-16 1186v88h120v186q0 43 115 43q121 0 121 -43v-186h383q12 -41 0 -88h-383v-312q35 49 99.5 91.5t162.5 42.5q186 0 290.5 -84t104.5 -232v-442q0 -66 -31.5 -118t-86 -89t-123 -57.5t-142.5 -20.5q-18 0 -30.5 9.5t-17.5 21.5t0 23.5t24 17.5l45 6q27 4 54.5 11 t49.5 36q14 18 23.5 55t14.5 81t7 93.5t2 92.5q0 25 -1 46t-1 40v55q4 184 -46 280.5t-185 96.5q-59 0 -114.5 -63.5t-98.5 -149.5v-666q0 -23 -14.5 -37t-42.5 -14h-129q-25 0 -37.5 14.5t-12.5 34.5v1137h-120z" />
<glyph unicode="&#x403;" horiz-adv-x="901" d="M104 49v1299q0 43 68 43h600q92 0 117 -80q10 -37 10 -142q0 -256 -82 -256q-23 0 -43 29t-37 76q-23 72 -39 121t-30 71q-61 104 -154 105h-43q-63 0 -96 -17q-35 -25 -35 -90v-1163q0 -45 -121 -45q-115 0 -115 49zM375 1497l59 328h242l-197 -326z" />
<glyph unicode="&#x404;" horiz-adv-x="1357" d="M53 705q0 252 185 464q207 236 569 236q162 0 309 -72q182 -92 182 -225q0 -37 -22 -66q-12 -16 -28.5 -24t-45.5 -8q-33 0 -65.5 23.5t-61.5 64.5q-96 150 -108 164q-86 88 -203 88q-223 0 -354 -232q-37 -74 -64 -155.5t-27 -145.5q0 -49 27 -49q94 0 187.5 1t187.5 3 l375 6q102 0 102 -82q0 -76 -35 -102.5t-119 -26.5q-125 0 -124 82v9.5t2 9.5q0 2 1 3t1 3q4 16 4 24q0 16 -17 17h-122.5t-335.5 -2q-129 0 -129 -41q0 -88 19 -171t54 -155q41 -74 99.5 -138.5t121.5 -101.5q39 -20 77 -31.5t69 -11.5q201 0 268 95q4 4 20.5 53t43.5 141 q31 100 161 101q86 0 86 -113q0 -160 -204 -266q-162 -88 -351 -88q-184 0 -344 80q-86 43 -153.5 98t-116.5 121q-57 82 -89 189.5t-32 230.5z" />
<glyph unicode="&#x405;" horiz-adv-x="1081" d="M51 -25q0 96 90 181q41 35 86 44t99 9q10 0 25.5 -6t33.5 -17l33 -16q27 -14 57.5 -28.5t57 -27t46 -20.5t25.5 -8q47 0 84 23.5t60 56.5q37 55 36 188q0 92 -18 154.5t-51 91.5q-29 23 -87.5 40t-131.5 30q-16 0 -25.5 2t-17.5 4q-6 2 -13 2l-55 8q-78 14 -111 37 q-145 94 -145 309q0 373 410 373q451 0 450 -367q0 -68 -100 -67q-41 0 -66.5 6t-41 17.5t-23.5 29.5t-17 43q-6 45 -12 88t-14 88q-20 41 -76.5 67.5t-116.5 26.5q-39 0 -66.5 -25.5t-49.5 -72.5q-31 -74 -31 -188q0 -63 9 -117.5t27.5 -94.5t46 -62.5t64.5 -22.5 q205 0 340 -82q82 -53 129 -113.5t47 -157.5q0 -203 -85 -311t-259 -108q-94 0 -160.5 19t-113.5 36q-29 10 -50.5 17t-33.5 7q-16 0 -34.5 -21.5t-39.5 -47.5q-20 -27 -42.5 -48.5t-57.5 -21.5q-111 0 -111 53z" />
<glyph unicode="&#x406;" horiz-adv-x="440" d="M113 23v1327q0 41 139 41q96 0 96 -43v-1325q0 -43 -96 -43q-139 0 -139 43z" />
<glyph unicode="&#x407;" horiz-adv-x="620" d="M-6 1599q0 45 26 89q29 45 89 45q59 0 88 -45q27 -43 26 -89q0 -47 -26 -88q-29 -45 -88 -45t-89 45q-27 41 -26 88zM195 23v1327q0 41 139 41q96 0 96 -43v-1325q0 -43 -96 -43q-139 0 -139 43zM403 1599q0 47 25 89q16 23 36.5 34t51.5 11q59 0 90 -45q25 -41 25 -89 q0 -133 -115 -133q-33 0 -52.5 11.5t-35.5 33.5q-14 23 -19.5 44.5t-5.5 43.5z" />
<glyph unicode="&#x408;" horiz-adv-x="540" d="M10 1245v119l72 8q59 6 121.5 10t124.5 4h41.5t42.5 -2h8q35 -18 52 -60t28 -124q6 -57 10 -115.5t4 -117.5q0 -117 -18.5 -249t-52 -261t-82 -246t-107.5 -201q-39 -53 -84 -80.5t-74 -27.5q-45 0 -39 20q6 8 16.5 26.5t24.5 45.5q41 86 72 179t49 175q8 39 18.5 104.5 t19.5 138.5t15.5 143.5t6.5 121.5q0 176 -13 274q-4 45 -7 71t-7 44q-2 4 -2 23h12q-39 6 -84 2t-84 -13l-26 -4q-10 -4 -25.5 -5t-32.5 -3z" />
<glyph unicode="&#x409;" horiz-adv-x="1677" d="M18 -76q6 8 18.5 30.5t29.5 55.5q35 74 66.5 166t47.5 172q6 39 11.5 107.5t8.5 145.5t5 150.5t2 125.5q0 86 -3 154.5t-7 119.5q0 2 1 24.5t1 51v57.5v47h-25q0 16 13.5 39t66.5 23q154 0 259 -1t175 -1h109h58h24.5h9.5q88 0 88 -37l-6 -543h-2l200 -106 q176 -94 308 -226q176 -176 176 -317q0 -162 -320 -162h-514q-78 0 -78 43v1274h-340q4 -18 9.5 -44t9.5 -52q6 -57 10 -115.5t4 -118.5q0 -115 -15.5 -250t-46 -268t-75.5 -253t-104 -206q-80 -109 -138 -108q-43 0 -37 22zM977 162q0 -92 61 -92h199q125 -1 125 118 q0 174 -135 326q-45 53 -108.5 106.5t-141.5 108.5v-567z" />
<glyph unicode="&#x40a;" horiz-adv-x="1767" d="M113 31v1325q0 41 139 41q96 0 96 -43v-541h490v547q0 37 147 37q88 0 88 -37l-6 -549h-2l203 -106q86 -47 162.5 -102.5t142.5 -123.5q178 -172 178 -317q0 -162 -319 -162h-514q-80 0 -80 43v694h-490v-706q0 -43 -96 -43q-139 0 -139 43zM1073 162q0 -92 64 -92h196 q127 -1 127 118q0 86 -35.5 169t-99.5 157h2q-45 47 -110.5 103.5t-143.5 111.5v-567z" />
<glyph unicode="&#x40b;" horiz-adv-x="1128" d="M-16 1208v97h120v186q0 43 115 43q121 0 121 -43v-186h389q23 -47 2 -97h-391v-372q68 68 153 99.5t150 31.5q170 0 275 -76q57 -47 88.5 -107.5t31.5 -132.5v-495q0 -68 45 -68q10 0 27.5 6t48.5 25q0 -133 -221 -133q-139 0 -139 225v40.5t2 59.5q0 16 1 57.5t2 84.5 t1 78.5v43.5q0 70 -11.5 123.5t-27.5 85.5q-27 41 -69 63.5t-101 22.5q-63 0 -131 -30.5t-127 -96.5h2v-700q0 -43 -57 -43h-129q-49 0 -50 41v1167h-120z" />
<glyph unicode="&#x40c;" horiz-adv-x="1050" d="M104 39v1302q0 49 123 50q113 0 113 -41v-1307q0 -53 -127 -53q-109 0 -109 49zM389 737q0 55 31 130t88 161q121 176 221 276.5t162 100.5q37 0 66.5 -19.5t46.5 -54.5q14 -29 22 -63.5t8 -65.5q0 -23 -5 -48.5t-13 -53.5q-23 -72 -82 -82l-94 117q-35 41 -58.5 64.5 t-29.5 23.5q-23 0 -99 -136q-76 -129 -75 -172q0 -37 14 -83t38.5 -98t58.5 -108.5t75 -113.5q39 -49 114.5 -138t186.5 -216h4q-4 -43 -45 -105q-43 -61 -100 -61q-18 0 -79 61.5t-138 155.5q-70 86 -122.5 154.5t-80.5 109.5q-53 80 -84 148.5t-31 115.5zM446 1497l58 328 h241l-196 -326z" />
<glyph unicode="&#x40d;" horiz-adv-x="1185" d="M104 39v1302q0 49 123 50q113 0 113 -41v-904q68 86 137.5 173.5t138.5 173.5l285 358v197q0 43 119 43q117 0 117 -43v-1307q0 -51 -140 -51q-96 0 -96 51v960q-139 -178 -280.5 -354t-280.5 -354v-250q0 -53 -127 -53q-109 0 -109 49zM408 1825h241l58 -328l-103 2z " />
<glyph unicode="&#x40e;" horiz-adv-x="1007" d="M23 1337q0 10 12 23.5t29.5 25t37 18.5t35.5 7q63 0 99 -53l51 -125q72 -174 133 -301t104 -180q14 33 34 94t39 129.5t36.5 134.5t28.5 104l6 27q20 72 69 119t94 47q55 0 100.5 -29t45.5 -84q0 -29 -8 -69.5t-20.5 -79.5t-28 -66.5t-31.5 -27.5q-4 0 -17.5 11t-29 28.5 t-30.5 35t-24 29.5q-4 -4 -4 -8q-23 -66 -46 -145.5t-46 -151.5l-20 -70q-41 -129 -83 -261t-89 -263q-25 -66 -52.5 -119t-54 -91t-48 -59.5t-34.5 -21.5q-8 0 -23.5 6t-31.5 15q-8 2 -18.5 6t-16.5 8q-18 10 -23 24.5t-3 29t8 25.5t8 13l35 33q18 14 43.5 41t60.5 94 q41 84 52.5 140.5t11.5 99.5q0 10 -13.5 33.5t-35.5 64.5l-17 29l-121 213q-49 86 -87 165.5t-63.5 144t-39.5 114t-14 73.5zM254 1651q0 141 133 141q51 0 51 -12q0 -14 -22 -47q-8 -14 -13.5 -25.5t-5.5 -21.5q0 -57 109 -58q45 0 108 21q61 18 99 51l51 53q37 37 70 37 q37 0 36 -21q0 -18 -28 -57q-63 -80 -155.5 -133t-211.5 -53q-111 0 -166 36t-55 89z" />
<glyph unicode="&#x40f;" horiz-adv-x="1284" d="M104 37v1329q0 31 123 31q125 0 125 -19l-4 -1249q0 -47 39 -47h414q39 0 71.5 30.5t32.5 73.5l4 1180q0 33 125 33q123 0 123 -33v-1329q0 -37 -72 -37h-333v-293q0 -20 -12.5 -33.5t-29 -20.5t-35 -10t-32.5 -3q-18 0 -40.5 3t-41 10t-32 20.5t-13.5 33.5l4 293h-352 q-63 0 -64 37z" />
<glyph unicode="&#x410;" horiz-adv-x="1159" d="M4 45q0 25 36 126t105 273q16 43 42 97.5t59 124.5l57 125l55 120q25 51 62 142q8 20 17 41.5t20 44.5q10 35 10 61q0 41 -9 63.5t-22 32.5h2l-82 19q-35 8 -55 20.5t-20 26.5q0 37 196 37q68 0 129.5 -39t108.5 -115q33 -53 70.5 -143t66.5 -180l86 -281l215 -606h-2 l8 -8q0 -27 -57 -27h-117q-74 0 -104 88l-181 490l-211 -177q-51 -43 -107 -90t-103 -90h2q-16 -70 -25.5 -114t-13.5 -52q-33 -66 -150 -65q-88 0 -88 55zM307 342l365 315h-2l-142 385q-100 -244 -221 -700z" />
<glyph unicode="&#x411;" horiz-adv-x="989" d="M104 74v1247q0 70 82 70h623q41 0 71.5 -12.5t45.5 -28.5q23 -31 22 -113q0 -297 -67 -297q-45 0 -88 88q-74 158 -84 174q-31 47 -64 80t-61 43q-23 6 -62 10t-88 4t-76 -30q-18 -29 -18 -95v-391h-10q92 -39 195.5 -106.5t205.5 -155.5q129 -111 194.5 -203.5 t65.5 -164.5q0 -193 -342 -193h-420q-125 0 -125 74zM340 137q0 -23 5 -40t11 -25q10 -4 26.5 -8.5t35.5 -4.5h186q49 0 88 39q37 38 37 99q0 72 -36 151.5t-107 173.5q-66 90 -128.5 142.5t-117.5 72.5v-600z" />
<glyph unicode="&#x412;" horiz-adv-x="1028" d="M104 70v1267q0 53 76 54h490q215 0 215 -127q0 -92 -122 -215t-329 -254q131 -96 238.5 -188.5t184.5 -176.5t118 -157t41 -130q0 -72 -92 -112q-31 -14 -71 -22.5t-85 -8.5h-575q-88 0 -89 70zM340 74h274q105 0 105 88q0 272 -258 504q-80 74 -96 73q-25 0 -25 -32 v-633zM340 842q47 4 95 45t106 112q51 70 82.5 140t31.5 127q0 70 -200 69h-90q-25 0 -25 -55v-438z" />
<glyph unicode="&#x413;" horiz-adv-x="901" d="M104 39v1309q0 43 68 43h600q92 0 117 -80q10 -37 10 -142q0 -256 -82 -256q-23 0 -43 29t-37 76q-23 72 -39 121t-30 71q-61 104 -154 105h-43q-63 0 -96 -17q-35 -25 -35 -90v-1173q0 -45 -121 -45q-115 0 -115 49z" />
<glyph unicode="&#x414;" horiz-adv-x="1456" d="M18 -98q2 45 15 73q45 92 149 93h27q4 0 8 -1t8 -1h13q47 0 71 77q23 68 43.5 154t42.5 195l19 88q20 104 35.5 175.5t19.5 88.5q10 47 25.5 112.5t40.5 143.5q37 86 36 108q0 53 -67 125q4 23 61 45q18 8 41 13.5t45 5.5q156 0 350 -578q41 -119 93.5 -301t111.5 -430 h-2q27 -20 105 -20q141 0 141 -88q0 -55 -5 -114t-13 -87q-16 -45 -52.5 -70.5t-89.5 -25.5q-57 0 -81.5 19t-20.5 52q6 37 11 98.5t5 120.5q0 37 -45 37h-194q-61 2 -108.5 2h-80.5h-223q-66 0 -118 -3t-91 -7q-29 -4 -45 -25.5t-27 -58.5l-16 -164q-16 -35 -41 -52 t-86 -17q-39 0 -74 28q-37 33 -37 60v47q-2 37 0 82zM408 102q4 -16 10 -27.5t16 -11.5h531q-47 244 -128 511.5t-192 531.5l-119 -502q-31 -127 -60.5 -252t-57.5 -250z" />
<glyph unicode="&#x415;" horiz-adv-x="831" d="M55 688q0 190 158 445q172 272 367 272q35 0 70.5 -31t70.5 -84q66 -106 65 -170q0 -53 -41 -94q-10 -10 -29.5 -25.5t-53.5 -35.5l-74 2q-4 41 -15.5 85t-27.5 81q-51 100 -109 100q-37 0 -68.5 -38t-60.5 -110q-20 -53 -33.5 -114.5t-13.5 -108.5q0 -109 19 -215 q176 98 273 145.5t128 47.5q35 0 61.5 -17.5t44.5 -46.5q16 -27 25.5 -57t9.5 -55q0 -51 -65 -93q-25 -16 -52.5 -24t-62.5 -8q-14 0 -37.5 23.5t-46.5 58.5q-23 33 -40 57t-15 24q-23 0 -117 -53q-90 -53 -90 -82q0 -47 20.5 -104t57.5 -121q90 -147 159 -147q43 0 107 47 q14 10 80 71l22 21l52 -23q-10 -35 -164 -188q-152 -145 -201 -146q-158 0 -274 293q-98 246 -99 418z" />
<glyph unicode="&#x416;" horiz-adv-x="1384" d="M20 125q0 16 11.5 54t34.5 85q80 162 221 307.5t334 253.5q-133 55 -251 134t-192 174q-84 102 -84 163q0 16 20.5 34t55.5 36q29 16 57.5 25.5t48.5 9.5q45 0 58 -53l12 -78q18 -127 96 -230q39 -47 81 -82.5t87 -56.5v424q0 33 31 54.5t70 21.5q111 0 110 -60v-444 q43 4 77 39t67 92q12 29 31.5 91.5t45.5 152.5q16 55 39 93t43 38q18 0 44 -9.5t57 -25.5q78 -39 78 -61q0 -47 -70 -156q-41 -59 -86 -110.5t-96 -90.5q-14 -10 -40 -25.5t-57.5 -31.5t-67.5 -34.5t-71 -37.5q197 -125 339 -272.5t210 -306.5q33 -82 33 -129q0 -51 -78 -99 q-61 -37 -129 -37q-61 0 -74 86l-8 123q-12 152 -98 318q-45 88 -92.5 145.5t-94.5 85.5v-674q0 -76 -108 -75q-104 0 -105 69v672q-41 -29 -84 -77t-82 -107q-35 -55 -61.5 -125t-46.5 -135l-62 -244q-16 -51 -73 -51q-59 0 -117 45q-63 51 -64 92z" />
<glyph unicode="&#x417;" horiz-adv-x="1077" d="M53 -70q0 115 72 156q47 27 180 27q16 0 40 -6.5t50 -14.5q33 -10 65 -18t48 -8q49 0 95 18t87 57q35 35 54.5 91.5t19.5 115.5q0 33 -9.5 69t-24.5 69.5t-34.5 60t-40.5 41.5q-29 23 -66.5 35t-84.5 20q-100 16 -117 29l-10 14q-6 8 -11.5 18.5t-5.5 26.5q0 29 12.5 40 t28.5 20q4 0 11 6q20 12 90 12q115 0 168 76t53 196q0 117 -31 170q-20 35 -63 53.5t-90 18.5q-74 0 -125.5 -60.5t-73.5 -172.5q0 -4 -1 -7.5t-1 -7.5q-2 -4 -2 -6t-2 -6t-2 -6h2q-33 -55 -137 -56q-115 0 -115 56q0 154 145 258q125 92 299 92q209 0 322 -83t113 -249 q0 -121 -54.5 -212t-173.5 -150q125 -49 207 -141.5t82 -227.5q0 -117 -80 -206t-217 -128q-29 -8 -53.5 -10t-61.5 -2h-121q-23 0 -48 1t-58 1q-35 0 -72 -20q-33 -20 -32 -68q0 -10 36 -70q41 -66 41 -80q0 -57 -94 -57q-82 0 -145 80q-63 78 -64 145z" />
<glyph unicode="&#x418;" horiz-adv-x="1169" d="M104 39v1302q0 49 123 50q113 0 113 -41v-904q68 86 137.5 173.5t138.5 173.5l285 358v197q0 43 119 43q117 0 117 -43v-1307q0 -51 -140 -51q-96 0 -96 51v960q-139 -178 -280.5 -354t-280.5 -354v-250q0 -53 -127 -53q-109 0 -109 49z" />
<glyph unicode="&#x419;" horiz-adv-x="1159" d="M104 39v1302q0 49 123 50q113 0 113 -41v-904q68 86 137.5 173.5t138.5 173.5l285 358v197q0 43 119 43q117 0 117 -43v-1307q0 -51 -140 -51q-96 0 -96 51v960q-139 -178 -280.5 -354t-280.5 -354v-250q0 -53 -127 -53q-109 0 -109 49zM344 1640q0 143 133 144 q51 0 51 -15q0 -14 -22 -47q-18 -29 -19 -47q0 -57 109 -57q20 0 48 5t61 15q27 10 54 24.5t44 27.5l51 55q18 16 34.5 25.5t35.5 9.5q37 0 37 -21q0 -18 -29 -57q-63 -80 -155.5 -133t-211.5 -53q-111 0 -166 35.5t-55 88.5z" />
<glyph unicode="&#x41a;" horiz-adv-x="1050" d="M104 39v1302q0 49 123 50q113 0 113 -41v-1307q0 -53 -127 -53q-109 0 -109 49zM389 737q0 55 31 130t88 161q121 176 221 276.5t162 100.5q37 0 66.5 -19.5t46.5 -54.5q14 -29 22 -63.5t8 -65.5q0 -23 -5 -48.5t-13 -53.5q-23 -72 -82 -82l-94 117q-35 41 -58.5 64.5 t-29.5 23.5q-23 0 -99 -136q-76 -129 -75 -172q0 -37 14 -83t38.5 -98t58.5 -108.5t75 -113.5q39 -49 114.5 -144.5t186.5 -220.5h4q-4 -43 -45 -104q-43 -61 -100 -61q-18 0 -79 61t-138 156q-70 86 -122.5 159.5t-80.5 114.5q-53 80 -84 148.5t-31 115.5z" />
<glyph unicode="&#x41b;" horiz-adv-x="1134" d="M57 66q0 57 24.5 153t65.5 203q39 92 84 182t86 139l89 107q25 35 40 63.5t15 51.5q0 41 -92 194q-92 162 -93 189q0 45 82 45q164 0 189 -47l553 -1221q28 -63 28 -94q0 -41 -112 -41q-68 0 -94 10q-18 10 -39 29.5t-29 36.5l-322 755q-18 35 -22 35q2 0 -12.5 -29.5 t-40.5 -83.5q-57 -129 -90 -258t-33 -233q0 -12 1 -31.5t5 -40.5q4 -20 6 -38.5t2 -30.5q0 -80 -45 -107q-23 -14 -123 -14q-123 0 -123 76z" />
<glyph unicode="&#x41c;" horiz-adv-x="1427" d="M104 27v1327q0 37 56 37h176q47 0 59 -62q16 -78 32.5 -156.5t33.5 -156.5l67 -311q49 -227 108.5 -345t127.5 -118q121 0 244 585l104 502q6 29 23.5 45.5t42.5 16.5h163q49 0 50 -37v-1331q0 -43 -103 -43q-133 0 -133 43l10 1064q-31 -184 -56.5 -317t-41.5 -219 q-53 -233 -104.5 -367.5t-106.5 -169.5q-45 -29 -115 -28q-76 0 -138 79.5t-109 227.5q-16 53 -40 164.5t-53 265.5l-71 387l6 -520q2 -147 3 -288.5t1 -274.5q0 -43 -111 -43q-125 0 -125 43z" />
<glyph unicode="&#x41d;" horiz-adv-x="1169" d="M104 31v1327q0 43 117 43q119 0 119 -43l-2 -197l285 -358l278 -346v903q0 41 113 41q123 0 123 -49v-1323q0 -49 -109 -49q-127 0 -127 53l2 270l-563 709v-981q0 -51 -109 -51q-127 0 -127 51z" />
<glyph unicode="&#x41e;" horiz-adv-x="991" d="M49 711q0 121 54.5 247.5t158.5 255.5q76 90 147.5 141.5t125.5 51.5q49 0 137 -78q284 -256 284 -584q0 -393 -331 -688q-84 -72 -140 -71q-61 0 -149 86q-287 281 -287 639zM236 874q0 -385 253 -606q78 -70 115 -69q80 0 129 137q37 98 37 217q0 389 -229 586 q-72 61 -107 61q-37 0 -72.5 -31.5t-68.5 -91.5q-27 -49 -42 -102t-15 -101z" />
<glyph unicode="&#x41f;" horiz-adv-x="1259" d="M104 33v1308q0 49 70 50h899q74 0 74 -50v-1306q0 -12 -16.5 -25.5t-40.5 -17.5q-8 -2 -25.5 -2h-46.5q-57 0 -62 2h2q-47 10 -47 41v1227q0 63 -77 63h-441q-53 0 -53 -72l2 -1231q0 -31 -117 -30q-121 0 -121 43z" />
<glyph unicode="&#x420;" horiz-adv-x="931" d="M104 23v1308q0 59 148 60q274 0 426 -48q250 -81 250 -294q0 -111 -49.5 -204t-141.5 -165q-80 -57 -180 -91t-217 -36v-530q0 -43 -131 -43q-104 0 -105 43zM340 680q0 -70 22 -70q158 0 252 127q84 113 84 291q0 125 -67 211q-74 98 -178 98q-113 0 -113 -61v-596z" />
<glyph unicode="&#x421;" horiz-adv-x="847" d="M66 629q0 240 91 423t269 308q63 45 111 45q49 0 100 -33t94 -88q39 -53 62.5 -108.5t23.5 -98.5q0 -39 -45 -110q-23 -35 -49.5 -54.5t-50.5 -19.5q-31 0 -66 84q-23 59 -40 97t-31 59q-53 84 -111 84q-59 0 -109 -136q-39 -104 -39 -202q0 -188 80 -398 q98 -264 236 -264q37 0 176 129h82q-231 -360 -303 -360q-166 0 -330 247q-78 117 -114.5 216.5t-36.5 179.5z" />
<glyph unicode="&#x422;" horiz-adv-x="1161" d="M39 1169q0 174 41 205q23 16 80 17h934q84 0 84 -193q0 -238 -84 -237q-45 0 -72 94q-35 133 -61 176q-57 94 -158 94q-72 0 -72 -106v-1196q0 -43 -127 -43q-109 0 -108 47v1196q0 102 -90 102q-63 0 -108.5 -36t-68.5 -91l-41 -129q-35 -102 -69 -102q-49 0 -68 84 q-12 57 -12 118z" />
<glyph unicode="&#x423;" horiz-adv-x="978" d="M23 1337q0 10 12 23.5t29.5 25t37 18.5t35.5 7q63 0 99 -53l51 -125q72 -174 133 -301t104 -180q14 33 34 94t39 129.5t36.5 134.5t28.5 104l6 27q20 72 69 119t94 47q55 0 100.5 -29t45.5 -84q0 -29 -8 -69.5t-20.5 -79.5t-28 -66.5t-31.5 -27.5q-4 0 -18.5 12t-32 29.5 t-35 37t-29.5 33.5v-6q-23 -72 -48.5 -153.5t-47.5 -161.5q-43 -143 -89 -292t-100 -294q-25 -66 -51 -119t-51 -91t-44 -59.5t-32 -21.5q-4 0 -19.5 6t-33.5 13.5t-34.5 14.5t-22.5 11q-23 10 -28 24.5t-2 29t10 25.5t9 13q10 10 21.5 17.5t26.5 15.5q23 12 52 37t60 88 q37 78 50.5 138.5t13.5 101.5q0 10 -13.5 33.5t-35.5 64.5l-17 29l-121 213q-49 86 -87 165.5t-63.5 144t-39.5 114t-14 73.5z" />
<glyph unicode="&#x424;" horiz-adv-x="1437" d="M39 575q0 268 168 449q162 172 434 178v45q0 457 164 510q25 8 62.5 11.5t86.5 3.5q98 0 99 -48q0 -4 -13.5 -20t-44.5 -49l-22 -23l-43 -47h2q-55 -72 -74 -182q-2 -12 -4 -36t-3 -52.5t-2 -58t-1 -54.5q238 -2 399 -151q174 -162 174 -398q0 -555 -590 -569 q-6 -100 -26.5 -205.5t-52.5 -206.5q-35 -115 -86.5 -205t-116.5 -157h-84q-31 25 -31 53v2q0 2 1 4t1 6q94 168 143.5 350.5t53.5 358.5q-129 2 -229.5 31.5t-178.5 83.5q-186 139 -186 376zM266 629q0 -102 25.5 -185.5t66.5 -142.5h-2q51 -57 122 -90t159 -37v942 q-82 -2 -145.5 -41t-120.5 -117q-104 -141 -105 -329zM838 174q84 2 148.5 39t117.5 113q96 132 96 329q0 217 -143 349q-59 53 -112.5 80.5t-106.5 31.5v-942z" />
<glyph unicode="&#x425;" horiz-adv-x="1009" d="M35 59q0 33 21.5 100.5t63.5 163t100.5 215t131.5 255.5q-66 111 -121 209t-95 173.5t-63.5 123t-23.5 55.5q0 43 111 43q33 0 56.5 -9.5t37.5 -21.5t23.5 -26.5t15.5 -26.5q41 -76 85 -158t85 -158q47 84 87 154t58 98q53 76 106.5 117t100.5 41q86 0 131 -64 q39 -59 39 -135q0 -68 -22 -129q-14 -37 -40 -60.5t-59 -23.5q-25 0 -98 105q-37 51 -55 80q-10 16 -19 26q-6 0 -23.5 -27.5t-42 -72.5t-53 -99.5t-55.5 -109.5q53 -100 113.5 -206.5t118.5 -211.5l231 -418q8 -16 13 -33.5t5 -29.5q0 -14 -10 -16t-59 -2h-31 q-104 0 -133 51l-352 645q-70 -170 -105 -334t-35 -301q0 -61 -135 -61q-63 0 -76 14h3q-31 20 -31 65z" />
<glyph unicode="&#x426;" horiz-adv-x="1331" d="M104 53v1295q0 45 123 45q113 0 113 -43v-1209q0 -72 39 -71h434q45 0 45 82v1202q0 37 84 37q152 0 152 -33v-1204q0 -74 47 -82l100 -9q74 -18 74 -96q0 -98 -64 -217q-37 -68 -70.5 -101.5t-86.5 -33.5q-39 0 -72 37q-12 10 -15 26.5t-3 26.5q0 2 1 4t1 4q0 16 12 50 t31 73q16 37 27 73t11 58q0 33 -77 33h-828q-78 0 -78 53z" />
<glyph unicode="&#x427;" horiz-adv-x="1251" d="M41 1155q0 61 36 117.5t101 101.5q53 33 92 33q25 0 51.5 -16.5t49.5 -38.5q57 -63 57 -97q0 -6 -51 -26l-49 -21q-57 -33 -58 -133q0 -121 129 -178q113 -53 230 -53q113 0 225 53q127 66 127 178q0 100 -57 133l-52 21q-49 20 -49 26q0 16 14.5 41t43.5 56q23 23 49 39 t51 16q47 0 90 -23.5t76 -60.5q63 -82 63 -168q0 -170 -155 -291q-66 -51 -142.5 -77.5t-169.5 -28.5v-721q0 -57 -120 -57q-115 0 -115 57v721q-92 2 -169 28.5t-142 77.5q-156 121 -156 291z" />
<glyph unicode="&#x428;" horiz-adv-x="1878" d="M113 43v1300q0 47 88 48q147 0 147 -52v-1210q0 -59 39 -59h416q51 0 51 53v1208q0 18 12.5 31.5t30.5 21.5q16 8 80 9q113 0 113 -54v-1214q0 -55 40 -55h453q39 0 39 53v1223q0 35 59 45h33q8 0 18.5 1t22.5 1q102 0 103 -45v-1305q0 -43 -78 -43h-1608q-59 0 -59 43z " />
<glyph unicode="&#x429;" horiz-adv-x="1880" d="M113 43v1300q0 47 88 48q147 0 147 -52v-1210q0 -59 39 -59h416q51 0 51 53v1208q0 18 12.5 31.5t30.5 21.5q16 8 80 9q113 0 113 -54v-1214q0 -55 40 -55h453q39 0 39 53v1223q0 35 59 45h33q8 0 18.5 1t22.5 1q102 0 103 -45v-1305q0 -43 -78 -43h-690v-330 q0 -51 -103 -51q-133 0 -133 55v326h-682q-59 0 -59 43z" />
<glyph unicode="&#x42a;" horiz-adv-x="1169" d="M25 1085v224q0 82 104 82h688q68 0 68 -48q0 -35 -17.5 -88t-48.5 -116q-29 -61 -45 -115.5t-16 -89.5q0 -16 108 -143q135 -160 203 -259q111 -170 111 -276q0 -152 -131 -213q-86 -43 -269 -43h-499q-86 0 -86 47q0 14 6 33l403 1153q12 33 12 70q0 20 -84 20 q-242 0 -290 -119l-27 -71q-8 -18 -14 -37t-13 -35q-43 -104 -102 -105q-16 0 -30.5 16.5t-20.5 39.5q-6 20 -8 38.5t-2 34.5zM465 104q0 -37 18 -36h176q27 0 54.5 1t58.5 1q158 2 158 219q0 57 -20.5 133t-55.5 166q-35 78 -72 144.5t-65 94.5l-31 -88 q-221 -637 -221 -635z" />
<glyph unicode="&#x42b;" horiz-adv-x="1370" d="M82 121v1202q0 31 31 55q43 27 90 27t80.5 -23.5t33.5 -60.5l-6 -494h-2q725 -336 725 -643q0 -184 -246 -184h-595q-53 0 -84 41q-10 16 -18.5 38.5t-8.5 41.5zM317 121q0 -55 35 -55h357q10 0 25.5 13t29.5 30q8 16 14 39.5t6 41.5q0 183 -182 359q-66 61 -135.5 112.5 t-149.5 92.5v-633zM1108 61v1256q0 33 37 63q31 25 82 25t80 -23q37 -31 36 -61v-1260q0 -35 -38 -61q-33 -23 -78 -23q-119 0 -119 84z" />
<glyph unicode="&#x42c;" horiz-adv-x="1013" d="M104 43v1311q0 37 148 37q88 0 88 -37l-6 -543h-2l203 -106q172 -90 305 -226q86 -86 132 -166.5t46 -150.5q0 -162 -320 -162h-514q-80 0 -80 43zM340 162q0 -92 63 -92h197q127 -1 127 118q0 86 -36 169t-99 157h2q-45 47 -110.5 103.5t-143.5 111.5v-567z" />
<glyph unicode="&#x42d;" horiz-adv-x="1357" d="M53 340q0 113 86 113q131 0 162 -101q25 -86 40 -132t19 -56q37 -47 107 -74t166 -27q66 0 145 43q27 18 58.5 45t62.5 60t56.5 66.5t43.5 68.5q35 72 54.5 155t19.5 171q0 41 -129 41q-223 2 -335.5 2h-123.5q-16 0 -16 -17q0 -8 4 -24q0 -2 1 -3t1 -3q2 -4 2 -9.5v-9.5 q0 -82 -125 -82q-84 0 -114 27q-39 35 -39 102q0 82 102 82l750 -10q27 0 26 49q0 63 -26.5 145t-63.5 156q-131 231 -354 232q-117 0 -203 -88q-14 -14 -108 -164q-29 -41 -62 -64.5t-65 -23.5q-29 0 -45.5 8t-28.5 24q-23 33 -23 66q0 66 47.5 123t137.5 102 q72 35 148.5 53.5t158.5 18.5q362 0 569 -236q184 -213 184 -464q0 -252 -120 -420q-100 -137 -271 -219q-160 -80 -344 -80q-186 0 -350 88q-205 106 -205 266z" />
<glyph unicode="&#x42e;" horiz-adv-x="1581" d="M104 23v1341q0 43 95 43q141 0 141 -43v-512h340q18 68 64.5 158t109.5 180q76 100 152.5 158.5t142.5 58.5q55 0 137 -76q139 -129 212 -276.5t73 -309.5q0 -190 -84 -363t-248 -325q-37 -33 -73 -52t-66 -19q-63 0 -150 86q-287 281 -286 643v43q0 4 1 8t1 8h-326v-751 q0 -43 -125 -43q-111 0 -111 43zM850 874q0 -188 66.5 -340.5t187.5 -265.5q80 -70 113 -69q82 0 131 135q36 100 36 219q0 389 -229 586q-72 61 -108 61q-35 0 -72 -33.5t-70 -89.5q-23 -47 -39 -101t-16 -102z" />
<glyph unicode="&#x42f;" horiz-adv-x="974" d="M84 27q0 57 25.5 155.5t86 209t161 218t251.5 185.5q-119 55 -209 117.5t-151.5 125t-92 121t-30.5 105.5q0 127 215 127h518q78 0 78 -54v-1267q0 -70 -88 -70q-57 -2 -99 2t-49 33v672q0 33 -24 32q-14 0 -98 -73q-55 -53 -95.5 -115t-68 -127.5t-46 -133t-28.5 -128.5 q0 -14 -1 -36t-1 -36q-2 -18 -2 -35.5v-34.5q-29 -12 -52.5 -15t-45.5 -5h-37q-10 0 -20.5 -1t-20.5 -3q-37 -4 -56.5 -1t-19.5 32zM354 1266q0 -117 113 -267q57 -74 119.5 -112.5t113.5 -44.5v438q0 55 -24 55h-90q-102 0 -167 -17t-65 -52z" />
<glyph unicode="&#x430;" horiz-adv-x="942" d="M47 131q0 47 36 121t89 152.5t113.5 149.5t107.5 114h-2q-82 123 -105.5 190.5t-23.5 77.5q0 20 127 20q115 0 127 -22l412 -850q20 -35 20 -64q0 -41 -112 -40q-90 0 -105 26l-108 193q-37 -43 -93.5 -83t-118 -69t-123 -46t-110.5 -17q-51 0 -91 45t-40 102zM254 262 q0 -104 86 -104q63 0 132 30.5t116 83.5l-158 328q-25 -31 -55.5 -76t-57 -93t-45 -93t-18.5 -76z" />
<glyph unicode="&#x431;" horiz-adv-x="901" d="M109 53v838q0 45 59 45h569q104 0 105 -117q0 -217 -82 -217q-23 0 -39 18.5t-37 53.5q-29 53 -48.5 87t-31.5 46q-66 72 -143 72q-135 0 -135 -70v-195h-11q92 -35 184.5 -78.5t162.5 -84.5q113 -68 174 -138t61 -129q0 -90 -104 -143q-37 -18 -86.5 -29.5t-102.5 -11.5 h-430q-66 0 -65 53zM328 152q0 -33 17 -57.5t42 -24.5h135q119 0 119 135q0 88 -127 215q-123 123 -186 135v-403z" />
<glyph unicode="&#x432;" horiz-adv-x="870" d="M109 53v834q0 49 69 49h404q78 0 141 -27q90 -37 90 -98q0 -43 -39 -92t-106 -90q-49 -33 -109.5 -55.5t-120.5 -36.5h2q72 -37 138.5 -78t117.5 -82q78 -63 123 -123t45 -107q0 -92 -71 -127q-41 -20 -158 -20h-455q-72 0 -71 53zM322 170q0 -119 167 -119 q119 1 119 103q0 100 -106 217q-47 47 -95.5 82.5t-84.5 42.5v-326zM326 580q37 2 74.5 16t68.5 35q35 29 55.5 64.5t20.5 82.5q0 51 -41 76q-20 10 -44 17.5t-42 7.5q-92 0 -92 -119v-180z" />
<glyph unicode="&#x433;" horiz-adv-x="837" d="M109 20v869q0 47 53 47h555q112 0 112 -182q0 -29 -3 -66t-9 -70q-8 -43 -25.5 -71.5t-39.5 -28.5q-27 0 -62 55.5t-74 149.5q-23 53 -39 88t-26 41q-33 23 -135 22q-90 0 -90 -75l2 -789q0 -31 -105 -30q-115 0 -114 40z" />
<glyph unicode="&#x434;" horiz-adv-x="1163" d="M45 -74q0 111 30.5 151t92.5 40q27 0 53 -11h-2q6 -2 13.5 -3t13.5 -3q8 -2 14 -2q4 6 19 76q8 31 19 74t28 98l26 80q4 16 9.5 32.5t11.5 33.5q8 25 19 58.5t24.5 70t26 73.5t24.5 68q-51 68 -51 86q0 27 65 70q23 14 49.5 24t47.5 10q31 0 65.5 -59t95.5 -182l31 -62 q16 -35 29.5 -82t27.5 -100l9 -35q16 -66 37.5 -151.5t52.5 -180.5h-2q14 -10 22 -10q4 0 11.5 4t15.5 8q16 10 41 11q78 0 98 -27q16 -25 16 -86q0 -43 -4 -88t-24 -92q-23 -55 -46.5 -87t-70.5 -32q-37 0 -64.5 22.5t-27.5 51.5q0 31 12 96q4 23 4 41t-2 35v18 q0 51 -57 51q-20 0 -31 -2q-2 0 -3 -1t-5 -1l-53 -8q-47 -4 -83 -7t-61 -3h-26t-19 2q-12 2 -29.5 3l-52.5 3l-96 6q-16 2 -29.5 2h-29.5t-33.5 -24.5t-34.5 -59.5l-33 -151q-31 -84 -102 -84q-49 0 -65.5 58t-16.5 177zM356 84q63 -12 104.5 -18.5t96.5 -6.5q49 0 71.5 3.5 t55.5 9.5q2 0 2 1t2 1l23 6h-2q-16 59 -31 113.5t-27 107.5q-25 109 -50.5 201t-74.5 170q-29 -66 -51 -154t-45 -186q-4 -23 -10 -44.5t-12 -43.5l-37 -160h-15zM510 698l18 -26l11 26h-29z" />
<glyph unicode="&#x435;" horiz-adv-x="659" d="M51 500q0 61 34 137t91 151q61 78 131 121t139 43q23 0 52.5 -19.5t52.5 -47.5q25 -33 39 -60.5t14 -48.5q0 -41 -39 -92q-35 -43 -110 -47q-63 98 -74 108q-37 49 -59 50q-10 0 -23.5 -21.5t-26.5 -50.5q-6 -27 -10 -52.5t-4 -54.5q0 -154 23 -153q27 0 129 49 q100 47 153 47q12 0 28.5 -12t31.5 -31q14 -20 22 -35.5t8 -23.5q0 -31 -43 -68q-37 -31 -80 -31q-16 0 -32.5 12.5t-38.5 35.5q-43 49 -45 49q-27 0 -68 -29q-37 -25 -37 -66q0 -57 39 -127q43 -82 80 -81q68 0 158 71l26 -37q-18 -31 -46.5 -64.5t-69.5 -66.5 q-41 -35 -81 -53t-81 -18q-113 0 -205 213q-78 186 -78 303z" />
<glyph unicode="&#x436;" horiz-adv-x="1224" d="M39 113q0 27 21.5 68.5t58.5 87.5t85 94.5t102 88.5t109.5 65.5t108.5 29.5h-4v26q-55 4 -122.5 35t-127 75t-99.5 94t-40 97q0 14 14.5 27.5t37 24t49 16.5t53.5 6q31 0 63 -100q31 -98 72 -154.5t100 -60.5v278q0 35 103 35q115 0 114 -31v-282q53 10 97.5 63.5 t72.5 145.5q35 106 66 106q23 0 49.5 -5t50 -15t38.5 -23.5t15 -30.5q0 -49 -37.5 -101t-96 -95t-126 -73t-129.5 -32v-26q96 -6 188.5 -73.5t190.5 -182.5q102 -125 103 -178q0 -23 -20.5 -45.5t-49.5 -43t-63.5 -32.5t-61.5 -12q-18 0 -37.5 34.5t-36.5 94.5 q-53 193 -100 286.5t-113 100.5v-476q1 -40 -114 -40q-102 0 -103 45v469q-25 -12 -52.5 -40t-53 -68t-46 -87t-32.5 -96q-29 -119 -49.5 -171t-53.5 -52q-25 0 -58.5 13t-64 33.5t-51 44t-20.5 42.5z" />
<glyph unicode="&#x437;" horiz-adv-x="794" d="M43 -47q0 68 36 95.5t144 27.5q16 0 47 -2t60 -6q4 0 7 -1t7 -1q23 -4 40 -5.5t24 -1.5q33 0 61.5 14.5t50 39t33.5 57.5t12 68q0 53 -15 88.5t-40 52.5q-6 0 -10 2h2l-27 6q-16 4 -35.5 10t-46.5 11q-2 0 -4 1t-4 1q-35 8 -53.5 16t-18.5 37q0 63 80 82l39 6 q27 4 49.5 11t40 23.5t26.5 48.5t9 85q0 80 -39 121t-98 41q-29 0 -65 -15.5t-50 -42.5l-26 -90q-16 -35 -36 -52t-61 -17t-73.5 17t-32.5 52q0 41 14 73t62 66q20 12 53 25.5t68.5 24t69.5 16.5t56 6q76 0 139.5 -15.5t108.5 -45t70.5 -71.5t25.5 -97q0 -80 -42 -144.5 t-119 -103.5q82 -35 130 -91.5t48 -142.5q0 -123 -78 -178t-252 -55h-10q-6 0 -17.5 1t-27.5 1q-121 0 -127 -63q53 -96 53 -101q0 -10 -11 -17t-27.5 -12.5t-36 -7.5t-33.5 -2q-29 0 -55.5 15.5t-47 38t-34 49t-13.5 51.5z" />
<glyph unicode="&#x438;" horiz-adv-x="905" d="M109 12v903q0 37 112 37q104 0 105 -41v-534l159 164l164 170h-2v204q0 37 107 37q111 0 110 -45v-891q0 -37 -133 -36q-84 0 -84 43v575l-323 -336h2v-250q0 -33 -113 -32q-104 0 -104 32z" />
<glyph unicode="&#x439;" horiz-adv-x="905" d="M109 12v899q0 37 112 37q104 0 105 -41v-530l159 164l164 170h-2v200q0 37 107 37q111 0 110 -45v-887q0 -37 -133 -36q-84 0 -84 43v575l-323 -336h2v-250q0 -33 -113 -32q-104 0 -104 32zM227 1159q0 143 133 144q49 0 50 -15q0 -4 -6.5 -17.5t-16.5 -27.5q0 -2 -1 -3 t-1 -3q-6 -10 -11 -21.5t-5 -21.5q0 -55 108 -55q47 0 109 20q66 18 98 51l53 54q35 35 68 34q39 0 39 -18q0 -10 -8.5 -25.5t-20.5 -31.5q-63 -82 -156.5 -134.5t-212.5 -52.5q-111 0 -165 36t-54 87z" />
<glyph unicode="&#x43a;" horiz-adv-x="995" d="M109 18v887q0 41 108 41q109 0 109 -39v-891q0 -37 -115 -36q-102 0 -102 38zM330 467q0 29 53 100.5t149 173.5q92 98 163 154.5t106 56.5q78 0 117 -51q35 -51 34 -113q0 -18 -3 -40.5t-11 -45.5q-20 -63 -64 -63q-12 0 -22 7t-25 18l-20 16l-23 18q-35 29 -58.5 44.5 t-29.5 15.5q-16 0 -40.5 -19.5t-53.5 -52.5h2q-27 -35 -42 -64.5t-15 -54.5q0 -31 39 -95t98 -136q68 -80 116 -123t72 -43q14 0 78 41q31 2 46.5 -5t15.5 -30q0 -33 -103 -117q-94 -76 -147 -75q-66 0 -248 213q-184 217 -184 270z" />
<glyph unicode="&#x43b;" horiz-adv-x="964" d="M25 35q0 18 22.5 83.5t65.5 155.5q51 106 124.5 208t161.5 192h-2q-61 111 -93 174t-32 67q0 37 142 37q74 0 127 -53l127 -274l8 -17l67 -145q96 -205 146.5 -325t50.5 -128q0 -31 -84 -30q-135 0 -147 30q-66 147 -135.5 295t-135.5 295q-35 -49 -63.5 -118.5 t-48.5 -141.5q-8 -37 -16.5 -81t-14.5 -88t-9 -87t-3 -76q0 -29 -142 -28q-117 0 -116 55z" />
<glyph unicode="&#x43c;" horiz-adv-x="1173" d="M84 20v877q0 39 59 39h152q63 0 78 -51l67 -375q31 -125 74 -198.5t96 -73.5q55 0 102.5 70.5t78.5 180.5q10 45 23 136.5t28 224.5q8 86 76 86h165q53 0 54 -39v-870q0 -33 -43 -45q-8 -2 -62 -2h-42t-23 2q-45 12 -45 43l20 729h-6q-18 -168 -50 -309.5t-75 -245 t-96 -160.5t-117 -57q-78 0 -137.5 85t-100.5 240q-16 59 -35.5 179t-41.5 268h-2l20 -734q0 -41 -141 -40q-76 0 -76 40z" />
<glyph unicode="&#x43d;" horiz-adv-x="894" d="M104 14v891q0 43 107 43q100 0 100 -35l-4 -186h-2l313 -317v499q0 39 101 39q109 0 108 -35v-903q0 -31 -88 -30q-121 0 -121 32l5 287h2l-314 317v-596q0 -41 -100 -40q-106 0 -107 34z" />
<glyph unicode="&#x43e;" horiz-adv-x="673" d="M47 449q0 94 100 292q104 211 203 211q59 0 142 -82q170 -163 170 -372q0 -127 -93 -308q-104 -203 -231 -202q-72 0 -170 116q-121 145 -121 345zM217 537q0 -98 32 -177t89 -133q49 -43 65 -43q78 0 78 166q0 94 -27.5 182.5t-62.5 143.5q-33 41 -64.5 64.5t-58.5 23.5 q-51 0 -51 -227z" />
<glyph unicode="&#x43f;" horiz-adv-x="907" d="M78 16v875q0 39 51 39h676q53 0 53 -56v-860q0 -35 -110 -34q-106 0 -107 34v783q0 68 -41 67h-258q-47 0 -47 -65v-785q0 -33 -115 -32q-102 0 -102 34z" />
<glyph unicode="&#x440;" horiz-adv-x="714" d="M61 -807q104 129 105 334q0 29 -11.5 143.5t-29.5 286.5q-14 119 -20.5 226.5t-6.5 195.5q0 78 24.5 167t72.5 183q53 106 122.5 164.5t145.5 58.5q70 0 141 -86q94 -115 94 -299q0 -125 -65.5 -247.5t-183.5 -237.5q-14 -12 -30 -25.5t-26 -21.5q-12 -10 -30.5 -19.5 t-34.5 -15.5h10q14 -217 20.5 -330.5t6.5 -124.5q0 -162 -103 -290q-70 -88 -139 -89q-61 0 -62 27zM299 545q0 -25 31 -455q68 18 114 174q45 133 45 252q0 207 -139 272q-51 -129 -51 -243z" />
<glyph unicode="&#x441;" horiz-adv-x="575" d="M47 477q0 74 33 156t94 166q53 72 103.5 111.5t84.5 39.5q82 0 138 -88q49 -80 49 -151q0 -31 -25 -70q-14 -20 -33.5 -31.5t-52.5 -11.5l-73 109q-27 35 -47.5 55t-30.5 20q-61 0 -62 -254q0 -41 15.5 -97t38.5 -109q31 -66 62.5 -104t59.5 -38l111 62q53 6 53 -29 q0 -6 -32.5 -42t-77.5 -83q-100 -104 -131 -104q-61 0 -136 86q-141 168 -141 407z" />
<glyph unicode="&#x442;" horiz-adv-x="1005" d="M35 770q0 86 10 115q18 51 109 51h731q51 0 65 -8q60 -29 60 -189q0 -197 -82 -196q-57 0 -82 84q-8 29 -15.5 50t-11.5 40q-8 27 -13 46t-9 23q-37 80 -99 80q-78 0 -77 -75v-775q0 -37 -107 -36q-111 0 -111 36v768q0 88 -67 88q-53 0 -92 -84q-10 -31 -20.5 -63.5 t-20.5 -60.5l-13 -33q-16 -37 -40.5 -60.5t-53.5 -23.5q-61 0 -61 223z" />
<glyph unicode="&#x443;" horiz-adv-x="997" d="M68 842q0 16 16 38.5t39 45.5l8 6q18 16 28.5 20t39.5 4q33 0 61 -84q16 -49 28.5 -107t22.5 -114l6 -33q10 -66 21.5 -116.5t21.5 -71.5q27 -53 54.5 -100t60.5 -84v53q0 39 6 92t18.5 110.5t30 115t39.5 106.5q53 106 123 164.5t146 58.5q70 0 141 -86h2 q-10 -160 -27.5 -221t-44.5 -61q-23 0 -40 23.5t-35 55.5q-12 23 -26.5 47.5t-30 44t-30 31t-26.5 11.5t-31.5 -39t-39 -123t-36 -219.5t-20.5 -325.5l-8 -156q-6 -117 -12.5 -189.5t-14.5 -123.5t-20.5 -90t-30.5 -84l-45 -113q-10 -29 -30.5 -49t-44 -33.5t-47.5 -17.5 t-40 2q-47 16 -55 42t-4 44q0 2 1 3t1 3q63 100 105 170t65.5 135.5t34 140t10.5 183.5v10q0 4 -1 9t-1 12l6 30q-29 4 -67 25.5t-89 97.5q-70 104 -116 207.5t-73.5 197t-38.5 171t-11 131.5z" />
<glyph unicode="&#x444;" horiz-adv-x="1423" d="M35 457q0 98 52 180t149 141q72 43 170 67.5t202 26.5v381q0 221 154 336q57 41 106 41q102 0 103 -41q0 -4 -8.5 -12t-18.5 -23l-6 -8h2q0 -2 -2 -3t-2 -3q-10 -10 -20.5 -21.5t-16.5 -23.5l-61 -88q-12 -23 -16.5 -71t-4.5 -119v-56q0 -16 1 -33.5t1 -35.5v-88 q0 -27 1 -55.5t1 -59.5v-10q168 0 285 -37t192 -113q123 -123 123 -260q0 -98 -56 -179t-157 -138q-74 -37 -177 -60.5t-208 -25.5q-18 -160 -46.5 -300.5t-68.5 -255t-89.5 -199.5t-106.5 -132q-61 -49 -145 -49q-6 2 -11 4q-4 2 -6 2q152 184 207 436q8 39 16.5 96.5 t13.5 122t8 133t5 133.5q-106 2 -200.5 24.5t-166.5 63.5q-92 55 -145 134t-53 178zM281 465q0 -150 104 -238q102 -90 223 -92v660q-61 -2 -114.5 -24.5t-106.5 -70.5q-106 -88 -106 -235zM821 135q59 4 117.5 31t110.5 70q102 98 102 245q0 63 -30.5 119.5t-84.5 104.5 q-51 39 -106.5 62.5t-108.5 27.5v-660z" />
<glyph unicode="&#x445;" horiz-adv-x="942" d="M-43 -551q0 27 28.5 104.5t81 194.5t125 268.5t160.5 323.5q-37 59 -80 135t-86 154l-166 291q14 31 130 30q115 0 141 -39l184 -333l121 213q94 162 205 161q129 0 129 -172q0 -66 -35 -145q-20 -43 -51 -67.5t-68 -24.5q-16 0 -31.5 30.5t-31.5 75.5q-2 2 -3 7.5 t-3 9.5q-2 6 -5 10q-10 29 -17 53.5t-3 28.5q-29 -6 -158 -264q444 -778 445 -793q0 -25 -78 -25q-72 0 -121 16.5t-68 45.5l-296 512q-66 -135 -124.5 -287.5t-119.5 -337.5q-76 -223 -139 -223q-66 0 -66 47z" />
<glyph unicode="&#x446;" horiz-adv-x="1073" d="M109 63v834q0 53 104 53q113 0 113 -47v-790q0 -49 28 -50h303q29 0 29 46v788q0 33 37 49q20 4 72 4q53 0 69 -6q39 -14 39 -53v-795q0 -18 21.5 -26.5t68.5 -18.5q35 -4 55.5 -21t20.5 -40q0 -272 -192 -273q-37 0 -62 25q-31 31 -27 39q12 33 22.5 70.5t10.5 82.5 q0 66 -43 66h-604q-66 0 -65 63z" />
<glyph unicode="&#x447;" horiz-adv-x="950" d="M35 782q0 61 65 121q57 49 140 49q35 0 61 -30q12 -14 23.5 -29.5t13.5 -20.5q-94 -88 -94 -143q0 -158 256 -158q250 0 250 158q0 53 -117 148q0 14 45 49q18 12 35.5 19t40.5 7q78 0 137 -49q31 -29 48 -59.5t17 -61.5q0 -123 -125 -204q-49 -31 -104 -47.5t-125 -18.5 v-496q0 -39 -108 -39q-102 0 -103 39v496q-70 2 -128 17.5t-105 43.5q-57 39 -90 91.5t-33 117.5z" />
<glyph unicode="&#x448;" horiz-adv-x="1456" d="M109 39v870q0 37 110 37q106 0 107 -37v-792q0 -51 30 -51h260q35 0 35 49v784q0 47 109 47t108 -41v-790q0 -49 33 -49h268q27 0 27 45v794q0 41 109 41q106 0 106 -49v-846q0 -51 -51 -51h-1194q-57 0 -57 39z" />
<glyph unicode="&#x449;" horiz-adv-x="1447" d="M109 39v872q0 37 110 37q106 0 107 -37v-794q0 -51 30 -51h260q35 0 35 49v786q0 47 109 47t108 -41v-792q0 -49 33 -49h268q27 0 27 45v796q0 41 109 41q106 0 106 -49v-848q0 -51 -51 -51h-492v-313q0 -39 -104 -39q-113 0 -113 51v301h-485q-57 0 -57 39z" />
<glyph unicode="&#x44a;" horiz-adv-x="1081" d="M51 797q0 150 92 149h615q59 0 59 -26q0 -6 -32.5 -95.5t-104.5 -265.5h-2q414 -203 414 -424q0 -53 -82 -100q-29 -12 -66 -23.5t-70 -11.5h-561q-59 0 -59 43q0 10 8 31l160 409q27 70 51.5 133.5t43 112.5t28.5 79t10 34q0 53 -106 53q-66 0 -115 -34t-78 -95 q-10 -23 -21.5 -47.5t-19.5 -46.5q-51 -94 -96 -94q-68 0 -68 219zM508 100q0 -35 31 -34h182q39 0 78 45q37 43 37 102q0 88 -62 178q-31 47 -58.5 74t-58.5 33q-70 -180 -109.5 -286t-39.5 -112z" />
<glyph unicode="&#x44b;" horiz-adv-x="1259" d="M117 35v880q0 31 110 31q106 0 107 -31v-331h-10q90 -31 180 -73t160 -87q104 -68 161.5 -139.5t57.5 -137.5q0 -147 -277 -147h-430q-59 0 -59 35zM334 123q0 -25 13 -43.5t32 -18.5h172q35 0 60.5 28t25.5 69q0 100 -119 213q-49 49 -96 85t-88 52v-385zM1006 20v887 q0 39 108 39q109 0 109 -37v-889q0 -35 -142 -34q-76 0 -75 34z" />
<glyph unicode="&#x44c;" horiz-adv-x="909" d="M115 37v883q0 33 112 32q111 0 111 -30v-314h-10q96 -35 189 -77t165 -89q109 -72 168 -145t59 -143q0 -154 -286 -154h-449q-59 0 -59 37zM338 129q0 -27 14.5 -46.5t34.5 -19.5h178q37 0 63.5 29t26.5 72q0 94 -125 219q-55 53 -103 90t-89 55v-399z" />
<glyph unicode="&#x44d;" horiz-adv-x="1044" d="M76 707q0 104 153 182q127 63 252 63q213 0 369 -121q172 -135 172 -329q0 -219 -158 -371q-76 -74 -170 -111.5t-213 -37.5q-195 0 -327 108q-74 61 -74 96q0 39 39 74q33 33 86 33q25 0 69 -57q29 -35 54.5 -65t46.5 -44q80 -57 166 -57q123 0 194 143q57 117 58 268 h12q-96 12 -209 13h-121q-4 -49 -32.5 -80t-92.5 -31q-74 0 -98 12q-43 27 -43 80q0 78 137 78q74 0 232 -6q78 -4 127 -6t86 -2q-4 59 -23.5 121.5t-54.5 107.5q-86 111 -197 111q-96 0 -164 -62q-31 -23 -84 -110q-37 -61 -73 -62q-119 1 -119 62z" />
<glyph unicode="&#x44e;" horiz-adv-x="1157" d="M102 20v891q0 35 111 35q121 0 121 -31v-331h233q25 78 77 160.5t124 156.5q57 57 84 57q61 0 143 -81q170 -164 170 -377q0 -125 -94 -312q-106 -205 -233 -204q-68 0 -168 118q-59 72 -92 161t-33 188q0 18 2 37.5t6 35.5h-217v-504q0 -35 -127 -34q-106 0 -107 34z M717 539q0 -209 123 -314q47 -41 65 -41q78 0 78 166q0 94 -27.5 184.5t-62.5 145.5q-33 39 -66.5 64.5t-56.5 25.5q-53 0 -53 -231z" />
<glyph unicode="&#x44f;" horiz-adv-x="825" d="M100 811q0 37 19.5 61.5t49.5 38t67.5 19.5t74.5 6h404q70 0 69 -49v-850q0 -23 -20.5 -36t-48.5 -17q-72 -6 -109 8t-35 49v455q-29 -8 -60.5 -36t-72.5 -73h2q-2 -4 -6 -6q-4 -4 -6 -5t-6 -5q-43 -47 -58.5 -107.5t-23.5 -107.5l-6 -31v-53q0 -14 1 -26.5t1 -25.5 q-12 -16 -33.5 -26t-62.5 -10q-12 0 -29.5 2t-34.5 6h-6q-39 18 -50 49t-11 76q0 55 31.5 115.5t82.5 117t112.5 105.5t121.5 82q-63 14 -123 36.5t-109 55.5q-66 41 -95.5 89t-29.5 93zM348 778q0 -47 20.5 -83t55.5 -64q31 -18 69.5 -32.5t73.5 -18.5v180q0 119 -92 119 q-41 0 -84 -25q-43 -23 -43 -76z" />
<glyph unicode="&#x450;" horiz-adv-x="659" d="M51 500q0 61 34 137t91 151q61 78 131 121t139 43q23 0 52.5 -19.5t52.5 -47.5q25 -33 39 -60.5t14 -48.5q0 -41 -39 -92q-35 -43 -110 -47q-63 98 -74 108q-37 49 -59 50q-10 0 -23.5 -21.5t-26.5 -50.5q-6 -27 -10 -52.5t-4 -54.5q0 -154 23 -153q27 0 129 49 q100 47 153 47q12 0 28.5 -12t31.5 -31q14 -20 22 -35.5t8 -23.5q0 -31 -43 -68q-37 -31 -80 -31q-16 0 -32.5 12.5t-38.5 35.5q-43 49 -45 49q-27 0 -68 -29q-37 -25 -37 -66q0 -57 39 -127q43 -82 80 -81q68 0 158 71l26 -37q-18 -31 -46.5 -64.5t-69.5 -66.5 q-41 -35 -81 -53t-81 -18q-113 0 -205 213q-78 186 -78 303zM164 1384h242l59 -327l-103 2z" />
<glyph unicode="&#x451;" horiz-adv-x="659" d="M51 500q0 61 34 137t91 151q61 78 131 121t139 43q23 0 52.5 -19.5t52.5 -47.5q25 -33 39 -60.5t14 -48.5q0 -41 -39 -92q-35 -43 -110 -47q-63 98 -74 108q-37 49 -59 50q-10 0 -23.5 -21.5t-26.5 -50.5q-6 -27 -10 -52.5t-4 -54.5q0 -154 23 -153q27 0 129 49 q100 47 153 47q12 0 28.5 -12t31.5 -31q14 -20 22 -35.5t8 -23.5q0 -31 -43 -68q-37 -31 -80 -31q-16 0 -32.5 12.5t-38.5 35.5q-43 49 -45 49q-27 0 -68 -29q-37 -25 -37 -66q0 -57 39 -127q43 -82 80 -81q68 0 158 71l26 -37q-18 -31 -46.5 -64.5t-69.5 -66.5 q-41 -35 -81 -53t-81 -18q-113 0 -205 213q-78 186 -78 303zM113 1118v139q0 66 106 66q102 0 103 -72v-135q0 -70 -103 -69q-106 0 -106 71zM414 1118v139q0 66 100 66q106 0 107 -72v-135q0 -70 -107 -69q-100 0 -100 71z" />
<glyph unicode="&#x452;" horiz-adv-x="974" d="M0 973q-12 47 0 96h160v40v52.5t-1 48t-1 31.5q0 23 -1 41t-1 29v10q0 55 106 55q59 0 86 -15t27 -46v-246h235q8 -20 10.5 -41.5t-10.5 -54.5h-235q0 -27 1 -60.5t1 -68.5t1 -69t1 -60q43 27 73.5 45t60.5 28.5t61.5 15.5t76.5 5q68 0 118 -19.5t84 -52t51.5 -76 t17.5 -92.5v-569q0 -47 -28 -98.5t-67 -93t-84 -69.5t-77 -28q-41 0 -54.5 16.5t-13.5 32.5q0 4 9 12.5t22.5 17.5t27 17.5t21.5 12.5q29 14 39 68.5t10 131.5v33v72t-1 94t-1 100q0 63 -1 114.5t-1 74.5v12q0 37 -9 73t-26.5 64.5t-43.5 46t-56 17.5q-66 0 -120 -25.5 t-95 -58.5h2v-617q0 -39 -107 -38q-109 0 -108 38v953h-160z" />
<glyph unicode="&#x453;" horiz-adv-x="837" d="M109 20v869q0 47 53 47h555q112 0 112 -182q0 -29 -3 -66t-9 -70q-8 -43 -25.5 -71.5t-39.5 -28.5q-27 0 -62 55.5t-74 149.5q-23 53 -39 88t-26 41q-33 23 -135 22q-90 0 -90 -75l2 -789q0 -31 -105 -30q-115 0 -114 40zM352 1057l58 327h243l-198 -325z" />
<glyph unicode="&#x454;" horiz-adv-x="1044" d="M76 502q0 195 172 329q156 121 368 121q125 0 252 -63q154 -78 154 -182q0 -61 -119 -62q-37 0 -74 62q-57 88 -81 110q-72 61 -166 62q-111 0 -197 -111q-35 -45 -54.5 -107.5t-23.5 -121.5q39 0 90.5 2t122.5 6q154 6 232 6q137 0 137 -78q0 -53 -43 -80 q-25 -12 -98 -12q-63 0 -92 30.5t-33 80.5h-121q-53 0 -107.5 -3.5t-101.5 -9.5h14q0 -156 55 -268q72 -143 195 -143q88 0 166 57q20 12 46 43t54 66q20 25 40 41t30 16q53 0 86 -33q39 -39 39 -74t-74 -96q-133 -109 -328 -108q-229 0 -383 149q-158 152 -157 371z" />
<glyph unicode="&#x455;" horiz-adv-x="937" d="M31 84q0 61 61 117q51 45 133 45q51 0 189 -88q139 -88 182 -88t80 69q29 53 29 121q0 180 -97 180h-21.5t-27.5 -2h-12q-4 0 -8 -1t-9 -1q-18 -2 -41.5 -2h-33.5q-342 0 -342 244q0 59 34.5 113.5t100.5 95.5q53 33 117.5 50t136.5 17q156 0 258 -63q59 -41 91 -96.5 t32 -122.5q0 -41 -211 -41h-17q2 12 2 24.5v24.5q0 215 -163 215q-33 0 -63 -17.5t-56 -46.5q-18 -29 -31.5 -65.5t-13.5 -77.5q0 -29 11 -65.5t24 -61.5q23 -29 47 -48t47 -19q37 0 116 12q80 12 121 12q117 0 174 -69q53 -70 54 -173q0 -295 -330 -294q-57 0 -141 45 l-103 65l-18 12q-10 -6 -24.5 -21t-24.5 -40q-29 -61 -121 -61q-72 0 -94 16q-37 23 -37 86z" />
<glyph unicode="&#x456;" horiz-adv-x="473" d="M133 18v891q0 37 80 37h45q84 0 84 -37v-891q0 -35 -84 -34h-59q-66 0 -66 34z" />
<glyph unicode="&#x457;" horiz-adv-x="473" d="M-16 1118v139q0 66 104 66q102 0 102 -72v-135q0 -70 -102 -69q-104 0 -104 71zM133 20v889q0 35 80 35h45q84 0 84 -35v-889q0 -35 -84 -34h-59q-66 0 -66 34zM283 1118v139q0 66 100 66q109 0 109 -72v-135q0 -70 -109 -69q-100 0 -100 71z" />
<glyph unicode="&#x458;" horiz-adv-x="403" d="M-31 -461q0 12 12.5 41t30.5 66q8 16 19.5 42.5t25.5 63.5q41 123 59.5 278.5t18.5 348.5q0 78 -2 155.5t-8 143.5q0 6 -1 19.5t-3 23.5q-4 35 -9.5 80t-5.5 69q0 29 14.5 45.5t36 25.5t48 11t53.5 2q20 0 37.5 -44t31 -111.5t21.5 -148t8 -154.5q0 -254 -55 -473.5 t-158 -393.5q-35 -57 -68.5 -89t-62.5 -32q-43 0 -43 31zM94 1149v139q0 66 101 66q106 0 106 -74v-133q0 -70 -106 -70q-100 0 -101 72z" />
<glyph unicode="&#x459;" horiz-adv-x="1501" d="M37 37q0 51 25.5 74.5t72.5 31.5q29 8 47.5 48t29.5 95.5t15 118t4 115.5q0 49 -2 86t-4 51v16.5t-2 31.5q0 10 -1 21t-1 24q-2 27 -3 57.5t-1 46.5q0 55 39 69.5t92 14.5l447 -2q104 -4 104 -33v-295h-10q125 -43 231.5 -97t184 -113.5t121.5 -123t44 -120.5 q0 -154 -286 -154h-449q-59 0 -59 37v833h-250q0 -45 -1 -102t-1 -111q-2 -61 -2 -127q-4 -90 -35 -186t-75 -176t-94 -131t-91 -51q-43 0 -66.5 17t-23.5 34zM899 129q0 -27 14.5 -46.5t34.5 -19.5h178q37 0 64 29t27 72q0 94 -125 219q-55 53 -103.5 90t-89.5 55v-399z " />
<glyph unicode="&#x45a;" horiz-adv-x="1464" d="M84 25v884q0 37 78 37h47q82 0 82 -37v-303h373v307q0 33 112 33q111 0 111 -31v-307h-10q96 -35 189 -77t165 -89q109 -72 168 -145t59 -143q0 -154 -287 -154h-448q-59 0 -59 37v504h-373v-516q0 -35 -82 -35h-62q-63 0 -63 35zM887 129q0 -27 14 -46.5t35 -19.5h178 q37 0 63.5 29t26.5 72q0 94 -125 219q-55 53 -103 90t-89 55v-399z" />
<glyph unicode="&#x45b;" horiz-adv-x="1079" d="M0 969q-23 49 2 96h158v78q0 27 -1 52.5t-1 45.5v27q-2 12 -2 28.5v22.5q0 55 106 55q119 0 119 -61v-20.5t-2 -28.5v-199h229q29 -51 0 -96h-229v-248l27 16q39 25 66.5 40.5t53 24.5t54 13t71.5 4q55 0 104.5 -16.5t86.5 -45t58.5 -66.5t21.5 -81v-444q0 -10 2 -26.5 t6 -32t9 -26.5t11 -11q4 0 27.5 12t46.5 24q12 6 31.5 14.5t36.5 8.5l8 -16q0 -59 -66.5 -95t-165.5 -36q-72 0 -115.5 55t-43.5 127v371q0 94 -30 145t-91 51q-66 0 -118 -20.5t-93 -53.5h2v-637q0 -20 -28.5 -29t-82.5 -9q-109 0 -108 38v949h-160zM379 719v2h2z" />
<glyph unicode="&#x45c;" horiz-adv-x="995" d="M109 18v887q0 41 108 41q109 0 109 -39v-891q0 -37 -115 -36q-102 0 -102 38zM330 467q0 29 53 100.5t149 173.5q92 98 163 154.5t106 56.5q78 0 117 -51q35 -51 34 -113q0 -18 -3 -40.5t-11 -45.5q-20 -63 -64 -63q-12 0 -22 7t-25 18l-20 16l-23 18q-35 29 -58.5 44.5 t-29.5 15.5q-16 0 -40.5 -19.5t-53.5 -52.5h2q-27 -35 -42 -64.5t-15 -54.5q0 -31 39 -95t98 -136q68 -80 116 -123t72 -43q14 0 78 41q31 2 46.5 -5t15.5 -30q0 -33 -103 -117q-94 -76 -147 -75q-66 0 -248 213q-184 217 -184 270zM432 1067l60 317h241l-198 -327z" />
<glyph unicode="&#x45d;" horiz-adv-x="905" d="M109 14v897q0 37 112 37q104 0 105 -41v-530l159 164l164 170h-2v200q0 37 107 37q111 0 110 -45v-885q0 -37 -133 -36q-84 0 -84 43v573l-323 -336h2v-248q0 -33 -113 -32q-104 0 -104 32zM254 1384h242l59 -327l-102 2z" />
<glyph unicode="&#x45e;" horiz-adv-x="997" d="M68 842q0 16 16 38.5t39 45.5l8 6q18 16 28.5 20t39.5 4q33 0 61 -84q16 -49 28.5 -107t22.5 -114l6 -33q10 -66 21.5 -116.5t21.5 -71.5q27 -53 54.5 -100t60.5 -84v53q0 39 6 92t18.5 110.5t30 115t39.5 106.5q53 106 123 164.5t146 58.5q70 0 141 -86h2 q-10 -160 -27.5 -221t-44.5 -61q-23 0 -40 23.5t-35 55.5q-12 23 -26.5 47.5t-30 44t-30 31t-26.5 11.5t-31.5 -39t-39 -123t-36 -219.5t-20.5 -325.5l-8 -156q-6 -117 -12.5 -189.5t-14.5 -123.5t-20.5 -90t-30.5 -84l-45 -113q-10 -29 -30.5 -49t-44 -33.5t-47.5 -17.5 t-40 2q-47 16 -55 42t-4 44q0 2 1 3t1 3q63 100 105 170t65.5 135.5t34 140t10.5 183.5v10q0 4 -1 9t-1 12l6 30q-29 4 -67 25.5t-89 97.5q-70 104 -116 207.5t-73.5 197t-38.5 171t-11 131.5zM233 1190q0 141 134 141q49 0 49 -12q0 -14 -23 -47l-6 -6h2q-14 -25 -14 -41 q0 -57 108 -58q47 0 109 21q66 18 98 51l53 53q33 35 68 35q39 0 39 -18q0 -14 -25 -49q-2 -2 -2 -5q0 -2 -2 -4q-63 -84 -154.5 -135t-213.5 -51q-111 0 -165.5 36t-54.5 89z" />
<glyph unicode="&#x45f;" horiz-adv-x="991" d="M129 0v930h203v-877h391v879h203v-932h-303l12 -283h-215l12 283h-303z" />
<glyph unicode="&#x460;" horiz-adv-x="1667" d="M82 956q0 438 151 439q152 0 152 -58q0 -18 -5 -44.5t-13 -55.5l-23 -76q-6 -18 -6 -20q-12 -55 -12 -176q0 -160 27.5 -301.5t82.5 -264.5q61 -141 103 -147q-6 6 16 53q14 33 41 91.5t80 156.5q82 150 125 244t43 127v20q2 37 -2 91.5t-39 121.5q-86 174 -86 203 q0 35 104 35q53 0 79 -10.5t48 -32.5q66 -68 109 -257.5t98 -502.5l14 -86q10 -37 26.5 -68.5t33 -55.5t32 -37t21.5 -13q37 0 109 231q66 213 65 291q0 55 -10 121.5t-27 130.5q-16 55 -38.5 119.5t-39.5 120.5q0 2 -1 3t-1 5q0 41 107 41q92 0 135 -33q76 -64 76 -330 q0 -104 -31 -231t-90 -260q-39 -86 -101.5 -202t-140.5 -245q-33 -51 -70.5 -79.5t-76.5 -28.5q-25 0 -45.5 34.5t-37.5 87t-30.5 113t-23.5 111.5q-8 37 -15.5 69.5t-11.5 49.5q-14 37 -23.5 71.5t-17.5 65.5l-8 30q-16 76 -33 109q-37 -39 -83 -118t-99 -193 q-33 -88 -67 -179.5t-64 -179.5q-41 -72 -88 -71q-53 0 -150 137q-268 381 -268 833z" />
<glyph unicode="&#x461;" horiz-adv-x="1308" d="M29 836q0 55 26 88h-2q20 25 101 24q86 0 102 -121l18 -155l17 -148q16 -57 45 -121.5t74 -123.5q29 45 69.5 161.5t89.5 280.5q-35 72 -57.5 126t-22.5 66q0 35 107 35q98 0 156 -82q29 -41 63.5 -124t69.5 -181l106 -317q4 -6 6 -13.5t-2 -9.5q31 0 66 121 q27 92 26 166q0 76 -9 144.5t-27 117.5q-55 147 -56 150q0 29 113 28q117 0 156 -67q27 -47 26 -158v-59q0 -92 -28.5 -193.5t-87.5 -212.5q-72 -131 -149 -202.5t-155 -71.5q-45 0 -79 149q-55 250 -158 445q-37 -86 -62.5 -163t-42.5 -130q-10 -35 -24.5 -89.5 t-36.5 -121.5q-31 -90 -94 -90q-29 0 -66 34.5t-74 90.5q-96 160 -150 349t-54 378z" />
<glyph unicode="&#x462;" horiz-adv-x="1441" d="M27 958q0 236 43 273q25 18 80 18h395v213q0 37 114 37q121 0 121 -39v-211h443q129 0 129 -196q0 -227 -68 -228q-57 0 -110 113l-64 154q-27 45 -93.5 69.5t-170.5 24.5q-66 0 -66 -66l-6 -250h-2q68 -45 133.5 -89t130.5 -91q94 -66 164 -124t111 -105 q125 -146 125 -279q0 -182 -191 -182h-627q-74 0 -73 49v1071q0 66 -39 66q-211 0 -264 -127q-14 -35 -27.5 -76t-28.5 -76q-23 -53 -46 -84.5t-46 -31.5q-68 0 -67 167zM780 186q0 -111 121 -110h74q194 0 194 162q0 168 -151 323h2q-6 4 -58.5 48t-150.5 124l-10 8l-21 19 v-574zM1020 561q2 -2 2 0h-2z" />
<glyph unicode="&#x463;" horiz-adv-x="1085" d="M29 766q0 164 102 164h281v192q0 35 102 35q96 0 96 -35v-194h312q70 0 90 -43q14 -29 14 -94q0 -225 -74 -226q-18 0 -37.5 23.5t-35.5 60.5l-23 53l-18 56q-57 104 -228 110v-278h-10q70 -23 147.5 -64t145.5 -94q86 -66 132 -134.5t46 -127.5q0 -92 -55 -135 q-47 -35 -154 -35h-389q-61 0 -61 37v831h-82q-63 0 -101 -88l-49 -162q-27 -88 -90 -88q-61 0 -61 236zM610 133q0 -68 109 -67q72 0 100 16q14 10 23.5 34.5t9.5 63.5q0 109 -86 213q-37 47 -78 81t-78 52v-393z" />
<glyph unicode="&#x464;" horiz-adv-x="1353" d="M121 23v1335q0 53 119 53t118 -49v-555h232q16 72 54 159t85 152q47 70 113.5 130.5t138.5 107.5q80 49 143 49q33 0 68 -31t68 -88q63 -115 63 -172q0 -45 -41 -92h2q-8 -8 -29.5 -22.5t-60.5 -36.5l-76 2q0 43 -10 86t-27 82q-47 104 -104 104q-45 0 -109 -92 q-82 -117 -82 -299q0 -53 3.5 -102.5t9.5 -90.5q178 92 275 137.5t130 45.5q66 0 103 -66q33 -59 32 -115q0 -23 -18 -45t-49 -43q-23 -10 -55.5 -20t-59.5 -10q-29 0 -82 84q-51 84 -53 84q-25 0 -119 -52q-92 -47 -92 -75q0 -49 19.5 -107.5t54.5 -124.5q41 -70 80 -109.5 t73 -39.5q70 0 205 125q37 0 57 -21q-2 -33 -165 -180q-154 -137 -209 -137q-156 0 -260 288q-86 240 -86 445q0 4 1 6t1 6v27h-224v-733q0 -43 -120 -43q-117 0 -117 43z" />
<glyph unicode="&#x465;" horiz-adv-x="1058" d="M88 35v868q0 33 68 33q150 0 149 -33v-344h170q18 109 146 250q127 143 243 143q25 0 53.5 -18.5t53.5 -48.5q53 -70 53 -109q0 -41 -39 -92q-18 -23 -47 -35t-64 -12q-104 158 -135 158q-23 0 -45 -72q-18 -59 -18 -107q0 -154 22 -153q29 0 127 49q104 47 156 47 q14 0 29.5 -12t29.5 -31q33 -43 33 -59q0 -31 -43 -68q-41 -31 -82 -31q-14 0 -28.5 12.5t-36.5 35.5q-47 49 -52 49q-27 0 -67 -29q-37 -25 -37 -66q0 -31 10.5 -62.5t26.5 -66.5q23 -35 43 -57t41 -22q66 0 156 71l28 -37q-18 -31 -47 -65.5t-70 -67.5q-86 -70 -163 -69 q-53 0 -106.5 57t-96.5 156q-35 82 -55.5 163.5t-24.5 139.5h-164v-465q0 -37 -92 -37q-125 0 -125 37z" />
<glyph unicode="&#x466;" horiz-adv-x="1515" d="M33 35q0 20 12 64t33.5 104.5t52.5 134.5t70 154q70 147 130 261.5t101 174.5l129 178q47 66 75 110t28 52q0 53 -82 102q20 37 141 37h35q47 -2 115.5 -81t154.5 -224.5t187.5 -351t214.5 -459.5q47 -109 71.5 -181.5t24.5 -84.5q0 -45 -142 -45q-119 0 -149 73 l-150 396q-12 20 -44.5 33.5t-86.5 13.5q-78 0 -77 -47v-426q0 -43 -127 -43q-113 0 -113 43v403q0 72 -125 72q-86 0 -109 -54q-23 -74 -48 -156.5t-48 -158.5l-26 -88q-23 -61 -115 -61q-133 0 -133 55zM453 580q0 -29 172 -29h102q307 0 309 33q-88 217 -166.5 362.5 t-138.5 214.5q-33 -29 -73 -94.5t-93 -175.5q-55 -113 -83.5 -189.5t-28.5 -121.5z" />
<glyph unicode="&#x467;" horiz-adv-x="1118" d="M31 43q0 25 32.5 100.5t98.5 184.5q59 92 102 155.5t76 100.5l63 73q10 14 18.5 22.5t22.5 25.5l33 34h-4q-41 82 -41 97q0 39 51 79q41 33 99 33q37 0 112.5 -104.5t186.5 -308.5q106 -199 164.5 -339.5t58.5 -185.5q0 -31 -123 -30q-94 0 -127 55l-63 172 q-47 96 -111 96q-49 0 -49 -47l2 -242q0 -35 -125 -34q-80 0 -80 34v246q0 43 -53 43q-31 0 -56.5 -22.5t-42.5 -55.5q0 -8 -4 -16q0 -4 -2 -10t-2 -11q-6 -33 -13 -66.5t-15 -62.5q-29 -80 -125 -79q-53 0 -62 10h2q-25 16 -24 53zM356 379q0 -25 29 -25h291q20 1 20 21 t-20.5 65t-54.5 113q-35 66 -58.5 103.5t-30.5 37.5q-25 0 -102 -137q-74 -129 -74 -178z" />
<glyph unicode="&#x468;" horiz-adv-x="1968" d="M113 23v1331q0 53 114 53q113 0 113 -49l2 -379h635q88 125 139 201.5t51 87.5q0 53 -80 102q20 37 136 37h34q90 -4 254 -291t385 -825q18 -45 34 -90t28 -82t19.5 -62.5t7.5 -31.5q0 -45 -134 -45q-117 0 -143 73l-143 396q-16 47 -123 47q-72 0 -72 -47v-426 q0 -43 -121 -43q-111 0 -110 43v403q0 72 -117 72q-41 0 -65.5 -15.5t-34.5 -38.5q-33 -102 -60 -202l-57 -201q-23 -61 -111 -61q-129 0 -129 55q0 27 28 103.5t77 193.5t119.5 268.5t156.5 327.5h-604v-905q0 -43 -117 -43q-113 0 -112 43zM967 580q0 -29 161 -29h74 q316 0 318 33q-29 72 -53.5 126t-41.5 93l-28 69l-6 21q-41 84 -83 152.5t-79 113.5q-29 -31 -69 -102.5t-87 -163.5q-47 -106 -76.5 -187t-29.5 -126z" />
<glyph unicode="&#x469;" horiz-adv-x="1536" d="M96 14v883q0 39 105 39q111 0 110 -35v-289h451q18 18 51 54t61 73q-10 23 -20 48.5t-18 48.5q0 16 14 38.5t37 40.5q43 33 98 33q39 0 115 -105.5t186 -310.5q51 -96 91 -182t68 -154.5t43 -117.5t15 -74t-119 -24q-90 0 -127 57l-63 149q-23 47 -52.5 82t-58.5 35 q-47 0 -47 -47v-242q0 -35 -123 -34q-82 0 -82 34v246q0 43 -53 43q-29 0 -53.5 -21.5t-40.5 -56.5l-20 -80q0 -4 -2.5 -10t-2.5 -10l-16 -66q-35 -80 -125 -79q-92 0 -92 57q0 23 33 98.5t90 169.5q47 76 87 140.5t75 111.5h-400v-543q0 -35 -135 -34q-80 0 -80 34z M760 379q0 -25 28 -25h291q21 1 21 21t-20.5 65t-55.5 113q-35 66 -58.5 103.5t-29.5 37.5q-25 0 -102 -137q-74 -129 -74 -178z" />
<glyph unicode="&#x46a;" horiz-adv-x="1460" d="M35 129q0 16 29.5 70.5t87.5 142.5q49 74 98 146.5t98 137t96.5 119t87.5 91.5q111 94 111 118q0 16 -12.5 35t-28.5 31l-432 268q-23 12 -36 25.5t-13 23.5q0 53 92 54h1102q78 0 78 -41t-129 -117l-164 -90q-117 -63 -189 -135q-25 -25 -24 -41q0 -35 96 -117 q45 -41 90 -78l41 -35q37 -35 94.5 -113.5t112.5 -172.5q31 -55 56.5 -107.5t44 -96.5t28.5 -78t10 -52q0 -47 -78 -103q-63 -45 -129 -45q-23 0 -40 13.5t-25 35.5q-23 68 -41 175l-31 176q-10 53 -35.5 119.5t-58.5 117.5q-16 27 -49 69t-80 101q-10 -23 -14.5 -53.5 t-4.5 -73.5t2.5 -117.5t8.5 -162.5l7 -150.5t3 -107.5q0 -123 -129 -123q-51 0 -90 28.5t-37 73.5q12 86 19.5 155.5t7.5 129.5l-7 420q-98 -106 -180 -273.5t-127 -353.5l-26 -113q-25 -82 -76 -82q-63 0 -133 52q-39 29 -60.5 56.5t-21.5 47.5zM393 1286q0 -23 43 -59.5 t121 -83.5q78 -43 134.5 -71t76.5 -28q55 0 338 240h-2v27h-332q-86 0 -169 1t-167 1q-43 0 -43 -27z" />
<glyph unicode="&#x46b;" horiz-adv-x="1314" d="M29 137q0 29 30.5 95.5t90.5 148.5q33 45 77.5 85t98.5 79q51 35 104 55.5t105 24.5l6 24h2q-66 41 -116 68.5t-91 40.5h2q-16 4 -28.5 8t-22.5 8l-49 19h2q-12 4 -26.5 9t-27.5 9q-104 45 -104 90q0 35 80 35h968q61 0 62 -31q0 -31 -133 -92q-27 -10 -51.5 -19.5 t-51.5 -19.5l-59 -24q-78 -37 -149 -93h2v-28q82 -2 162.5 -44t177.5 -126q104 -92 154 -183t50 -163q0 -53 -67 -99q-57 -35 -125 -34q-45 0 -68 59q-10 41 -26.5 108.5t-40.5 145.5q-16 37 -43 81t-56 81q-35 45 -64.5 68.5t-53.5 31.5v-547q0 -29 -109 -28 q-106 0 -106 34v545q-23 -8 -56 -39t-65 -74q-25 -39 -48.5 -86t-39.5 -94l-11 -57q0 -4 -2 -11.5t-2 -11.5l-12 -67q-25 -139 -102 -139q-57 0 -111 53q-31 33 -44 58.5t-13 45.5zM324 852q0 -16 98 -55q170 -76 215 -76q14 0 53 15.5t92 37.5q53 27 83 46.5t30 33.5 q0 16 -8 16h-557q-6 0 -6 -18z" />
<glyph unicode="&#x46c;" horiz-adv-x="1904" d="M111 23v1314q0 53 118 54q119 0 119 -50v-534h594q66 53 102.5 92t36.5 55q0 39 -39 66l-372 229q-51 31 -80 54.5t-29 33.5q0 53 90 54h1104q76 0 76 -41q0 -14 -35 -46t-92 -69q-6 -6 -39 -23l-45 -24l-82 -45q-117 -63 -188 -135q-25 -25 -25 -41t26.5 -47t69.5 -70 l131 -113q20 -18 45 -50t52.5 -74t55.5 -89t56 -96q66 -111 101.5 -192.5t35.5 -118.5q0 -23 -20 -50.5t-55 -52.5q-61 -45 -131 -45q-53 0 -66 51l-72 349q-20 72 -73.5 178t-139.5 219q-8 -59 -10 -131t-2 -152v-83t2 -113t2 -103.5v-72.5q0 -123 -129 -123 q-49 0 -78.5 30.5t-29.5 71.5q0 12 1 191.5t3 513.5q-96 -102 -176 -264t-131 -363q-53 -195 -105 -195q-59 0 -133 52q-39 29 -60.5 56.5t-21.5 47.5q0 14 13.5 47t37 77t56 96t71.5 108q59 86 123 164.5t117 134.5h-543v-733q0 -43 -121 -43q-117 0 -116 43zM831 1286 q0 -23 43.5 -59.5t120.5 -83.5q78 -43 134.5 -71t76.5 -28q51 0 338 240h-2v27h-332q-86 0 -169 1t-167 1q-43 0 -43 -27z" />
<glyph unicode="&#x46d;" horiz-adv-x="1728" d="M92 10v893q0 33 115 33q100 0 100 -31v-373h418q53 37 113.5 63t115.5 30l7 24h2q-25 14 -49.5 29.5t-49.5 30.5q-47 16 -101 37.5t-101 37.5q-160 57 -160 117q0 35 80 35h968q61 0 62 -31q0 -35 -135 -92l-160 -63q-29 -16 -75 -43t-75 -50h2v-28q82 -2 163 -44 t177 -126q104 -92 154.5 -183.5t50.5 -162.5q0 -25 -18.5 -50.5t-50.5 -48.5q-25 -16 -58 -25t-65 -9q-49 0 -68 59q-10 41 -26.5 108.5t-41.5 145.5q-16 37 -41.5 80t-56.5 82q-35 45 -64.5 68.5t-54.5 31.5v-547q0 -29 -108 -28q-106 0 -107 34v545q-23 -8 -55.5 -39 t-64.5 -74q-23 -41 -47.5 -90t-41.5 -90l-30 -162q0 -2 -1 -3t-1 -3q-20 -92 -58 -112q-12 -6 -39 -6q-57 0 -110 53q-31 33 -44 58.5t-13 45.5q0 25 20 79t57 110q25 35 60 74.5t67 72.5h-346v-459q0 -35 -74 -34q-141 0 -141 30zM713 852q0 -16 98 -55q170 -76 215 -76 q14 0 53 15.5t92 37.5q53 27 83 46.5t30 33.5q0 16 -8 16h-557q-6 0 -6 -18z" />
<glyph unicode="&#x46e;" horiz-adv-x="1075" d="M59 -66q0 37 19.5 72t51.5 60.5t74 41t85 15.5q23 0 72 -4t102 -10t102 -11.5t72 -5.5q37 0 65.5 29t47 75t27.5 102t9 112q0 55 -16 105t-44 87t-65.5 59.5t-82.5 22.5q-43 0 -71 -11t-58 -46q-55 -55 -56 -164q0 -82 -51 -82h-156q-49 0 -49 72t44 127t110.5 92 t143.5 56.5t143 19.5q37 0 64.5 19t46 53t27.5 78t9 91q0 92 -40 152.5t-118 60.5q-43 0 -82 -19.5t-68.5 -52t-47 -75.5t-17.5 -88v-41h-198v63q0 51 26.5 99.5t70.5 85t98 59t110 22.5q20 1 20 15q0 10 -24.5 51t-63.5 92q-92 121 -92 133q0 31 53 31h113l135 -268l80 166 q23 47 63.5 74.5t94.5 27.5q100 0 100 -61q0 -90 -88 -91h-12q-6 0 -12.5 1t-12.5 1q-12 2 -23.5 2.5t-17.5 0.5q-8 0 -19.5 -16.5t-20.5 -39t-16 -46t-7 -38.5q0 -33 59 -61q53 -27 87 -43.5t46 -24.5q37 -29 56.5 -76t19.5 -84q0 -47 -12.5 -90t-40 -79.5t-69.5 -62.5 t-99 -36h2q303 -141 303 -362q0 -29 -7 -71t-20.5 -85t-33 -82t-46.5 -63q-47 -41 -103 -52.5t-118 -11.5q-20 0 -60 1t-85 5h-13q-41 4 -76.5 6t-54.5 2q-33 0 -57.5 -13t-40.5 -33.5t-24.5 -45t-8.5 -45.5q0 -63 17.5 -84.5t62.5 -21.5q70 0 217 53q145 51 232 51 q225 0 225 -194q0 -55 -236 -56q-18 0 -23 4.5t-15 14.5l-35 39q-29 25 -49.5 40t-24.5 15q-23 0 -71 -9t-95 -32q-98 -41 -151 -41q-154 0 -231 75t-77 197z" />
<glyph unicode="&#x46f;" horiz-adv-x="884" d="M41 -57q0 31 15.5 58.5t42 48t58 31.5t66.5 11q18 0 42 -2t52 -6l54 -6q45 -4 85 -8t58 -4q59 0 89 57t30 153q0 45 -12.5 86t-35 73t-52 50.5t-66.5 18.5q-76 0 -119 -68q-4 -8 -10 -35q-4 -12 -8 -28.5t-15 -40.5q-10 -29 -30.5 -48.5t-44.5 -19.5h-103q-55 0 -55 60 q0 59 26.5 97t102.5 79q113 57 256 57q25 0 46.5 17.5t36.5 45t24.5 61.5t9.5 67q0 152 -127 151q-57 0 -95 -45t-67 -135q-8 -23 -22.5 -43.5t-32.5 -20.5h-84q-55 0 -56 45q0 168 213 236q64 19 64 33q0 8 -15.5 35.5t-44.5 68.5q-20 29 -39.5 59.5t-39.5 59.5q0 27 59 27 l6 -2h59l121 -216q23 49 38.5 82t23.5 45q57 88 151 89q94 0 95 -58q0 -61 -97 -61h-14q-39 0 -59 -21q-2 -2 -9.5 -16t-15.5 -30.5t-14.5 -33t-6.5 -24.5q0 -39 50 -60q111 -45 110 -47h-2q68 -39 68 -108q0 -53 -40 -112.5t-118 -102.5q45 -27 85 -63t70.5 -74.5t48 -80.5 t17.5 -81q0 -113 -71.5 -186.5t-188.5 -73.5q-18 0 -53 4t-72 8t-69.5 7t-47.5 3q-109 0 -108 -82q0 -98 90 -98q25 0 73 9t101 20q53 10 99.5 18t72.5 8q178 0 178 -78q0 -68 -30.5 -96.5t-120.5 -28.5q-49 0 -119 50q-18 12 -30.5 21t-22.5 15q-10 8 -17 13 q-16 -2 -47.5 -8.5t-64.5 -16.5q-37 -10 -71 -17t-52 -7q-115 0 -183.5 58t-68.5 157z" />
<glyph unicode="&#x470;" horiz-adv-x="1390" d="M59 1290q0 37 45 76q41 35 93 35q51 0 75 -66l113 -252q16 -41 25.5 -63.5t11.5 -24.5q51 -104 90 -162.5t66 -80.5v604q0 45 116 45q119 0 119 -39v-737q57 43 154 290l141 373q45 117 141 117q170 0 170 -145q0 -49 -22 -123q-14 -41 -35 -67t-45 -26q-33 0 -86 78 q-55 78 -62 78q-2 0 -13 -31.5t-30 -91.5q-72 -217 -151.5 -362.5t-163.5 -198.5h2v-493q0 -43 -123 -43q-115 0 -115 43l9 471h2q-225 150 -408 467q-59 106 -89 190t-30 139z" />
<glyph unicode="&#x471;" horiz-adv-x="1366" d="M45 821q0 20 14.5 41t36 38.5t48 27.5t53.5 10q39 0 56 -38t32 -85l12 -41q33 -123 104.5 -257t184.5 -259q4 10 7 28.5t5 39.5l-18 446q-4 113 -8.5 223.5t-8.5 223.5q0 37 19.5 71.5t50.5 62t71.5 45t83.5 17.5q29 0 29 -53q0 -23 -1 -64t-3 -88q-2 -41 -2 -75.5v-51.5 l-4 -905l6 -6q2 -2 2 -4q23 8 50.5 47t56 97.5t55.5 130t47 145.5q23 92 38 149.5t19 71.5q53 145 158 145q35 0 64.5 -18t51 -49t33 -72t11.5 -86q0 -49 -26.5 -94t-65.5 -45q-25 0 -142 147q-10 -12 -21 -34.5t-18 -40.5l-26 -115q-29 -117 -100.5 -255t-168.5 -274v-92 q0 -20 1.5 -37.5t1.5 -33.5v-33q0 -150 -27 -264.5t-73 -192.5t-110.5 -118t-138.5 -40q-61 0 -61 52q0 6 47 30l51 25q82 49 82 383v55v64t-2 86v42.5t4 45.5h2q-143 94 -263 247.5t-214 333.5q-39 74 -62.5 141.5t-23.5 108.5z" />
<glyph unicode="&#x472;" horiz-adv-x="1421" d="M43 109q0 119 70 118h329q-72 117 -110.5 237t-38.5 236q0 240 211 504q160 193 272 193q27 0 62.5 -21.5t74.5 -56.5q137 -127 212 -275.5t75 -308.5q0 -129 -47 -261t-123 -247h332q70 0 70 -116q0 -98 -25 -174q-37 -109 -129 -109q-106 0 -107 147v179h-196 q-72 -80 -137.5 -129.5t-110.5 -49.5t-106.5 47.5t-126.5 131.5h-187v-179q0 -147 -106 -147q-90 0 -131 109q-12 39 -19.5 81.5t-7.5 90.5zM479 864q0 -385 254 -606q76 -70 115 -70q80 0 129 138q18 49 26.5 103.5t8.5 113.5q0 188 -60.5 337.5t-167.5 247.5 q-35 29 -62.5 45.5t-43.5 16.5q-37 0 -74 -32t-69 -91q-27 -49 -41.5 -101.5t-14.5 -101.5z" />
<glyph unicode="&#x473;" horiz-adv-x="1052" d="M45 -74q0 111 30.5 156t92.5 45q37 0 90 -27q27 -10 51 -10q25 0 66 -6q-59 76 -98 170t-39 195q0 92 98 292q106 211 205 211q57 0 141 -82q170 -170 170 -372q0 -37 -12.5 -91.5t-36 -114t-55 -118.5t-68.5 -104l61 10h9l2 -2q4 0 12 2t18 6q2 0 3 1t3 1q4 2 19 2 q10 0 28.5 4t41.5 8q45 10 67 11q59 0 73.5 -23.5t14.5 -89.5q0 -82 -41 -172q0 -14 -8 -31q-20 -49 -36.5 -72.5t-63.5 -23.5q-35 0 -63.5 22.5t-28.5 51.5q0 12 4 38.5t8 55.5t8 55.5t4 40.5q0 51 -57 51q-31 0 -52.5 -2t-41.5 -6q-14 -4 -35 -6t-39 -2q-12 -4 -28.5 -8 t-33.5 -4q-33 0 -55 16h2q-92 6 -145 6q-20 0 -41 -22.5t-37 -61.5l-12 -76q-4 -20 -6.5 -38.5t-4.5 -36.5q-16 -41 -36.5 -57.5t-55.5 -16.5q-47 0 -69.5 53t-22.5 172zM408 537q0 -207 120 -310q49 -43 66 -43q78 0 78 166q0 94 -28 182.5t-62 143.5q-33 41 -65 64.5 t-58 23.5q-51 0 -51 -227z" />
<glyph unicode="&#x474;" horiz-adv-x="1042" d="M49 1331q0 70 131 70q59 0 76 -8q37 -20 43 -58q27 -129 51.5 -257t50.5 -251q29 -137 53.5 -262t53.5 -268q41 250 82 454.5t86 389.5q68 279 215 278q37 0 68.5 -34.5t54.5 -96.5q18 -53 29.5 -100t11.5 -82q0 -25 -7.5 -57.5t-19.5 -71.5q-31 -96 -86 -96 q-31 0 -86 112q-12 25 -22.5 45.5t-16.5 36.5q-8 18 -14 31q-16 -10 -34.5 -71.5t-39.5 -149.5q-20 -92 -39.5 -195.5t-38 -204t-34 -192.5t-23.5 -166q-8 -61 -21.5 -95t-33.5 -34h-109q-111 0 -127 76l-252 1235v10q0 2 -1 4t-1 8z" />
<glyph unicode="&#x475;" horiz-adv-x="897" d="M41 903q0 47 133 47q37 0 61.5 -12t28.5 -33l78 -325q23 -94 44.5 -176t43.5 -185q27 135 49.5 232.5t38.5 152.5q51 172 113.5 261t132.5 89q61 0 106 -82q18 -35 29.5 -69.5t11.5 -57.5q0 -16 -8 -41.5t-18 -48.5q-29 -61 -74 -61q-16 0 -34.5 19.5t-41.5 54.5l-12 22 q-33 53 -31 53q-20 0 -100 -290q-35 -129 -55.5 -219.5t-28.5 -147.5q-2 -4 -2 -10t-2 -17q0 -4 -1 -10t-1 -8q0 -4 -1 -6t-1 -4v-8q-6 -25 -43 -25l-135 2q-23 0 -41.5 13.5t-28.5 35.5q-16 41 -48 146.5t-73 273.5q-43 180 -66.5 291.5t-23.5 142.5z" />
<glyph unicode="&#x476;" horiz-adv-x="1042" d="M70 1320v11q0 70 131 70q59 0 75 -8q37 -20 43 -58q31 -174 61 -337.5t60 -327.5l68 -371q41 242 82 436.5t86 374.5q35 133 89 206t126 73q37 0 68.5 -35t54.5 -94q18 -53 29.5 -100.5t11.5 -84.5q0 -25 -7.5 -56.5t-19.5 -72.5q-31 -94 -86 -94q-31 0 -86 111 q-14 29 -23.5 49t-15.5 35l-14 28q-27 -14 -74 -221q-43 -193 -79 -385.5t-56 -341.5q-8 -61 -21.5 -95t-33.5 -34h-109q-113 0 -127 76l-231 1235q-2 4 -2 11zM127 1825h242l57 -328l-102 2zM479 1825h242l59 -328l-104 2z" />
<glyph unicode="&#x477;" horiz-adv-x="897" d="M43 901q0 47 133 47q37 0 61.5 -12t28.5 -33l76 -315q23 -94 44.5 -180t43.5 -189q27 135 49.5 232.5t38.5 152.5q51 172 113.5 261t132.5 89q61 0 106 -82q18 -35 29.5 -69.5t11.5 -57.5q0 -16 -8 -41.5t-18 -48.5q-29 -61 -74 -61q-16 0 -34.5 19.5t-41.5 54.5l-12 22 q-33 53 -31 53q-20 0 -100 -290q-35 -129 -55.5 -219.5t-28.5 -147.5q-2 -4 -2 -10t-2 -17q0 -4 -1 -10t-1 -8q0 -4 -1 -6t-1 -4v-8q-6 -25 -43 -25l-135 2q-23 0 -41.5 13.5t-28.5 35.5q-16 41 -48 146.5t-73 273.5q-43 180 -65.5 290.5t-22.5 141.5zM102 1391h222l61 -344 l-84 2zM442 1391h222l61 -344l-84 2z" />
<glyph unicode="&#x478;" horiz-adv-x="1894" d="M57 707q0 240 209 501q74 92 142.5 142.5t121.5 50.5q49 0 134 -78q137 -129 208.5 -275.5t71.5 -306.5q0 -197 -85 -368.5t-243 -317.5q-37 -35 -72.5 -52t-62.5 -17q-59 0 -143 84q-139 141 -210 298.5t-71 338.5zM227 872q0 -383 254 -616q82 -74 119 -74 q86 0 135 142q39 106 39 225q0 190 -61.5 341.5t-167.5 254.5q-35 29 -65 46t-48 17q-80 0 -147 -125q-57 -106 -58 -211zM987 848q0 16 16.5 38.5t38.5 45.5l9 6q18 16 28.5 20.5t38.5 4.5q33 0 62 -84q16 -51 28.5 -108.5t22.5 -113.5l8 -39q10 -59 20.5 -109t20.5 -73 q27 -53 54.5 -99t60.5 -85v53q0 39 6 92.5t17.5 110.5t28.5 114.5t42 106.5q112 223 268 223q70 0 141 -86h3q-10 -160 -29 -221t-47 -61q-25 0 -41.5 20.5t-32.5 48.5l-8 13q-12 23 -27.5 46t-30 42.5t-29 31t-26.5 11.5t-31.5 -39t-39 -123t-35 -219t-19.5 -326 q-6 -113 -9 -191.5t-5 -134.5v-26q-2 -59 -5 -102.5t-12.5 -85.5t-26.5 -92t-44 -124q-10 -29 -30.5 -49t-44 -32.5t-47.5 -17.5t-40 1q-47 16 -55 42t-4 44q0 2 1 3t1 3q63 100 102 170t59.5 135.5t26.5 140t8 183.5v29.5t2 31.5q-29 4 -65.5 27t-89.5 96q-70 104 -116 208 t-73.5 197t-39 171t-11.5 131z" />
<glyph unicode="&#x479;" horiz-adv-x="1585" d="M47 449q0 94 100 292q104 211 203 211q59 0 142 -82q170 -163 170 -372q0 -127 -93 -308q-104 -203 -231 -202q-72 0 -170 116q-121 145 -121 345zM217 537q0 -98 32 -177t89 -133q49 -43 65 -43q78 0 78 166q0 94 -27.5 182.5t-62.5 143.5q-33 41 -64.5 64.5t-58.5 23.5 q-51 0 -51 -227zM647 848q0 16 16.5 38.5t38.5 45.5q2 2 5.5 5t7.5 5q14 12 24.5 16.5t36.5 4.5q37 0 62 -84q16 -53 29.5 -113.5t23.5 -118.5l4 -22q12 -63 23.5 -114.5t21.5 -74.5q29 -59 55.5 -104t57.5 -80v53q0 39 6 92.5t18.5 110.5t30.5 114.5t41 106.5 q53 106 122.5 164.5t145.5 58.5q70 0 142 -86h2q-10 -160 -29 -221t-47 -61q-25 0 -41.5 20.5t-32.5 48.5l-8 13q-12 23 -27.5 46t-30 42.5t-28.5 31t-27 11.5q-12 0 -32.5 -39t-40 -123t-35 -219t-19.5 -326q-6 -117 -9 -196.5t-5 -135.5v-28q-2 -59 -5 -101.5t-12.5 -84.5 t-25.5 -91t-43 -119q-12 -27 -32.5 -47t-44 -33.5t-47.5 -18.5t-38 1q-29 8 -42 19.5t-18 21.5t-4 19.5t3 17.5q4 8 4 14q63 100 101 170t58.5 135.5t27.5 140t7 183.5v10q0 4 -1 9.5t-1 11.5l6 30q-29 4 -66.5 26t-88.5 97q-70 104 -116 208t-73.5 197t-39 171t-11.5 131z " />
<glyph unicode="&#x47a;" horiz-adv-x="1519" d="M45 729q0 240 141 404q53 61 151.5 123.5t219.5 113.5q168 70 231 70q41 0 117 -27q170 -63 244 -98q381 -201 381 -586q0 -410 -279 -602q-68 -47 -303 -123q-133 -43 -160 -43t-60.5 7t-68.5 20l-16 6q-10 4 -21.5 7t-21.5 7q-2 0 -4 1t-4 1l-51 21q-113 39 -205 104.5 t-156.5 153.5t-99.5 198.5t-35 241.5zM305 725q0 -360 154 -541q68 -80 108 -80q35 0 103 31q67 33 118 33q23 0 53.5 -8t61.5 -25q33 -14 60.5 -22.5t44.5 -8.5q55 0 131 111q57 98 95 232.5t38 277.5q0 86 -16.5 174t-43.5 168q-41 94 -94 155.5t-112 61.5q-33 0 -103 -43 q-76 -41 -115 -41q-43 0 -114 41q-74 43 -105 43q-125 0 -204 -219q-31 -84 -45.5 -168t-14.5 -172z" />
<glyph unicode="&#x47b;" horiz-adv-x="1376" d="M47 467q0 229 227 369q195 119 443 118q319 0 504 -166q166 -147 165 -321q0 -119 -61 -210t-157.5 -152.5t-215 -92t-235.5 -30.5t-236 30.5t-216 92t-157.5 151.5t-60.5 211zM324 467q0 -80 31.5 -154.5t86 -131t126 -91.5t149.5 -35q80 0 151.5 34t125 90.5t85 131 t31.5 156.5q0 86 -30.5 160.5t-84 130t-125 86t-153.5 30.5t-153.5 -30.5t-125 -86t-84 -130t-30.5 -160.5z" />
<glyph unicode="&#x47c;" horiz-adv-x="1947" d="M84 731q0 78 23.5 187.5t74.5 226.5q113 258 264 258q176 0 177 -107q0 -74 -36 -114.5t-106 -40.5q-63 0 -104 -51.5t-65.5 -120t-35 -140t-10.5 -114.5q0 -37 10.5 -96.5t31 -127t49 -136t65.5 -123t82 -89t96 -34.5q27 0 62.5 20.5t74.5 57t78 87t70 109.5l12 23 q10 18 26.5 31.5t63.5 13.5t68.5 -21.5t38.5 -50.5q25 -47 57.5 -95t69 -87t77.5 -63.5t84 -24.5q156 0 231 146t75 413q0 150 -57.5 333t-145.5 377q0 2 2 6q2 10 10 16.5t43 6.5q102 0 238 -250q70 -129 104.5 -259t34.5 -234q0 -123 -33 -239t-90 -212 q-72 -113 -171 -171t-226 -58q-123 0 -226.5 65.5t-181.5 169.5q-86 -104 -181 -169.5t-196 -65.5q-129 0 -232.5 67.5t-174.5 192.5q-59 109 -90 231.5t-31 255.5zM457 1673q4 43 75 125q176 199 424 193q63 -2 123 -21.5t114 -49.5t105.5 -65.5t98.5 -72.5l41 -29 q39 -29 73.5 -45t63.5 -27l20 -8q10 -4 20.5 -7t16.5 -7h-2q-16 2 -25.5 -19.5t-11.5 -27.5q-27 6 -59.5 19.5t-66 29.5t-64.5 35.5t-51 36.5q-98 72 -198.5 108.5t-199.5 36.5q-41 2 -86 -8t-98 -35q-111 -45 -113 -109q0 -4 -5 -13t-9 -17q-8 -20 -8 -29v-10t2 -10 q-14 -10 -45 -13.5t-78 -1.5q-57 0 -57 41zM803 1686q37 25 68.5 39t58.5 24q53 20 104 20q45 0 75 -19t44 -52q14 -37 14 -80q0 -39 -18 -82q-4 -10 -29.5 -31.5t-59.5 -40t-70.5 -27.5t-61.5 5q-16 10 4 26.5t51 36.5q29 18 53.5 39t24.5 43q-4 41 -24.5 57.5t-53.5 16.5 q-41 0 -102 -23l-52 -24zM1628 1659h2l12 -8h-4zM1640 1651l7 -4h-2z" />
<glyph unicode="&#x47d;" horiz-adv-x="1449" d="M80 477q0 31 8 77t24.5 99.5t39 105.5t53.5 95t66.5 69.5t76.5 26.5q131 0 131 -69q0 -51 -30 -76q-4 -4 -19.5 -7t-34.5 -7q-16 -4 -33.5 -9.5t-29.5 -19.5q-14 -16 -26.5 -47t-21 -71t-13.5 -88t-5 -97q0 -43 12.5 -108.5t37 -128t61.5 -107.5t84 -45q18 0 41.5 15 t50.5 41t51.5 60.5t46.5 73.5q4 4 4 10q12 23 25.5 33t58.5 10q43 0 57.5 -12t30.5 -35q18 -33 41 -67.5t48.5 -63.5t53 -47t54.5 -18q88 0 141.5 96t53.5 270q0 98 -36 233.5t-100 264.5q4 10 13.5 15t44.5 5q39 0 73.5 -31.5t65.5 -80.5t56.5 -110.5t43 -119t27.5 -105.5 t10 -73q0 -92 -27.5 -174t-78.5 -143.5t-121 -96t-154 -34.5q-94 0 -165.5 41t-131.5 114q-63 -74 -129.5 -114.5t-140.5 -40.5q-84 0 -155.5 40t-124 107.5t-81 156.5t-28.5 187zM178 1247q0 41 76 127h-2q168 193 412 193q66 0 126 -18.5t115.5 -47t106.5 -64.5t100 -73 l37 -27q37 -29 70.5 -46t62.5 -27l16 -7q23 -10 41.5 -18t28.5 -16l6 -2q0 -4 -23.5 -15.5t-37.5 -15.5q-27 4 -58.5 16.5t-64.5 29.5t-63.5 36.5t-53.5 36.5q-96 66 -200.5 106.5t-196.5 40.5q-43 0 -89 -14.5t-88 -37t-75 -50t-47 -51.5q-6 -10 -8 -22.5t-2 -25.5 q0 -8 -1 -16t-8 -22q-4 -6 -24.5 -7.5t-52.5 -1.5h-19q-41 0 -62.5 6.5t-21.5 32.5zM524 1262q55 37 119 60.5t111 23.5q68 0 101.5 -44.5t33.5 -107.5q0 -39 -19 -82q-4 -8 -23.5 -24.5t-46 -33t-58 -28.5t-58.5 -12q-25 0 -37 6l-14 6q0 8 24.5 24.5t49.5 32.5 q29 18 52 39t23 41q0 41 -22.5 57.5t-54.5 16.5q-27 0 -70 -11.5t-84 -33.5z" />
<glyph unicode="&#x47e;" horiz-adv-x="1675" d="M82 956q0 438 151 439q152 0 152 -58q0 -18 -5 -44.5t-13 -55.5l-23 -76q-6 -18 -6 -20q-12 -55 -12 -176q0 -160 27.5 -301.5t82.5 -264.5q61 -141 103 -147q-6 6 16 53q14 33 41 91.5t80 156.5q82 150 125 244t43 127v20q2 37 -2 91.5t-39 121.5q-86 174 -86 203 q0 35 104 35q53 0 79 -10.5t48 -32.5q66 -68 109 -257.5t98 -502.5l14 -86q10 -37 26.5 -68.5t33 -55.5t32 -37t21.5 -13q37 0 109 231q66 213 65 291q0 55 -10 121.5t-27 130.5q-16 55 -38.5 119.5t-39.5 120.5q0 2 -1 3t-1 5q0 41 107 41q92 0 135 -33q76 -64 76 -330 q0 -104 -31 -231t-90 -260q-39 -86 -101.5 -202t-140.5 -245q-33 -51 -70.5 -79.5t-76.5 -28.5q-25 0 -45.5 34.5t-37.5 87t-30.5 113t-23.5 111.5q-8 37 -15.5 69.5t-11.5 49.5q-14 37 -23.5 71.5t-17.5 65.5l-8 30q-16 76 -33 109q-37 -39 -83 -118t-99 -193 q-33 -88 -67 -179.5t-64 -179.5q-41 -72 -88 -71q-53 0 -150 137q-268 381 -268 833zM233 1735q-2 23 10.5 33t32.5 10h1147q20 0 32.5 -12.5t10.5 -34.5q-23 -35 -75 -156l-13 -29q-16 -35 -51 -35q-16 0 -32.5 19.5t-32.5 50.5q-16 29 -46 53.5t-75 38.5q-86 31 -160 31 q2 0 0 -12.5t-6 -22.5q-2 -12 -2 -31.5v-35.5q0 -18 -7.5 -32t-11.5 -18h23q0 -53 -49 -53h-152q-43 0 -47 72h6q-2 16 -3 39.5t-1 52.5q0 43 -8 43q-72 0 -162 -29q-100 -33 -119 -92q-27 -70 -69 -69q-37 0 -51 30z" />
<glyph unicode="&#x47f;" horiz-adv-x="1320" d="M29 836q0 55 26 88h-2q20 25 101 24q86 0 102 -121l18 -155l17 -148q16 -57 45 -121.5t74 -123.5q29 45 69.5 161.5t89.5 280.5q-35 72 -57.5 126t-22.5 66q0 35 107 35q98 0 156 -82q29 -41 63.5 -124t69.5 -181l106 -317q4 -6 6 -13.5t-2 -9.5q31 0 66 121 q27 92 26 166q0 76 -9 144.5t-27 117.5q-55 147 -56 150q0 29 113 28q117 0 156 -67q27 -47 26 -158v-59q0 -92 -28.5 -193.5t-87.5 -212.5q-72 -131 -149 -202.5t-155 -71.5q-45 0 -79 149q-55 250 -158 445q-37 -86 -62.5 -163t-42.5 -130q-10 -35 -24.5 -89.5 t-36.5 -121.5q-31 -90 -94 -90q-29 0 -66 34.5t-74 90.5q-96 160 -150 349t-54 378zM176 1286q0 43 12 72q20 31 101 31h659q84 0 84 -76q0 -53 -18 -111q-10 -35 -30.5 -55.5t-45.5 -20.5q-37 0 -59 54q-16 45 -26.5 69.5t-14.5 30.5q-18 23 -39 38t-39 15q-63 0 -64 -69 v-187q0 -74 -98 -73q-88 0 -88 73v191q0 68 -53 67q-55 0 -99 -53q-4 -10 -15 -35.5t-28 -66.5q-23 -53 -67 -54q-23 0 -37 18.5t-23 49.5q-12 49 -12 92z" />
<glyph unicode="&#x480;" horiz-adv-x="1103" d="M117 662q0 117 33.5 231.5t93.5 208.5q72 109 170 165t221 56q463 0 463 -326q0 -112 -113 -112q-57 0 -96 14t-58 37q-10 12 -15 44t-9 77q-10 90 -47 137h2q-55 61 -117 61q-137 0 -205 -249q-45 -160 -45 -375q0 -86 15.5 -172t50.5 -172q86 -223 211 -224 q35 0 60.5 19.5t41.5 54.5l41 139q25 74 96 74q94 0 123 -35q10 -14 16.5 -41.5t6.5 -64.5q0 -115 -160 -211h2q-4 -102 -14.5 -192.5t-24.5 -167.5q-49 -276 -155 -277q-98 0 -130 18q-43 31 -43 115q4 8 33 51t82 119q41 59 76 144.5t57 183.5q-664 18 -663 670z" />
<glyph unicode="&#x481;" horiz-adv-x="819" d="M61 475q0 92 25 165t74 146q111 166 301 166q360 0 360 -260q1 -112 -114 -112q-109 0 -138 41q-16 25 -22 92q-2 35 -8.5 59.5t-16.5 36.5h2q-33 33 -55 33q-74 0 -113 -168q-16 -57 -22 -106.5t-6 -114.5q0 -47 12 -107.5t29 -114.5q53 -150 118 -149q31 0 48 51 q2 12 4 24.5t6 24.5l12 49q23 53 98 54q82 0 110 -30t28 -101q0 -94 -113 -166h2q-4 -76 -13.5 -142.5t-21.5 -126.5q-43 -195 -137 -194q-88 0 -117 22q-18 16 -29.5 44t-11.5 63q0 14 88 135q27 35 45.5 82t32.5 100q-457 23 -457 504z" />
<glyph unicode="&#x482;" horiz-adv-x="653" d="M33 219q0 70 73 70q57 0 99 -29q4 8 9 13.5t11 13.5l27 32h2q-106 63 -107 107q0 29 29 48.5t64 19.5q41 0 106 -48q72 63 134.5 100.5t103.5 37.5q51 0 51 -37q0 -8 -55.5 -49t-155.5 -113q86 -63 86 -100q0 -72 -76 -72q-39 0 -100 49l-47 -57h-2q109 -74 108 -119 q0 -29 -21.5 -52.5t-56.5 -23.5q-49 0 -98 41q-6 -16 -11 -40.5t-5 -53.5t13 -68t36 -86q12 -25 22.5 -44t16.5 -33q8 -16 14 -27q0 -82 -121 -82q-139 0 -139 238q0 57 23 135q10 33 30.5 65.5t40.5 53.5q-104 53 -104 110z" />
<glyph unicode="&#x483;" horiz-adv-x="0" d="M-834 1110v152q0 59 30 93t79 36h451q37 0 61.5 22.5t34.5 56.5q2 14 2 45t-2 72h147v-174q0 -96 -94 -106h-475q-49 -2 -67.5 -29t-18.5 -76v-92h-148z" />
<glyph unicode="&#x484;" horiz-adv-x="0" d="M-276 995q0 66 92 146q86 70 168 69q39 0 86 -20.5t100 -56.5q57 -41 90 -79t33 -67q0 -12 -37 -31l-98 80q-92 74 -172 74q-33 0 -62.5 -19.5t-52.5 -48.5q-10 -51 -10 -65l-4 -6q-27 -16 -80 -17q-53 0 -53 41z" />
<glyph unicode="&#x485;" horiz-adv-x="0" d="M-641 1378q0 115 190 115q35 0 71 -3t75 -13v-72q-18 4 -29.5 4h-21.5q-72 0 -101.5 -22.5t-29.5 -69.5q0 -61 42 -116.5t138 -106.5l-2 -37h-25q-29 14 -65.5 37.5t-71.5 48t-64.5 47t-42.5 37.5q-29 33 -46 69.5t-17 81.5z" />
<glyph unicode="&#x486;" horiz-adv-x="0" d="M-512 1417v72q78 16 145 16q190 0 191 -114q0 -84 -64 -154q-14 -14 -48 -40t-74.5 -52.5t-80.5 -50t-65 -33.5l-2 43q96 53 139 108.5t43 114.5q0 47 -30.5 70.5t-102.5 23.5h-21.5t-29.5 -4z" />
<glyph unicode="&#x487;" horiz-adv-x="0" d="M-1120 1214q0 41 73 127q168 193 412 193q66 0 128.5 -19.5t120.5 -50t111.5 -69.5t102.5 -76l22 -16q43 -35 81 -51.5t67 -26.5q25 -10 46.5 -19.5t29.5 -15.5l2 -2q0 -6 -23.5 -17.5t-38.5 -15.5q-27 6 -58.5 19.5t-64 30t-63.5 36t-53 35.5q-94 66 -199.5 106.5 t-198.5 40.5q-43 0 -89 -14t-88 -36.5t-74.5 -50.5t-47.5 -52q-8 -16 -8 -43q0 -20 -8 -43q-4 -8 -55 -8h-43q-41 0 -62.5 5t-21.5 33z" />
<glyph unicode="&#x488;" horiz-adv-x="833" d="M-1716 365q12 92 84 163q63 68 176 68q213 0 266 -231h-84q-49 113 -182 112q-137 0 -180 -112h-80zM-1485 877q35 231 260 231q211 0 267 -231h-80q-51 113 -187 112q-141 0 -180 -112h-80zM-1483 -176q33 227 260 227q211 0 267 -227h-82q-53 111 -185 110 q-141 0 -180 -110h-80zM-694 1245q6 49 27.5 89t56.5 75q63 68 176 68q213 0 266 -232h-84q-49 115 -182 115q-137 0 -180 -115h-80zM-686 -539q35 231 260 232q211 0 266 -232h-80q-51 113 -186 113q-141 0 -180 -113h-80zM84 -176q33 227 260 227q211 0 266 -227h-80 q-53 111 -186 110q-141 0 -180 -110h-80zM84 877q35 231 260 231q211 0 266 -231h-80q-51 113 -186 112q-141 0 -180 -112h-80zM287 365q12 92 84 163q63 68 176 68q213 0 266 -231h-84q-49 113 -182 112q-137 0 -180 -112h-80z" />
<glyph unicode="&#x489;" horiz-adv-x="806" d="M-1665 369l27 45q98 -39 153 -39q63 0 64 33v2q0 2 2 6h2l-21 18q-39 53 -39 84q0 37 36 60.5t77 23.5q63 0 92 -39q31 -41 31 -82q0 -76 -78 -125q-29 -18 -67.5 -29.5t-83.5 -11.5q-102 0 -195 54zM-1356 -432l2 45q162 16 201 86q0 2 2 5t2 5h2l-6 8h-8l-72 50 q-27 20 -27 57q0 14 10.5 32.5t26.5 32.5q31 27 76 27q61 0 98 -39q23 -25 32 -47.5t9 -44.5q0 -96 -106 -166q-86 -53 -205 -53zM-1303 1114q0 35 7 70l77 -13q0 -29 3.5 -58.5t11.5 -61.5q10 -35 21.5 -61.5t21.5 -26.5l8 4l-16 4q0 2 1 3t1 3q66 82 116 82q55 0 80 -33 h-2q16 -18 25.5 -34.5t9.5 -33.5q0 -41 -47 -81q-23 -16 -46 -25.5t-54 -9.5q-53 0 -95.5 24.5t-70.5 69.5q-23 37 -37.5 85t-14.5 93zM-596 1368q0 166 219 270l23 -47q-131 -94 -131 -176v-14l8 4h2q2 0 6 2h20q125 0 125 -88q1 -102 -118 -102q-76 0 -111 45h2 q-25 27 -35 53t-10 53zM-549 -379q0 100 119 100q70 0 111 -45q43 -49 43 -106q0 -162 -216 -268l-28 47q133 90 133 174q0 12 2 14l-10 -4q-2 0 -8 -2h-21q-125 0 -125 90zM111 993q0 41 23.5 83t62.5 81q31 29 80 53.5t108 40.5l12 -45q-166 -73 -166 -151q0 -8 5 -13l4 2 q135 -35 135 -90q0 -43 -32 -73.5t-83 -30.5q-66 0 -104 43q-25 27 -35 52.5t-10 47.5zM115 -223q0 43 47 84q39 33 100 33q106 0 166 -93q51 -82 51 -178q0 -16 -1 -34.5t-3 -34.5l-80 12q0 78 -14 130t-37 75q-4 -4 0 -4q0 -2 -1 -3.5t-1 -3.5v-4l-33 -37 q-23 -18 -43 -29.5t-43 -11.5q-47 0 -73 31q-35 35 -35 68zM344 463q0 27 13.5 53.5t41.5 48.5q49 39 121 39q172 0 273 -143l-52 -45q-119 119 -178 119q-8 0 -12 -21h-2l12 -12q8 -47 8 -53q0 -92 -112 -93q-47 0 -80 31t-33 76z" />
<glyph unicode="&#x490;" horiz-adv-x="933" d="M115 23l4 1368l450 2q76 0 125 71q12 20 25.5 60.5t23.5 99.5q25 121 58 176q102 -113 102 -344q0 -4 -1 -9t-1 -9v-49h-2q-55 -86 -260 -86h-32.5t-39.5 2q-4 0 -12 1t-14 1h-37q-51 0 -86 -12.5t-53 -32.5q-10 -16 -17.5 -57.5t-7.5 -102.5v-350q0 -49 1 -102.5 t1 -106.5q0 -66 1 -142.5t1 -149.5v-133.5v-92.5q0 -25 -72 -25h-127q-31 10 -30 23z" />
<glyph unicode="&#x491;" horiz-adv-x="858" d="M141 25v897q0 16 29 16h405q53 0 89 80q8 23 16 60.5t16 88.5q10 82 58 88q102 -250 102 -301q0 -2 -18 -30q-4 -4 -4 -6q-66 -37 -154 -46l-145 -14q-59 -10 -100.5 -22.5t-51.5 -24.5q-6 -10 -13.5 -52t-11.5 -118v-39v-127t2 -176q0 -29 1 -55.5t1 -50.5v-166 q0 -27 -49 -27h-143q-29 0 -29 25z" />
<glyph unicode="&#x4a4;" horiz-adv-x="1370" d="M80 74v1233q0 51 29 69q14 12 79 13q66 0 80 -15q23 -23 23 -67l-2 -232l379 -520q0 94 -1 185t-1 186v381q0 49 24 67q20 16 80 15h44h63.5t67.5 1t59 1h153q182 0 182 -121v-240q0 -27 -24.5 -50.5t-57.5 -23.5t-53 25h2q-16 12 -22 20.5t-8 16.5l-27 164 q-8 33 -21.5 67.5t-27.5 44.5q-14 8 -43 11.5t-64 3.5q-10 0 -19 -1t-20 -1h-80v-1233q0 -66 -49 -82q-8 -4 -23.5 -4h-31.5q-76 0 -92 22q-8 10 -10 25.5t-2 38.5l2 291q-49 66 -99.5 133t-99.5 133l-190 256l12 -813q0 -51 -20.5 -68.5t-82.5 -17.5q-25 0 -38 1t-23 3 q-47 16 -47 82z" />
<glyph unicode="&#x4a5;" horiz-adv-x="1124" d="M49 35v854q0 35 33 49q10 2 27.5 4t44.5 2q82 0 82 -55l-5 -154h-2l330 -360v508q0 55 90 55h322q133 0 133 -88v-137q0 -47 -49 -47q-43 0 -68 57q-35 92 -55 113q-35 47 -92 47h-92v-848q0 -39 -35 -51q-8 -4 -74 -4q-80 0 -80 55l4 241h2l-329 363v-604q0 -55 -93 -55 q-51 0 -63 6q-31 14 -31 49z" />
<glyph unicode="&#x4d0;" horiz-adv-x="1159" d="M0 39q0 25 38 129t107 276q16 43 42 97.5t59 124.5l57 125l55 120q25 51 62 142q8 20 17 41.5t20 44.5q10 35 10 61q0 41 -9 63.5t-22 32.5h2l-82 19q-35 8 -55 20.5t-20 26.5q0 37 196 37q68 0 129.5 -39t108.5 -115q33 -53 70.5 -143t66.5 -180l86 -281l215 -606h-2 l8 -8q0 -27 -57 -27h-117q-74 0 -104 88l-181 490l-211 -177q-51 -43 -107 -90t-103 -90h2q-14 -72 -27.5 -120t-15.5 -52q-31 -66 -150 -65q-88 0 -88 55zM295 1640q0 143 133 144q51 0 51 -15q0 -4 -8 -18t-16 -29q-6 -12 -11.5 -25.5t-5.5 -21.5q0 -57 109 -57q18 0 47 5 t59 15q27 10 55.5 24.5t45.5 27.5l51 55q39 35 67 35q39 0 39 -21q0 -18 -28 -57q-63 -80 -156.5 -133t-212.5 -53q-111 0 -165 35.5t-54 88.5zM307 342l365 315h-2l-142 385q-100 -244 -221 -700z" />
<glyph unicode="&#x4d1;" horiz-adv-x="942" d="M47 131q0 53 27.5 125t79.5 158q41 72 92 135t98 106h-2l-59 88q-53 82 -88 134.5t-35 58.5q0 20 127 20q53 0 87 -6t40 -16l256 -426q66 -109 130 -214.5t128 -209.5q20 -35 20 -64q0 -41 -112 -40q-84 0 -105 26q-16 27 -34.5 51.5t-34.5 48.5q-16 23 -32 47.5 t-32 47.5q-31 -35 -76 -72t-102 -70q-133 -76 -242 -75q-31 0 -56.5 14t-41.5 37q-14 23 -23.5 48.5t-9.5 47.5zM156 1159q0 143 135 144q49 0 49 -15q0 -4 -6 -17.5t-17 -27.5q0 -2 -1 -3t-1 -3q-6 -10 -11 -21.5t-5 -21.5q0 -55 109 -55q45 0 108 20q61 18 98 51l54 54 q35 35 67 34q39 0 39 -18q0 -20 -31 -57q-63 -78 -156 -132.5t-210 -54.5q-111 0 -166 36t-55 87zM254 262q0 -104 86 -104q63 0 119.5 30.5t103.5 83.5l-180 316q-20 -25 -40.5 -63t-41.5 -81q-23 -53 -35 -100t-12 -82z" />
<glyph unicode="&#x2000;" />
<glyph unicode="&#x2001;" horiz-adv-x="2048" />
<glyph unicode="&#x2002;" />
<glyph unicode="&#x2003;" horiz-adv-x="2048" />
<glyph unicode="&#x2004;" horiz-adv-x="681" />
<glyph unicode="&#x2005;" horiz-adv-x="512" />
<glyph unicode="&#x2006;" horiz-adv-x="342" />
<glyph unicode="&#x2007;" horiz-adv-x="1036" />
<glyph unicode="&#x2008;" horiz-adv-x="301" />
<glyph unicode="&#x2009;" horiz-adv-x="174" />
<glyph unicode="&#x200a;" horiz-adv-x="83" />
<glyph unicode="&#x200b;" horiz-adv-x="0" />
<glyph unicode="&#x200c;" horiz-adv-x="0" />
<glyph unicode="&#x200d;" horiz-adv-x="0" />
<glyph unicode="&#x200e;" horiz-adv-x="0" />
<glyph unicode="&#x200f;" horiz-adv-x="0" />
<glyph unicode="&#x2010;" horiz-adv-x="681" d="M63 397v129h607v-129h-607z" />
<glyph unicode="&#x2011;" horiz-adv-x="681" d="M63 397v129h607v-129h-607z" />
<glyph unicode="&#x2012;" horiz-adv-x="681" d="M63 397v129h607v-129h-607z" />
<glyph unicode="&#x2013;" horiz-adv-x="999" d="M63 426v100h857v-100h-857z" />
<glyph unicode="&#x2014;" horiz-adv-x="2064" d="M86 532q0 27 25 43q8 6 55 7q41 0 69.5 -4.5t40.5 -14.5q27 -12 29 -55q4 -25 6 -44.5t2 -23.5q23 -37 76 -58.5t139 -21.5q94 0 216 6.5t260 18.5q117 12 239.5 24.5t239.5 22.5q147 14 255.5 21.5t166.5 7.5q55 0 59 -25l6 -133q-26 -10 -53 -10q-41 0 -74 49 q-16 23 -32.5 37t-32.5 14q-78 0 -201 -9t-295 -30l-446 -53q-256 -25 -451 -25q-166 0 -225 48q-74 61 -74 208z" />
<glyph unicode="&#x2015;" d="M-31 412v100h1086v-100h-1086z" />
<glyph unicode="&#x2016;" horiz-adv-x="1054" d="M209 -176v1866h207v-1866h-207zM672 -176v1866h207v-1866h-207z" />
<glyph unicode="&#x2018;" horiz-adv-x="518" d="M98 1057q0 154 148 264q47 35 69.5 46t40.5 11q16 0 28.5 -6t12.5 -16q0 -2 -16 -19l-16 -10q-74 -51 -110 -111.5t-36 -125.5q0 -57 12 -60l21 6l14 4q8 0 15 2q16 4 24 5q47 0 78 -27t31 -72q0 -47 -35 -76.5t-88 -29.5q-84 0 -138.5 60.5t-54.5 154.5z" />
<glyph unicode="&#x2019;" horiz-adv-x="518" d="M104 1272q0 47 34 76.5t89 29.5q82 0 137.5 -60.5t55.5 -154.5q0 -156 -150 -264q-47 -35 -69.5 -46t-40.5 -11q-16 0 -27.5 6t-11.5 16q0 6 14 19l19 10q76 51 110.5 111.5t34.5 125.5q0 59 -14 60q-4 0 -11 -2q2 0 -10 -4l-14 -4q-25 -6 -39 -6q-45 0 -76 26.5 t-31 71.5z" />
<glyph unicode="&#x201a;" horiz-adv-x="882" d="M322 84q0 47 34.5 76.5t87.5 29.5q86 0 139.5 -60t53.5 -153q0 -156 -148 -266q-47 -35 -69.5 -46t-40.5 -11q-16 0 -27.5 6t-11.5 16q0 6 12 17q4 4 9.5 6t9.5 6q72 57 108.5 114.5t36.5 123.5q0 59 -14 59l-17 -4l-2 -2l-18 -4h2q-16 -6 -37 -6q-47 0 -77.5 27.5 t-30.5 70.5z" />
<glyph unicode="&#x201b;" horiz-adv-x="485" d="M80 1202q0 72 48 127t132 55q61 0 99 -31.5t38 -84.5q0 -57 -43 -81t-100 -24q-10 0 -27 4q-16 4 -22 4q-4 0 -8 -9t-4 -19q0 -37 16 -70t40.5 -61.5t53.5 -51t53 -38.5l-20 -43q-49 23 -96 57.5t-82 76.5t-56.5 90t-21.5 99z" />
<glyph unicode="&#x201c;" horiz-adv-x="882" d="M98 1057q0 154 148 264q47 35 69.5 46t40.5 11q16 0 28.5 -6t12.5 -16q0 -2 -16 -19l-16 -10q-74 -51 -110 -111.5t-36 -125.5q0 -57 12 -60l21 6l14 4q8 0 15 2q16 4 24 5q47 0 78 -27t31 -72q0 -47 -35 -76.5t-88 -29.5q-84 0 -138.5 60.5t-54.5 154.5zM463 1057 q0 76 39 143.5t110 120.5q82 57 111 57q16 0 27.5 -6t11.5 -16q0 -6 -14 -19l-19 -10q-76 -51 -110.5 -110.5t-34.5 -126.5q0 -57 14 -60l20 6l15 4q8 0 14 2q16 4 25 5q45 0 75.5 -27t30.5 -72q0 -47 -33.5 -76.5t-89.5 -29.5q-82 0 -137 60.5t-55 154.5z" />
<glyph unicode="&#x201d;" horiz-adv-x="882" d="M123 1272q0 47 33.5 76.5t89.5 29.5q82 0 137 -60.5t55 -154.5q0 -76 -39 -143.5t-110 -120.5q-82 -57 -111 -57q-16 0 -27.5 6t-11.5 16q0 6 15 19l18 10q76 51 110.5 110.5t34.5 126.5q0 57 -14 60l-20 -6l-15 -4q-25 -6 -39 -6q-45 0 -75.5 26.5t-30.5 71.5zM487 1272 q0 47 35 76.5t88 29.5q84 0 138.5 -60.5t54.5 -154.5q0 -154 -148 -264q-47 -35 -69.5 -46t-40.5 -11q-41 0 -41 22q0 2 16 19l17 10q74 51 109.5 111.5t35.5 125.5q0 55 -12 60l-21 -6l-14 -4q-25 -6 -39 -6q-47 0 -78 26.5t-31 71.5z" />
<glyph unicode="&#x201e;" horiz-adv-x="882" d="M104 84q0 47 34 76.5t89 29.5q82 0 137.5 -60t55.5 -153q0 -78 -39 -144t-111 -122q-78 -57 -110 -57q-16 0 -27.5 6t-11.5 18q0 4 14 17l17 10q147 111 147 238q0 59 -14 59q-4 0 -11 -2q-2 0 -4 -1t-4 -1l-2 -2l-18 -4h2q-16 -6 -37 -6q-45 0 -76 27.5t-31 70.5z M469 84q0 47 34 76.5t89 29.5q84 0 138 -60t54 -153q0 -156 -147 -266q-82 -57 -111 -57q-16 0 -27.5 6t-11.5 16t19 21l12 8q72 57 109 114.5t37 123.5q0 59 -15 59q-2 0 -8 -2l-29 -8h2q-16 -6 -36 -6q-49 0 -79 27.5t-30 70.5z" />
<glyph unicode="&#x201f;" horiz-adv-x="882" d="M123 1163q0 94 54 154.5t138 60.5q55 0 89 -29.5t34 -76.5q0 -45 -30.5 -71.5t-77.5 -26.5q-16 0 -24.5 1t-16.5 3l-8 6q-2 0 -3.5 1t-3.5 1l-16 4q-14 0 -14 -60q0 -66 34.5 -123t110.5 -114l17 -10q16 -16 16 -19q0 -10 -12.5 -16t-28.5 -6q-31 0 -109 57 q-72 53 -110.5 122t-38.5 142zM487 1163q0 94 55.5 154.5t137.5 60.5q55 0 89 -29.5t34 -76.5q0 -45 -31 -71.5t-76 -26.5h-13t-15 2q-2 0 -4 1t-5 1l-12 6q-2 0 -3 1t-3 1l-16 4q-16 0 -17 -60q0 -68 36 -125t110 -112l18 -10q14 -12 14 -19q0 -10 -11 -16t-27 -6 q-31 0 -109 57q-72 53 -112 119.5t-40 144.5z" />
<glyph unicode="&#x2020;" horiz-adv-x="874" d="M-16 745q0 66 75 66q31 0 74 -5t96 -18q96 -20 150 -20v10q0 84 -25 244t-24 242q0 18 30 41q18 4 34 6t26 2q61 0 76 -10q35 -14 34 -64q0 -37 -5 -93t-19 -134q-12 -76 -17.5 -132.5t-5.5 -97.5v-12h4q2 0 4.5 1t4.5 1q16 2 31.5 5t31.5 5q92 16 162 25.5t102 9.5 q57 0 58 -117q0 -53 -66 -53q-35 0 -79 5t-99 16l-39 6l-68 12l-49 8v-12q-6 -72 -6 -152q0 -78 8.5 -198.5t24.5 -280.5q16 -162 25.5 -281.5t9.5 -199.5q0 -70 -105 -70q-66 0 -92 19q-20 14 -20 65q0 76 5 186.5t15 262.5q10 150 15.5 261.5t5.5 184.5q0 37 6 109 q4 25 6 55.5t2 48.5h-6q-53 0 -164 -24q-111 -25 -168 -25q-59 0 -59 102z" />
<glyph unicode="&#x2021;" horiz-adv-x="874" d="M14 18q0 47 52 66h26q33 0 73 -6t91 -17q61 -14 92 -20t51 -10l-49 370q0 18 4 51t8 64l21 117q0 2 3 44t11 114q-25 -4 -61.5 -12.5t-79.5 -18.5q-53 -12 -93 -19.5t-71 -7.5q-59 0 -65 27q-8 14 -9 59q0 68 60 68q61 0 170 -23q53 -10 89 -16t60 -8l-6 39q-2 10 -3 20 t-1 21l-14 108l-15 143q-4 33 -6 55.5t-2 26.5q0 63 99 64q88 0 88 -70q0 -37 -6.5 -87t-16.5 -116q-14 -72 -20.5 -123t-8.5 -81h-10q2 -2 10 -2h13q51 0 147 24h-2q98 27 160 27h12t27 -4l16 -21v-30q0 -4 1 -8.5t1 -8.5q0 -82 -57 -82q-23 0 -49.5 3t-55.5 12h2l-104 24 q-18 4 -45 8t-70 9q4 -47 11.5 -99.5t11.5 -99.5q10 -80 14 -130t4 -59q0 -29 -5 -73.5t-15 -98.5q-10 -53 -14.5 -99t-4.5 -75v-12t2 -14l43 10q12 2 24.5 4t25.5 6l43 10q45 12 86 18.5t75 6.5q8 0 17 -2q6 -2 12 -3t16 -1q33 -31 33 -92q0 -51 -65 -51q-33 0 -73 6 t-93 16q-55 12 -88 18.5t-58 8.5q4 -39 10.5 -100.5t16.5 -133.5q12 -84 18 -123q4 -23 7 -41q0 -82 -72 -82q-119 0 -119 48q0 31 8 69q12 51 13 70q4 49 11 122.5t21 166.5q-66 0 -159 -25q-104 -27 -156 -27q-68 0 -68 88z" />
<glyph unicode="&#x2022;" horiz-adv-x="747" d="M135 737q0 45 18.5 85t50.5 70t73.5 47t91.5 17q49 0 94 -17t77.5 -47t52 -70t19.5 -85q0 -47 -18.5 -88t-50 -71.5t-73.5 -48t-91 -17.5t-94 17.5t-78 48t-52.5 71.5t-19.5 88z" />
<glyph unicode="&#x2023;" horiz-adv-x="749" d="M145 162v934l529 -467z" />
<glyph unicode="&#x2024;" horiz-adv-x="499" d="M174 90q0 37 25 74q24 33 77 33q51 0 80 -35q25 -35 25 -72q0 -39 -25 -72q-29 -35 -80 -34q-49 0 -77 34q-25 33 -25 72z" />
<glyph unicode="&#x2025;" horiz-adv-x="1103" d="M174 90q0 37 25 74q24 33 77 33q51 0 80 -35q25 -35 25 -72q0 -39 -25 -72q-29 -35 -80 -34q-49 0 -77 34q-25 33 -25 72zM729 88q0 20 7 37.5t20 36.5q25 35 78 35t77 -35q25 -37 25 -74q0 -39 -25 -72q-25 -35 -77 -34q-51 0 -80 34q-25 37 -25 72z" />
<glyph unicode="&#x2026;" horiz-adv-x="1658" d="M174 90q0 37 25 74q24 33 77 33q51 0 80 -35q25 -35 25 -72q0 -39 -25 -72q-29 -35 -80 -34q-49 0 -77 34q-25 33 -25 72zM729 88q0 20 7 37.5t20 36.5q25 35 78 35t77 -35q25 -37 25 -74q0 -39 -25 -72q-25 -35 -77 -34q-51 0 -80 34q-25 37 -25 72zM1280 88q0 39 25 74 q29 35 77 35q51 0 80 -35q23 -31 23 -72t-23 -72q-29 -35 -80 -34q-53 0 -75 32q-27 39 -27 72z" />
<glyph unicode="&#x202f;" horiz-adv-x="398" />
<glyph unicode="&#x2039;" horiz-adv-x="544" d="M39 504l360 446h88l-231 -446l231 -449h-88z" />
<glyph unicode="&#x203a;" horiz-adv-x="544" d="M57 55l234 449q-29 53 -58.5 110.5t-58.5 112.5q-29 53 -58.5 111.5t-58.5 111.5h88l363 -446l-363 -449h-88z" />
<glyph unicode="&#x203b;" horiz-adv-x="1552" d="M80 127l567 567l-567 572l127 127l567 -572l569 572l127 -127l-567 -572l567 -567l-127 -127l-569 567l-567 -567zM82 692q0 51 40 85t95 34q57 0 96 -34t39 -85q0 -49 -39 -84t-96 -35q-55 0 -95 35t-40 84zM641 123q0 49 41 84t94 35q57 0 97 -35t40 -84 q0 -51 -39.5 -86t-97.5 -35q-53 0 -94 35t-41 86zM641 1268q0 49 41 83.5t94 34.5q57 0 97 -34.5t40 -83.5t-39.5 -84t-97.5 -35q-53 0 -94 35t-41 84zM1204 692q0 51 40 85t95 34t95.5 -34t40.5 -85q0 -49 -40 -84t-96 -35q-55 0 -95 35t-40 84z" />
<glyph unicode="&#x203e;" horiz-adv-x="1366" d="M-16 1427v113h1398v-113h-1398z" />
<glyph unicode="&#x203f;" horiz-adv-x="1509" d="M20 0h134q74 -57 142.5 -98t141 -68t152.5 -39t176 -12q94 0 174 12t152.5 39t141.5 68t142 98h133q-59 -94 -142 -159.5t-179 -106.5t-203.5 -59.5t-218.5 -18.5t-218.5 18.5t-204.5 59.5t-180 106.5t-143 159.5z" />
<glyph unicode="&#x2040;" horiz-adv-x="1509" d="M20 1366q61 94 143.5 159.5t178.5 107.5t204.5 60.5t219.5 18.5t217.5 -18.5t203.5 -60.5t179 -107.5t143 -159.5h-133q-74 57 -142.5 99t-141 69t-152.5 39t-174 12q-96 0 -176 -12t-152.5 -39t-141.5 -69t-142 -99h-134z" />
<glyph unicode="&#x2050;" horiz-adv-x="1509" d="M20 0h134q74 -57 142.5 -98t141 -68t152.5 -39t176 -12q94 0 174 12t152.5 39t141.5 68t142 98h133q-59 -94 -142 -159.5t-179 -106.5t-203.5 -59.5t-218.5 -18.5t-218.5 18.5t-204.5 59.5t-180 106.5t-143 159.5zM20 1366q61 94 143.5 159.5t178.5 107.5t204.5 60.5 t219.5 18.5t217.5 -18.5t203.5 -60.5t179 -107.5t143 -159.5h-133q-74 57 -142.5 99t-141 69t-152.5 39t-174 12q-96 0 -176 -12t-152.5 -39t-141.5 -69t-142 -99h-134z" />
<glyph unicode="&#x2053;" horiz-adv-x="966" d="M-53 432q147 123 317 123q80 0 209 -39q135 -41 197 -41q166 0 252 76l30 2l27 -29l14 -16q-20 -27 -63 -55.5t-113 -57.5q-55 -23 -108.5 -36t-98.5 -13q-90 0 -243 45q-78 23 -135.5 34t-94.5 11q-20 0 -71 -22q-2 -2 -12.5 -5t-14.5 -6q-20 -8 -33 -8q-27 0 -26 27h10 z" />
<glyph unicode="&#x2054;" horiz-adv-x="1509" d="M20 -344q59 94 142.5 159.5t180.5 106.5t204.5 59.5t218.5 18.5t218.5 -18.5t203.5 -59.5t179 -106.5t142 -159.5h-133q-74 57 -142.5 98t-141 67.5t-152.5 39t-174 12.5q-96 0 -176 -12.5t-152.5 -39t-141.5 -67.5t-142 -98h-134z" />
<glyph unicode="&#x2056;" horiz-adv-x="587" d="M90 410q0 16 7 36.5t18 36.5q27 39 78 39q53 0 90 -33q41 -36 41 -79q0 -41 -29 -80q-29 -35 -86 -35q-59 0 -88 35q-31 39 -31 80zM307 106q0 18 11.5 38t29.5 36q37 31 92 31q57 0 88 -39h-2q43 -49 43 -80q0 -45 -36.5 -70.5t-90.5 -25.5q-51 0 -92 35q-43 37 -43 75z M330 694q0 37 43 68q37 25 88 24q102 0 102 -96q0 -111 -98 -110q-57 0 -94 32q-41 41 -41 82z" />
<glyph unicode="&#x2058;" horiz-adv-x="845" d="M125 408q0 35 29 75q27 37 75 37q57 0 90 -35q39 -35 39 -77q0 -41 -26 -78q-31 -37 -86 -37q-57 0 -90 37q-31 37 -31 78zM338 104q0 41 43 78q33 27 92 27q51 0 88 -39q41 -47 41 -80q0 -94 -125 -94q-29 0 -52.5 9t-41.5 24q-45 39 -45 75zM338 758q0 33 47 65 q16 10 38.5 17.5t45.5 7.5q100 0 100 -94q0 -111 -96 -111q-55 0 -95 33t-40 82zM588 430q0 16 11 34.5t30 41.5q39 39 84 39q111 0 110 -99q0 -45 -30 -81q-30 -35 -91 -35q-23 0 -42 9t-33 23q-16 16 -27.5 35t-11.5 33z" />
<glyph unicode="&#x2059;" horiz-adv-x="958" d="M98 104q0 41 43 78q33 27 92 27t91 -39h-2q41 -47 40 -80q1 -94 -124 -94q-27 0 -51.5 9t-43.5 24q-45 39 -45 75zM98 758q0 33 47 65q16 10 40 17.5t46 7.5q98 0 99 -94q-1 -111 -97 -111q-53 0 -94 33t-41 82zM387 428q0 39 25 76q27 39 80 39q57 0 90 -33 q23 -23 31 -42.5t8 -39.5q0 -43 -27 -78q-31 -37 -88 -37q-53 0 -86 37q-33 43 -33 78zM637 104q0 41 43 78q35 27 92 27q59 0 90 -39h-2q41 -47 41 -80q0 -94 -125 -94q-27 0 -51.5 9t-42.5 24q-20 16 -32.5 37.5t-12.5 37.5zM637 758q0 33 47 65q16 10 40 17.5t46 7.5 q98 0 98 -94q0 -111 -96 -111q-53 0 -94 33t-41 82z" />
<glyph unicode="&#x205c;" horiz-adv-x="1613" d="M53 627v174h645v565h205v-563h641v-176h-641v-627h-207v627h-643zM172 233q0 45 43 91q35 35 98 34q61 0 101 -34q43 -43 43 -91q0 -23 -10 -45.5t-33 -42.5q-37 -39 -101 -39q-31 0 -57.5 9.5t-42.5 29.5h2q-43 43 -43 88zM180 1130q0 18 10.5 41t32.5 48q18 18 44 27 t55 9q55 0 98 -36q20 -23 32.5 -45.5t12.5 -43.5q0 -43 -45 -88q-39 -39 -98 -38q-29 0 -54.5 9t-44.5 29q-43 43 -43 88zM1153 1135q0 45 43 88q37 37 98 37q63 0 101 -37q43 -43 43 -88q0 -48 -43 -91q-37 -37 -101 -36q-31 0 -57.5 9t-42.5 30h2q-43 43 -43 88zM1155 242 q0 43 43 86q37 39 98 39q29 0 54.5 -9.5t44.5 -27.5q45 -45 45 -88q0 -45 -45 -90q-37 -39 -99 -39q-31 0 -57.5 9t-42.5 30h2q-43 45 -43 90z" />
<glyph unicode="&#x205f;" horiz-adv-x="497" />
<glyph unicode="&#x20ac;" horiz-adv-x="1036" d="M55 539q0 18 12.5 33.5t36.5 15.5h80q-4 23 -5 50.5t-1 49.5v37h-74q-23 0 -36 16.5t-13 36.5q0 18 12.5 33.5t36.5 15.5h93q16 66 53 144t86 162q43 68 94 119t104.5 84.5t106.5 51t102 17.5q35 0 71 -31t71 -84q66 -106 65 -170q0 -53 -41 -94q-10 -10 -29.5 -25.5 t-54.5 -35.5l-73 2q-6 88 -43 166q-25 51 -71 75.5t-79 24.5q-37 0 -68.5 -38t-60.5 -110q-20 -53 -33.5 -114.5t-13.5 -108.5v-35h395q25 0 37 -15t12 -34q0 -20 -13 -36.5t-36 -16.5h-389q0 -2 1 -4t1 -4l6 -29q4 -12 5 -28.5t1 -26.5l7 -45h225q25 0 37 -15.5t12 -33.5 q0 -20 -13.5 -37t-35.5 -17h-205q14 -37 31.5 -75.5t34.5 -67.5q90 -147 159 -147q12 0 35 3t47.5 9t47 14t38.5 21q14 10 80 71l23 21l51 -23q-10 -35 -164 -188q-37 -37 -79 -63.5t-79 -45t-65.5 -28t-38.5 -9.5q-76 0 -146.5 79t-128.5 214q-23 53 -41 110.5t-30 104.5 h-101q-23 0 -36 16.5t-13 37.5z" />
<glyph unicode="&#x20bd;" horiz-adv-x="931" d="M20 315q0 18 12.5 34t37.5 16h34v966q0 59 148 60q274 0 426 -48q250 -82 250 -294q0 -111 -49.5 -204t-141.5 -165q-80 -57 -180 -91t-217 -36v-188h485q25 0 37 -15.5t12 -34.5q0 -20 -13 -36.5t-36 -16.5h-485v-229q0 -43 -131 -43q-104 0 -105 43v229h-34 q-23 0 -36.5 16.5t-13.5 36.5zM340 680q0 -70 22 -70q158 0 252 127q84 113 84 291q0 125 -67 211q-74 98 -178 98q-113 0 -113 -61v-596z" />
<glyph unicode="&#x25fc;" horiz-adv-x="962" d="M0 0v963h963v-963h-963z" />
<glyph unicode="&#xe043;" horiz-adv-x="0" d="M-641 1165v400h115v-158h182v158h115v-400h-115v195h-182v-195h-115z" />
<glyph unicode="&#xf8ff;" horiz-adv-x="1921" d="M6 999q20 6 31.5 27t21.5 49q12 33 34 63.5t81 37.5h10q35 0 71 -12.5t73 -28.5q35 -16 69.5 -28.5t59.5 -12.5q35 0 58.5 40t23.5 150q0 72 -15.5 111t-40 56t-56.5 20.5t-65 3.5q-43 0 -84.5 4t-74.5 26.5t-53.5 70.5t-22.5 138q0 45 22.5 89t63.5 79t98.5 55.5 t128.5 20.5q92 0 154.5 -24.5t99.5 -65.5t52.5 -93.5t17.5 -107.5l-207 -16q0 29 -2 73.5t-12.5 85.5t-33 72t-60.5 31q-25 0 -42.5 -16.5t-29.5 -44t-17.5 -63.5t-5.5 -73q0 -66 20.5 -123t49.5 -75q12 0 30.5 -2.5t32.5 -4.5q4 0 7.5 -1t7.5 -1q43 -2 90 -8t87 -30.5 t66.5 -72.5t26.5 -134v-19q-2 -59 -22.5 -99t-53 -64.5t-75.5 -36t-89 -11.5q-86 0 -167 33q-18 8 -33 8q-20 0 -40 -18.5t-38 -40.5q-20 -25 -45 -45.5t-72 -20.5l-20 2q-35 4 -56.5 12.5t-33.5 16.5q-14 8 -21 18zM174 213q0 117 29.5 190.5t77 116.5t109 59.5t122.5 16.5 q39 0 78 -6t75.5 -15.5t67.5 -18.5t51 -17q27 117 95 227q23 35 48 65.5t68 71.5l117 -57q-41 -16 -71.5 -39t-59.5 -55h2q-39 -45 -58.5 -104.5t-21.5 -96.5q37 23 100.5 43t139.5 20q61 0 121.5 -19.5t113.5 -72.5l8 -6q20 -14 58.5 -55t62.5 -125h-24q-49 25 -88 24 q-41 0 -77 -16t-63.5 -44t-44 -64.5t-16.5 -79.5v-13.5t2 -13.5q6 -35 24.5 -69.5t47 -62.5t63.5 -44t74 -16q25 0 86 26q-49 -164 -95 -266.5t-92.5 -158.5t-93.5 -76.5t-96 -20.5q-31 0 -61.5 5t-61.5 11q-35 8 -71.5 14.5t-79.5 6.5q-35 -2 -69 -8.5t-69 -12.5l-20 -4 q-37 -8 -73 -14t-70 -6q-53 0 -104.5 29.5t-96.5 100t-83 187.5t-67 289q-8 47 -11 93t-3 81zM1130 1061v51h62v770h-62v51h349v-51h-62v-334q68 2 107 30t60.5 73t28.5 104.5t9 126.5h-61v51h348v-51h-62q-4 -88 -32.5 -149.5t-68.5 -101.5t-85 -62.5t-78 -30.5l-24 -6 q100 -4 161.5 -36t95 -80t46 -103.5t12.5 -106.5q0 -8 -1 -15t-1 -13v-66h61v-51h-346v51h62q-2 92 -10.5 164t-32 120t-68.5 73.5t-121 25.5v-383h62v-51h-349z" />
<glyph unicode="&#xfb01;" horiz-adv-x="948" d="M31 883q0 10 2 20t10 27h152v160q6 104 37.5 167.5t78.5 98.5t104.5 46t112.5 11q59 0 107.5 -8t82.5 -30.5t51 -63.5t17 -109q0 -12 -10 -35.5t-25.5 -47t-34 -41t-34.5 -17.5q-23 51 -41 94q-16 35 -30.5 67.5t-18.5 37.5q-18 37 -32.5 56t-28 28.5t-23.5 10.5t-19 -1 q-2 0 -4 -1t-4 -1h-8q-8 0 -17.5 -6.5t-17.5 -28t-15 -60t-11 -102.5v-225h215q18 14 67 14h45q84 0 84 -35v-889q0 -35 -84 -34h-59q-66 0 -66 34v814h-202v-88.5t1 -108.5t1 -113.5v-101.5v-410q0 -29 -97 -32h-20q-102 0 -102 38v816h-152q-8 16 -10 27t-2 22z" />
<glyph unicode="&#xfb02;" horiz-adv-x="1042" d="M31 883q0 10 2 20t10 27h152v160q6 104 37.5 167.5t78.5 98.5t104.5 46t112.5 11q59 0 105.5 -6t77.5 -27q18 16 92 17q109 0 108 -39v-1342q0 -37 -114 -36q-102 0 -103 38v1049q-8 57 -24.5 109.5t-43 91.5t-64.5 61.5t-89 22.5q-8 0 -17.5 -6.5t-17.5 -28t-15 -60 t-11 -102.5v-225h176q16 -29 16 -49q0 -23 -16 -47h-176v-88.5t1 -108.5t1 -113.5v-101.5v-410q0 -29 -97 -32h-20q-102 0 -102 38v816h-152q-8 16 -10 27t-2 22z" />
<glyph unicode="&#xfb03;" horiz-adv-x="1429" d="M31 883q0 10 2 20t10 27h152v160q6 104 37.5 167.5t78.5 98.5t104.5 46t112.5 11q82 0 139.5 -13.5t86.5 -62.5q47 49 109.5 62.5t129.5 13.5q59 0 107.5 -8t82.5 -30.5t51 -63.5t17 -109q0 -12 -10 -35.5t-25.5 -47t-34 -41t-34.5 -17.5q-23 51 -41 94 q-16 35 -30.5 67.5t-18.5 37.5q-18 37 -32.5 56t-28 28.5t-23.5 10.5t-19 -1q-2 0 -4 -1t-4 -1h-8q-8 0 -17.5 -6.5t-17.5 -28t-15 -60t-11 -102.5v-225h227q18 14 67 14h46q84 0 83 -35v-889q0 -35 -83 -34h-60q-66 0 -65 34v814h-215v-88.5t1 -108.5t1 -113.5v-101.5v-410 q0 -29 -97 -32h-20q-102 0 -103 38v816h-247v-88.5t1 -108.5t1 -113.5v-101.5v-410q0 -29 -97 -32h-20q-102 0 -102 38v816h-152q-8 16 -10 27t-2 22zM412 930h247v160q0 119 -47 190.5t-139 71.5q-8 0 -17.5 -6.5t-17.5 -28t-15 -60t-11 -102.5v-225z" />
<glyph unicode="&#xfb04;" horiz-adv-x="1499" d="M31 883q0 10 2 20t10 27h152v160q6 104 37.5 167.5t78.5 98.5t104.5 46t112.5 11q82 0 139.5 -13.5t86.5 -62.5q47 49 109.5 62.5t129.5 13.5q55 0 100.5 -6t75.5 -25q23 14 93 15q109 0 108 -39v-1342q0 -37 -115 -36q-98 0 -102 38q0 154 -1 299.5t-1 267.5v212v133 v131q-10 43 -27.5 94t-44 94t-61.5 73t-80 30q-8 0 -17.5 -6.5t-17.5 -28t-15 -60t-11 -102.5v-225h176q16 -29 16 -49q0 -23 -16 -47h-176v-88.5t1 -108.5t1 -113.5v-101.5v-410q0 -29 -97 -32h-20q-102 0 -103 38v816h-247v-88.5t1 -108.5t1 -113.5v-101.5v-410 q0 -29 -97 -32h-20q-102 0 -102 38v816h-152q-8 16 -10 27t-2 22zM412 930h247v160q0 119 -47 190.5t-139 71.5q-8 0 -17.5 -6.5t-17.5 -28t-15 -60t-11 -102.5v-225z" />
</font>
</defs>
</svg>
