<?xml version="1.0" encoding="UTF-8" ?>
<!DOCTYPE svg PUBLIC "-//W3C//DTD SVG 1.1//EN" "http://www.w3.org/Graphics/SVG/1.1/DTD/svg11.dtd">
<svg width="945pt" height="300pt" viewBox="0 0 945 300" version="1.1" xmlns="http://www.w3.org/2000/svg">
<g id="#ffd249ff">
<path fill="#ffd249" opacity="1.00" d=" M 467.85 18.20 C 471.44 19.45 475.31 18.85 479.03 18.96 C 479.41 23.98 477.87 28.95 479.17 33.91 C 484.11 34.34 489.19 33.62 494.02 34.96 C 493.38 38.15 495.45 42.61 492.77 44.93 C 488.05 45.06 483.22 44.60 479.00 47.18 C 478.78 51.73 479.71 56.47 478.18 60.87 C 480.32 63.50 483.96 62.83 486.95 62.99 C 493.31 62.66 499.62 63.82 505.99 63.65 C 509.59 63.51 513.18 63.73 516.74 64.28 C 517.14 67.42 516.60 70.58 516.83 73.73 C 516.57 74.04 516.05 74.67 515.79 74.99 C 507.53 75.53 499.29 76.38 490.99 76.03 C 486.40 76.39 480.07 74.54 477.15 79.23 C 476.76 84.10 477.06 89.00 477.50 93.86 C 476.94 106.22 476.90 118.60 477.07 130.97 C 476.96 132.33 477.72 133.48 478.62 134.42 C 483.38 136.28 488.49 138.17 491.98 142.06 C 492.96 145.23 491.59 148.69 492.00 151.99 C 488.50 149.56 484.49 148.05 480.74 146.06 C 477.82 145.35 476.18 148.42 476.59 150.93 C 477.14 154.54 477.02 158.19 477.05 161.84 C 475.03 163.94 472.72 165.68 470.40 167.40 C 464.48 173.66 457.44 178.63 450.94 184.23 C 448.18 182.38 445.52 180.38 442.61 178.79 C 443.85 176.40 446.50 175.22 448.30 173.28 C 453.35 169.28 457.93 164.63 463.51 161.32 C 464.48 160.01 464.08 158.23 464.25 156.70 C 463.74 149.59 464.09 142.46 463.95 135.33 C 459.97 132.79 455.17 131.42 452.07 127.70 C 452.40 124.48 452.11 121.25 452.09 118.03 C 455.74 119.38 459.07 121.49 462.23 123.75 C 463.21 124.67 464.50 125.03 465.83 125.05 C 466.24 110.38 465.86 95.71 466.05 81.04 C 466.11 79.23 467.04 76.13 464.53 75.64 C 459.34 74.88 453.95 74.56 448.83 75.90 C 443.26 76.25 437.67 75.84 432.10 76.06 C 431.39 74.96 430.64 73.88 430.08 72.69 C 430.61 69.79 430.17 66.79 430.94 63.93 C 441.57 64.20 452.20 63.65 462.83 64.07 C 463.83 64.34 464.82 64.65 465.79 65.02 C 468.11 59.40 466.08 53.21 466.85 47.35 C 466.07 46.62 465.34 45.85 464.66 45.04 C 461.39 45.02 458.09 45.02 454.94 46.01 C 454.14 42.39 453.84 38.68 453.96 34.97 C 458.40 35.06 463.17 35.19 467.11 32.80 C 466.36 28.01 465.43 22.66 467.85 18.20 Z" />
<path fill="#ffd249" opacity="1.00" d=" M 508.65 166.58 C 512.42 164.40 515.47 161.19 519.21 159.00 C 523.04 158.24 525.13 162.37 528.35 163.61 C 534.68 166.59 540.35 170.80 545.46 175.56 C 554.32 181.93 562.22 189.46 571.07 195.85 C 575.00 198.22 578.25 201.52 581.63 204.58 C 581.76 204.93 582.04 205.61 582.18 205.95 C 580.55 208.24 577.48 209.08 575.13 210.50 C 570.61 206.39 565.14 203.48 560.56 199.42 C 554.68 194.27 548.39 189.60 542.44 184.54 C 535.88 180.14 530.96 173.24 523.14 170.92 C 518.34 174.21 513.72 178.05 510.70 183.13 C 505.15 180.76 500.22 176.96 496.35 172.35 C 501.44 173.17 504.68 168.83 508.65 166.58 Z" />
<path fill="#ffd249" opacity="1.00" d=" M 23.97 164.23 C 30.00 163.24 36.19 164.83 42.14 163.20 C 45.12 162.53 48.08 163.67 51.04 163.89 C 55.40 164.21 59.77 163.86 64.05 163.03 C 116.42 163.10 168.82 162.92 221.20 163.01 C 228.00 163.07 234.81 162.77 241.59 163.42 C 253.06 163.01 264.53 163.27 276.00 163.03 C 281.86 164.06 287.81 163.17 293.74 163.36 C 297.87 163.85 302.07 164.22 306.20 163.50 C 322.72 164.44 339.32 163.58 355.87 164.09 C 358.53 164.71 360.28 167.04 362.45 168.52 C 371.31 175.00 380.25 181.36 388.93 188.08 C 395.47 192.58 401.08 198.33 408.01 202.28 C 407.97 202.63 407.89 203.31 407.86 203.66 C 404.81 205.76 402.35 208.63 399.06 210.37 C 393.82 204.65 386.82 201.04 380.82 196.24 C 376.12 193.01 372.10 188.91 367.29 185.82 C 362.98 183.19 359.57 179.42 355.51 176.47 C 350.91 175.39 346.17 177.32 341.51 176.56 C 336.23 175.48 330.89 177.52 325.61 176.52 C 319.10 175.02 312.46 177.77 305.95 176.26 C 290.98 176.49 275.99 175.40 261.03 176.45 C 254.70 176.28 248.26 175.51 242.05 177.02 C 236.24 175.62 230.25 176.03 224.35 176.49 C 221.02 176.92 217.68 175.52 214.39 176.40 C 212.69 176.75 210.96 177.31 209.24 176.76 C 205.20 175.78 201.05 176.52 197.00 176.95 C 188.71 176.70 180.43 177.04 172.15 176.90 C 167.43 176.07 162.69 177.63 157.96 176.83 C 134.63 177.03 111.28 177.17 87.95 176.88 C 83.84 176.20 79.67 177.63 75.62 176.46 C 68.08 176.59 60.34 177.92 52.91 176.02 C 46.74 177.06 40.11 177.82 34.00 175.96 C 30.50 173.14 26.99 170.19 24.16 166.67 C 24.11 166.06 24.01 164.84 23.97 164.23 Z" />
<path fill="#ffd249" opacity="1.00" d=" M 401.18 173.17 C 405.42 169.24 410.10 165.81 415.00 162.74 C 423.24 164.35 429.21 170.38 434.88 176.10 C 439.11 178.44 442.24 182.27 446.53 184.48 C 451.45 190.21 459.07 192.83 463.53 199.08 C 460.78 201.30 458.07 203.61 455.02 205.41 C 450.96 202.71 447.59 199.15 443.45 196.58 C 436.08 192.14 429.99 185.96 422.84 181.18 C 420.37 178.56 416.53 178.33 413.90 176.00 C 408.11 180.62 402.69 185.67 396.98 190.38 C 393.94 188.62 391.19 186.42 388.56 184.11 C 391.33 179.02 397.14 177.03 401.18 173.17 Z" />
<path fill="#ffd249" opacity="1.00" d=" M 591.00 163.76 C 595.34 164.07 599.67 163.23 604.01 163.72 C 627.66 164.34 651.33 163.83 674.99 163.99 C 722.01 164.08 769.03 163.84 816.04 164.13 C 829.36 164.07 842.70 164.30 856.02 163.95 C 859.37 163.86 862.69 164.73 866.03 164.01 C 872.01 164.11 877.98 164.87 883.97 164.29 C 888.17 163.57 892.38 164.99 896.59 164.23 C 902.85 163.23 909.11 165.22 915.37 164.62 C 913.75 167.17 912.47 170.32 909.36 171.36 C 906.27 172.48 903.50 175.21 900.03 174.54 C 895.58 173.88 891.21 175.65 886.77 174.76 C 879.08 173.57 871.32 176.11 863.68 174.53 C 861.33 174.09 858.95 174.34 856.65 174.84 C 852.73 175.57 848.83 174.12 844.90 174.60 C 834.62 175.37 824.31 174.76 814.01 175.01 C 805.78 175.20 797.57 174.61 789.35 174.83 C 780.16 175.45 770.90 174.37 761.74 175.50 C 751.16 175.43 740.48 174.29 729.96 176.01 C 727.88 176.16 725.92 175.26 723.88 175.10 C 719.21 175.00 714.62 176.27 709.95 176.03 C 706.95 176.05 704.05 175.20 701.07 175.06 C 685.66 174.79 670.18 175.53 654.82 174.57 C 640.90 175.52 626.94 174.78 613.00 175.03 C 602.47 174.81 591.92 175.36 581.41 174.72 C 575.73 178.33 571.23 183.47 566.06 187.76 C 562.77 185.69 560.02 182.88 556.67 180.88 C 561.02 175.32 567.60 172.37 572.80 167.77 C 574.48 166.45 576.28 165.28 577.86 163.83 C 582.08 166.07 586.56 163.31 591.00 163.76 Z" />
<path fill="#ffd249" opacity="1.00" d=" M 474.53 170.00 C 476.72 167.83 478.95 164.00 482.59 165.10 C 491.19 171.95 499.26 179.46 508.30 185.73 C 513.70 190.53 519.10 195.44 525.15 199.42 C 523.49 201.47 521.43 203.26 518.89 204.11 C 515.13 203.75 512.63 200.43 509.68 198.44 C 503.25 194.66 498.22 189.07 492.11 184.85 C 486.48 179.62 479.70 175.71 474.53 170.00 Z" />
<path fill="#ffd249" opacity="1.00" d=" M 641.07 177.99 C 651.31 177.60 661.80 177.35 671.73 180.19 C 678.56 183.99 686.49 185.49 692.84 190.20 C 697.29 192.57 700.86 196.16 705.06 198.90 C 708.14 200.83 710.30 204.10 713.86 205.25 C 715.62 201.43 715.71 196.84 718.67 193.64 C 721.06 190.93 723.59 187.88 727.33 187.16 C 729.50 186.91 731.70 186.95 733.88 187.01 C 738.53 187.48 742.33 190.38 746.01 193.01 C 751.54 195.98 755.27 201.49 761.20 203.86 C 763.28 204.02 766.11 204.54 767.35 202.35 C 769.11 200.04 769.73 196.76 767.54 194.50 C 766.03 190.02 758.02 191.78 758.81 186.13 C 763.24 183.53 768.81 184.06 772.88 187.10 C 777.64 189.85 779.43 195.80 779.09 201.00 C 779.41 205.96 776.18 210.78 771.65 212.71 C 766.15 215.01 760.14 216.49 754.14 215.98 C 746.67 214.95 738.98 214.21 732.12 210.82 C 730.77 212.68 731.34 215.53 733.64 216.28 C 741.27 219.75 748.99 223.45 757.33 224.80 C 761.82 226.62 766.72 225.60 771.36 226.64 C 778.04 227.43 784.90 227.22 791.32 225.04 C 795.27 223.50 799.88 223.21 803.13 220.21 C 806.04 217.43 809.92 215.00 810.88 210.84 C 810.90 208.31 811.65 205.27 809.68 203.26 C 807.03 199.44 802.86 197.26 798.88 195.11 C 800.64 194.36 802.42 193.64 804.27 193.10 C 812.24 193.44 819.86 199.88 820.82 208.00 C 820.77 212.09 817.19 214.75 815.44 218.11 C 815.78 219.25 816.59 220.16 817.22 221.17 C 814.26 223.44 810.74 224.77 807.42 226.40 C 806.03 227.02 806.26 228.82 805.85 230.03 C 810.08 230.67 812.74 226.74 816.29 225.21 C 820.79 223.43 823.87 219.55 827.04 216.06 C 828.57 213.50 831.83 212.92 833.56 210.55 C 835.62 207.93 838.21 205.68 839.75 202.67 C 839.98 199.51 840.98 196.21 839.83 193.12 C 835.85 194.46 833.96 198.62 832.02 202.02 C 829.69 205.85 828.71 210.43 825.66 213.80 C 825.21 213.91 824.30 214.13 823.85 214.24 C 825.20 210.43 826.65 206.64 827.62 202.71 C 828.07 195.03 834.14 189.21 840.08 185.06 C 843.64 183.13 846.91 180.01 851.14 179.82 C 850.32 186.31 850.03 193.10 847.08 199.06 C 844.69 204.60 841.01 209.55 836.46 213.49 C 832.44 217.67 828.40 221.98 823.47 225.10 C 824.02 226.05 824.54 227.04 825.00 228.06 C 828.21 226.08 831.49 224.08 835.14 223.02 C 839.78 222.69 845.35 222.32 849.06 225.63 C 842.73 232.54 833.21 234.76 824.71 237.79 C 818.78 237.93 812.97 239.47 807.00 239.01 C 801.64 239.44 796.33 238.04 791.01 239.00 C 781.98 238.94 772.93 239.15 763.90 238.90 C 758.57 238.08 752.88 238.66 747.98 236.06 C 744.41 234.11 740.47 232.97 736.85 231.15 C 726.61 225.35 715.58 220.30 707.71 211.28 C 704.03 208.68 700.95 204.60 696.31 203.83 C 695.82 206.18 694.65 208.47 695.07 210.92 C 697.30 218.80 702.42 225.28 707.09 231.83 C 701.48 229.06 697.46 224.13 693.18 219.74 C 691.09 217.60 690.37 214.58 689.07 211.97 C 687.60 209.03 688.18 205.47 686.35 202.66 C 683.72 198.37 679.58 195.04 674.91 193.18 C 671.25 191.77 667.86 189.54 663.92 188.99 C 657.10 187.84 649.93 187.21 643.22 189.24 C 639.52 190.13 635.89 191.28 632.22 192.23 C 630.91 192.47 629.99 193.51 629.08 194.37 C 628.42 196.34 629.88 197.81 631.11 199.12 C 639.39 195.88 648.88 194.65 657.48 197.28 C 662.55 198.32 667.17 200.85 671.74 203.17 C 674.03 206.05 676.36 208.98 677.81 212.40 C 679.76 219.29 677.48 227.30 671.48 231.47 C 666.94 236.00 658.51 234.79 655.54 229.03 C 656.47 228.05 657.40 227.05 658.23 225.97 C 661.51 226.06 665.27 226.25 667.91 223.95 C 669.86 222.18 670.16 219.51 670.86 217.13 C 669.39 215.01 668.07 212.55 665.58 211.50 C 661.30 209.01 656.51 211.92 651.96 210.71 C 645.87 213.96 640.13 218.63 632.97 219.07 C 627.11 219.29 621.46 216.72 617.29 212.70 C 615.61 208.80 615.13 204.44 612.69 200.87 C 609.52 200.98 607.24 203.44 604.35 204.37 C 601.50 205.23 599.27 207.21 596.96 208.98 C 587.76 216.62 577.99 223.57 568.02 230.12 C 565.29 229.53 563.47 227.12 561.63 225.21 C 565.91 222.00 569.72 218.25 573.81 214.83 C 580.41 212.15 585.58 207.12 591.69 203.58 C 595.05 201.91 595.50 197.87 596.96 194.79 C 597.73 190.17 593.52 187.34 590.32 184.98 C 592.49 184.32 594.60 183.19 596.89 183.08 C 599.52 184.06 601.94 185.52 604.18 187.21 C 604.56 190.37 601.36 191.71 599.59 193.71 C 598.22 194.62 599.54 196.13 600.14 197.04 C 601.26 196.54 602.41 196.09 603.52 195.54 C 613.90 186.13 627.25 180.09 641.07 177.99 M 727.80 200.85 C 730.79 202.41 733.93 203.65 737.03 204.99 C 738.16 204.78 739.44 203.52 738.88 202.27 C 737.81 200.88 736.36 199.86 735.03 198.75 C 736.13 196.66 736.56 194.00 734.08 192.70 C 731.68 195.10 727.82 197.02 727.80 200.85 M 636.61 204.05 C 640.31 206.37 644.53 208.27 648.99 208.03 C 648.99 207.33 648.97 205.93 648.96 205.23 C 647.71 204.69 646.47 204.14 645.22 203.62 C 646.48 201.96 648.56 200.41 647.97 198.05 C 643.88 199.33 639.30 200.43 636.61 204.05 M 738.76 200.01 C 740.28 203.20 742.21 206.16 744.31 209.01 C 745.42 208.98 746.54 208.97 747.67 208.97 C 747.36 207.35 747.00 205.74 746.63 204.14 C 747.51 203.02 748.42 201.93 749.30 200.80 C 748.38 199.91 747.35 199.12 746.05 199.00 C 743.57 198.36 740.18 196.89 738.76 200.01 M 650.90 201.25 C 650.06 204.43 653.42 205.96 655.21 207.97 C 656.75 208.46 657.93 206.92 657.42 205.49 C 656.92 203.70 658.20 202.29 659.11 200.91 C 658.79 200.46 658.15 199.56 657.83 199.11 C 655.54 199.91 653.21 200.58 650.90 201.25 M 630.22 200.90 C 628.70 204.22 626.55 207.30 625.78 210.92 C 629.72 211.68 633.76 212.24 637.78 211.89 C 638.16 211.46 638.92 210.58 639.30 210.14 C 637.41 208.91 635.13 208.06 633.74 206.21 C 632.84 205.03 633.62 203.52 633.60 202.20 C 633.10 200.69 631.42 201.07 630.22 200.90 M 748.94 205.18 C 749.05 208.72 752.46 210.39 755.05 212.08 C 757.83 211.08 756.75 207.19 758.10 204.98 C 755.30 202.97 751.94 204.85 748.94 205.18 Z" />
<path fill="#ffd249" opacity="1.00" d=" M 855.16 177.16 C 858.43 176.88 861.71 177.00 865.00 176.98 C 865.22 182.54 865.30 188.10 865.40 193.66 C 864.07 197.21 862.54 200.78 862.66 204.66 C 863.53 207.88 866.45 210.82 865.37 214.35 C 864.24 219.55 865.90 224.81 865.21 230.03 C 865.02 232.82 865.94 235.58 865.46 238.37 C 864.95 241.98 866.05 245.63 865.34 249.22 C 864.96 252.69 864.79 256.24 865.16 259.72 C 868.67 263.97 877.69 260.03 875.91 254.31 C 874.87 252.86 873.34 251.88 872.00 250.76 C 872.11 247.66 871.81 244.57 870.94 241.59 C 875.75 241.37 881.03 243.20 883.67 247.44 C 885.24 252.83 886.24 259.16 883.28 264.24 C 879.51 268.82 873.39 272.39 867.32 270.75 C 864.63 269.95 861.97 268.98 859.55 267.58 C 856.53 263.73 853.34 259.18 853.97 254.03 C 853.89 249.02 853.88 244.02 854.75 239.09 C 853.34 230.82 854.21 222.37 854.04 214.03 C 855.43 207.81 853.01 201.49 854.27 195.25 C 855.80 189.33 854.36 183.17 855.16 177.16 Z" />
<path fill="#ffd249" opacity="1.00" d=" M 870.38 177.10 C 871.79 176.72 872.30 177.24 871.93 178.67 C 870.55 178.99 870.03 178.47 870.38 177.10 Z" />
<path fill="#ffd249" opacity="1.00" d=" M 71.18 180.21 C 75.39 179.76 79.61 178.38 83.80 179.78 C 83.10 190.09 84.83 200.43 83.68 210.76 C 83.44 223.84 84.57 236.93 83.72 250.01 C 84.42 255.24 83.33 260.47 82.81 265.67 C 80.83 270.30 77.67 275.44 72.31 276.40 C 65.81 278.02 58.55 276.78 53.20 272.73 C 51.66 269.49 50.33 266.15 49.07 262.79 C 48.46 253.13 57.54 245.71 66.43 244.31 C 66.44 247.47 66.74 250.65 66.14 253.79 C 64.15 255.20 61.30 256.09 60.80 258.83 C 58.40 262.63 64.10 266.97 67.56 264.74 C 69.73 263.98 71.66 262.23 71.73 259.79 C 71.70 254.34 72.11 248.86 71.37 243.43 C 70.53 239.52 72.67 235.62 71.50 231.72 C 70.31 227.48 71.91 223.19 71.22 218.92 C 70.94 212.93 73.34 207.45 74.88 201.80 C 75.90 197.87 72.36 195.14 71.14 191.81 C 70.83 187.95 70.86 184.06 71.18 180.21 Z" />
<path fill="#ffd249" opacity="1.00" d=" M 245.28 189.27 C 253.74 184.08 263.07 180.12 273.00 178.98 C 283.08 179.20 293.31 179.14 303.11 181.87 C 307.30 183.23 311.81 183.37 315.90 185.07 C 318.13 185.95 320.46 186.55 322.76 187.25 C 328.10 189.58 332.88 193.34 336.11 198.23 C 336.91 197.41 337.77 196.67 338.70 195.99 C 336.27 192.96 333.80 189.32 335.00 185.22 C 337.07 182.26 340.68 181.33 344.09 180.98 C 343.72 184.06 341.36 186.62 341.56 189.81 C 341.96 193.15 343.15 196.38 343.14 199.78 C 346.77 202.20 350.88 204.09 353.79 207.43 C 350.65 209.46 348.53 212.94 345.01 214.34 C 341.94 213.29 339.63 210.70 336.67 209.34 C 331.63 206.90 327.67 202.67 322.45 200.57 C 317.89 198.51 313.34 196.10 308.31 195.48 C 307.24 195.87 306.82 196.61 307.04 197.71 C 309.61 199.25 312.39 200.46 314.64 202.51 C 316.29 206.83 317.12 212.13 314.11 216.08 C 311.17 219.55 306.59 222.27 301.89 221.37 C 297.31 221.06 293.29 218.70 289.26 216.75 C 285.92 215.20 283.52 212.00 279.79 211.25 C 276.00 210.37 272.23 208.23 268.26 209.33 C 265.70 209.99 262.83 209.92 260.72 211.73 C 258.22 213.19 255.23 215.43 256.09 218.75 C 258.24 223.67 264.74 224.92 269.46 223.40 C 271.30 222.55 273.06 223.87 274.81 224.35 C 273.65 227.35 272.07 230.86 268.68 231.77 C 265.48 232.44 261.98 233.99 258.88 232.16 C 254.08 230.61 250.32 226.63 249.20 221.70 C 246.72 214.77 251.65 208.02 256.54 203.57 C 260.92 202.24 264.48 199.08 268.97 198.05 C 278.15 195.17 287.89 196.22 297.36 196.00 C 297.23 194.06 296.47 192.19 294.60 191.35 C 289.87 189.81 284.76 188.43 279.82 189.86 C 274.10 189.87 268.49 191.28 263.16 193.29 C 255.05 196.65 247.19 200.79 240.43 206.45 C 238.62 209.00 239.31 212.36 238.21 215.19 C 234.31 225.26 225.47 233.14 215.13 236.14 C 214.29 229.15 216.60 221.09 222.33 216.66 C 222.28 220.67 219.55 223.89 218.88 227.74 C 219.45 227.96 220.58 228.41 221.14 228.63 C 225.82 225.40 229.31 220.81 231.79 215.74 C 232.33 213.88 231.08 212.07 230.75 210.26 C 230.25 209.95 229.26 209.33 228.76 209.02 C 224.24 211.28 220.06 214.12 215.80 216.82 C 208.49 220.31 202.27 225.74 194.72 228.76 C 191.01 230.49 187.08 231.67 183.34 233.34 C 177.54 235.25 171.48 236.17 165.51 237.35 C 158.25 238.52 150.87 237.88 143.56 237.92 C 136.93 236.78 130.70 233.80 123.99 233.07 C 116.47 233.38 108.88 235.12 101.37 233.70 C 97.75 232.89 93.97 232.56 90.58 230.97 C 93.50 227.47 97.72 225.00 102.10 223.94 C 107.55 224.21 112.41 227.41 117.73 228.58 C 117.80 228.00 117.93 226.85 117.99 226.27 C 109.77 223.15 102.78 217.39 97.43 210.50 C 93.27 203.87 90.46 196.39 89.00 188.71 C 94.23 189.89 98.54 193.26 102.99 196.05 C 106.87 198.38 109.91 201.82 112.67 205.36 C 114.00 208.56 115.37 211.77 117.59 214.48 C 118.21 216.82 119.14 219.07 120.06 221.31 C 117.01 219.20 114.15 216.45 113.17 212.76 C 111.41 208.12 107.39 203.15 102.07 203.02 C 102.08 203.71 102.10 205.09 102.11 205.78 C 104.13 209.66 105.74 213.92 109.25 216.75 C 115.35 222.10 122.73 225.90 130.31 228.68 C 131.65 229.56 132.44 227.89 133.22 227.13 C 129.33 225.10 124.92 224.36 121.20 221.95 C 122.46 218.78 121.75 215.40 121.50 212.14 C 121.99 208.44 123.07 204.85 124.28 201.34 C 127.16 197.95 130.44 194.03 135.18 193.56 C 139.05 193.68 142.32 196.38 143.25 200.13 C 139.75 200.27 135.55 198.96 132.76 201.75 C 130.21 203.59 130.03 207.00 129.91 209.86 C 129.33 214.29 131.21 218.68 133.86 222.12 C 137.91 225.30 142.49 227.74 147.23 229.72 C 152.73 230.30 158.29 230.35 163.78 229.59 C 165.70 229.25 167.95 228.52 168.20 226.25 C 162.74 224.79 156.70 224.53 151.98 221.11 C 148.96 218.51 149.54 213.69 153.10 211.88 C 156.71 212.82 157.28 216.98 160.15 218.86 C 163.83 221.63 168.41 222.70 172.65 224.33 C 175.03 225.33 177.76 225.18 180.04 223.98 C 192.79 218.14 206.19 213.53 217.96 205.76 C 217.02 204.52 215.91 202.62 214.14 203.86 C 207.24 206.94 200.96 211.32 193.84 213.98 C 190.23 214.18 186.51 214.29 183.06 213.00 C 174.77 211.32 167.50 203.78 167.93 194.99 C 167.13 189.39 172.93 186.48 176.56 183.43 C 180.32 182.50 185.08 182.20 188.12 185.14 C 188.06 185.81 187.95 187.13 187.89 187.80 C 184.36 189.88 179.87 190.11 176.99 193.27 C 177.09 194.74 177.11 196.23 177.04 197.71 C 179.14 199.69 181.94 201.42 184.96 200.92 C 190.92 199.64 196.07 196.26 201.30 193.30 C 204.86 190.81 207.99 187.45 212.37 186.39 C 218.50 184.87 227.03 185.70 229.53 192.50 C 231.02 196.15 226.21 197.98 225.85 201.27 C 228.36 200.53 231.08 199.93 232.94 197.94 C 236.56 194.37 241.46 192.60 245.28 189.27 M 210.64 194.28 C 211.88 196.75 215.54 195.89 216.92 198.30 C 217.05 199.46 217.16 200.63 217.23 201.81 C 221.10 200.96 224.02 195.00 220.68 192.22 C 217.70 191.90 214.70 192.07 211.73 191.75 C 210.43 191.46 209.65 193.47 210.64 194.28 M 200.84 198.16 C 200.66 200.74 204.24 200.15 205.87 201.04 C 206.34 202.74 206.85 204.42 207.35 206.11 C 210.22 205.31 213.19 202.31 212.91 199.24 C 210.31 195.36 204.30 195.24 200.84 198.16 M 288.10 197.96 C 287.43 198.99 286.65 199.93 285.84 200.84 C 286.62 202.08 287.42 203.33 288.16 204.61 C 286.95 205.38 285.75 206.16 284.53 206.91 C 286.85 211.03 292.47 208.31 294.90 205.64 C 295.28 201.69 290.55 200.18 288.10 197.96 M 275.88 198.92 C 276.26 201.81 277.42 204.50 278.39 207.23 C 280.47 206.60 282.97 205.35 283.43 203.03 C 282.99 199.38 278.63 199.48 275.88 198.92 M 191.15 199.87 C 188.37 202.42 192.00 204.29 194.06 205.49 C 192.67 206.61 191.87 208.08 192.05 209.90 C 195.74 209.79 201.61 207.88 200.91 203.33 C 198.37 200.65 194.40 201.00 191.15 199.87 M 298.97 208.86 C 298.20 210.53 298.04 212.37 297.94 214.19 C 301.51 213.61 304.78 210.82 305.22 207.12 C 303.42 204.81 301.18 202.21 298.15 201.71 C 294.13 203.12 297.08 206.97 298.97 208.86 Z" />
<path fill="#ffd249" opacity="1.00" d=" M 890.43 178.33 C 892.38 178.46 894.28 179.03 896.04 179.90 C 902.66 184.54 906.56 191.80 911.21 198.21 C 906.90 197.92 902.58 198.13 898.28 197.89 C 894.22 195.65 890.35 192.10 889.41 187.35 C 893.36 189.01 896.16 193.23 900.91 193.00 C 902.49 193.33 902.74 191.23 903.21 190.20 C 898.08 187.17 895.02 181.99 890.43 178.33 Z" />
<path fill="#ffd249" opacity="1.00" d=" M 63.36 180.43 C 64.80 179.75 65.19 180.14 64.54 181.60 C 63.09 182.28 62.70 181.89 63.36 180.43 Z" />
<path fill="#ffd249" opacity="1.00" d=" M 872.34 179.70 C 876.73 182.71 877.18 188.27 877.95 193.06 C 877.84 195.35 877.22 197.58 876.96 199.85 C 877.68 199.89 879.12 199.98 879.84 200.02 C 880.76 197.04 881.21 193.94 881.44 190.83 C 881.04 188.20 880.11 185.67 879.83 183.01 C 883.54 184.99 887.21 188.47 887.07 193.00 C 887.54 198.49 885.42 204.70 880.28 207.35 C 876.57 210.01 870.75 209.70 868.16 205.65 C 867.76 202.78 868.03 199.83 869.13 197.13 C 871.26 196.31 873.51 195.92 875.77 196.48 C 875.95 193.45 876.36 190.34 875.73 187.34 C 874.59 184.79 873.28 182.32 872.34 179.70 Z" />
<path fill="#ffd249" opacity="1.00" d=" M 29.25 197.10 C 30.28 190.05 35.82 184.30 42.31 181.77 C 40.30 184.87 36.85 186.78 35.11 190.09 C 33.41 193.51 30.85 196.45 29.44 200.03 C 29.86 201.08 30.43 202.05 31.15 202.94 C 32.66 201.83 33.83 200.38 34.82 198.81 C 36.60 195.94 40.26 194.88 41.75 191.79 C 42.75 189.61 44.17 187.67 46.29 186.46 C 45.05 191.20 42.54 195.60 38.79 198.80 C 35.28 201.84 32.65 206.44 27.70 207.27 C 28.33 203.89 29.18 200.55 29.25 197.10 Z" />
<path fill="#ffd249" opacity="1.00" d=" M 60.45 183.08 C 63.03 182.03 61.28 185.90 59.64 185.72 C 58.24 185.32 59.67 183.43 60.45 183.08 Z" />
<path fill="#ffd249" opacity="1.00" d=" M 47.16 184.26 C 47.81 184.90 47.81 184.90 47.16 184.26 Z" />
<path fill="#ffd249" opacity="1.00" d=" M 48.60 193.62 C 50.16 190.28 52.51 187.31 55.09 184.70 C 53.84 187.56 52.09 190.19 51.10 193.16 C 50.91 195.33 50.98 197.53 51.30 199.68 C 52.24 201.99 53.88 203.91 55.24 205.98 C 55.95 205.96 57.39 205.93 58.11 205.91 C 58.19 202.27 54.87 199.65 54.93 196.06 C 54.80 194.65 56.01 193.68 56.72 192.62 C 57.20 195.82 57.38 199.24 58.86 202.16 C 59.90 203.73 61.78 202.72 62.96 201.93 C 62.53 200.35 62.07 198.79 61.78 197.18 C 63.48 195.54 65.89 196.00 68.03 195.95 C 68.28 199.89 68.10 203.84 68.03 207.79 C 64.85 212.02 59.39 210.71 54.92 212.02 C 53.10 212.31 51.19 211.26 50.32 209.68 C 48.29 204.60 47.37 198.99 48.60 193.62 Z" />
<path fill="#ffd249" opacity="1.00" d=" M 487.20 185.03 C 491.07 185.71 493.68 189.41 496.44 191.99 C 491.35 197.12 485.07 200.82 479.89 205.83 C 474.72 210.75 468.84 214.82 463.38 219.39 C 459.26 223.45 454.06 226.23 450.41 230.81 C 447.08 227.82 443.41 225.25 439.74 222.71 C 440.47 221.80 441.18 220.85 442.13 220.14 C 449.88 214.24 457.25 207.88 464.94 201.91 C 469.97 198.32 474.15 193.62 479.52 190.49 C 482.15 188.78 484.54 186.70 487.20 185.03 Z" />
<path fill="#ffd249" opacity="1.00" d=" M 57.35 187.25 C 58.74 186.56 59.14 186.97 58.55 188.48 C 57.13 189.11 56.73 188.70 57.35 187.25 Z" />
<path fill="#ffd249" opacity="1.00" d=" M 525.79 203.76 C 532.36 199.29 538.39 194.12 545.00 189.71 C 547.92 191.71 550.67 193.94 553.31 196.30 C 547.56 202.31 540.22 206.48 534.24 212.24 C 529.39 216.08 524.64 220.04 519.59 223.63 C 516.65 225.57 514.29 228.41 511.07 229.89 C 507.43 228.37 504.51 225.67 501.28 223.50 C 509.28 216.71 517.70 210.46 525.79 203.76 Z" />
<path fill="#ffd249" opacity="1.00" d=" M 416.42 200.35 C 421.25 197.98 424.19 193.07 429.11 190.87 C 431.72 190.97 433.85 192.97 435.94 194.38 C 437.58 196.17 434.62 197.57 433.45 198.52 C 420.36 209.49 407.43 220.67 394.06 231.30 C 391.62 229.51 389.06 227.87 386.93 225.72 C 391.52 220.34 397.86 216.83 402.75 211.74 C 407.17 207.78 411.93 204.21 416.42 200.35 Z" />
<path fill="#ffd249" opacity="1.00" d=" M 370.59 197.49 C 371.84 196.47 373.42 195.97 374.84 195.22 C 377.57 196.90 380.19 198.77 382.55 200.95 C 378.81 205.45 373.78 208.54 369.79 212.78 C 361.86 219.91 353.10 226.07 345.22 233.27 C 338.48 237.63 332.13 242.89 327.23 249.32 C 327.05 252.40 326.25 256.13 328.34 258.74 C 331.30 260.76 334.94 260.46 338.30 259.93 C 338.68 265.04 332.51 265.65 328.88 266.84 C 322.23 266.40 316.40 260.61 315.94 253.93 C 315.29 248.46 319.22 244.07 321.46 239.45 C 329.50 230.42 339.54 223.54 348.66 215.69 C 352.25 211.82 357.06 209.42 360.77 205.69 C 363.89 202.78 367.61 200.56 370.59 197.49 Z" />
<path fill="#ffd249" opacity="1.00" d=" M 895.01 199.70 C 897.99 200.07 899.50 203.17 899.05 205.93 C 898.36 210.47 897.73 215.33 894.74 219.02 C 891.23 218.98 889.61 214.71 887.17 212.62 C 886.71 209.68 886.40 206.14 889.00 204.06 C 890.10 206.23 890.76 208.60 891.26 210.98 C 891.91 210.99 893.20 211.01 893.85 211.02 C 895.78 207.55 894.71 203.46 895.01 199.70 Z" />
<path fill="#ffd249" opacity="1.00" d=" M 36.18 217.96 C 36.30 214.66 34.64 210.34 37.68 207.92 C 38.11 209.95 37.42 212.56 39.35 213.94 C 41.19 214.41 42.52 212.69 44.04 211.99 C 41.97 214.64 39.69 217.36 36.18 217.96 Z" />
<path fill="#ffd249" opacity="1.00" d=" M 471.10 217.31 C 473.84 215.20 476.21 212.62 479.09 210.70 C 481.71 210.90 483.50 213.09 485.47 214.59 C 490.37 218.27 494.50 223.04 500.04 225.84 C 501.31 226.57 502.61 227.29 503.70 228.29 C 508.98 233.43 515.60 236.98 520.68 242.33 C 523.05 244.03 525.67 246.25 528.77 245.94 C 535.11 241.12 542.07 237.25 548.78 232.97 C 550.94 234.73 553.76 235.75 555.43 238.07 C 555.45 239.51 553.94 240.20 553.02 241.03 C 545.99 246.37 539.17 252.03 531.74 256.83 C 529.46 258.21 526.48 260.31 523.99 258.09 C 518.37 253.68 512.47 249.66 506.94 245.15 C 501.19 241.30 496.35 236.24 490.43 232.64 C 487.67 229.64 483.88 227.88 481.16 224.82 C 477.62 222.58 474.02 220.36 471.10 217.31 Z" />
<path fill="#ffd249" opacity="1.00" d=" M 533.10 216.57 C 535.73 215.48 537.87 213.59 540.05 211.83 C 545.12 215.02 549.41 219.26 554.36 222.62 C 557.81 225.13 561.29 227.65 564.29 230.70 C 568.60 235.21 574.49 237.79 578.87 242.23 C 579.88 243.37 581.61 242.80 582.95 243.00 C 588.68 243.15 594.39 242.46 600.12 242.79 C 603.63 242.97 607.15 241.40 610.59 242.27 C 612.86 244.42 614.36 247.27 615.92 249.96 C 615.56 250.98 615.25 252.01 614.98 253.06 C 603.97 252.93 592.96 252.96 581.96 253.06 C 578.68 253.55 576.52 250.62 574.26 248.77 C 572.10 246.41 569.01 245.35 566.57 243.37 C 563.55 241.07 560.52 238.79 557.57 236.41 C 552.35 232.69 548.00 227.86 542.55 224.45 C 539.30 221.95 535.87 219.63 533.10 216.57 Z" />
<path fill="#ffd249" opacity="1.00" d=" M 701.70 211.76 C 710.48 216.57 716.26 225.91 717.03 235.84 C 715.04 235.31 713.15 234.49 711.28 233.65 C 711.50 225.40 706.52 218.05 701.70 211.76 Z" />
<path fill="#ffd249" opacity="1.00" d=" M 414.13 219.27 C 416.63 216.96 419.39 214.95 421.95 212.70 C 425.48 214.85 428.66 217.50 431.83 220.15 C 441.20 227.52 451.21 234.07 460.59 241.44 C 462.63 242.98 465.27 244.10 466.22 246.68 C 463.56 248.22 461.35 250.40 458.66 251.86 C 457.35 252.58 456.12 251.71 455.09 250.99 C 441.36 240.96 427.45 231.19 414.07 220.70 C 414.08 220.34 414.11 219.62 414.13 219.27 Z" />
<path fill="#ffd249" opacity="1.00" d=" M 777.38 219.44 C 780.47 217.93 782.04 214.47 785.01 212.85 C 788.03 213.49 787.87 218.11 785.28 219.37 C 780.89 221.99 775.75 223.25 770.72 224.02 C 772.61 222.07 775.00 220.71 777.38 219.44 Z" />
<path fill="#ffd249" opacity="1.00" d=" M 587.58 220.20 C 590.61 218.74 593.39 216.83 595.98 214.70 C 604.13 220.92 611.48 228.09 619.59 234.40 C 619.79 235.00 620.17 236.19 620.37 236.78 C 622.37 237.71 624.70 238.18 626.39 239.67 C 628.27 242.57 630.77 245.30 631.22 248.87 C 633.30 254.45 629.68 260.02 625.82 263.82 C 622.66 267.17 617.60 267.62 613.33 266.78 C 609.81 265.70 607.89 262.20 607.80 258.68 C 611.02 259.11 615.89 260.36 617.67 256.68 C 619.59 253.96 619.48 250.04 617.68 247.29 C 615.20 241.73 609.99 238.23 605.25 234.74 C 601.35 231.28 597.08 228.27 593.13 224.88 C 591.27 223.33 588.78 222.41 587.58 220.20 Z" />
<path fill="#ffd249" opacity="1.00" d=" M 360.83 225.01 C 362.66 221.61 366.15 219.43 368.99 216.90 C 372.73 221.03 378.06 223.21 382.40 226.63 C 387.95 229.94 392.85 234.19 398.21 237.79 C 401.79 240.25 404.86 243.56 409.06 244.98 C 410.69 245.27 411.96 244.06 413.16 243.16 C 417.22 239.69 421.94 237.10 426.04 233.66 C 429.08 235.68 432.73 237.12 434.92 240.18 C 434.93 240.55 434.95 241.31 434.96 241.68 C 427.15 246.91 420.55 253.67 412.83 259.01 C 406.45 255.16 399.87 251.61 393.92 247.10 C 386.49 241.76 378.16 237.77 371.04 231.96 C 367.76 229.46 363.93 227.70 360.83 225.01 Z" />
<path fill="#ffd249" opacity="1.00" d=" M 316.94 224.68 C 320.79 225.08 324.47 226.54 328.43 226.03 C 326.48 229.49 322.09 227.74 318.88 228.14 C 319.37 229.35 319.90 230.55 320.39 231.77 C 321.61 232.00 322.83 232.27 324.05 232.57 C 322.06 234.38 319.12 233.16 318.04 230.94 C 316.34 229.27 317.07 226.78 316.94 224.68 Z" />
<path fill="#ffd249" opacity="1.00" d=" M 329.32 226.09 C 332.24 224.53 329.47 229.43 329.32 226.09 Z" />
<path fill="#ffd249" opacity="1.00" d=" M 624.14 227.94 C 628.26 226.75 632.72 226.57 636.42 229.06 C 632.89 231.15 629.09 233.66 624.78 232.98 C 626.76 231.83 629.30 230.96 629.74 228.37 C 627.95 228.13 625.17 230.21 624.14 227.94 Z" />
<path fill="#ffd249" opacity="1.00" d=" M 473.80 244.70 C 478.36 241.62 482.32 237.62 487.21 235.02 C 489.33 234.08 491.00 236.28 492.69 237.23 C 493.87 238.55 496.46 239.61 495.94 241.72 C 486.48 248.96 477.78 257.21 467.84 263.84 C 466.00 264.95 463.81 266.01 463.46 268.38 C 462.70 272.90 467.51 276.50 471.79 276.10 C 474.74 273.09 474.75 268.20 471.87 265.13 C 475.11 263.20 477.75 259.40 481.88 259.77 C 484.11 265.65 486.60 272.56 483.58 278.62 C 482.65 281.43 480.38 283.63 477.59 284.57 C 473.92 285.80 470.13 287.49 466.17 286.97 C 461.10 285.83 456.17 283.16 453.13 278.86 C 450.61 276.17 449.15 272.10 450.43 268.50 C 451.50 264.13 454.34 260.52 456.88 256.93 C 462.95 253.44 467.80 248.28 473.80 244.70 Z" />
<path fill="#ffd249" opacity="1.00" d=" M 364.68 242.84 C 367.70 241.17 370.18 238.70 372.97 236.70 C 375.60 238.33 378.61 239.50 380.55 242.04 C 378.10 243.74 375.95 245.84 373.47 247.49 C 370.70 249.39 368.85 252.47 365.81 253.97 C 358.78 253.81 351.69 254.54 344.70 253.50 C 340.78 253.16 336.92 254.28 333.01 253.98 C 332.15 249.10 335.91 245.11 339.35 242.21 C 347.78 241.52 356.28 242.33 364.68 242.84 Z" />
<path fill="#ffd249" opacity="1.00" d=" M 715.09 241.75 C 720.52 240.82 726.02 241.86 731.47 241.22 C 739.01 240.63 746.66 242.83 754.12 241.13 C 760.37 241.94 766.68 242.33 772.96 242.97 C 784.97 242.92 797.00 243.22 809.01 242.81 C 813.97 241.65 819.12 242.36 824.06 241.04 C 832.07 241.02 840.09 240.83 848.11 240.96 C 848.22 244.62 848.00 248.28 848.03 251.95 C 843.70 252.39 839.36 252.81 835.03 252.20 C 818.75 251.98 802.47 252.11 786.18 252.22 C 776.78 251.58 767.39 252.66 757.99 252.79 C 749.89 253.40 741.82 250.97 733.74 252.49 C 729.60 252.14 725.50 252.58 721.38 252.87 C 717.83 252.26 714.23 251.69 710.73 252.86 C 705.61 252.23 700.52 253.49 695.41 252.45 C 685.65 253.47 675.82 252.73 666.02 253.03 C 655.67 252.69 645.32 253.07 634.97 253.11 C 634.51 249.22 633.44 245.53 631.70 242.00 C 659.50 241.96 687.30 242.03 715.09 241.75 Z" />
<path fill="#ffd249" opacity="1.00" d=" M 90.04 243.99 C 118.37 244.04 146.68 243.86 175.00 244.00 C 179.99 244.27 184.93 242.85 189.89 243.93 C 194.03 245.01 198.10 242.49 202.25 243.52 C 209.38 244.72 216.50 243.02 223.63 243.27 C 231.74 244.59 239.99 242.74 248.04 243.78 C 255.71 243.13 263.43 243.92 271.09 243.03 C 276.28 243.78 281.43 242.67 286.65 243.17 C 296.05 242.51 305.38 244.41 314.80 243.89 C 313.95 247.20 313.01 250.51 312.78 253.94 C 302.19 254.41 291.58 253.69 280.99 254.13 C 264.03 254.45 247.11 254.35 230.14 254.67 C 220.45 255.23 210.71 255.05 201.02 254.67 C 193.58 255.28 186.07 255.38 178.63 254.65 C 171.57 254.53 164.50 255.49 157.45 254.72 C 144.07 255.22 130.67 255.09 117.30 254.52 C 108.28 255.92 99.14 254.15 90.11 255.10 C 89.76 251.40 89.49 247.69 90.04 243.99 Z" />
</g>
<g id="#030303ff">
<path fill="#030303" opacity="1.00" d=" M 471.75 15.79 C 475.65 14.41 479.63 16.10 483.58 16.33 C 483.88 16.57 484.48 17.07 484.78 17.32 C 485.17 21.87 484.96 26.46 484.91 31.03 C 488.50 31.05 492.11 30.87 495.71 31.13 C 496.00 31.42 496.58 31.99 496.87 32.28 C 497.10 37.99 497.38 43.93 495.34 49.36 C 492.41 51.78 488.44 50.83 484.96 50.97 C 485.33 53.93 483.99 57.63 486.30 59.98 C 493.10 60.70 499.93 59.52 506.74 60.22 C 511.14 60.69 515.92 58.98 520.01 61.14 C 519.94 66.73 520.25 72.38 518.97 77.87 C 518.95 81.36 514.82 82.22 512.05 81.99 C 503.41 81.82 494.79 81.82 486.15 82.02 C 485.07 82.34 484.01 82.71 482.97 83.13 C 483.60 87.82 481.66 92.47 482.83 97.07 C 483.62 106.14 481.59 115.22 482.79 124.24 C 482.91 126.96 482.34 129.83 483.35 132.44 C 487.23 134.74 490.91 137.38 494.92 139.44 C 495.90 145.13 495.72 150.98 494.52 156.60 C 493.62 159.25 490.55 158.30 488.76 157.26 C 487.10 156.29 485.56 155.14 483.96 154.08 C 483.69 155.32 482.89 156.78 484.10 157.80 C 488.16 161.93 493.16 164.95 497.93 168.18 C 502.13 165.73 505.64 162.34 509.76 159.78 C 513.28 157.35 516.38 153.71 521.00 153.62 C 524.05 154.19 526.99 155.65 529.25 157.79 C 532.14 160.30 535.58 162.07 538.60 164.41 C 543.10 168.17 548.42 170.70 553.04 174.29 C 555.86 171.94 559.50 170.84 562.19 168.31 C 565.57 165.15 569.73 163.03 573.64 160.61 C 578.36 157.80 584.05 159.41 589.17 159.89 C 600.67 159.87 612.21 160.40 623.69 159.64 C 635.82 160.58 648.01 159.48 660.15 160.29 C 672.09 159.72 684.06 160.10 696.02 160.02 C 705.35 160.43 714.70 159.55 724.01 160.49 C 728.01 160.22 732.03 159.89 736.01 160.67 C 743.62 159.38 751.32 160.64 758.98 160.14 C 766.10 160.69 773.31 159.17 780.37 160.74 C 785.56 160.99 790.79 160.49 795.99 160.97 C 800.35 161.43 804.60 159.97 808.96 160.23 C 815.64 159.79 822.31 160.70 828.99 160.11 C 840.66 160.18 852.34 160.68 864.00 160.21 C 871.00 160.09 877.98 161.02 884.98 160.55 C 896.90 160.72 908.86 161.13 920.73 160.29 C 924.02 161.80 929.70 159.56 931.07 163.89 C 928.36 165.66 924.81 165.98 922.42 168.30 C 920.18 170.74 918.07 173.49 915.03 174.96 C 912.93 175.99 910.96 177.22 909.04 178.53 C 911.36 180.76 913.68 183.19 914.60 186.37 C 916.41 192.30 919.63 197.67 921.06 203.72 C 919.29 206.23 916.39 206.35 913.81 205.08 C 910.72 203.46 907.29 204.49 904.12 205.22 C 903.94 213.96 901.71 222.61 898.60 230.74 C 896.11 231.99 895.32 228.43 893.74 227.24 C 889.75 223.53 884.89 220.66 881.89 215.97 C 881.24 214.39 879.64 215.09 878.43 215.32 C 875.99 215.90 873.47 215.60 871.00 215.65 C 871.06 222.72 870.23 229.81 870.95 236.85 C 874.78 238.57 879.72 237.94 882.75 241.25 C 885.41 243.36 885.88 247.37 889.08 248.89 C 887.42 251.67 888.16 254.95 887.95 258.01 C 887.46 264.01 883.99 269.70 878.84 272.84 C 875.05 275.38 870.30 274.90 865.98 275.12 C 863.13 275.02 860.00 275.25 857.66 273.34 C 852.95 269.06 849.50 263.39 848.86 256.97 C 842.27 257.33 835.73 256.28 829.15 256.51 C 820.00 255.65 810.81 257.26 801.66 256.35 C 794.77 255.55 787.92 257.12 781.02 256.99 C 738.00 256.94 694.99 257.14 651.98 256.98 C 647.81 256.91 643.68 257.72 639.51 257.41 C 637.12 257.50 634.03 257.21 632.74 259.71 C 630.07 263.68 626.45 267.07 622.03 269.00 C 617.96 270.97 613.05 269.90 609.31 267.70 C 606.02 265.65 604.82 261.73 604.62 258.07 C 595.77 257.46 586.89 256.95 578.03 257.50 C 575.18 257.86 573.34 255.22 571.17 253.88 C 566.62 250.88 562.92 246.57 557.83 244.47 C 552.13 247.61 547.67 252.74 542.08 256.12 C 537.73 260.45 532.03 263.39 526.16 265.16 C 523.16 262.53 519.35 261.20 516.13 258.90 C 512.88 256.85 510.74 253.48 507.49 251.44 C 504.97 249.92 502.54 248.25 500.02 246.73 C 494.53 249.87 489.38 253.61 484.94 258.13 C 489.61 264.13 489.22 272.40 487.40 279.37 C 485.13 285.39 478.81 288.62 472.83 289.80 C 466.77 290.44 459.88 290.15 455.12 285.87 C 451.41 282.87 447.44 279.14 446.83 274.17 C 444.73 267.94 448.94 262.06 452.02 256.97 C 450.53 253.36 445.96 252.43 443.37 249.72 C 441.83 248.11 439.86 245.85 437.43 247.29 C 432.61 250.40 427.85 253.72 423.74 257.74 C 421.11 260.81 417.20 262.55 415.25 266.23 C 412.69 263.94 409.01 263.79 406.58 261.30 C 400.23 257.42 394.59 252.43 387.96 249.01 C 386.34 248.13 384.55 245.94 382.62 247.44 C 377.15 250.50 374.25 258.63 367.05 257.99 C 362.93 258.16 358.72 257.51 354.68 258.60 C 350.52 259.36 346.02 256.81 342.12 259.02 C 341.53 261.07 341.08 263.19 340.19 265.15 C 335.87 269.00 329.69 269.27 324.20 268.90 C 320.62 267.05 317.10 264.65 314.88 261.19 C 314.08 260.29 313.46 258.67 311.96 258.98 C 280.94 259.04 249.92 258.95 218.90 259.03 C 211.26 258.82 203.61 260.14 195.98 259.19 C 167.66 258.80 139.32 259.07 110.99 259.05 C 105.58 259.02 100.16 260.22 94.76 259.27 C 93.07 259.18 91.13 258.49 89.58 259.43 C 87.80 262.66 86.74 266.25 85.71 269.78 C 81.94 278.32 72.45 285.52 62.76 283.21 C 55.35 281.87 49.88 276.10 45.94 270.05 C 41.72 260.84 45.07 249.12 53.32 243.32 C 57.31 241.46 61.67 240.42 66.02 239.86 C 66.42 232.20 65.32 224.56 66.03 216.91 C 60.30 219.28 54.00 219.39 48.04 217.91 C 45.63 218.35 44.26 220.94 41.99 221.85 C 38.09 223.55 35.55 227.10 32.21 229.60 C 29.03 225.47 28.01 219.82 27.91 214.67 C 24.75 214.59 23.23 218.02 20.19 218.19 C 19.95 217.61 19.48 216.46 19.24 215.88 C 19.87 210.85 22.49 206.15 22.06 201.00 C 22.07 198.99 21.39 197.07 21.20 195.08 C 21.74 188.74 25.80 183.55 29.82 178.91 C 27.94 177.09 25.52 176.06 23.35 174.67 C 21.47 173.08 20.77 170.59 19.45 168.59 C 17.22 166.11 13.99 164.59 12.15 161.78 C 11.32 159.96 13.37 158.65 15.00 159.02 C 43.33 159.12 71.66 158.96 100.00 159.00 C 112.34 158.77 124.66 159.66 136.99 159.02 C 167.33 159.17 197.68 158.62 228.01 159.55 C 245.33 159.12 262.67 158.95 280.00 159.35 C 300.68 158.70 321.37 159.11 342.06 159.04 C 347.91 159.66 353.78 159.09 359.64 159.14 C 361.36 160.05 362.18 162.09 363.72 163.29 C 369.88 168.32 376.83 172.33 383.02 177.34 C 388.88 173.93 394.37 169.93 399.45 165.45 C 404.64 162.76 408.99 158.75 414.27 156.23 C 415.83 155.42 417.29 156.76 418.64 157.39 C 424.60 160.92 430.23 165.01 435.53 169.46 C 437.03 170.82 439.03 171.23 440.88 171.88 C 444.21 169.17 447.33 166.20 451.10 164.09 C 454.52 161.20 458.98 159.02 460.84 154.72 C 461.31 149.56 461.09 144.35 461.02 139.18 C 456.70 138.73 453.11 135.74 448.68 135.54 C 449.78 128.34 447.82 120.86 450.30 113.86 C 454.66 114.52 457.59 118.31 461.86 119.22 C 463.80 114.01 462.76 108.41 463.00 103.00 C 462.81 96.01 463.37 89.03 463.01 82.05 C 458.37 81.00 453.67 82.42 448.98 81.99 C 443.32 82.44 437.61 81.63 432.05 82.95 C 430.26 83.54 429.22 81.83 428.34 80.60 C 426.38 76.31 427.13 71.53 427.01 66.97 C 426.79 64.41 428.29 61.31 431.12 61.12 C 437.79 60.64 444.53 61.59 451.16 60.51 C 455.09 60.38 459.01 60.52 462.92 59.96 C 463.16 57.69 463.56 55.44 464.11 53.22 C 460.85 50.24 455.11 53.47 452.32 49.73 C 449.49 44.29 449.90 37.98 451.54 32.26 C 455.30 31.35 459.19 31.32 463.00 31.94 C 463.77 27.09 462.63 22.08 464.31 17.39 C 466.10 15.22 469.35 16.50 471.75 15.79 M 467.85 18.20 C 465.43 22.66 466.36 28.01 467.11 32.80 C 463.17 35.19 458.40 35.06 453.96 34.97 C 453.84 38.68 454.14 42.39 454.94 46.01 C 458.09 45.02 461.39 45.02 464.66 45.04 C 465.34 45.85 466.07 46.62 466.85 47.35 C 466.08 53.21 468.11 59.40 465.79 65.02 C 464.82 64.65 463.83 64.34 462.83 64.07 C 452.20 63.65 441.57 64.20 430.94 63.93 C 430.17 66.79 430.61 69.79 430.08 72.69 C 430.64 73.88 431.39 74.96 432.10 76.06 C 437.67 75.84 443.26 76.25 448.83 75.90 C 453.95 74.56 459.34 74.88 464.53 75.64 C 467.04 76.13 466.11 79.23 466.05 81.04 C 465.86 95.71 466.24 110.38 465.83 125.05 C 464.50 125.03 463.21 124.67 462.23 123.75 C 459.07 121.49 455.74 119.38 452.09 118.03 C 452.11 121.25 452.40 124.48 452.07 127.70 C 455.17 131.42 459.97 132.79 463.95 135.33 C 464.09 142.46 463.74 149.59 464.25 156.70 C 464.08 158.23 464.48 160.01 463.51 161.32 C 457.93 164.63 453.35 169.28 448.30 173.28 C 446.50 175.22 443.85 176.40 442.61 178.79 C 445.52 180.38 448.18 182.38 450.94 184.23 C 457.44 178.63 464.48 173.66 470.40 167.40 C 472.72 165.68 475.03 163.94 477.05 161.84 C 477.02 158.19 477.14 154.54 476.59 150.93 C 476.18 148.42 477.82 145.35 480.74 146.06 C 484.49 148.05 488.50 149.56 492.00 151.99 C 491.59 148.69 492.96 145.23 491.98 142.06 C 488.49 138.17 483.38 136.28 478.62 134.42 C 477.72 133.48 476.96 132.33 477.07 130.97 C 476.90 118.60 476.94 106.22 477.50 93.86 C 477.06 89.00 476.76 84.10 477.15 79.23 C 480.07 74.54 486.40 76.39 490.99 76.03 C 499.29 76.38 507.53 75.53 515.79 74.99 C 516.05 74.67 516.57 74.04 516.83 73.73 C 516.60 70.58 517.14 67.42 516.74 64.28 C 513.18 63.73 509.59 63.51 505.99 63.65 C 499.62 63.82 493.31 62.66 486.95 62.99 C 483.96 62.83 480.32 63.50 478.18 60.87 C 479.71 56.47 478.78 51.73 479.00 47.18 C 483.22 44.60 488.05 45.06 492.77 44.93 C 495.45 42.61 493.38 38.15 494.02 34.96 C 489.19 33.62 484.11 34.34 479.17 33.91 C 477.87 28.95 479.41 23.98 479.03 18.96 C 475.31 18.85 471.44 19.45 467.85 18.20 M 508.65 166.58 C 504.68 168.83 501.44 173.17 496.35 172.35 C 500.22 176.96 505.15 180.76 510.70 183.13 C 513.72 178.05 518.34 174.21 523.14 170.92 C 530.96 173.24 535.88 180.14 542.44 184.54 C 548.39 189.60 554.68 194.27 560.56 199.42 C 565.14 203.48 570.61 206.39 575.13 210.50 C 577.48 209.08 580.55 208.24 582.18 205.95 C 582.04 205.61 581.76 204.93 581.63 204.58 C 578.25 201.52 575.00 198.22 571.07 195.85 C 562.22 189.46 554.32 181.93 545.46 175.56 C 540.35 170.80 534.68 166.59 528.35 163.61 C 525.13 162.37 523.04 158.24 519.21 159.00 C 515.47 161.19 512.42 164.40 508.65 166.58 M 23.97 164.23 C 24.01 164.84 24.11 166.06 24.16 166.67 C 26.99 170.19 30.50 173.14 34.00 175.96 C 40.11 177.82 46.74 177.06 52.91 176.02 C 60.34 177.92 68.08 176.59 75.62 176.46 C 79.67 177.63 83.84 176.20 87.95 176.88 C 111.28 177.17 134.63 177.03 157.96 176.83 C 162.69 177.63 167.43 176.07 172.15 176.90 C 180.43 177.04 188.71 176.70 197.00 176.95 C 201.05 176.52 205.20 175.78 209.24 176.76 C 210.96 177.31 212.69 176.75 214.39 176.40 C 217.68 175.52 221.02 176.92 224.35 176.49 C 230.25 176.03 236.24 175.62 242.05 177.02 C 248.26 175.51 254.70 176.28 261.03 176.45 C 275.99 175.40 290.98 176.49 305.95 176.26 C 312.46 177.77 319.10 175.02 325.61 176.52 C 330.89 177.52 336.23 175.48 341.51 176.56 C 346.17 177.32 350.91 175.39 355.51 176.47 C 359.57 179.42 362.98 183.19 367.29 185.82 C 372.10 188.91 376.12 193.01 380.82 196.24 C 386.82 201.04 393.82 204.65 399.06 210.37 C 402.35 208.63 404.81 205.76 407.86 203.66 C 407.89 203.31 407.97 202.63 408.01 202.28 C 401.08 198.33 395.47 192.58 388.93 188.08 C 380.25 181.36 371.31 175.00 362.45 168.52 C 360.28 167.04 358.53 164.71 355.87 164.09 C 339.32 163.58 322.72 164.44 306.20 163.50 C 302.07 164.22 297.87 163.85 293.74 163.36 C 287.81 163.17 281.86 164.06 276.00 163.03 C 264.53 163.27 253.06 163.01 241.59 163.42 C 234.81 162.77 228.00 163.07 221.20 163.01 C 168.82 162.92 116.42 163.10 64.05 163.03 C 59.77 163.86 55.40 164.21 51.04 163.89 C 48.08 163.67 45.12 162.53 42.14 163.20 C 36.19 164.83 30.00 163.24 23.97 164.23 M 401.18 173.17 C 397.14 177.03 391.33 179.02 388.56 184.11 C 391.19 186.42 393.94 188.62 396.98 190.38 C 402.69 185.67 408.11 180.62 413.90 176.00 C 416.53 178.33 420.37 178.56 422.84 181.18 C 429.99 185.96 436.08 192.14 443.45 196.58 C 447.59 199.15 450.96 202.71 455.02 205.41 C 458.07 203.61 460.78 201.30 463.53 199.08 C 459.07 192.83 451.45 190.21 446.53 184.48 C 442.24 182.27 439.11 178.44 434.88 176.10 C 429.21 170.38 423.24 164.35 415.00 162.74 C 410.10 165.81 405.42 169.24 401.18 173.17 M 591.00 163.76 C 586.56 163.31 582.08 166.07 577.86 163.83 C 576.28 165.28 574.48 166.45 572.80 167.77 C 567.60 172.37 561.02 175.32 556.67 180.88 C 560.02 182.88 562.77 185.69 566.06 187.76 C 571.23 183.47 575.73 178.33 581.41 174.72 C 591.92 175.36 602.47 174.81 613.00 175.03 C 626.94 174.78 640.90 175.52 654.82 174.57 C 670.18 175.53 685.66 174.79 701.07 175.06 C 704.05 175.20 706.95 176.05 709.95 176.03 C 714.62 176.27 719.21 175.00 723.88 175.10 C 725.92 175.26 727.88 176.16 729.96 176.01 C 740.48 174.29 751.16 175.43 761.74 175.50 C 770.90 174.37 780.16 175.45 789.35 174.83 C 797.57 174.61 805.78 175.20 814.01 175.01 C 824.31 174.76 834.62 175.37 844.90 174.60 C 848.83 174.12 852.73 175.57 856.65 174.84 C 858.95 174.34 861.33 174.09 863.68 174.53 C 871.32 176.11 879.08 173.57 886.77 174.76 C 891.21 175.65 895.58 173.88 900.03 174.54 C 903.50 175.21 906.27 172.48 909.36 171.36 C 912.47 170.32 913.75 167.17 915.37 164.62 C 909.11 165.22 902.85 163.23 896.59 164.23 C 892.38 164.99 888.17 163.57 883.97 164.29 C 877.98 164.87 872.01 164.11 866.03 164.01 C 862.69 164.73 859.37 163.86 856.02 163.95 C 842.70 164.30 829.36 164.07 816.04 164.13 C 769.03 163.84 722.01 164.08 674.99 163.99 C 651.33 163.83 627.66 164.34 604.01 163.72 C 599.67 163.23 595.34 164.07 591.00 163.76 M 474.53 170.00 C 479.70 175.71 486.48 179.62 492.11 184.85 C 498.22 189.07 503.25 194.66 509.68 198.44 C 512.63 200.43 515.13 203.75 518.89 204.11 C 521.43 203.26 523.49 201.47 525.15 199.42 C 519.10 195.44 513.70 190.53 508.30 185.73 C 499.26 179.46 491.19 171.95 482.59 165.10 C 478.95 164.00 476.72 167.83 474.53 170.00 M 641.07 177.99 C 627.25 180.09 613.90 186.13 603.52 195.54 C 602.41 196.09 601.26 196.54 600.14 197.04 C 599.54 196.13 598.22 194.62 599.59 193.71 C 601.36 191.71 604.56 190.37 604.18 187.21 C 601.94 185.52 599.52 184.06 596.89 183.08 C 594.60 183.19 592.49 184.32 590.32 184.98 C 593.52 187.34 597.73 190.17 596.96 194.79 C 595.50 197.87 595.05 201.91 591.69 203.58 C 585.58 207.12 580.41 212.15 573.81 214.83 C 569.72 218.25 565.91 222.00 561.63 225.21 C 563.47 227.12 565.29 229.53 568.02 230.12 C 577.99 223.57 587.76 216.62 596.96 208.98 C 599.27 207.21 601.50 205.23 604.35 204.37 C 607.24 203.44 609.52 200.98 612.69 200.87 C 615.13 204.44 615.61 208.80 617.29 212.70 C 621.46 216.72 627.11 219.29 632.97 219.07 C 640.13 218.63 645.87 213.96 651.96 210.71 C 656.51 211.92 661.30 209.01 665.58 211.50 C 668.07 212.55 669.39 215.01 670.86 217.13 C 670.16 219.51 669.86 222.18 667.91 223.95 C 665.27 226.25 661.51 226.06 658.23 225.97 C 657.40 227.05 656.47 228.05 655.54 229.03 C 658.51 234.79 666.94 236.00 671.48 231.47 C 677.48 227.30 679.76 219.29 677.81 212.40 C 676.36 208.98 674.03 206.05 671.74 203.17 C 667.17 200.85 662.55 198.32 657.48 197.28 C 648.88 194.65 639.39 195.88 631.11 199.12 C 629.88 197.81 628.42 196.34 629.08 194.37 C 629.99 193.51 630.91 192.47 632.22 192.23 C 635.89 191.28 639.52 190.13 643.22 189.24 C 649.93 187.21 657.10 187.84 663.92 188.99 C 667.86 189.54 671.25 191.77 674.91 193.18 C 679.58 195.04 683.72 198.37 686.35 202.66 C 688.18 205.47 687.60 209.03 689.07 211.97 C 690.37 214.58 691.09 217.60 693.18 219.74 C 697.46 224.13 701.48 229.06 707.09 231.83 C 702.42 225.28 697.30 218.80 695.07 210.92 C 694.65 208.47 695.82 206.18 696.31 203.83 C 700.95 204.60 704.03 208.68 707.71 211.28 C 715.58 220.30 726.61 225.35 736.85 231.15 C 740.47 232.97 744.41 234.11 747.98 236.06 C 752.88 238.66 758.57 238.08 763.90 238.90 C 772.93 239.15 781.98 238.94 791.01 239.00 C 796.33 238.04 801.64 239.44 807.00 239.01 C 812.97 239.47 818.78 237.93 824.71 237.79 C 833.21 234.76 842.73 232.54 849.06 225.63 C 845.35 222.32 839.78 222.69 835.14 223.02 C 831.49 224.08 828.21 226.08 825.00 228.06 C 824.54 227.04 824.02 226.05 823.47 225.10 C 828.40 221.98 832.44 217.67 836.46 213.49 C 841.01 209.55 844.69 204.60 847.08 199.06 C 850.03 193.10 850.32 186.31 851.14 179.82 C 846.91 180.01 843.64 183.13 840.08 185.06 C 834.14 189.21 828.07 195.03 827.62 202.71 C 826.65 206.64 825.20 210.43 823.85 214.24 C 824.30 214.13 825.21 213.91 825.66 213.80 C 828.71 210.43 829.69 205.85 832.02 202.02 C 833.96 198.62 835.85 194.46 839.83 193.12 C 840.98 196.21 839.98 199.51 839.75 202.67 C 838.21 205.68 835.62 207.93 833.56 210.55 C 831.83 212.92 828.57 213.50 827.04 216.06 C 823.87 219.55 820.79 223.43 816.29 225.21 C 812.74 226.74 810.08 230.67 805.85 230.03 C 806.26 228.82 806.03 227.02 807.42 226.40 C 810.74 224.77 814.26 223.44 817.22 221.17 C 816.59 220.16 815.78 219.25 815.44 218.11 C 817.19 214.75 820.77 212.09 820.82 208.00 C 819.86 199.88 812.24 193.44 804.27 193.10 C 802.42 193.64 800.64 194.36 798.88 195.11 C 802.86 197.26 807.03 199.44 809.68 203.26 C 811.65 205.27 810.90 208.31 810.88 210.84 C 809.92 215.00 806.04 217.43 803.13 220.21 C 799.88 223.21 795.27 223.50 791.32 225.04 C 784.90 227.22 778.04 227.43 771.36 226.64 C 766.72 225.60 761.82 226.62 757.33 224.80 C 748.99 223.45 741.27 219.75 733.64 216.28 C 731.34 215.53 730.77 212.68 732.12 210.82 C 738.98 214.21 746.67 214.95 754.14 215.98 C 760.14 216.49 766.15 215.01 771.65 212.71 C 776.18 210.78 779.41 205.96 779.09 201.00 C 779.43 195.80 777.64 189.85 772.88 187.10 C 768.81 184.06 763.24 183.53 758.81 186.13 C 758.02 191.78 766.03 190.02 767.54 194.50 C 769.73 196.76 769.11 200.04 767.35 202.35 C 766.11 204.54 763.28 204.02 761.20 203.86 C 755.27 201.49 751.54 195.98 746.01 193.01 C 742.33 190.38 738.53 187.48 733.88 187.01 C 731.70 186.95 729.50 186.91 727.33 187.16 C 723.59 187.88 721.06 190.93 718.67 193.64 C 715.71 196.84 715.62 201.43 713.86 205.25 C 710.30 204.10 708.14 200.83 705.06 198.90 C 700.86 196.16 697.29 192.57 692.84 190.20 C 686.49 185.49 678.56 183.99 671.73 180.19 C 661.80 177.35 651.31 177.60 641.07 177.99 M 855.16 177.16 C 854.36 183.17 855.80 189.33 854.27 195.25 C 853.01 201.49 855.43 207.81 854.04 214.03 C 854.21 222.37 853.34 230.82 854.75 239.09 C 853.88 244.02 853.89 249.02 853.97 254.03 C 853.34 259.18 856.53 263.73 859.55 267.58 C 861.97 268.98 864.63 269.95 867.32 270.75 C 873.39 272.39 879.51 268.82 883.28 264.24 C 886.24 259.16 885.24 252.83 883.67 247.44 C 881.03 243.20 875.75 241.37 870.94 241.59 C 871.81 244.57 872.11 247.66 872.00 250.76 C 873.34 251.88 874.87 252.86 875.91 254.31 C 877.69 260.03 868.67 263.97 865.16 259.72 C 864.79 256.24 864.96 252.69 865.34 249.22 C 866.05 245.63 864.95 241.98 865.46 238.37 C 865.94 235.58 865.02 232.82 865.21 230.03 C 865.90 224.81 864.24 219.55 865.37 214.35 C 866.45 210.82 863.53 207.88 862.66 204.66 C 862.54 200.78 864.07 197.21 865.40 193.66 C 865.30 188.10 865.22 182.54 865.00 176.98 C 861.71 177.00 858.43 176.88 855.16 177.16 M 870.38 177.10 C 870.03 178.47 870.55 178.99 871.93 178.67 C 872.30 177.24 871.79 176.72 870.38 177.10 M 71.18 180.21 C 70.86 184.06 70.83 187.95 71.14 191.81 C 72.36 195.14 75.90 197.87 74.88 201.80 C 73.34 207.45 70.94 212.93 71.22 218.92 C 71.91 223.19 70.31 227.48 71.50 231.72 C 72.67 235.62 70.53 239.52 71.37 243.43 C 72.11 248.86 71.70 254.34 71.73 259.79 C 71.66 262.23 69.73 263.98 67.56 264.74 C 64.10 266.97 58.40 262.63 60.80 258.83 C 61.30 256.09 64.15 255.20 66.14 253.79 C 66.74 250.65 66.44 247.47 66.43 244.31 C 57.54 245.71 48.46 253.13 49.07 262.79 C 50.33 266.15 51.66 269.49 53.20 272.73 C 58.55 276.78 65.81 278.02 72.31 276.40 C 77.67 275.44 80.83 270.30 82.81 265.67 C 83.33 260.47 84.42 255.24 83.72 250.01 C 84.57 236.93 83.44 223.84 83.68 210.76 C 84.83 200.43 83.10 190.09 83.80 179.78 C 79.61 178.38 75.39 179.76 71.18 180.21 M 245.28 189.27 C 241.46 192.60 236.56 194.37 232.94 197.94 C 231.08 199.93 228.36 200.53 225.85 201.27 C 226.21 197.98 231.02 196.15 229.53 192.50 C 227.03 185.70 218.50 184.87 212.37 186.39 C 207.99 187.45 204.86 190.81 201.30 193.30 C 196.07 196.26 190.92 199.64 184.96 200.92 C 181.94 201.42 179.14 199.69 177.04 197.71 C 177.11 196.23 177.09 194.74 176.99 193.27 C 179.87 190.11 184.36 189.88 187.89 187.80 C 187.95 187.13 188.06 185.81 188.12 185.14 C 185.08 182.20 180.32 182.50 176.56 183.43 C 172.93 186.48 167.13 189.39 167.93 194.99 C 167.50 203.78 174.77 211.32 183.06 213.00 C 186.51 214.29 190.23 214.18 193.84 213.98 C 200.96 211.32 207.24 206.94 214.14 203.86 C 215.91 202.62 217.02 204.52 217.96 205.76 C 206.19 213.53 192.79 218.14 180.04 223.98 C 177.76 225.18 175.03 225.33 172.65 224.33 C 168.41 222.70 163.83 221.63 160.15 218.86 C 157.28 216.98 156.71 212.82 153.10 211.88 C 149.54 213.69 148.96 218.51 151.98 221.11 C 156.70 224.53 162.74 224.79 168.20 226.25 C 167.95 228.52 165.70 229.25 163.78 229.59 C 158.29 230.35 152.73 230.30 147.23 229.72 C 142.49 227.74 137.91 225.30 133.86 222.12 C 131.21 218.68 129.33 214.29 129.91 209.86 C 130.03 207.00 130.21 203.59 132.76 201.75 C 135.55 198.96 139.75 200.27 143.25 200.13 C 142.32 196.38 139.05 193.68 135.18 193.56 C 130.44 194.03 127.16 197.95 124.28 201.34 C 123.07 204.85 121.99 208.44 121.50 212.14 C 121.75 215.40 122.46 218.78 121.20 221.95 C 124.92 224.36 129.33 225.10 133.22 227.13 C 132.44 227.89 131.65 229.56 130.31 228.68 C 122.73 225.90 115.35 222.10 109.25 216.75 C 105.74 213.92 104.13 209.66 102.11 205.78 C 102.10 205.09 102.08 203.71 102.07 203.02 C 107.39 203.15 111.41 208.12 113.17 212.76 C 114.15 216.45 117.01 219.20 120.06 221.31 C 119.14 219.07 118.21 216.82 117.59 214.48 C 115.37 211.77 114.00 208.56 112.67 205.36 C 109.91 201.82 106.87 198.38 102.99 196.05 C 98.54 193.26 94.23 189.89 89.00 188.71 C 90.46 196.39 93.27 203.87 97.43 210.50 C 102.78 217.39 109.77 223.15 117.99 226.27 C 117.93 226.85 117.80 228.00 117.73 228.58 C 112.41 227.41 107.55 224.21 102.10 223.94 C 97.72 225.00 93.50 227.47 90.58 230.97 C 93.97 232.56 97.75 232.89 101.37 233.70 C 108.88 235.12 116.47 233.38 123.99 233.07 C 130.70 233.80 136.93 236.78 143.56 237.92 C 150.87 237.88 158.25 238.52 165.51 237.35 C 171.48 236.17 177.54 235.25 183.34 233.34 C 187.08 231.67 191.01 230.49 194.72 228.76 C 202.27 225.74 208.49 220.31 215.80 216.82 C 220.06 214.12 224.24 211.28 228.76 209.02 C 229.26 209.33 230.25 209.95 230.75 210.26 C 231.08 212.07 232.33 213.88 231.79 215.74 C 229.31 220.81 225.82 225.40 221.14 228.63 C 220.58 228.41 219.45 227.96 218.88 227.74 C 219.55 223.89 222.28 220.67 222.33 216.66 C 216.60 221.09 214.29 229.15 215.13 236.14 C 225.47 233.14 234.31 225.26 238.21 215.19 C 239.31 212.36 238.62 209.00 240.43 206.45 C 247.19 200.79 255.05 196.65 263.16 193.29 C 268.49 191.28 274.10 189.87 279.82 189.86 C 284.76 188.43 289.87 189.81 294.60 191.35 C 296.47 192.19 297.23 194.06 297.36 196.00 C 287.89 196.22 278.15 195.17 268.97 198.05 C 264.48 199.08 260.92 202.24 256.54 203.57 C 251.65 208.02 246.72 214.77 249.20 221.70 C 250.32 226.63 254.08 230.61 258.88 232.16 C 261.98 233.99 265.48 232.44 268.68 231.77 C 272.07 230.86 273.65 227.35 274.81 224.35 C 273.06 223.87 271.30 222.55 269.46 223.40 C 264.74 224.92 258.24 223.67 256.09 218.75 C 255.23 215.43 258.22 213.19 260.72 211.73 C 262.83 209.92 265.70 209.99 268.26 209.33 C 272.23 208.23 276.00 210.37 279.79 211.25 C 283.52 212.00 285.92 215.20 289.26 216.75 C 293.29 218.70 297.31 221.06 301.89 221.37 C 306.59 222.27 311.17 219.55 314.11 216.08 C 317.12 212.13 316.29 206.83 314.64 202.51 C 312.39 200.46 309.61 199.25 307.04 197.71 C 306.82 196.61 307.24 195.87 308.31 195.48 C 313.34 196.10 317.89 198.51 322.45 200.57 C 327.67 202.67 331.63 206.90 336.67 209.34 C 339.63 210.70 341.94 213.29 345.01 214.34 C 348.53 212.94 350.65 209.46 353.79 207.43 C 350.88 204.09 346.77 202.20 343.14 199.78 C 343.15 196.38 341.96 193.15 341.56 189.81 C 341.36 186.62 343.72 184.06 344.09 180.98 C 340.68 181.33 337.07 182.26 335.00 185.22 C 333.80 189.32 336.27 192.96 338.70 195.99 C 337.77 196.67 336.91 197.41 336.11 198.23 C 332.88 193.34 328.10 189.58 322.76 187.25 C 320.46 186.55 318.13 185.95 315.90 185.07 C 311.81 183.37 307.30 183.23 303.11 181.87 C 293.31 179.14 283.08 179.20 273.00 178.98 C 263.07 180.12 253.74 184.08 245.28 189.27 M 890.43 178.33 C 895.02 181.99 898.08 187.17 903.21 190.20 C 902.74 191.23 902.49 193.33 900.91 193.00 C 896.16 193.23 893.36 189.01 889.41 187.35 C 890.35 192.10 894.22 195.65 898.28 197.89 C 902.58 198.13 906.90 197.92 911.21 198.21 C 906.56 191.80 902.66 184.54 896.04 179.90 C 894.28 179.03 892.38 178.46 890.43 178.33 M 63.36 180.43 C 62.70 181.89 63.09 182.28 64.54 181.60 C 65.19 180.14 64.80 179.75 63.36 180.43 M 872.34 179.70 C 873.28 182.32 874.59 184.79 875.73 187.34 C 876.36 190.34 875.95 193.45 875.77 196.48 C 873.51 195.92 871.26 196.31 869.13 197.13 C 868.03 199.83 867.76 202.78 868.16 205.65 C 870.75 209.70 876.57 210.01 880.28 207.35 C 885.42 204.70 887.54 198.49 887.07 193.00 C 887.21 188.47 883.54 184.99 879.83 183.01 C 880.11 185.67 881.04 188.20 881.44 190.83 C 881.21 193.94 880.76 197.04 879.84 200.02 C 879.12 199.98 877.68 199.89 876.96 199.85 C 877.22 197.58 877.84 195.35 877.95 193.06 C 877.18 188.27 876.73 182.71 872.34 179.70 M 29.25 197.10 C 29.18 200.55 28.33 203.89 27.70 207.27 C 32.65 206.44 35.28 201.84 38.79 198.80 C 42.54 195.60 45.05 191.20 46.29 186.46 C 44.17 187.67 42.75 189.61 41.75 191.79 C 40.26 194.88 36.60 195.94 34.82 198.81 C 33.83 200.38 32.66 201.83 31.15 202.94 C 30.43 202.05 29.86 201.08 29.44 200.03 C 30.85 196.45 33.41 193.51 35.11 190.09 C 36.85 186.78 40.30 184.87 42.31 181.77 C 35.82 184.30 30.28 190.05 29.25 197.10 M 60.45 183.08 C 59.67 183.43 58.24 185.32 59.64 185.72 C 61.28 185.90 63.03 182.03 60.45 183.08 M 47.16 184.26 C 47.81 184.90 47.81 184.90 47.16 184.26 M 48.60 193.62 C 47.37 198.99 48.29 204.60 50.32 209.68 C 51.19 211.26 53.10 212.31 54.92 212.02 C 59.39 210.71 64.85 212.02 68.03 207.79 C 68.10 203.84 68.28 199.89 68.03 195.95 C 65.89 196.00 63.48 195.54 61.78 197.18 C 62.07 198.79 62.53 200.35 62.96 201.93 C 61.78 202.72 59.90 203.73 58.86 202.16 C 57.38 199.24 57.20 195.82 56.72 192.62 C 56.01 193.68 54.80 194.65 54.93 196.06 C 54.87 199.65 58.19 202.27 58.11 205.91 C 57.39 205.93 55.95 205.96 55.24 205.98 C 53.88 203.91 52.24 201.99 51.30 199.68 C 50.98 197.53 50.91 195.33 51.10 193.16 C 52.09 190.19 53.84 187.56 55.09 184.70 C 52.51 187.31 50.16 190.28 48.60 193.62 M 487.20 185.03 C 484.54 186.70 482.15 188.78 479.52 190.49 C 474.15 193.62 469.97 198.32 464.94 201.91 C 457.25 207.88 449.88 214.24 442.13 220.14 C 441.18 220.85 440.47 221.80 439.74 222.71 C 443.41 225.25 447.08 227.82 450.41 230.81 C 454.06 226.23 459.26 223.45 463.38 219.39 C 468.84 214.82 474.72 210.75 479.89 205.83 C 485.07 200.82 491.35 197.12 496.44 191.99 C 493.68 189.41 491.07 185.71 487.20 185.03 M 57.35 187.25 C 56.73 188.70 57.13 189.11 58.55 188.48 C 59.14 186.97 58.74 186.56 57.35 187.25 M 525.79 203.76 C 517.70 210.46 509.28 216.71 501.28 223.50 C 504.51 225.67 507.43 228.37 511.07 229.89 C 514.29 228.41 516.65 225.57 519.59 223.63 C 524.64 220.04 529.39 216.08 534.24 212.24 C 540.22 206.48 547.56 202.31 553.31 196.30 C 550.67 193.94 547.92 191.71 545.00 189.71 C 538.39 194.12 532.36 199.29 525.79 203.76 M 416.42 200.35 C 411.93 204.21 407.17 207.78 402.75 211.74 C 397.86 216.83 391.52 220.34 386.93 225.72 C 389.06 227.87 391.62 229.51 394.06 231.30 C 407.43 220.67 420.36 209.49 433.45 198.52 C 434.62 197.57 437.58 196.17 435.94 194.38 C 433.85 192.97 431.72 190.97 429.11 190.87 C 424.19 193.07 421.25 197.98 416.42 200.35 M 370.59 197.49 C 367.61 200.56 363.89 202.78 360.77 205.69 C 357.06 209.42 352.25 211.82 348.66 215.69 C 339.54 223.54 329.50 230.42 321.46 239.45 C 319.22 244.07 315.29 248.46 315.94 253.93 C 316.40 260.61 322.23 266.40 328.88 266.84 C 332.51 265.65 338.68 265.04 338.30 259.93 C 334.94 260.46 331.30 260.76 328.34 258.74 C 326.25 256.13 327.05 252.40 327.23 249.32 C 332.13 242.89 338.48 237.63 345.22 233.27 C 353.10 226.07 361.86 219.91 369.79 212.78 C 373.78 208.54 378.81 205.45 382.55 200.95 C 380.19 198.77 377.57 196.90 374.84 195.22 C 373.42 195.97 371.84 196.47 370.59 197.49 M 895.01 199.70 C 894.71 203.46 895.78 207.55 893.85 211.02 C 893.20 211.01 891.91 210.99 891.26 210.98 C 890.76 208.60 890.10 206.23 889.00 204.06 C 886.40 206.14 886.71 209.68 887.17 212.62 C 889.61 214.71 891.23 218.98 894.74 219.02 C 897.73 215.33 898.36 210.47 899.05 205.93 C 899.50 203.17 897.99 200.07 895.01 199.70 M 36.18 217.96 C 39.69 217.36 41.97 214.64 44.04 211.99 C 42.52 212.69 41.19 214.41 39.35 213.94 C 37.42 212.56 38.11 209.95 37.68 207.92 C 34.64 210.34 36.30 214.66 36.18 217.96 M 471.10 217.31 C 474.02 220.36 477.62 222.58 481.16 224.82 C 483.88 227.88 487.67 229.64 490.43 232.64 C 496.35 236.24 501.19 241.30 506.94 245.15 C 512.47 249.66 518.37 253.68 523.99 258.09 C 526.48 260.31 529.46 258.21 531.74 256.83 C 539.17 252.03 545.99 246.37 553.02 241.03 C 553.94 240.20 555.45 239.51 555.43 238.07 C 553.76 235.75 550.94 234.73 548.78 232.97 C 542.07 237.25 535.11 241.12 528.77 245.94 C 525.67 246.25 523.05 244.03 520.68 242.33 C 515.60 236.98 508.98 233.43 503.70 228.29 C 502.61 227.29 501.31 226.57 500.04 225.84 C 494.50 223.04 490.37 218.27 485.47 214.59 C 483.50 213.09 481.71 210.90 479.09 210.70 C 476.21 212.62 473.84 215.20 471.10 217.31 M 533.10 216.57 C 535.87 219.63 539.30 221.95 542.55 224.45 C 548.00 227.86 552.35 232.69 557.57 236.41 C 560.52 238.79 563.55 241.07 566.57 243.37 C 569.01 245.35 572.10 246.41 574.26 248.77 C 576.52 250.62 578.68 253.55 581.96 253.06 C 592.96 252.96 603.97 252.93 614.98 253.06 C 615.25 252.01 615.56 250.98 615.92 249.96 C 614.36 247.27 612.86 244.42 610.59 242.27 C 607.15 241.40 603.63 242.97 600.12 242.79 C 594.39 242.46 588.68 243.15 582.95 243.00 C 581.61 242.80 579.88 243.37 578.87 242.23 C 574.49 237.79 568.60 235.21 564.29 230.70 C 561.29 227.65 557.81 225.13 554.36 222.62 C 549.41 219.26 545.12 215.02 540.05 211.83 C 537.87 213.59 535.73 215.48 533.10 216.57 M 701.70 211.76 C 706.52 218.05 711.50 225.40 711.28 233.65 C 713.15 234.49 715.04 235.31 717.03 235.84 C 716.26 225.91 710.48 216.57 701.70 211.76 M 414.13 219.27 C 414.11 219.62 414.08 220.34 414.07 220.70 C 427.45 231.19 441.36 240.96 455.09 250.99 C 456.12 251.71 457.35 252.58 458.66 251.86 C 461.35 250.40 463.56 248.22 466.22 246.68 C 465.27 244.10 462.63 242.98 460.59 241.44 C 451.21 234.07 441.20 227.52 431.83 220.15 C 428.66 217.50 425.48 214.85 421.95 212.70 C 419.39 214.95 416.63 216.96 414.13 219.27 M 777.38 219.44 C 775.00 220.71 772.61 222.07 770.72 224.02 C 775.75 223.25 780.89 221.99 785.28 219.37 C 787.87 218.11 788.03 213.49 785.01 212.85 C 782.04 214.47 780.47 217.93 777.38 219.44 M 587.58 220.20 C 588.78 222.41 591.27 223.33 593.13 224.88 C 597.08 228.27 601.35 231.28 605.25 234.74 C 609.99 238.23 615.20 241.73 617.68 247.29 C 619.48 250.04 619.59 253.96 617.67 256.68 C 615.89 260.36 611.02 259.11 607.80 258.68 C 607.89 262.20 609.81 265.70 613.33 266.78 C 617.60 267.62 622.66 267.17 625.82 263.82 C 629.68 260.02 633.30 254.45 631.22 248.87 C 630.77 245.30 628.27 242.57 626.39 239.67 C 624.70 238.18 622.37 237.71 620.37 236.78 C 620.17 236.19 619.79 235.00 619.59 234.40 C 611.48 228.09 604.13 220.92 595.98 214.70 C 593.39 216.83 590.61 218.74 587.58 220.20 M 360.83 225.01 C 363.93 227.70 367.76 229.46 371.04 231.96 C 378.16 237.77 386.49 241.76 393.92 247.10 C 399.87 251.61 406.45 255.16 412.83 259.01 C 420.55 253.67 427.15 246.91 434.96 241.68 C 434.95 241.31 434.93 240.55 434.92 240.18 C 432.73 237.12 429.08 235.68 426.04 233.66 C 421.94 237.10 417.22 239.69 413.16 243.16 C 411.96 244.06 410.69 245.27 409.06 244.98 C 404.86 243.56 401.79 240.25 398.21 237.79 C 392.85 234.19 387.95 229.94 382.40 226.63 C 378.06 223.21 372.73 221.03 368.99 216.90 C 366.15 219.43 362.66 221.61 360.83 225.01 M 316.94 224.68 C 317.07 226.78 316.34 229.27 318.04 230.94 C 319.12 233.16 322.06 234.38 324.05 232.57 C 322.83 232.27 321.61 232.00 320.39 231.77 C 319.90 230.55 319.37 229.35 318.88 228.14 C 322.09 227.74 326.48 229.49 328.43 226.03 C 324.47 226.54 320.79 225.08 316.94 224.68 M 329.32 226.09 C 329.47 229.43 332.24 224.53 329.32 226.09 M 624.14 227.94 C 625.17 230.21 627.95 228.13 629.74 228.37 C 629.30 230.96 626.76 231.83 624.78 232.98 C 629.09 233.66 632.89 231.15 636.42 229.06 C 632.72 226.57 628.26 226.75 624.14 227.94 M 473.80 244.70 C 467.80 248.28 462.95 253.44 456.88 256.93 C 454.34 260.52 451.50 264.13 450.43 268.50 C 449.15 272.10 450.61 276.17 453.13 278.86 C 456.17 283.16 461.10 285.83 466.17 286.97 C 470.13 287.49 473.92 285.80 477.59 284.57 C 480.38 283.63 482.65 281.43 483.58 278.62 C 486.60 272.56 484.11 265.65 481.88 259.77 C 477.75 259.40 475.11 263.20 471.87 265.13 C 474.75 268.20 474.74 273.09 471.79 276.10 C 467.51 276.50 462.70 272.90 463.46 268.38 C 463.81 266.01 466.00 264.95 467.84 263.84 C 477.78 257.21 486.48 248.96 495.94 241.72 C 496.46 239.61 493.87 238.55 492.69 237.23 C 491.00 236.28 489.33 234.08 487.21 235.02 C 482.32 237.62 478.36 241.62 473.80 244.70 M 364.68 242.84 C 356.28 242.33 347.78 241.52 339.35 242.21 C 335.91 245.11 332.15 249.10 333.01 253.98 C 336.92 254.28 340.78 253.16 344.70 253.50 C 351.69 254.54 358.78 253.81 365.81 253.97 C 368.85 252.47 370.70 249.39 373.47 247.49 C 375.95 245.84 378.10 243.74 380.55 242.04 C 378.61 239.50 375.60 238.33 372.97 236.70 C 370.18 238.70 367.70 241.17 364.68 242.84 M 715.09 241.75 C 687.30 242.03 659.50 241.96 631.70 242.00 C 633.44 245.53 634.51 249.22 634.97 253.11 C 645.32 253.07 655.67 252.69 666.02 253.03 C 675.82 252.73 685.65 253.47 695.41 252.45 C 700.52 253.49 705.61 252.23 710.73 252.86 C 714.23 251.69 717.83 252.26 721.38 252.87 C 725.50 252.58 729.60 252.14 733.74 252.49 C 741.82 250.97 749.89 253.40 757.99 252.79 C 767.39 252.66 776.78 251.58 786.18 252.22 C 802.47 252.11 818.75 251.98 835.03 252.20 C 839.36 252.81 843.70 252.39 848.03 251.95 C 848.00 248.28 848.22 244.62 848.11 240.96 C 840.09 240.83 832.07 241.02 824.06 241.04 C 819.12 242.36 813.97 241.65 809.01 242.81 C 797.00 243.22 784.97 242.92 772.96 242.97 C 766.68 242.33 760.37 241.94 754.12 241.13 C 746.66 242.83 739.01 240.63 731.47 241.22 C 726.02 241.86 720.52 240.82 715.09 241.75 M 90.04 243.99 C 89.49 247.69 89.76 251.40 90.11 255.10 C 99.14 254.15 108.28 255.92 117.30 254.52 C 130.67 255.09 144.07 255.22 157.45 254.72 C 164.50 255.49 171.57 254.53 178.63 254.65 C 186.07 255.38 193.58 255.28 201.02 254.67 C 210.71 255.05 220.45 255.23 230.14 254.67 C 247.11 254.35 264.03 254.45 280.99 254.13 C 291.58 253.69 302.19 254.41 312.78 253.94 C 313.01 250.51 313.95 247.20 314.80 243.89 C 305.38 244.41 296.05 242.51 286.65 243.17 C 281.43 242.67 276.28 243.78 271.09 243.03 C 263.43 243.92 255.71 243.13 248.04 243.78 C 239.99 242.74 231.74 244.59 223.63 243.27 C 216.50 243.02 209.38 244.72 202.25 243.52 C 198.10 242.49 194.03 245.01 189.89 243.93 C 184.93 242.85 179.99 244.27 175.00 244.00 C 146.68 243.86 118.37 244.04 90.04 243.99 Z" />
<path fill="#030303" opacity="1.00" d=" M 210.64 194.28 C 209.65 193.47 210.43 191.46 211.73 191.75 C 214.70 192.07 217.70 191.90 220.68 192.22 C 224.02 195.00 221.10 200.96 217.23 201.81 C 217.16 200.63 217.05 199.46 216.92 198.30 C 215.54 195.89 211.88 196.75 210.64 194.28 Z" />
<path fill="#030303" opacity="1.00" d=" M 727.80 200.85 C 727.82 197.02 731.68 195.10 734.08 192.70 C 736.56 194.00 736.13 196.66 735.03 198.75 C 736.36 199.86 737.81 200.88 738.88 202.27 C 739.44 203.52 738.16 204.78 737.03 204.99 C 733.93 203.65 730.79 202.41 727.80 200.85 Z" />
<path fill="#030303" opacity="1.00" d=" M 200.84 198.16 C 204.30 195.24 210.31 195.36 212.91 199.24 C 213.19 202.31 210.22 205.31 207.35 206.11 C 206.85 204.42 206.34 202.74 205.87 201.04 C 204.24 200.15 200.66 200.74 200.84 198.16 Z" />
<path fill="#030303" opacity="1.00" d=" M 288.10 197.96 C 290.55 200.18 295.28 201.69 294.90 205.64 C 292.47 208.31 286.85 211.03 284.53 206.91 C 285.75 206.16 286.95 205.38 288.16 204.61 C 287.42 203.33 286.62 202.08 285.84 200.84 C 286.65 199.93 287.43 198.99 288.10 197.96 Z" />
<path fill="#030303" opacity="1.00" d=" M 636.61 204.05 C 639.30 200.43 643.88 199.33 647.97 198.05 C 648.56 200.41 646.48 201.96 645.22 203.62 C 646.47 204.14 647.71 204.69 648.96 205.23 C 648.97 205.93 648.99 207.33 648.99 208.03 C 644.53 208.27 640.31 206.37 636.61 204.05 Z" />
<path fill="#030303" opacity="1.00" d=" M 738.76 200.01 C 740.18 196.89 743.57 198.36 746.05 199.00 C 747.35 199.12 748.38 199.91 749.30 200.80 C 748.42 201.93 747.51 203.02 746.63 204.14 C 747.00 205.74 747.36 207.35 747.67 208.97 C 746.54 208.97 745.42 208.98 744.31 209.01 C 742.21 206.16 740.28 203.20 738.76 200.01 Z" />
<path fill="#030303" opacity="1.00" d=" M 275.88 198.92 C 278.63 199.48 282.99 199.38 283.43 203.03 C 282.97 205.35 280.47 206.60 278.39 207.23 C 277.42 204.50 276.26 201.81 275.88 198.92 Z" />
<path fill="#030303" opacity="1.00" d=" M 650.90 201.25 C 653.21 200.58 655.54 199.91 657.83 199.11 C 658.15 199.56 658.79 200.46 659.11 200.91 C 658.20 202.29 656.92 203.70 657.42 205.49 C 657.93 206.92 656.75 208.46 655.21 207.97 C 653.42 205.96 650.06 204.43 650.90 201.25 Z" />
<path fill="#030303" opacity="1.00" d=" M 191.15 199.87 C 194.40 201.00 198.37 200.65 200.91 203.33 C 201.61 207.88 195.74 209.79 192.05 209.90 C 191.87 208.08 192.67 206.61 194.06 205.49 C 192.00 204.29 188.37 202.42 191.15 199.87 Z" />
<path fill="#030303" opacity="1.00" d=" M 630.22 200.90 C 631.42 201.07 633.10 200.69 633.60 202.20 C 633.62 203.52 632.84 205.03 633.74 206.21 C 635.13 208.06 637.41 208.91 639.30 210.14 C 638.92 210.58 638.16 211.46 637.78 211.89 C 633.76 212.24 629.72 211.68 625.78 210.92 C 626.55 207.30 628.70 204.22 630.22 200.90 Z" />
<path fill="#030303" opacity="1.00" d=" M 298.97 208.86 C 297.08 206.97 294.13 203.12 298.15 201.71 C 301.18 202.21 303.42 204.81 305.22 207.12 C 304.78 210.82 301.51 213.61 297.94 214.19 C 298.04 212.37 298.20 210.53 298.97 208.86 Z" />
<path fill="#030303" opacity="1.00" d=" M 748.94 205.18 C 751.94 204.85 755.30 202.97 758.10 204.98 C 756.75 207.19 757.83 211.08 755.05 212.08 C 752.46 210.39 749.05 208.72 748.94 205.18 Z" />
</g>
</svg>
