<?xml version="1.0" encoding="UTF-8" standalone="no"?>
<svg
   xmlns:dc="http://purl.org/dc/elements/1.1/"
   xmlns:cc="http://creativecommons.org/ns#"
   xmlns:rdf="http://www.w3.org/1999/02/22-rdf-syntax-ns#"
   xmlns:svg="http://www.w3.org/2000/svg"
   xmlns="http://www.w3.org/2000/svg"
   xmlns:sodipodi="http://sodipodi.sourceforge.net/DTD/sodipodi-0.dtd"
   xmlns:inkscape="http://www.inkscape.org/namespaces/inkscape"
   width="137pt"
   height="136pt"
   viewBox="0 0 137 136"
   version="1.1"
   id="svg42"
   sodipodi:docname="ramka-left.svg"
   inkscape:version="1.0.2-2 (e86c870879, 2021-01-15)">
  <metadata
     id="metadata48">
    <rdf:RDF>
      <cc:Work
         rdf:about="">
        <dc:format>image/svg+xml</dc:format>
        <dc:type
           rdf:resource="http://purl.org/dc/dcmitype/StillImage" />
        <dc:title></dc:title>
      </cc:Work>
    </rdf:RDF>
  </metadata>
  <defs
     id="defs46" />
  <sodipodi:namedview
     pagecolor="#ffffff"
     bordercolor="#666666"
     borderopacity="1"
     objecttolerance="10"
     gridtolerance="10"
     guidetolerance="10"
     inkscape:pageopacity="0"
     inkscape:pageshadow="2"
     inkscape:window-width="1600"
     inkscape:window-height="1147"
     id="namedview44"
     showgrid="false"
     inkscape:zoom="4.0533088"
     inkscape:cx="91.333333"
     inkscape:cy="90.666667"
     inkscape:window-x="-8"
     inkscape:window-y="-8"
     inkscape:window-maximized="1"
     inkscape:current-layer="svg42" />
  <g
     id="#fdfdfdff"
     transform="rotate(-90)" />
  <g
     id="#2b2b2bff"
     transform="rotate(-90,68.494076,70.03)">
    <path
       fill="#ffd249"
       opacity="1"
       d="m 0,4.45 c -0.23,5.24 2.94,9.55 5.04,14.08 1.89,-1.39 3.95,-2.51 6.11,-3.4 0.75,1.74 1.6,3.47 2.05,5.32 0.15,2.3 -0.71,4.52 -1.09,6.77 2.36,1.1 4.95,2.11 6.53,4.3 1.45,1.68 0.94,4.1 1.24,6.13 0.38,-0.05 1.14,-0.13 1.52,-0.17 3.63,-2.69 8.16,-4.66 10.05,-9.06 8.82,-16.13 29.21,-24.6 46.88,-19.69 10.36,2.92 19.64,9.74 24.88,19.22 2.39,5.43 8.65,6.79 13.01,10.16 -0.15,-5.93 3.59,-11.16 8.45,-14.22 -0.16,-3.24 -0.29,-6.48 -0.13,-9.72 0.3,0.3 0.91,0.91 1.21,1.22 1.5,0.45 2.99,0.93 4.49,1.4 1.25,-3.9 3.82,-7.14 6.76,-9.9 v 4.96 c -1.35,1.32 -2.7,2.63 -3.99,4.01 1,1.65 1.88,3.6 3.99,4.01 v 3.15 c -0.9,1.32 -1.93,2.56 -2.67,3.98 0.53,2.11 1.63,4.02 2.37,6.06 -2.26,-1.38 -4.42,-2.93 -6.45,-4.64 -2.8,0.17 -6.79,-1.14 -8.44,1.98 -0.28,0.77 -0.84,2.3 -1.12,3.07 4.07,-1.47 8.83,-1.58 11.92,1.89 3.2,2.29 2.91,6.38 1.8,9.69 -0.85,0.44 -1.7,0.89 -2.54,1.34 -0.4,-0.4 -0.8,-0.8 -1.19,-1.2 0.33,-1.51 0.66,-3.03 0.85,-4.56 -3.07,-1.57 -4.2,3.14 -3.71,5.3 0.84,4.12 5.74,4.64 9.18,4.76 v 4.52 c -2.65,0.29 -5.27,0.75 -7.83,1.48 0.01,1.82 0.08,3.63 0.17,5.45 2.53,-0.74 5.06,-1.52 7.66,-2.02 v 2.92 c -2.71,1.03 -6.56,2.54 -6.33,6.08 -0.45,3.84 3.58,5.42 6.33,6.9 V 79 c -3.23,-0.42 -6.58,-1.75 -8.28,-4.7 -3.22,-4.76 -1.37,-10.82 -3.45,-15.96 -2.31,-9.05 -8.72,-16.32 -16.03,-21.82 -0.51,-0.01 -1.51,-0.04 -2.01,-0.05 0.52,2.01 0.62,4.4 2.38,5.8 3.96,3.28 7.18,7.4 9.38,12.04 2.72,5.34 3.37,11.39 4.18,17.23 0.55,4.07 3,7.79 6.38,10.08 2.27,1.29 4.93,1.55 7.45,2.06 v 4.9 c -0.85,4.66 -5.73,6.78 -7.43,11.03 0.36,0.9 0.72,1.81 1.08,2.71 0.94,0.56 1.89,1.13 2.85,1.69 0.01,-1.39 0.03,-2.78 0.04,-4.16 1.09,-1.74 2.22,-3.45 3.46,-5.08 v 19.7 c -3.02,4.14 -6.65,7.78 -10.12,11.52 -2.4,2.97 -6.54,2.15 -9.88,2.32 -10.36,-0.27 -20.79,0.95 -31.09,-0.53 -0.71,0.43 -2.13,1.3 -2.84,1.73 0.49,0.74 1.47,2.23 1.96,2.97 14.53,0.42 29.02,-0.77 43.53,-0.97 2.3,-3.27 4.9,-6.31 7.94,-8.91 0.99,5.35 -4.15,8.19 -6.65,12.13 -9.29,-0.48 -18.55,0.79 -27.84,0.59 -6.38,-0.12 -12.75,0.25 -19.12,0.29 -1,-1.67 -2.02,-3.33 -3.03,-4.99 -7.81,2.12 -15.93,2.36 -23.88,0.85 -0.98,1.31 -1.95,2.63 -2.91,3.96 -5.97,-1.14 -12.06,-0.49 -18.09,-0.64 -9.96,-0.3 -19.92,0.27 -29.87,-0.34 C 3.43,132.41 1.58,130.51 0,128.39 v -6.52 c 2.21,-3.36 5.25,-6.05 8,-8.94 1.05,-1.37 2.8,-1.51 4.34,-1.91 0.52,2.45 0.02,5.62 2.13,7.44 2.09,2.09 5.3,1.02 7.87,0.91 -2.79,-4.06 -5.12,-8.4 -7.28,-12.81 -1.72,-0.28 -3.46,-0.24 -5.19,-0.28 -3.29,3.26 -6.72,6.37 -9.87,9.76 v -5.82 C 0.42,109.68 1.26,108.6 1.67,108.06 1.11,106.64 0.51,105.22 0,103.78 v -6.57 c 1.56,3.04 2.92,6.17 4.25,9.31 0.45,-2.09 1.58,-4.35 0.43,-6.41 C 3.32,97.8 0.86,96.25 0,93.62 V 84.94 C 0.21,84.67 0.64,84.13 0.86,83.86 1.5,83.71 2.78,83.41 3.43,83.26 4.38,82.52 5.32,81.77 6.27,81.03 6,79.67 5.73,78.32 5.49,76.96 3.74,78.11 1.91,79.11 0,79.97 V 76.66 C 1.84,74.98 4.27,73.41 4.56,70.69 4.53,68.97 3.56,67.46 3,65.89 1.99,65.35 0.99,64.79 0,64.22 v -3.41 c 3.23,1.77 7.28,3.88 7.38,8.12 0.93,13.44 7.64,26.37 18.38,34.57 0.41,-0.08 1.24,-0.22 1.66,-0.3 -0.69,-2.04 -0.86,-4.5 -2.74,-5.88 C 17.91,91.58 14.03,83.07 12.39,74.48 11.69,71.19 11.62,67.73 10.28,64.6 8.26,60.51 4.7,56.81 0,56.09 V 50.86 C 3.29,50.3 7.27,49.25 8.58,45.78 9.66,43.59 7.13,42.08 6.1,40.41 5.45,40.42 4.13,40.42 3.47,40.43 3.36,41.02 3.16,42.19 3.06,42.78 3.62,44.03 4.18,45.29 4.73,46.55 3.7,46.6 2.68,46.65 1.65,46.7 1.04,45.11 0.41,43.52 0,41.86 v -1.34 c 0.14,-1.23 0.3,-2.45 0.46,-3.68 2.26,-1.88 4.88,-3.25 7.6,-4.35 3.01,0.97 6.04,2.09 8.39,4.29 0.19,0.53 0.58,1.6 0.77,2.13 0.4,-3.57 -0.79,-7.6 -4.36,-9.12 C 8.08,28.13 3.61,31.27 0,34.05 V 21.71 C 2.57,19.44 0.95,16.53 0,13.93 V 4.45 M 60.09,11 C 50,13.44 40.6,19.32 35.14,28.3 c -0.3,0.25 -0.9,0.75 -1.21,1.01 1.45,0.11 2.89,0.19 4.33,0.25 4.71,-5.24 9.99,-10.15 16.62,-12.84 7.2,-2.3 14.96,-3.2 22.29,-0.94 1.28,0.48 2.56,0.93 3.84,1.39 9.38,4.24 17.38,12.76 19.43,23.01 -1.23,0.09 -2.47,0.17 -3.71,0.24 C 96.55,38.6 96.39,36.78 96.27,34.97 95.53,33.81 94.79,32.66 94.05,31.5 91.71,31.06 89.32,30.6 87,31.48 c 3.28,3.32 4.41,7.87 5.46,12.26 1.57,0.37 3.14,0.73 4.72,1.07 1.34,0.63 2.69,1.26 4.06,1.86 1.48,0.99 2.93,2.02 4.38,3.06 0.93,-5.09 -0.86,-10.05 -2.29,-14.85 C 99.32,24.85 91.23,16.44 81.03,12.69 80.52,12.55 79.51,12.26 79.01,12.11 77.35,11.64 75.68,11.21 74.05,10.68 69.4,10.34 64.68,9.98 60.09,11 m 1.9,6.79 c -1.61,0.51 -3.25,0.95 -4.88,1.42 -4.91,1.75 -9.41,4.53 -13.06,8.26 2.85,0.17 5.68,0.5 8.47,1.11 -0.17,3.72 -3.93,5.61 -5.3,8.82 -1.74,2.68 -1.54,5.99 -2.67,8.88 -1.96,1.29 -4.43,1.39 -6.59,2.25 -4.1,2.33 -7.38,5.77 -11.27,8.39 -0.89,-3.35 -1,-6.81 -1.18,-10.25 -13.07,11.76 -13.99,35.3 -0.31,46.95 0.06,-3.25 0.6,-6.47 1.53,-9.58 3.32,2.46 6.16,5.61 10.11,7.16 2.57,1.02 5.03,2.28 7.52,3.47 0.91,6.04 4.52,11.23 9.17,15.04 -0.05,0.87 -0.11,1.75 -0.17,2.62 -2.43,0.14 -4.86,0.27 -7.29,0.47 1.88,2.31 3.87,5 6.94,5.7 1.75,0.06 3.17,-1.3 4.74,-1.91 3.11,-1.86 6.78,-2.05 10.21,-2.93 4.96,0.68 10.21,1.67 14.25,4.83 2.4,-1.5 4.98,-3.04 6.07,-5.82 -1.08,-0.05 -3.25,-0.15 -4.34,-0.21 -0.95,-0.48 -1.91,-0.96 -2.87,-1.43 0.53,-2.43 2.35,-4.23 3.86,-6.1 2.49,-2.96 3.67,-6.73 4.85,-10.35 7.03,-1.39 12.7,-5.85 18.67,-9.47 0.51,2.82 0.5,5.68 0.29,8.52 0.37,0.01 1.12,0.05 1.49,0.06 2.11,-2.7 4.44,-5.27 6.21,-8.22 4.47,-7.67 3.61,-17.15 1.53,-25.43 -1.2,-5.53 -4.81,-10.06 -8.51,-14.16 -0.28,2.92 -0.58,5.84 -0.89,8.76 -0.83,-0.01 -1.65,-0.02 -2.48,-0.04 -3.56,-4.18 -8.7,-8.02 -14.49,-7.3 -1.95,-5.47 -3.45,-11.53 -8.15,-15.38 0,-1.14 0.03,-2.28 0.06,-3.42 2.51,-0.46 5.05,-0.81 7.58,-1.14 -0.31,-0.27 -0.94,-0.8 -1.25,-1.07 -5.17,-6.02 -13.3,-8.35 -20.89,-9.47 -2.3,0.43 -4.63,0.69 -6.96,0.97 m 65.5,0.56 c 0.1,2.24 1.05,4.25 2.17,6.14 0.83,0.04 1.66,0.09 2.49,0.13 0.34,-0.43 1.02,-1.31 1.36,-1.75 -1.59,-1.99 -3.39,-3.97 -6.02,-4.52 M 5.27,21.56 c -0.63,0.8 -1.25,1.59 -1.89,2.39 0.02,0.66 0.06,1.97 0.08,2.62 1.15,-0.09 2.3,-0.19 3.45,-0.29 0.77,-0.41 1.55,-0.8 2.33,-1.2 0.1,-1.65 0.21,-3.31 0.32,-4.96 -1.44,0.45 -2.86,0.94 -4.29,1.44 m 34.82,10.12 c -1.31,0.52 -2.64,1 -3.96,1.51 -4.41,1.08 -8.21,3.59 -11.96,6.04 -5.64,4.41 -10.03,10.34 -12.7,16.97 -0.94,2 0.91,3.81 1.49,5.62 0.27,-0.22 0.8,-0.67 1.07,-0.89 2.58,-11.59 12.38,-21.19 23.89,-23.89 -0.47,1.4 -0.98,2.79 -1.52,4.16 -2.3,0.64 -4.44,1.68 -6.55,2.77 -0.93,2.08 -1.42,4.3 -1.44,6.57 0.4,-0.05 1.19,-0.15 1.59,-0.2 2.63,-2.3 5.54,-4.29 8.79,-5.59 0.6,-0.1 1.8,-0.31 2.4,-0.41 1.4,-4.47 3.42,-8.7 5.52,-12.87 -2.21,-0.01 -4.42,0.09 -6.62,0.21 M 4.94,36.92 c 1.49,0.96 2.98,1.92 4.52,2.79 1.89,2.1 2.48,4.74 2.12,7.51 -2.49,1.84 -6.46,4.09 -4.94,7.77 3.89,-3.83 6.68,-8.75 7.79,-14.09 -0.84,-1.74 -1.21,-4.18 -3.29,-4.88 -2.03,-1.08 -4.21,0.4 -6.2,0.9 m 114.28,4.83 c 4.01,3.7 6.52,8.6 8.47,13.62 0.93,-0.79 1.88,-1.56 2.84,-2.32 0.05,-0.27 0.15,-0.81 0.2,-1.08 -3.22,-1.53 -5.74,-4.55 -6.15,-8.15 -0.46,-3.24 2.55,-5.47 3.39,-8.38 -3.89,0.12 -8.33,1.88 -8.75,6.31 m 2.58,38.17 c -3.32,10.07 -10.63,19.37 -20.89,22.89 -1.38,0.51 -2.87,0.86 -4.03,1.81 -0.35,-0.41 -1.04,-1.24 -1.38,-1.65 0.06,-0.75 0.11,-1.5 0.17,-2.25 3.57,-0.41 7.21,-1.44 9.8,-4.09 -0.01,-1.85 -0.02,-3.69 -0.03,-5.54 -3.94,2.41 -8.17,4.25 -12.59,5.59 -1.84,4.51 -4.08,8.84 -6.71,12.94 4.41,0.28 8.75,-0.52 13.02,-1.5 12.01,-3.96 22.46,-13.71 25.73,-26.13 -1.04,-0.68 -2.06,-1.38 -3.09,-2.07 m 5.84,4.64 c -1.92,4.26 -4.14,8.38 -6.99,12.1 -3.82,5.56 -9.64,9.27 -15.53,12.32 -3.27,5.29 -7.41,10.13 -12.3,14.04 -0.44,0.58 -1.31,1.75 -1.75,2.33 7.6,0.42 15.24,0.04 22.84,-0.37 3.19,0.5 6.36,-0.33 9.54,-0.44 2.23,-2.28 4.39,-4.64 6.76,-6.79 -0.42,-1.5 -0.86,-2.99 -1.31,-4.48 -0.83,2.24 -1.03,4.99 -3.07,6.57 -3.64,3.48 -9.15,3.93 -13.75,2.4 -1.66,-1.45 -3.44,-2.97 -3.82,-5.27 1.59,-0.58 3.16,-1.19 4.74,-1.8 2.36,-5.62 6.42,-12.6 13.5,-12 0.13,-1.75 -0.12,-3.57 0.42,-5.26 1.88,-4.2 6.57,-6.46 7.98,-10.93 -2.64,-0.04 -5.36,-0.42 -7.26,-2.42 M 1.09,87.7 c 0.33,1.5 0.04,3.46 1.71,4.21 2.33,1.47 4.45,3.25 5.67,5.78 0.01,1.76 0.53,3.44 1.19,5.06 2.55,-0.23 5.11,-0.04 7.51,0.91 1.01,1.43 2.05,2.84 3.1,4.24 1.04,3.03 2.38,6.01 4.61,8.36 1.17,0.23 2.34,0.45 3.5,0.68 0.11,0.7 0.22,1.41 0.33,2.12 -2.63,1.84 -5.43,3.48 -8.56,4.31 -2.16,0.02 -4.3,-0.29 -6.38,-0.87 -1.92,-1.74 -3.44,-3.84 -4.75,-6.06 -0.77,0.94 -1.55,1.86 -2.34,2.78 -0.02,0.44 -0.04,1.33 -0.05,1.78 1.17,1.12 2.33,2.26 3.44,3.45 3.93,0.67 7.92,1.07 11.91,0.66 3.68,0.14 7.37,0.24 11.05,0.04 2.82,-0.51 5.68,-0.7 8.54,-0.75 -4.09,-3.92 -8.19,-7.95 -10.87,-13.01 -1.56,-3.45 -5.31,-4.78 -8.13,-6.94 C 15.71,99.91 11.07,92.73 8.11,85.19 5.75,85.97 3.42,86.83 1.09,87.7 m 28.1,3.01 c 0.18,2.79 0.4,5.58 0.58,8.38 2.53,10.39 8.75,20.26 18.38,25.37 0.88,-1.12 1.77,-2.24 2.64,-3.36 -6.31,-3.74 -11.96,-9.18 -14.68,-16.11 -0.47,-0.95 -0.95,-1.91 -1.43,-2.86 -0.11,-0.93 -0.22,-1.86 -0.33,-2.78 1.31,0.12 2.63,0.26 3.95,0.39 0.13,1.11 0.25,2.22 0.37,3.33 1.25,2.25 2.55,4.47 4.16,6.49 1.44,0.03 2.88,0.06 4.32,0.08 -0.27,-0.88 -0.54,-1.76 -0.81,-2.63 -1.13,-1.64 -2.16,-3.33 -3.13,-5.07 -0.67,-1.73 -1.31,-3.46 -1.95,-5.21 -4.47,-1.02 -8.21,-3.69 -12.07,-6.02 m 89.99,20.35 c -0.95,2.99 -2.85,5.51 -4.33,8.23 0.48,0.32 1.45,0.94 1.94,1.25 2.32,-0.04 4.64,-0.73 6.42,-2.27 2.32,-1.79 1.3,-5.02 1.59,-7.55 1.06,-0.04 2.12,-0.07 3.18,-0.1 2.5,1.17 5.54,4.89 7.92,1.47 -2.16,-2.69 -4.86,-4.84 -7.74,-6.69 -3.82,-0.15 -7.48,2.15 -8.98,5.66 m -24.1,0.74 c -5.91,6.9 -14.07,11.68 -22.98,13.48 -4.4,0.57 -9.3,-1.18 -13.17,1.61 0.25,0.53 0.75,1.58 1,2.11 15.05,2.32 31.96,-4.09 39.83,-17.58 -1.56,0.1 -3.12,0.23 -4.68,0.38 m -33.36,6.09 c -5.01,2.44 -10.03,5.46 -12.77,10.54 -13.18,-0.02 -26.35,-0.16 -39.53,-0.05 -1.84,-1.8 -3.55,-3.77 -5.6,-5.35 -1.04,0.41 -1.98,1.02 -2.8,1.82 1.91,2.34 3.97,4.54 5.96,6.82 7.68,-0.35 15.35,1.2 23,0.12 5.35,-0.21 10.72,-0.06 16.07,0.2 2.01,-0.13 4.02,-0.21 6.04,-0.26 2,-4.91 6.49,-7.71 10.94,-10.11 4.79,-0.42 9.76,0.53 14.32,-1.41 -3.95,-4.22 -10.51,-3.67 -15.63,-2.32 z"
       id="path31" />
    <path
       fill="#ffd249"
       opacity="1"
       d="m 64.43,22.74 c 1.59,-1.14 3.33,-2.06 5.31,-1.23 -0.11,1.67 -0.25,3.33 -0.42,5 -1.53,0.02 -3.06,0.03 -4.59,0.01 -0.07,-0.94 -0.23,-2.84 -0.3,-3.78 z"
       id="path33" />
    <path
       fill="#ffd249"
       opacity="1"
       d="m 60.56,30.82 c 2.13,-2.3 5.32,-5.09 8.61,-3.22 4.51,1.44 6.55,6.2 6.57,10.63 2.6,-0.04 5.19,0.18 7.57,1.33 3.26,3.03 2.49,7.6 2.32,11.6 -1.58,-0.75 -3.13,-1.58 -4.63,-2.5 -1.27,0.12 -2.54,0.23 -3.77,0.55 0.18,2.92 1.89,5.47 3.34,7.92 2.53,0.76 4.8,2.15 6.81,3.83 0.6,-1.75 1.1,-3.52 1.39,-5.35 l -1.24,-0.16 c 0.04,-0.51 0.11,-1.53 0.14,-2.04 0.35,-0.01 1.04,-0.03 1.39,-0.04 1.25,-0.66 2.58,-0.66 3.91,-0.33 2.02,1.02 4.53,1.78 5.52,4.03 0.61,1.64 0.73,3.42 1.07,5.13 2.51,0.02 4.99,0.53 7.31,1.49 3.58,3.27 3.45,9.1 -0.59,11.93 -0.29,-0.01 -0.85,-0.01 -1.14,-0.01 -2.12,1.33 -4.64,0.84 -6.73,-0.29 -0.14,2.18 0.13,4.63 -1.33,6.46 -1.66,2.36 -4.39,3.45 -6.94,4.54 -0.92,-0.01 -1.84,-0.02 -2.75,-0.02 0.15,-2.35 0.28,-4.71 0.24,-7.07 -3.3,1 -7.54,2.08 -8.44,5.94 -1.29,2.41 -2.69,4.81 -3.29,7.52 2.7,0.1 4.63,-1.67 6.18,-3.63 0.4,0.97 0.81,1.93 1.24,2.89 0,2.82 0.82,6.03 -1.09,8.46 -1.74,2.98 -5.55,3.17 -8.61,3.31 0.37,3.05 -0.55,6.02 -2.61,8.31 -2.53,1 -5.35,0.48 -7.98,0.34 -1.1,-1.38 -2.24,-2.74 -3.36,-4.1 -0.06,-1.4 -0.12,-2.8 -0.2,-4.19 -7.82,-0.04 -11.46,-9.88 -7.72,-15.99 1.93,1.67 4.22,2.69 6.8,2.72 -0.88,-2.83 -1.71,-6.21 -4.49,-7.79 -2.27,-1.04 -4.32,-2.47 -6.39,-3.85 -0.22,-0.3 -0.64,-0.89 -0.85,-1.19 -1.57,2.3 -1.51,4.98 -1.1,7.62 -1.91,0.23 -3.83,0.27 -5.73,0 -2.76,-2.31 -4.82,-5.29 -5.58,-8.84 -2.76,0.09 -5.69,-0.3 -7.29,-2.85 -2.8,-2.52 -1.18,-6.48 0.51,-9.15 1.06,-0.78 2.11,-1.6 3.14,-2.43 1.53,-0.03 3.06,-0.04 4.59,-0.03 0.88,-1.78 1.53,-3.73 2.77,-5.31 1.65,-1.49 3.78,-2.26 5.72,-3.31 1.65,0.02 3.31,0.02 4.96,0.02 0.05,2.21 -0.75,4.26 -1.43,6.32 2.91,-1.43 5.83,-2.83 8.84,-4.02 0.57,-1.39 1.38,-2.65 2.38,-3.76 0.58,-2.18 -0.87,-3.57 -2.53,-4.63 -2.41,0.92 -4.86,1.77 -7.37,2.37 0.12,-2 -0.21,-4.07 0.34,-6.02 0.93,-2.01 2.53,-3.58 3.84,-5.33 1.98,-0.88 4.1,-1.27 6.26,-1.32 0.24,-2.21 0.74,-4.38 1.42,-6.49 m 4.36,0.5 c -0.8,0.94 -1.61,1.87 -2.43,2.8 -0.1,2.98 2.17,5.3 4.67,6.52 1.95,0.67 3.16,-1.25 4.5,-2.27 -0.01,-2.39 -0.15,-4.82 -1.31,-6.97 -1.81,-0.05 -3.62,-0.09 -5.43,-0.08 m -9.36,9.07 c -1.1,1.23 -2.21,2.49 -2.78,4.07 3.51,-0.07 6.71,1.44 10.05,2.26 0.88,-0.91 1.77,-1.8 2.68,-2.67 -0.07,-0.33 -0.21,-0.99 -0.28,-1.31 -2.85,-2.01 -6.21,-2.8 -9.67,-2.35 m 13.49,4.69 c -3.11,2.77 -6.58,5.5 -8.18,9.48 1.65,-0.17 3.09,0.24 4.3,1.25 2.37,-1.93 3.6,-4.84 5.83,-6.89 2.1,-1.84 4.58,-3.31 7.36,-3.83 0.08,-0.16 0.26,-0.48 0.34,-0.64 1.09,0.42 3.27,1.26 4.36,1.67 -0.43,-1.88 -1.25,-3.6 -2.87,-4.7 -4.11,-0.61 -8.03,1.07 -11.14,3.66 m 1.56,9.81 c 2.62,5.4 3.25,11.45 5.08,17.1 0.75,-0.67 2.26,-2.02 3.02,-2.69 0.73,-5.06 -1.93,-9.77 -3.44,-14.46 -0.32,-0.72 -0.97,-2.17 -1.29,-2.89 -1.32,0.74 -2.47,1.72 -3.37,2.94 m -30.02,4.67 c -1.36,3.23 -1.06,7.17 1.2,9.93 3.15,3.87 6.78,7.7 11.57,9.45 0.19,0.21 0.57,0.62 0.75,0.82 -0.01,-1.54 0.17,-3.11 -0.1,-4.64 -1.85,-1.92 -4.13,-3.35 -6.31,-4.85 -1.49,-1.94 -3.18,-3.81 -4.05,-6.14 -0.45,-2.18 0.84,-4.13 1.57,-6.07 0.01,-0.44 0.02,-1.3 0.03,-1.74 -1.68,0.85 -3.71,1.47 -4.66,3.24 m 50.95,-3.39 c -0.3,2.31 -0.71,4.61 -0.82,6.94 0.86,1.37 2.05,2.47 3.15,3.63 0.84,-2.19 2.41,-4.35 1.8,-6.82 -0.02,-2.22 -2.34,-3.23 -4.13,-3.75 M 57.06,59.2 c -2.82,1.25 -5.58,2.64 -8.45,3.78 -0.28,0.57 -0.84,1.72 -1.12,2.29 1.29,2.31 3.62,2.53 5.66,1.03 5,-2.96 10.84,-4.1 16.6,-3.64 -0.45,-1.44 -0.9,-2.87 -1.36,-4.31 -3.76,-1.26 -7.69,-0.37 -11.33,0.85 m 24.19,2.17 c 0.58,2.15 1.11,4.31 1.55,6.5 2.83,1.48 5.54,3.74 6.41,6.95 0.56,2.69 1,5.41 1.56,8.1 2.77,-0.42 4.16,-3.31 4.02,-5.88 C 95.18,69.88 88.33,65.4 83.27,61.58 82.76,61.53 81.76,61.43 81.25,61.37 m 18.77,3.96 c -1.31,1.73 -2.93,3.39 -2.86,5.74 1.61,0.85 3.23,1.7 4.85,2.55 2.71,-1.3 4.93,-3.77 3.54,-6.93 -1.71,-0.92 -3.59,-1.36 -5.53,-1.36 m -70.77,6.26 c 1.98,1.3 4.67,1.9 6.75,0.44 2.01,-2.38 0.36,-6.5 -3.03,-5.87 -3.35,-0.48 -3.52,3.02 -3.72,5.43 m 28.04,-3 c -0.73,3.51 -0.37,7.07 0.61,10.49 0.38,1.2 0.69,2.42 1,3.65 0.31,0.49 0.93,1.45 1.24,1.94 0.5,1.58 0.21,4.92 2.9,4.05 2.82,-1.74 1.32,-5.15 0.55,-7.59 -1.74,-4.46 -1.96,-9.29 -2.26,-14.02 -1.35,0.49 -2.69,0.99 -4.04,1.48 m 8.25,-2.1 c -0.31,1.84 -0.58,3.67 -0.83,5.52 0.55,0.36 1.64,1.09 2.19,1.46 1.49,-0.47 2.99,-0.92 4.5,-1.35 -0.09,-1.93 -0.25,-3.85 -0.45,-5.76 -1.81,0.01 -3.61,0.06 -5.41,0.13 m 12.19,7.64 c -1.95,0.53 -3.85,1.24 -5.7,2.03 -2.02,0.14 -4.05,0.25 -6.07,0.36 0.28,1.47 0.64,2.92 1.07,4.35 4.68,1.78 9.25,-1.2 13.56,-2.73 1.9,-0.75 5.25,-1.98 3.71,-4.61 -1.54,-2.64 -4.68,-0.41 -6.57,0.6 m -38.1,-0.7 c -0.61,1.55 -1.06,3.16 -1.2,4.83 1.03,1.57 1.98,3.19 2.91,4.82 0.47,-3.2 2.16,-6.74 0.08,-9.71 -0.45,0.02 -1.35,0.05 -1.79,0.06 M 70,84.73 c -1.1,1.94 -2.34,3.8 -3.67,5.59 -1.51,1.2 -2.96,2.48 -4.63,3.45 -2.46,1.73 -5.58,0.5 -8.33,0.67 0.44,1.33 0.89,2.66 1.35,3.99 2.77,0.41 5.59,0.4 8.36,-0.08 3.67,-2.02 6.81,-4.78 9.15,-8.27 1.29,-1.81 2.46,-3.7 3.63,-5.59 -1.96,0.03 -3.91,0.12 -5.86,0.24 m 1.65,10.77 c -0.43,0.83 -0.85,1.66 -1.27,2.5 1.46,1.61 3.25,3.02 5.59,2.72 2.76,0.3 3.27,-3.04 4.45,-4.84 -2.23,-0.2 -4.49,-0.35 -6.6,-1.15 -0.73,0.26 -1.45,0.51 -2.17,0.77 m -5.88,6.01 c -3.75,1.75 -2.4,6.19 -0.9,9.03 2.93,-0.18 5.64,-2.69 5.4,-5.72 -0.61,-1.99 -2.01,-4.87 -4.5,-3.31 z"
       id="path35" />
    <path
       fill="#ffd249"
       opacity="1"
       d="m 19.08,70.23 c 0.84,-1.03 1.83,-1.93 2.78,-2.85 0.91,0.57 1.83,1.13 2.75,1.69 -0.19,1.56 -0.67,3.06 -1.21,4.54 -0.88,0 -1.77,-0.01 -2.65,-0.01 -0.66,-1.06 -1.64,-2.04 -1.67,-3.37 z"
       id="path37" />
    <path
       fill="#ffd249"
       opacity="1"
       d="m 113.3,67.48 c 1.43,0.01 2.85,0.04 4.28,0.07 0.17,1.98 -0.45,3.74 -2.04,4.97 -0.55,-0.03 -1.64,-0.11 -2.19,-0.14 -0.05,-1.64 -0.06,-3.27 -0.05,-4.9 z"
       id="path39" />
  </g>
</svg>
