<?xml version="1.0" encoding="UTF-8" ?>
<!DOCTYPE svg PUBLIC "-//W3C//DTD SVG 1.1//EN" "http://www.w3.org/Graphics/SVG/1.1/DTD/svg11.dtd">
<svg width="137pt" height="136pt" viewBox="0 0 137 136" version="1.1" xmlns="http://www.w3.org/2000/svg">
<g id="#fdfdfdff">
</g>
<g id="#2b2b2bff">
<path fill="#ffd249" opacity="1.00" d=" M 0.00 4.45 C -0.23 9.69 2.94 14.00 5.04 18.53 C 6.93 17.14 8.99 16.02 11.15 15.13 C 11.90 16.87 12.75 18.60 13.20 20.45 C 13.35 22.75 12.49 24.97 12.11 27.22 C 14.47 28.32 17.06 29.33 18.64 31.52 C 20.09 33.20 19.58 35.62 19.88 37.65 C 20.26 37.60 21.02 37.52 21.40 37.48 C 25.03 34.79 29.56 32.82 31.45 28.42 C 40.27 12.29 60.66 3.82 78.33 8.73 C 88.69 11.65 97.97 18.47 103.21 27.95 C 105.60 33.38 111.86 34.74 116.22 38.11 C 116.07 32.18 119.81 26.95 124.67 23.89 C 124.51 20.65 124.38 17.41 124.54 14.17 C 124.84 14.47 125.45 15.08 125.75 15.39 C 127.25 15.84 128.74 16.32 130.24 16.79 C 131.49 12.89 134.06 9.65 137.00 6.89 L 137.00 11.85 C 135.65 13.17 134.30 14.48 133.01 15.86 C 134.01 17.51 134.89 19.46 137.00 19.87 L 137.00 23.02 C 136.10 24.34 135.07 25.58 134.33 27.00 C 134.86 29.11 135.96 31.02 136.70 33.06 C 134.44 31.68 132.28 30.13 130.25 28.42 C 127.45 28.59 123.46 27.28 121.81 30.40 C 121.53 31.17 120.97 32.70 120.69 33.47 C 124.76 32.00 129.52 31.89 132.61 35.36 C 135.81 37.65 135.52 41.74 134.41 45.05 C 133.56 45.49 132.71 45.94 131.87 46.39 C 131.47 45.99 131.07 45.59 130.68 45.19 C 131.01 43.68 131.34 42.16 131.53 40.63 C 128.46 39.06 127.33 43.77 127.82 45.93 C 128.66 50.05 133.56 50.57 137.00 50.69 L 137.00 55.21 C 134.35 55.50 131.73 55.96 129.17 56.69 C 129.18 58.51 129.25 60.32 129.34 62.14 C 131.87 61.40 134.40 60.62 137.00 60.12 L 137.00 63.04 C 134.29 64.07 130.44 65.58 130.67 69.12 C 130.22 72.96 134.25 74.54 137.00 76.02 L 137.00 79.00 C 133.77 78.58 130.42 77.25 128.72 74.30 C 125.50 69.54 127.35 63.48 125.27 58.34 C 122.96 49.29 116.55 42.02 109.24 36.52 C 108.73 36.51 107.73 36.48 107.23 36.47 C 107.75 38.48 107.85 40.87 109.61 42.27 C 113.57 45.55 116.79 49.67 118.99 54.31 C 121.71 59.65 122.36 65.70 123.17 71.54 C 123.72 75.61 126.17 79.33 129.55 81.62 C 131.82 82.91 134.48 83.17 137.00 83.68 L 137.00 88.58 C 136.15 93.24 131.27 95.36 129.57 99.61 C 129.93 100.51 130.29 101.42 130.65 102.32 C 131.59 102.88 132.54 103.45 133.50 104.01 C 133.51 102.62 133.53 101.23 133.54 99.85 C 134.63 98.11 135.76 96.40 137.00 94.77 L 137.00 114.47 C 133.98 118.61 130.35 122.25 126.88 125.99 C 124.48 128.96 120.34 128.14 117.00 128.31 C 106.64 128.04 96.21 129.26 85.91 127.78 C 85.20 128.21 83.78 129.08 83.07 129.51 C 83.56 130.25 84.54 131.74 85.03 132.48 C 99.56 132.90 114.05 131.71 128.56 131.51 C 130.86 128.24 133.46 125.20 136.50 122.60 C 137.49 127.95 132.35 130.79 129.85 134.73 C 120.56 134.25 111.30 135.52 102.01 135.32 C 95.63 135.20 89.26 135.57 82.89 135.61 C 81.89 133.94 80.87 132.28 79.86 130.62 C 72.05 132.74 63.93 132.98 55.98 131.47 C 55.00 132.78 54.03 134.10 53.07 135.43 C 47.10 134.29 41.01 134.94 34.98 134.79 C 25.02 134.49 15.06 135.06 5.11 134.45 C 3.43 132.41 1.58 130.51 0.00 128.39 L 0.00 121.87 C 2.21 118.51 5.25 115.82 8.00 112.93 C 9.05 111.56 10.80 111.42 12.34 111.02 C 12.86 113.47 12.36 116.64 14.47 118.46 C 16.56 120.55 19.77 119.48 22.34 119.37 C 19.55 115.31 17.22 110.97 15.06 106.56 C 13.34 106.28 11.60 106.32 9.87 106.28 C 6.58 109.54 3.15 112.65 0.00 116.04 L 0.00 110.22 C 0.42 109.68 1.26 108.60 1.67 108.06 C 1.11 106.64 0.51 105.22 0.00 103.78 L 0.00 97.21 C 1.56 100.25 2.92 103.38 4.25 106.52 C 4.70 104.43 5.83 102.17 4.68 100.11 C 3.32 97.80 0.86 96.25 0.00 93.62 L 0.00 84.94 C 0.21 84.67 0.64 84.13 0.86 83.86 C 1.50 83.71 2.78 83.41 3.43 83.26 C 4.38 82.52 5.32 81.77 6.27 81.03 C 6.00 79.67 5.73 78.32 5.49 76.96 C 3.74 78.11 1.91 79.11 0.00 79.97 L 0.00 76.66 C 1.84 74.98 4.27 73.41 4.56 70.69 C 4.53 68.97 3.56 67.46 3.00 65.89 C 1.99 65.35 0.99 64.79 0.00 64.22 L 0.00 60.81 C 3.23 62.58 7.28 64.69 7.38 68.93 C 8.31 82.37 15.02 95.30 25.76 103.50 C 26.17 103.42 27.00 103.28 27.42 103.20 C 26.73 101.16 26.56 98.70 24.68 97.32 C 17.91 91.58 14.03 83.07 12.39 74.48 C 11.69 71.19 11.62 67.73 10.28 64.60 C 8.26 60.51 4.70 56.81 0.00 56.09 L 0.00 50.86 C 3.29 50.30 7.27 49.25 8.58 45.78 C 9.66 43.59 7.13 42.08 6.10 40.41 C 5.45 40.42 4.13 40.42 3.47 40.43 C 3.36 41.02 3.16 42.19 3.06 42.78 C 3.62 44.03 4.18 45.29 4.73 46.55 C 3.70 46.60 2.68 46.65 1.65 46.70 C 1.04 45.11 0.41 43.52 0.00 41.86 L 0.00 40.52 C 0.14 39.29 0.30 38.07 0.46 36.84 C 2.72 34.96 5.34 33.59 8.06 32.49 C 11.07 33.46 14.10 34.58 16.45 36.78 C 16.64 37.31 17.03 38.38 17.22 38.91 C 17.62 35.34 16.43 31.31 12.86 29.79 C 8.08 28.13 3.61 31.27 0.00 34.05 L 0.00 21.71 C 2.57 19.44 0.95 16.53 0.00 13.93 L 0.00 4.45 M 60.09 11.00 C 50.00 13.44 40.60 19.32 35.14 28.30 C 34.84 28.55 34.24 29.05 33.93 29.31 C 35.38 29.42 36.82 29.50 38.26 29.56 C 42.97 24.32 48.25 19.41 54.88 16.72 C 62.08 14.42 69.84 13.52 77.17 15.78 C 78.45 16.26 79.73 16.71 81.01 17.17 C 90.39 21.41 98.39 29.93 100.44 40.18 C 99.21 40.27 97.97 40.35 96.73 40.42 C 96.55 38.60 96.39 36.78 96.27 34.97 C 95.53 33.81 94.79 32.66 94.05 31.50 C 91.71 31.06 89.32 30.60 87.00 31.48 C 90.28 34.80 91.41 39.35 92.46 43.74 C 94.03 44.11 95.60 44.47 97.18 44.81 C 98.52 45.44 99.87 46.07 101.24 46.67 C 102.72 47.66 104.17 48.69 105.62 49.73 C 106.55 44.64 104.76 39.68 103.33 34.88 C 99.32 24.85 91.23 16.44 81.03 12.69 C 80.52 12.55 79.51 12.26 79.01 12.11 C 77.35 11.64 75.68 11.21 74.05 10.68 C 69.40 10.34 64.68 9.98 60.09 11.00 M 61.99 17.79 C 60.38 18.30 58.74 18.74 57.11 19.21 C 52.20 20.96 47.70 23.74 44.05 27.47 C 46.90 27.64 49.73 27.97 52.52 28.58 C 52.35 32.30 48.59 34.19 47.22 37.40 C 45.48 40.08 45.68 43.39 44.55 46.28 C 42.59 47.57 40.12 47.67 37.96 48.53 C 33.86 50.86 30.58 54.30 26.69 56.92 C 25.80 53.57 25.69 50.11 25.51 46.67 C 12.44 58.43 11.52 81.97 25.20 93.62 C 25.26 90.37 25.80 87.15 26.73 84.04 C 30.05 86.50 32.89 89.65 36.84 91.20 C 39.41 92.22 41.87 93.48 44.36 94.67 C 45.27 100.71 48.88 105.90 53.53 109.71 C 53.48 110.58 53.42 111.46 53.36 112.33 C 50.93 112.47 48.50 112.60 46.07 112.80 C 47.95 115.11 49.94 117.80 53.01 118.50 C 54.76 118.56 56.18 117.20 57.75 116.59 C 60.86 114.73 64.53 114.54 67.96 113.66 C 72.92 114.34 78.17 115.33 82.21 118.49 C 84.61 116.99 87.19 115.45 88.28 112.67 C 87.20 112.62 85.03 112.52 83.94 112.46 C 82.99 111.98 82.03 111.50 81.07 111.03 C 81.60 108.60 83.42 106.80 84.93 104.93 C 87.42 101.97 88.60 98.20 89.78 94.58 C 96.81 93.19 102.48 88.73 108.45 85.11 C 108.96 87.93 108.95 90.79 108.74 93.63 C 109.11 93.64 109.86 93.68 110.23 93.69 C 112.34 90.99 114.67 88.42 116.44 85.47 C 120.91 77.80 120.05 68.32 117.97 60.04 C 116.77 54.51 113.16 49.98 109.46 45.88 C 109.18 48.80 108.88 51.72 108.57 54.64 C 107.74 54.63 106.92 54.62 106.09 54.60 C 102.53 50.42 97.39 46.58 91.60 47.30 C 89.65 41.83 88.15 35.77 83.45 31.92 C 83.45 30.78 83.48 29.64 83.51 28.50 C 86.02 28.04 88.56 27.69 91.09 27.36 C 90.78 27.09 90.15 26.56 89.84 26.29 C 84.67 20.27 76.54 17.94 68.95 16.82 C 66.65 17.25 64.32 17.51 61.99 17.79 M 127.49 18.35 C 127.59 20.59 128.54 22.60 129.66 24.49 C 130.49 24.53 131.32 24.58 132.15 24.62 C 132.49 24.19 133.17 23.31 133.51 22.87 C 131.92 20.88 130.12 18.90 127.49 18.35 M 5.27 21.56 C 4.64 22.36 4.02 23.15 3.38 23.95 C 3.40 24.61 3.44 25.92 3.46 26.57 C 4.61 26.48 5.76 26.38 6.91 26.28 C 7.68 25.87 8.46 25.48 9.24 25.08 C 9.34 23.43 9.45 21.77 9.56 20.12 C 8.12 20.57 6.70 21.06 5.27 21.56 M 40.09 31.68 C 38.78 32.20 37.45 32.68 36.13 33.19 C 31.72 34.27 27.92 36.78 24.17 39.23 C 18.53 43.64 14.14 49.57 11.47 56.20 C 10.53 58.20 12.38 60.01 12.96 61.82 C 13.23 61.60 13.76 61.15 14.03 60.93 C 16.61 49.34 26.41 39.74 37.92 37.04 C 37.45 38.44 36.94 39.83 36.40 41.20 C 34.10 41.84 31.96 42.88 29.85 43.97 C 28.92 46.05 28.43 48.27 28.41 50.54 C 28.81 50.49 29.60 50.39 30.00 50.34 C 32.63 48.04 35.54 46.05 38.79 44.75 C 39.39 44.65 40.59 44.44 41.19 44.34 C 42.59 39.87 44.61 35.64 46.71 31.47 C 44.50 31.46 42.29 31.56 40.09 31.68 M 4.94 36.92 C 6.43 37.88 7.92 38.84 9.46 39.71 C 11.35 41.81 11.94 44.45 11.58 47.22 C 9.09 49.06 5.12 51.31 6.64 54.99 C 10.53 51.16 13.32 46.24 14.43 40.90 C 13.59 39.16 13.22 36.72 11.14 36.02 C 9.11 34.94 6.93 36.42 4.94 36.92 M 119.22 41.75 C 123.23 45.45 125.74 50.35 127.69 55.37 C 128.62 54.58 129.57 53.81 130.53 53.05 C 130.58 52.78 130.68 52.24 130.73 51.97 C 127.51 50.44 124.99 47.42 124.58 43.82 C 124.12 40.58 127.13 38.35 127.97 35.44 C 124.08 35.56 119.64 37.32 119.22 41.75 M 121.80 79.92 C 118.48 89.99 111.17 99.29 100.91 102.81 C 99.53 103.32 98.04 103.67 96.88 104.62 C 96.53 104.21 95.84 103.38 95.50 102.97 C 95.56 102.22 95.61 101.47 95.67 100.72 C 99.24 100.31 102.88 99.28 105.47 96.63 C 105.46 94.78 105.45 92.94 105.44 91.09 C 101.50 93.50 97.27 95.34 92.85 96.68 C 91.01 101.19 88.77 105.52 86.14 109.62 C 90.55 109.90 94.89 109.10 99.16 108.12 C 111.17 104.16 121.62 94.41 124.89 81.99 C 123.85 81.31 122.83 80.61 121.80 79.92 M 127.64 84.56 C 125.72 88.82 123.50 92.94 120.65 96.66 C 116.83 102.22 111.01 105.93 105.12 108.98 C 101.85 114.27 97.71 119.11 92.82 123.02 C 92.38 123.60 91.51 124.77 91.07 125.35 C 98.67 125.77 106.31 125.39 113.91 124.98 C 117.10 125.48 120.27 124.65 123.45 124.54 C 125.68 122.26 127.84 119.90 130.21 117.75 C 129.79 116.25 129.35 114.76 128.90 113.27 C 128.07 115.51 127.87 118.26 125.83 119.84 C 122.19 123.32 116.68 123.77 112.08 122.24 C 110.42 120.79 108.64 119.27 108.26 116.97 C 109.85 116.39 111.42 115.78 113.00 115.17 C 115.36 109.55 119.42 102.57 126.50 103.17 C 126.63 101.42 126.38 99.60 126.92 97.91 C 128.80 93.71 133.49 91.45 134.90 86.98 C 132.26 86.94 129.54 86.56 127.64 84.56 M 1.09 87.70 C 1.42 89.20 1.13 91.16 2.80 91.91 C 5.13 93.38 7.25 95.16 8.47 97.69 C 8.48 99.45 9.00 101.13 9.66 102.75 C 12.21 102.52 14.77 102.71 17.17 103.66 C 18.18 105.09 19.22 106.50 20.27 107.90 C 21.31 110.93 22.65 113.91 24.88 116.26 C 26.05 116.49 27.22 116.71 28.38 116.94 C 28.49 117.64 28.60 118.35 28.71 119.06 C 26.08 120.90 23.28 122.54 20.15 123.37 C 17.99 123.39 15.85 123.08 13.77 122.50 C 11.85 120.76 10.33 118.66 9.02 116.44 C 8.25 117.38 7.47 118.30 6.68 119.22 C 6.66 119.66 6.64 120.55 6.63 121.00 C 7.80 122.12 8.96 123.26 10.07 124.45 C 14.00 125.12 17.99 125.52 21.98 125.11 C 25.66 125.25 29.35 125.35 33.03 125.15 C 35.85 124.64 38.71 124.45 41.57 124.40 C 37.48 120.48 33.38 116.45 30.70 111.39 C 29.14 107.94 25.39 106.61 22.57 104.45 C 15.71 99.91 11.07 92.73 8.11 85.19 C 5.75 85.97 3.42 86.83 1.09 87.70 M 29.19 90.71 C 29.37 93.50 29.59 96.29 29.77 99.09 C 32.30 109.48 38.52 119.35 48.15 124.46 C 49.03 123.34 49.92 122.22 50.79 121.10 C 44.48 117.36 38.83 111.92 36.11 104.99 C 35.64 104.04 35.16 103.08 34.68 102.13 C 34.57 101.20 34.46 100.27 34.35 99.35 C 35.66 99.47 36.98 99.61 38.30 99.74 C 38.43 100.85 38.55 101.96 38.67 103.07 C 39.92 105.32 41.22 107.54 42.83 109.56 C 44.27 109.59 45.71 109.62 47.15 109.64 C 46.88 108.76 46.61 107.88 46.34 107.01 C 45.21 105.37 44.18 103.68 43.21 101.94 C 42.54 100.21 41.90 98.48 41.26 96.73 C 36.79 95.71 33.05 93.04 29.19 90.71 M 119.18 111.06 C 118.23 114.05 116.33 116.57 114.85 119.29 C 115.33 119.61 116.30 120.23 116.79 120.54 C 119.11 120.50 121.43 119.81 123.21 118.27 C 125.53 116.48 124.51 113.25 124.80 110.72 C 125.86 110.68 126.92 110.65 127.98 110.62 C 130.48 111.79 133.52 115.51 135.90 112.09 C 133.74 109.40 131.04 107.25 128.16 105.40 C 124.34 105.25 120.68 107.55 119.18 111.06 M 95.08 111.80 C 89.17 118.70 81.01 123.48 72.10 125.28 C 67.70 125.85 62.80 124.10 58.93 126.89 C 59.18 127.42 59.68 128.47 59.93 129.00 C 74.98 131.32 91.89 124.91 99.76 111.42 C 98.20 111.52 96.64 111.65 95.08 111.80 M 61.72 117.89 C 56.71 120.33 51.69 123.35 48.95 128.43 C 35.77 128.41 22.60 128.27 9.42 128.38 C 7.58 126.58 5.87 124.61 3.82 123.03 C 2.78 123.44 1.84 124.05 1.02 124.85 C 2.93 127.19 4.99 129.39 6.98 131.67 C 14.66 131.32 22.33 132.87 29.98 131.79 C 35.33 131.58 40.70 131.73 46.05 131.99 C 48.06 131.86 50.07 131.78 52.09 131.73 C 54.09 126.82 58.58 124.02 63.03 121.62 C 67.82 121.20 72.79 122.15 77.35 120.21 C 73.40 115.99 66.84 116.54 61.72 117.89 Z" />
<path fill="#ffd249" opacity="1.00" d=" M 64.43 22.74 C 66.02 21.60 67.76 20.68 69.74 21.51 C 69.63 23.18 69.49 24.84 69.32 26.51 C 67.79 26.53 66.26 26.54 64.73 26.52 C 64.66 25.58 64.50 23.68 64.43 22.74 Z" />
<path fill="#ffd249" opacity="1.00" d=" M 60.56 30.82 C 62.69 28.52 65.88 25.73 69.17 27.60 C 73.68 29.04 75.72 33.80 75.74 38.23 C 78.34 38.19 80.93 38.41 83.31 39.56 C 86.57 42.59 85.80 47.16 85.63 51.16 C 84.05 50.41 82.50 49.58 81.00 48.66 C 79.73 48.78 78.46 48.89 77.23 49.21 C 77.41 52.13 79.12 54.68 80.57 57.13 C 83.10 57.89 85.37 59.28 87.38 60.96 C 87.98 59.21 88.48 57.44 88.77 55.61 L 87.53 55.45 C 87.57 54.94 87.64 53.92 87.67 53.41 C 88.02 53.40 88.71 53.38 89.06 53.37 C 90.31 52.71 91.64 52.71 92.97 53.04 C 94.99 54.06 97.50 54.82 98.49 57.07 C 99.10 58.71 99.22 60.49 99.56 62.20 C 102.07 62.22 104.55 62.73 106.87 63.69 C 110.45 66.96 110.32 72.79 106.28 75.62 C 105.99 75.61 105.43 75.61 105.14 75.61 C 103.02 76.94 100.50 76.45 98.41 75.32 C 98.27 77.50 98.54 79.95 97.08 81.78 C 95.42 84.14 92.69 85.23 90.14 86.32 C 89.22 86.31 88.30 86.30 87.39 86.30 C 87.54 83.95 87.67 81.59 87.63 79.23 C 84.33 80.23 80.09 81.31 79.19 85.17 C 77.90 87.58 76.50 89.98 75.90 92.69 C 78.60 92.79 80.53 91.02 82.08 89.06 C 82.48 90.03 82.89 90.99 83.32 91.95 C 83.32 94.77 84.14 97.98 82.23 100.41 C 80.49 103.39 76.68 103.58 73.62 103.72 C 73.99 106.77 73.07 109.74 71.01 112.03 C 68.48 113.03 65.66 112.51 63.03 112.37 C 61.93 110.99 60.79 109.63 59.67 108.27 C 59.61 106.87 59.55 105.47 59.47 104.08 C 51.65 104.04 48.01 94.20 51.75 88.09 C 53.68 89.76 55.97 90.78 58.55 90.81 C 57.67 87.98 56.84 84.60 54.06 83.02 C 51.79 81.98 49.74 80.55 47.67 79.17 C 47.45 78.87 47.03 78.28 46.82 77.98 C 45.25 80.28 45.31 82.96 45.72 85.60 C 43.81 85.83 41.89 85.87 39.99 85.60 C 37.23 83.29 35.17 80.31 34.41 76.76 C 31.65 76.85 28.72 76.46 27.12 73.91 C 24.32 71.39 25.94 67.43 27.63 64.76 C 28.69 63.98 29.74 63.16 30.77 62.33 C 32.30 62.30 33.83 62.29 35.36 62.30 C 36.24 60.52 36.89 58.57 38.13 56.99 C 39.78 55.50 41.91 54.73 43.85 53.68 C 45.50 53.70 47.16 53.70 48.81 53.70 C 48.86 55.91 48.06 57.96 47.38 60.02 C 50.29 58.59 53.21 57.19 56.22 56.00 C 56.79 54.61 57.60 53.35 58.60 52.24 C 59.18 50.06 57.73 48.67 56.07 47.61 C 53.66 48.53 51.21 49.38 48.70 49.98 C 48.82 47.98 48.49 45.91 49.04 43.96 C 49.97 41.95 51.57 40.38 52.88 38.63 C 54.86 37.75 56.98 37.36 59.14 37.31 C 59.38 35.10 59.88 32.93 60.56 30.82 M 64.92 31.32 C 64.12 32.26 63.31 33.19 62.49 34.12 C 62.39 37.10 64.66 39.42 67.16 40.64 C 69.11 41.31 70.32 39.39 71.66 38.37 C 71.65 35.98 71.51 33.55 70.35 31.40 C 68.54 31.35 66.73 31.31 64.92 31.32 M 55.56 40.39 C 54.46 41.62 53.35 42.88 52.78 44.46 C 56.29 44.39 59.49 45.90 62.83 46.72 C 63.71 45.81 64.60 44.92 65.51 44.05 C 65.44 43.72 65.30 43.06 65.23 42.74 C 62.38 40.73 59.02 39.94 55.56 40.39 M 69.05 45.08 C 65.94 47.85 62.47 50.58 60.87 54.56 C 62.52 54.39 63.96 54.80 65.17 55.81 C 67.54 53.88 68.77 50.97 71.00 48.92 C 73.10 47.08 75.58 45.61 78.36 45.09 C 78.44 44.93 78.62 44.61 78.70 44.45 C 79.79 44.87 81.97 45.71 83.06 46.12 C 82.63 44.24 81.81 42.52 80.19 41.42 C 76.08 40.81 72.16 42.49 69.05 45.08 M 70.61 54.89 C 73.23 60.29 73.86 66.34 75.69 71.99 C 76.44 71.32 77.95 69.97 78.71 69.30 C 79.44 64.24 76.78 59.53 75.27 54.84 C 74.95 54.12 74.30 52.67 73.98 51.95 C 72.66 52.69 71.51 53.67 70.61 54.89 M 40.59 59.56 C 39.23 62.79 39.53 66.73 41.79 69.49 C 44.94 73.36 48.57 77.19 53.36 78.94 C 53.55 79.15 53.93 79.56 54.11 79.76 C 54.10 78.22 54.28 76.65 54.01 75.12 C 52.16 73.20 49.88 71.77 47.70 70.27 C 46.21 68.33 44.52 66.46 43.65 64.13 C 43.20 61.95 44.49 60.00 45.22 58.06 C 45.23 57.62 45.24 56.76 45.25 56.32 C 43.57 57.17 41.54 57.79 40.59 59.56 M 91.54 56.17 C 91.24 58.48 90.83 60.78 90.72 63.11 C 91.58 64.48 92.77 65.58 93.87 66.74 C 94.71 64.55 96.28 62.39 95.67 59.92 C 95.65 57.70 93.33 56.69 91.54 56.17 M 57.06 59.20 C 54.24 60.45 51.48 61.84 48.61 62.98 C 48.33 63.55 47.77 64.70 47.49 65.27 C 48.78 67.58 51.11 67.80 53.15 66.30 C 58.15 63.34 63.99 62.20 69.75 62.66 C 69.30 61.22 68.85 59.79 68.39 58.35 C 64.63 57.09 60.70 57.98 57.06 59.20 M 81.25 61.37 C 81.83 63.52 82.36 65.68 82.80 67.87 C 85.63 69.35 88.34 71.61 89.21 74.82 C 89.77 77.51 90.21 80.23 90.77 82.92 C 93.54 82.50 94.93 79.61 94.79 77.04 C 95.18 69.88 88.33 65.40 83.27 61.58 C 82.76 61.53 81.76 61.43 81.25 61.37 M 100.02 65.33 C 98.71 67.06 97.09 68.72 97.16 71.07 C 98.77 71.92 100.39 72.77 102.01 73.62 C 104.72 72.32 106.94 69.85 105.55 66.69 C 103.84 65.77 101.96 65.33 100.02 65.33 M 29.25 71.59 C 31.23 72.89 33.92 73.49 36.00 72.03 C 38.01 69.65 36.36 65.53 32.97 66.16 C 29.62 65.68 29.45 69.18 29.25 71.59 M 57.29 68.59 C 56.56 72.10 56.92 75.66 57.90 79.08 C 58.28 80.28 58.59 81.50 58.90 82.73 C 59.21 83.22 59.83 84.18 60.14 84.67 C 60.64 86.25 60.35 89.59 63.04 88.72 C 65.86 86.98 64.36 83.57 63.59 81.13 C 61.85 76.67 61.63 71.84 61.33 67.11 C 59.98 67.60 58.64 68.10 57.29 68.59 M 65.54 66.49 C 65.23 68.33 64.96 70.16 64.71 72.01 C 65.26 72.37 66.35 73.10 66.90 73.47 C 68.39 73.00 69.89 72.55 71.40 72.12 C 71.31 70.19 71.15 68.27 70.95 66.36 C 69.14 66.37 67.34 66.42 65.54 66.49 M 77.73 74.13 C 75.78 74.66 73.88 75.37 72.03 76.16 C 70.01 76.30 67.98 76.41 65.96 76.52 C 66.24 77.99 66.60 79.44 67.03 80.87 C 71.71 82.65 76.28 79.67 80.59 78.14 C 82.49 77.39 85.84 76.16 84.30 73.53 C 82.76 70.89 79.62 73.12 77.73 74.13 M 39.63 73.43 C 39.02 74.98 38.57 76.59 38.43 78.26 C 39.46 79.83 40.41 81.45 41.34 83.08 C 41.81 79.88 43.50 76.34 41.42 73.37 C 40.97 73.39 40.07 73.42 39.63 73.43 M 70.00 84.73 C 68.90 86.67 67.66 88.53 66.33 90.32 C 64.82 91.52 63.37 92.80 61.70 93.77 C 59.24 95.50 56.12 94.27 53.37 94.44 C 53.81 95.77 54.26 97.10 54.72 98.43 C 57.49 98.84 60.31 98.83 63.08 98.35 C 66.75 96.33 69.89 93.57 72.23 90.08 C 73.52 88.27 74.69 86.38 75.86 84.49 C 73.90 84.52 71.95 84.61 70.00 84.73 M 71.65 95.50 C 71.22 96.33 70.80 97.16 70.38 98.00 C 71.84 99.61 73.63 101.02 75.97 100.72 C 78.73 101.02 79.24 97.68 80.42 95.88 C 78.19 95.68 75.93 95.53 73.82 94.73 C 73.09 94.99 72.37 95.24 71.65 95.50 M 65.77 101.51 C 62.02 103.26 63.37 107.70 64.87 110.54 C 67.80 110.36 70.51 107.85 70.27 104.82 C 69.66 102.83 68.26 99.95 65.77 101.51 Z" />
<path fill="#ffd249" opacity="1.00" d=" M 19.08 70.23 C 19.92 69.20 20.91 68.30 21.86 67.38 C 22.77 67.95 23.69 68.51 24.61 69.07 C 24.42 70.63 23.94 72.13 23.40 73.61 C 22.52 73.61 21.63 73.60 20.75 73.60 C 20.09 72.54 19.11 71.56 19.08 70.23 Z" />
<path fill="#ffd249" opacity="1.00" d=" M 113.30 67.48 C 114.73 67.49 116.15 67.52 117.58 67.55 C 117.75 69.53 117.13 71.29 115.54 72.52 C 114.99 72.49 113.90 72.41 113.35 72.38 C 113.30 70.74 113.29 69.11 113.30 67.48 Z" />
</g>
</svg>
