<?xml version="1.0" encoding="UTF-8" ?>
<!DOCTYPE svg PUBLIC "-//W3C//DTD SVG 1.1//EN" "http://www.w3.org/Graphics/SVG/1.1/DTD/svg11.dtd">
<svg width="507pt" height="44pt" viewBox="0 0 507 44" version="1.1" xmlns="http://www.w3.org/2000/svg">
<g id="#020202ff">
<path fill="#ffd249" opacity="1.00" d=" M 227.44 20.89 C 228.04 20.15 228.39 17.91 229.84 19.14 C 237.43 22.56 245.83 23.26 254.07 23.04 C 262.92 23.37 271.73 21.89 279.88 18.37 C 279.88 19.19 279.89 20.83 279.89 21.66 C 283.12 22.66 286.49 23.21 289.89 22.82 C 290.66 23.20 291.44 23.58 292.23 23.96 C 291.48 23.48 289.99 22.50 289.25 22.01 C 291.99 20.50 295.16 20.50 297.78 22.22 C 301.59 24.62 305.17 20.68 309.03 20.95 C 324.68 20.93 340.35 20.91 356.00 21.32 C 378.70 21.97 401.42 21.67 424.12 22.16 C 443.46 22.63 462.83 21.98 482.17 22.45 C 480.26 24.22 477.41 23.43 475.06 23.72 C 438.68 23.42 402.30 24.80 365.93 25.11 C 355.64 25.27 345.36 25.60 335.08 25.77 C 335.08 25.23 335.10 24.14 335.11 23.59 C 335.02 24.20 334.83 25.40 334.74 26.01 C 325.45 25.89 316.14 26.21 306.85 25.93 C 304.36 24.95 301.90 23.79 299.13 23.97 C 297.02 26.03 294.09 26.43 291.27 26.24 C 290.42 25.47 289.57 24.70 288.72 23.94 C 285.81 24.35 282.83 24.52 280.03 25.50 C 279.76 26.56 279.50 27.63 279.24 28.69 C 278.51 28.56 277.79 28.43 277.07 28.29 C 272.46 25.11 266.49 25.28 261.15 24.38 C 251.70 24.09 241.93 23.59 232.90 26.95 C 231.21 27.60 229.54 28.39 228.30 29.75 C 228.21 28.53 228.10 27.31 227.97 26.09 C 224.91 24.49 221.50 23.81 218.09 24.56 C 216.25 26.89 212.57 26.87 210.39 25.05 C 206.75 22.46 202.91 26.35 199.10 26.24 C 142.74 25.82 86.39 24.70 30.02 25.10 C 25.97 25.03 21.83 25.32 17.88 24.26 C 22.55 23.36 27.34 23.90 32.06 23.70 C 44.67 23.73 57.29 23.37 69.90 23.53 C 78.25 22.50 86.67 23.20 95.06 22.89 C 129.05 22.44 163.03 21.58 197.03 21.32 C 200.17 20.97 202.93 22.65 205.93 23.14 C 209.42 23.64 212.20 20.19 215.69 21.12 C 216.85 21.73 217.89 22.55 218.95 23.32 C 221.33 23.07 223.70 22.70 226.07 22.32 C 226.41 21.96 227.09 21.25 227.44 20.89 Z" />
</g>
</svg>
