<?xml version="1.0" encoding="UTF-8" ?>
<!DOCTYPE svg PUBLIC "-//W3C//DTD SVG 1.1//EN" "http://www.w3.org/Graphics/SVG/1.1/DTD/svg11.dtd">
<svg width="301pt" height="218pt" viewBox="0 0 301 218" version="1.1" xmlns="http://www.w3.org/2000/svg">
<g id="#0a0a0aff">
<path fill="#0a0a0a" opacity="1.00" d=" M 0.00 0.00 L 0.10 0.00 C 0.08 0.03 0.03 0.08 0.00 0.10 L 0.00 0.00 Z" />
<path fill="#0a0a0a" opacity="1.00" d=" M 143.16 27.34 C 147.89 19.40 153.46 11.95 160.05 5.46 C 163.24 10.08 167.39 13.97 170.09 18.91 C 172.44 22.42 174.75 26.46 174.01 30.84 C 173.09 34.97 170.19 38.25 168.41 41.99 C 169.27 45.18 172.50 47.11 174.70 49.42 C 179.22 42.80 187.67 41.11 195.03 39.73 C 199.92 39.66 204.52 41.81 209.15 43.15 C 212.36 44.02 214.93 46.26 216.32 49.27 C 223.74 41.44 235.32 38.14 245.83 40.03 C 250.30 40.98 253.47 44.42 256.15 47.88 C 258.38 46.94 260.34 45.48 262.56 44.54 C 266.23 44.02 269.93 44.73 273.52 45.52 C 277.79 47.07 282.14 49.26 286.80 48.94 C 289.43 47.98 292.06 46.86 294.93 47.07 C 296.09 51.67 292.58 55.82 288.42 57.26 C 284.17 58.82 279.82 60.46 275.24 60.55 C 275.05 62.55 275.20 64.59 274.71 66.55 C 272.91 70.21 269.38 72.51 266.52 75.27 C 265.76 72.08 266.41 68.47 264.33 65.70 C 263.25 63.44 261.19 62.04 259.08 60.87 C 255.76 63.25 253.54 66.88 250.03 69.01 C 244.68 71.53 238.56 72.11 232.75 71.31 C 229.95 69.90 227.21 68.37 224.44 66.90 C 224.69 68.76 223.50 71.34 225.44 72.54 C 228.60 75.01 232.23 77.06 234.49 80.48 C 237.64 84.03 238.07 88.93 239.89 93.15 C 243.21 92.52 247.94 90.56 246.82 86.32 C 246.06 83.64 248.21 81.29 250.37 80.11 C 255.40 78.92 261.89 83.40 261.02 88.94 C 260.33 95.18 256.02 100.67 250.50 103.49 C 246.92 105.00 243.07 105.73 239.30 106.61 C 238.33 112.93 236.28 119.23 232.42 124.41 C 228.67 130.22 222.36 134.05 219.42 140.45 C 217.80 144.08 215.36 148.04 216.71 152.12 C 217.05 153.78 215.11 154.75 214.26 155.94 C 210.62 153.95 206.79 151.67 205.43 147.48 C 204.32 143.07 204.70 138.17 207.22 134.28 C 204.96 132.21 202.68 129.94 201.78 126.93 C 202.80 123.40 205.21 120.27 207.85 117.76 C 210.25 115.51 212.68 118.48 214.33 120.14 C 219.33 120.99 222.70 116.69 224.89 112.85 C 226.28 110.37 226.33 107.26 225.68 104.58 C 222.15 102.09 218.70 99.32 216.12 95.83 C 213.97 91.72 211.39 87.47 211.83 82.63 C 208.98 82.67 206.22 83.38 203.53 84.21 C 205.20 89.95 210.91 93.81 211.23 100.03 C 210.96 107.33 205.20 112.64 199.67 116.61 C 196.43 118.10 193.20 120.79 189.41 119.81 C 185.07 117.12 182.45 112.50 178.24 109.66 C 176.26 112.32 174.58 115.18 173.04 118.12 C 176.52 124.02 180.04 130.68 178.94 137.76 C 176.26 143.84 172.35 149.23 169.09 155.00 C 170.47 158.76 169.26 162.76 168.77 166.57 C 167.19 168.15 165.58 169.78 166.09 172.21 C 172.79 173.59 179.88 175.30 186.40 172.21 C 184.09 170.23 182.07 167.46 183.01 164.25 C 184.49 161.03 187.25 158.08 190.96 157.69 C 193.97 158.36 196.00 160.84 198.20 162.81 C 201.04 164.94 199.89 168.84 200.05 171.88 C 198.92 176.33 195.74 180.46 191.35 182.13 C 188.50 183.10 186.84 186.52 183.55 186.43 C 177.71 186.59 171.88 187.26 166.02 187.04 C 165.92 192.21 166.79 197.64 164.41 202.46 C 162.35 206.47 160.49 210.77 157.24 213.98 C 151.15 209.94 147.39 203.16 145.84 196.15 C 144.95 192.83 145.97 189.47 147.08 186.35 C 142.30 188.83 137.23 185.60 132.27 185.51 C 126.55 185.47 122.36 181.02 119.18 176.76 C 117.10 173.20 116.45 168.86 117.94 164.94 C 118.25 161.11 121.00 158.37 124.01 156.33 C 126.69 157.10 130.08 156.63 132.07 158.91 C 135.50 161.92 134.71 168.18 130.50 170.16 C 132.40 173.41 136.48 174.28 139.96 174.57 C 142.26 174.95 144.78 173.82 145.99 171.83 C 145.00 167.07 143.92 161.74 146.26 157.20 C 147.52 154.25 149.32 151.58 151.22 149.00 C 148.64 146.18 145.48 143.91 143.02 141.01 C 141.99 137.06 143.68 133.16 146.06 130.06 C 148.07 125.90 152.48 123.36 154.08 119.01 C 152.82 115.82 149.20 114.13 146.95 111.59 C 142.94 115.07 139.77 119.92 134.76 121.99 C 128.12 123.21 122.97 118.51 117.99 114.99 C 115.24 112.47 111.51 110.49 110.19 106.83 C 110.56 103.96 109.77 100.87 111.22 98.22 C 113.46 94.11 115.05 89.57 118.28 86.09 C 115.83 84.53 113.11 83.31 110.14 83.49 C 110.80 88.24 109.96 92.95 108.58 97.50 C 106.04 102.86 103.67 108.99 97.84 111.55 C 99.47 114.39 100.51 117.77 103.23 119.80 C 107.39 122.87 113.55 124.46 117.95 120.94 C 121.96 122.50 123.06 127.48 121.05 131.06 C 120.14 135.18 115.92 137.21 112.00 137.23 C 111.79 140.77 112.85 144.70 110.79 147.87 C 109.03 150.96 106.32 153.57 103.36 155.48 C 101.08 156.73 99.20 154.76 97.74 153.25 C 100.60 149.83 100.12 145.30 99.91 141.16 C 98.71 135.43 94.55 131.02 92.05 125.88 C 89.49 122.04 86.16 118.05 86.93 113.09 C 82.92 111.36 78.48 112.04 74.39 110.58 C 68.13 109.65 63.54 104.94 58.99 100.97 C 55.82 96.71 54.58 90.41 57.71 85.78 C 60.16 82.82 62.50 78.56 66.96 78.87 C 69.96 79.47 73.79 79.67 75.00 83.07 C 77.83 87.06 74.89 91.58 71.54 94.06 C 74.64 98.30 80.00 98.35 84.76 98.64 C 84.72 91.41 85.35 83.79 89.76 77.74 C 88.50 75.24 88.52 71.80 86.06 70.10 C 80.93 71.95 75.46 72.83 70.06 73.29 C 65.58 72.32 60.84 73.05 56.54 71.29 C 51.19 69.64 45.89 66.57 42.97 61.65 C 40.18 63.08 36.83 64.44 35.57 67.56 C 34.88 69.78 34.53 72.10 33.88 74.33 C 26.45 75.56 19.18 66.75 22.92 59.71 C 20.43 59.44 17.92 59.57 15.43 59.39 C 8.95 57.66 3.36 50.03 6.96 43.43 C 10.75 42.61 12.79 46.41 16.29 46.85 C 19.97 47.45 23.88 47.67 27.48 46.51 C 31.76 45.06 36.35 46.05 40.68 46.71 C 44.08 41.46 48.74 36.26 55.18 35.08 C 62.98 34.41 71.06 36.11 77.69 40.34 C 82.22 42.21 85.13 46.27 88.77 49.34 C 93.92 46.05 98.90 41.77 105.18 40.99 C 110.13 40.23 114.93 38.24 120.02 38.71 C 125.12 39.41 130.55 39.94 134.83 43.10 C 137.31 45.19 139.60 47.50 142.05 49.62 C 144.30 47.57 146.45 45.40 148.30 42.98 C 144.95 38.56 141.98 33.06 143.16 27.34 M 152.19 18.21 C 150.38 21.08 148.15 23.74 146.84 26.88 C 145.36 29.86 147.26 32.97 148.17 35.83 C 150.68 40.82 155.60 43.79 159.59 47.46 C 162.21 50.93 165.56 53.70 168.66 56.73 C 169.81 55.40 170.97 54.09 172.11 52.76 C 167.62 46.35 160.60 42.09 156.94 35.06 C 155.84 32.89 153.14 31.04 154.11 28.31 C 155.13 25.73 156.73 23.38 159.00 21.74 C 161.61 23.65 163.23 26.64 163.64 29.82 C 162.99 31.73 161.83 33.41 160.78 35.11 C 162.50 37.02 164.39 38.77 166.22 40.58 C 169.17 36.35 172.91 30.39 169.63 25.37 C 166.62 19.72 162.36 14.89 158.92 9.51 C 157.40 12.94 154.61 15.45 152.19 18.21 M 53.75 39.99 C 51.32 40.99 49.11 42.47 47.03 44.05 C 44.94 45.84 45.24 49.63 42.40 50.58 C 39.25 50.93 36.15 49.80 32.99 49.94 C 29.82 49.86 26.87 51.20 23.75 51.46 C 18.97 51.63 14.03 51.60 9.64 49.43 C 11.69 51.86 13.58 55.49 17.19 55.50 C 21.01 55.55 24.84 55.81 28.53 56.90 C 27.96 59.39 26.72 61.65 26.05 64.11 C 26.09 66.75 28.33 68.70 30.07 70.45 C 32.06 67.06 33.56 63.32 36.35 60.45 C 38.65 57.76 42.54 58.68 45.60 57.64 C 47.45 63.24 53.26 65.80 58.34 67.73 C 63.30 69.15 68.56 68.71 73.65 68.51 C 76.92 67.61 80.66 68.47 83.51 66.30 C 81.72 64.16 79.84 62.11 78.05 59.98 C 76.99 60.98 75.93 61.97 74.85 62.95 C 71.58 62.22 68.32 63.54 65.02 63.15 C 59.94 62.79 54.02 61.38 51.50 56.45 C 48.78 53.68 49.89 48.96 53.03 47.05 C 54.85 45.87 56.52 43.83 58.93 44.39 C 66.96 45.73 74.86 49.56 79.53 56.46 C 85.02 61.31 90.05 67.02 92.80 73.92 C 94.68 72.71 96.63 71.61 98.44 70.29 C 95.57 65.85 93.65 60.85 90.30 56.71 C 87.95 53.09 84.05 50.98 81.30 47.72 C 73.86 41.23 63.50 38.19 53.75 39.99 M 99.34 47.35 C 96.98 49.04 94.52 50.58 92.06 52.14 C 93.27 54.01 94.53 55.85 95.66 57.77 C 100.97 51.83 108.94 47.91 117.04 48.86 C 124.41 48.90 130.92 52.98 136.03 57.98 C 137.28 56.29 138.51 54.59 139.72 52.86 C 136.82 50.93 134.17 48.70 131.51 46.46 C 127.40 44.26 122.65 43.19 117.99 43.48 C 111.62 43.25 104.92 44.06 99.34 47.35 M 180.99 48.01 C 173.36 53.33 169.48 62.08 164.13 69.36 C 162.90 72.96 166.65 75.22 168.80 77.39 C 173.78 69.42 179.35 61.65 186.43 55.40 C 193.81 49.87 204.21 51.60 211.26 56.88 C 212.56 54.70 214.05 52.64 215.53 50.58 C 208.59 48.67 202.28 44.09 194.84 44.15 C 190.03 44.30 184.94 45.06 180.99 48.01 M 228.81 46.00 C 225.12 47.15 222.44 50.11 219.81 52.78 C 216.69 57.42 213.30 62.88 215.21 68.70 C 216.64 68.70 218.07 68.73 219.50 68.75 C 220.79 64.81 221.65 60.62 224.31 57.30 C 227.42 52.22 233.65 50.68 239.01 49.17 C 242.24 49.76 246.36 49.56 248.07 52.97 C 250.55 56.14 247.64 60.27 244.73 61.95 C 238.85 63.53 232.43 61.71 227.65 58.09 C 226.85 59.48 225.33 60.92 226.06 62.67 C 229.82 65.63 234.15 68.11 238.99 68.66 C 242.06 67.99 245.18 67.34 248.06 66.06 C 251.41 64.56 253.25 61.19 256.06 59.02 C 257.68 58.25 259.40 57.72 261.10 57.15 C 265.72 59.63 268.98 64.19 269.64 69.42 C 270.66 67.48 272.41 65.59 272.03 63.22 C 271.20 61.26 269.97 59.50 268.97 57.62 C 270.31 56.53 271.78 54.97 273.65 55.92 C 279.27 57.66 285.23 55.62 289.97 52.53 C 289.48 52.49 288.50 52.42 288.01 52.38 C 279.96 54.08 272.90 48.20 264.95 48.18 C 261.51 47.84 259.06 50.83 255.89 51.64 C 251.45 50.36 249.25 45.68 244.90 44.23 C 239.58 42.22 233.87 44.06 228.81 46.00 M 141.05 57.02 C 138.69 60.61 134.81 62.89 132.63 66.61 C 130.88 69.45 129.11 72.27 127.61 75.26 C 129.72 76.46 131.86 77.61 133.84 79.02 C 138.91 72.39 143.77 65.58 149.55 59.53 C 151.80 56.34 154.27 53.30 157.21 50.70 C 155.20 48.77 153.20 46.82 151.01 45.09 C 146.96 48.38 143.85 52.66 141.05 57.02 M 54.73 50.69 C 55.77 51.01 56.82 51.34 57.87 51.68 C 58.22 51.29 58.92 50.50 59.28 50.11 C 58.92 49.52 58.22 48.35 57.86 47.76 C 56.81 48.73 55.76 49.70 54.73 50.69 M 63.28 51.02 C 61.85 51.37 61.95 54.05 63.66 52.95 C 65.09 52.60 65.00 49.93 63.28 51.02 M 68.38 52.81 C 67.28 53.23 66.60 55.33 68.12 55.67 C 70.11 56.08 70.76 51.96 68.38 52.81 M 111.10 52.96 C 110.60 54.56 111.17 55.07 112.82 54.51 C 113.32 52.89 112.75 52.37 111.10 52.96 M 118.07 52.96 C 117.30 54.28 116.53 55.61 115.76 56.93 C 116.86 57.34 117.91 57.83 118.93 58.40 C 119.73 57.10 120.53 55.80 121.35 54.51 C 120.26 53.98 119.16 53.47 118.07 52.96 M 158.38 53.28 C 157.33 53.73 156.10 55.38 157.06 56.43 C 158.78 57.28 160.46 53.55 158.38 53.28 M 233.30 55.10 C 231.91 55.20 231.98 57.58 233.34 57.64 C 234.72 57.57 234.69 55.12 233.30 55.10 M 72.58 56.12 C 72.08 57.80 72.61 58.39 74.17 57.88 C 74.67 56.18 74.14 55.59 72.58 56.12 M 102.38 56.44 C 101.21 56.53 99.51 57.75 100.24 59.07 C 101.59 60.40 104.34 57.10 102.38 56.44 M 125.17 55.52 C 124.39 56.79 123.61 58.07 122.82 59.35 C 123.66 60.08 124.50 60.82 125.34 61.56 C 126.29 60.12 127.65 58.81 128.02 57.07 C 127.09 56.52 126.14 56.01 125.17 55.52 M 244.10 56.10 C 242.57 59.11 247.36 56.28 244.10 56.10 M 162.27 57.11 C 161.12 57.17 160.09 59.55 161.77 59.57 C 162.92 59.52 163.97 57.10 162.27 57.11 M 201.05 59.96 C 201.56 60.34 202.58 61.10 203.09 61.48 C 203.83 60.33 204.55 59.18 205.26 58.02 C 204.67 57.81 203.50 57.38 202.91 57.17 C 202.29 58.10 201.67 59.03 201.05 59.96 M 105.96 62.06 C 108.08 62.63 109.11 60.36 110.43 59.20 C 109.72 58.77 108.29 57.90 107.58 57.46 C 106.67 58.85 105.95 60.37 105.96 62.06 M 189.19 58.19 C 189.86 58.87 189.86 58.87 189.19 58.19 M 154.15 63.57 C 154.69 62.49 155.20 61.39 155.70 60.30 C 155.23 59.86 154.28 58.97 153.81 58.53 C 152.70 60.24 152.98 61.97 154.15 63.57 M 193.09 63.72 C 194.22 62.15 195.22 60.49 196.12 58.78 C 193.81 59.09 190.51 61.42 193.09 63.72 M 129.85 64.43 C 131.18 63.06 134.33 61.55 132.04 59.50 C 130.80 60.89 129.79 62.49 129.85 64.43 M 111.44 64.25 C 112.56 64.80 113.72 65.14 114.94 65.27 C 115.72 64.29 116.39 63.23 117.11 62.20 C 116.01 61.70 114.91 61.20 113.82 60.70 C 112.93 61.82 112.13 63.00 111.44 64.25 M 184.95 61.56 C 183.80 62.56 185.29 64.87 186.62 63.88 C 187.75 62.91 186.22 60.66 184.95 61.56 M 204.30 63.90 C 204.98 64.32 206.34 65.15 207.02 65.56 C 207.71 64.28 208.40 63.00 209.01 61.67 C 207.39 62.31 205.83 63.08 204.30 63.90 M 158.11 63.21 C 156.56 66.16 161.42 63.37 158.11 63.21 M 195.71 65.83 C 196.12 66.39 196.95 67.51 197.36 68.07 C 198.33 67.07 199.29 66.07 200.26 65.07 C 199.85 64.50 199.02 63.35 198.61 62.77 C 197.63 63.78 196.67 64.80 195.71 65.83 M 120.34 64.04 C 119.30 64.87 118.72 66.11 117.94 67.16 C 119.06 67.83 120.17 68.51 121.29 69.20 C 122.27 67.84 123.12 66.40 123.93 64.94 C 122.79 64.45 121.62 63.86 120.34 64.04 M 145.60 67.98 C 146.91 70.94 148.63 73.76 151.10 75.90 C 158.09 82.21 164.70 88.97 172.23 94.65 C 173.39 93.24 174.48 91.76 175.39 90.18 C 168.39 82.65 161.58 74.93 153.80 68.17 C 152.19 66.87 150.98 65.18 149.91 63.42 C 148.46 64.93 147.03 66.45 145.60 67.98 M 161.45 65.47 C 160.47 66.11 159.70 67.69 160.29 68.78 C 161.77 69.19 163.29 65.70 161.45 65.47 M 181.29 65.12 C 180.43 66.43 179.49 67.69 178.72 69.06 C 179.99 71.99 182.36 74.21 184.33 76.66 C 187.77 80.28 190.33 84.60 193.78 88.22 C 196.36 91.60 199.76 94.42 201.72 98.22 C 201.66 100.04 201.21 101.82 200.94 103.62 C 198.05 105.16 195.54 107.31 192.74 108.98 C 187.96 110.58 186.03 104.98 182.95 102.58 C 182.62 103.17 181.96 104.36 181.62 104.95 C 183.87 109.65 187.33 113.99 192.05 116.39 C 194.13 115.90 196.15 115.12 198.00 114.05 C 201.23 112.16 201.67 107.80 204.89 105.90 C 207.63 104.55 208.62 101.26 207.81 98.44 C 203.21 90.55 197.87 83.08 191.65 76.39 C 187.82 72.99 184.02 69.50 181.29 65.12 M 101.81 68.85 C 102.42 69.11 103.64 69.61 104.25 69.87 C 104.46 68.59 105.96 66.19 104.09 65.64 C 103.00 66.43 102.55 67.77 101.81 68.85 M 187.55 65.97 C 186.49 67.33 188.67 69.50 189.98 68.40 C 191.02 67.00 188.93 64.46 187.55 65.97 M 202.20 67.34 C 200.59 67.21 200.18 69.93 201.96 69.92 C 203.53 70.09 203.89 67.34 202.20 67.34 M 126.49 68.25 C 125.52 69.00 124.86 70.61 125.31 71.78 C 126.71 71.99 128.37 68.48 126.49 68.25 M 191.53 70.62 C 192.70 71.79 193.92 72.92 195.19 73.99 C 195.37 71.92 193.94 68.32 191.53 70.62 M 94.46 77.52 C 92.50 80.34 90.23 83.16 89.62 86.64 C 88.10 90.85 90.91 95.08 89.30 99.32 C 90.76 98.14 92.46 97.23 93.77 95.87 C 93.89 92.18 93.39 88.01 96.01 84.99 C 98.54 80.53 103.95 78.30 108.94 79.05 C 117.41 79.09 124.22 84.55 130.67 89.35 C 134.15 91.91 136.72 95.44 140.12 98.10 C 141.17 97.06 142.30 96.09 143.20 94.91 C 142.80 92.92 141.38 91.36 140.33 89.69 C 137.78 85.46 132.85 83.80 129.15 80.82 C 123.55 77.70 117.84 74.14 111.20 74.05 C 105.45 72.47 99.01 73.67 94.46 77.52 M 142.39 72.94 C 141.68 73.39 140.38 75.25 141.75 75.63 C 143.47 75.86 144.82 71.92 142.39 72.94 M 197.54 77.95 C 198.77 79.20 200.02 80.43 201.25 81.70 C 207.29 76.53 216.31 78.56 222.40 82.58 C 226.56 86.01 229.08 92.24 235.29 92.29 C 234.46 90.27 233.17 88.45 232.75 86.27 C 230.99 80.47 225.07 77.77 220.42 74.62 C 218.06 72.81 215.01 73.62 212.29 73.17 C 207.11 71.76 200.81 73.57 197.54 77.95 M 144.13 78.79 C 144.73 79.63 145.34 80.47 145.96 81.31 C 146.81 79.55 147.07 77.63 147.06 75.69 C 146.02 76.67 145.05 77.71 144.13 78.79 M 178.20 78.20 C 178.86 78.86 178.86 78.86 178.20 78.20 M 138.14 79.28 C 137.29 80.55 137.51 81.32 138.79 81.59 C 139.63 80.32 139.42 79.55 138.14 79.28 M 171.21 79.20 C 171.85 79.85 171.85 79.85 171.21 79.20 M 149.84 85.59 C 150.68 84.10 152.04 82.50 151.10 80.71 C 149.64 82.07 148.59 83.68 149.84 85.59 M 62.78 85.81 C 59.81 88.87 59.90 93.58 61.62 97.26 C 64.51 99.75 67.25 102.48 70.45 104.57 C 74.18 105.97 77.85 107.99 81.94 107.99 C 84.71 108.19 87.23 109.56 89.97 109.86 C 96.26 108.75 102.26 104.46 104.17 98.18 C 105.67 93.12 107.01 87.58 105.18 82.42 C 102.45 83.83 99.35 85.29 97.98 88.23 C 98.03 90.76 99.54 93.13 98.96 95.70 C 97.24 100.25 92.08 103.19 87.30 102.74 C 82.16 102.30 76.59 102.88 72.04 99.96 C 69.43 97.95 66.18 95.11 67.07 91.42 C 68.56 89.97 70.58 89.20 72.00 87.68 C 72.64 85.42 70.85 83.56 68.83 82.92 C 66.36 81.76 64.29 84.17 62.78 85.81 M 175.21 83.21 C 175.85 83.85 175.85 83.85 175.21 83.21 M 226.56 100.48 C 233.23 102.86 240.86 103.30 247.39 100.14 C 253.21 99.19 255.89 93.28 257.02 88.13 C 256.48 85.83 254.62 84.25 252.23 84.32 C 252.10 86.14 252.11 87.98 252.08 89.81 C 250.05 91.54 248.16 93.47 245.93 94.96 C 243.22 96.50 240.05 96.96 236.99 97.32 C 233.52 96.86 230.46 95.06 227.29 93.71 C 224.11 89.92 220.80 86.12 216.59 83.43 C 215.83 90.47 221.47 96.35 226.56 100.48 M 147.58 95.57 C 144.31 99.01 141.55 102.86 138.55 106.52 C 137.25 107.71 135.76 109.03 133.89 109.06 C 129.23 109.78 125.87 105.91 122.48 103.38 C 120.45 99.14 123.82 94.96 126.17 91.63 C 124.63 90.27 123.02 89.00 121.32 87.85 C 117.15 92.87 114.06 99.11 114.03 105.75 C 117.91 111.07 124.06 114.12 129.35 117.86 C 133.17 119.69 136.61 116.65 139.61 114.63 C 146.94 107.13 153.26 98.74 160.21 90.91 C 159.59 88.30 156.76 86.70 154.86 84.91 C 152.02 88.19 150.60 92.44 147.58 95.57 M 175.96 95.95 C 172.37 100.45 169.25 105.29 165.95 110.00 C 167.46 111.62 169.02 113.20 170.64 114.70 C 174.93 107.81 179.50 100.99 185.17 95.13 C 186.78 93.33 188.15 91.27 189.05 89.02 C 188.82 87.14 186.89 86.03 185.85 84.57 C 181.48 87.30 179.03 91.98 175.96 95.95 M 145.59 89.02 C 145.20 90.42 145.70 90.92 147.07 90.54 C 147.44 89.13 146.95 88.63 145.59 89.02 M 163.49 93.02 C 163.12 94.39 163.61 94.93 164.98 94.61 C 165.39 93.20 164.89 92.67 163.49 93.02 M 191.21 93.20 C 191.84 93.84 191.84 93.84 191.21 93.20 M 128.09 95.17 C 126.56 98.23 131.34 95.40 128.09 95.17 M 159.25 96.31 C 158.06 97.27 159.75 99.43 160.98 98.64 C 162.08 97.60 160.60 95.41 159.25 96.31 M 194.12 95.95 C 193.58 97.59 194.12 98.14 195.73 97.59 C 196.28 95.95 195.74 95.41 194.12 95.95 M 165.88 98.07 C 166.64 98.77 167.40 99.48 168.17 100.18 C 168.74 99.53 169.31 98.89 169.88 98.24 C 169.43 97.78 168.52 96.86 168.06 96.40 C 167.52 96.82 166.42 97.66 165.88 98.07 M 187.11 97.42 C 185.54 100.34 190.48 97.47 187.11 97.42 M 132.09 98.22 C 130.55 101.21 135.38 98.41 132.09 98.22 M 136.08 101.17 C 134.52 104.21 139.34 101.38 136.08 101.17 M 190.19 100.99 C 188.85 101.83 188.76 102.56 189.93 103.18 C 191.25 102.32 191.34 101.59 190.19 100.99 M 149.71 108.67 C 153.11 113.21 158.56 115.57 161.72 120.29 C 164.51 123.99 167.86 127.57 169.04 132.16 C 169.55 135.72 166.82 138.45 164.92 141.10 C 166.68 143.46 167.54 146.27 168.30 149.08 C 172.28 144.14 175.54 137.88 174.71 131.40 C 171.95 124.55 169.10 116.21 161.66 113.24 C 158.88 109.95 154.81 107.91 153.14 103.74 C 151.93 105.33 150.75 106.95 149.71 108.67 M 231.21 105.05 C 230.52 107.22 230.13 109.45 229.70 111.67 C 228.46 116.22 224.56 119.20 221.28 122.28 C 217.42 125.32 211.53 124.61 208.57 120.66 C 207.18 122.73 204.63 125.71 206.80 128.08 C 208.21 130.36 210.99 130.46 213.29 131.20 C 211.05 134.91 209.21 138.89 207.97 143.04 C 208.42 145.65 209.99 147.95 211.87 149.76 C 213.58 145.74 214.32 141.33 216.48 137.50 C 220.20 131.99 225.28 127.58 229.42 122.42 C 232.74 118.30 233.65 113.01 234.90 108.02 C 233.90 106.77 232.59 105.84 231.21 105.05 M 90.93 114.20 C 90.90 118.13 93.93 121.02 95.68 124.27 C 98.55 129.50 102.69 134.28 103.72 140.32 C 104.53 144.12 103.94 148.04 102.92 151.74 C 109.78 148.13 108.29 139.48 106.82 133.26 C 110.34 132.47 114.87 134.49 117.56 131.39 C 118.56 129.37 117.84 126.95 117.40 124.85 C 112.48 128.61 106.33 125.75 101.35 123.67 C 97.50 121.10 96.08 116.48 93.92 112.63 C 92.89 113.09 91.90 113.62 90.93 114.20 M 157.25 121.71 C 153.00 126.78 147.85 132.04 146.89 138.82 C 149.68 142.45 153.47 145.30 157.24 147.87 C 159.80 153.13 161.11 159.36 158.73 164.99 C 159.92 166.52 161.10 168.06 162.28 169.60 C 165.81 163.72 166.14 156.28 164.29 149.79 C 162.18 145.41 159.57 140.72 154.89 138.70 C 154.24 133.37 158.31 129.41 161.05 125.32 C 159.74 124.16 158.48 122.94 157.25 121.71 M 160.35 134.41 C 159.54 135.84 161.47 138.25 163.01 137.82 C 163.76 136.42 161.86 134.02 160.35 134.41 M 149.99 167.99 C 151.63 171.74 153.06 176.08 157.10 177.90 C 165.24 183.99 176.07 183.13 185.56 181.61 C 188.20 179.90 190.98 178.37 193.42 176.37 C 195.58 173.57 196.71 169.95 195.72 166.46 C 194.35 164.62 192.53 163.19 190.81 161.70 C 188.85 162.77 187.62 164.62 186.54 166.51 C 187.85 166.54 189.14 166.35 190.39 165.95 C 191.07 167.35 192.76 168.92 191.78 170.57 C 190.03 172.87 188.69 175.64 186.27 177.34 C 181.51 178.68 176.45 178.32 171.64 177.41 C 168.33 177.15 165.04 176.47 162.05 175.00 C 159.27 172.67 156.96 169.77 155.28 166.56 C 153.52 161.84 158.12 156.63 154.28 152.41 C 150.33 156.27 147.42 162.63 149.99 167.99 M 123.27 161.96 C 122.14 165.22 120.46 168.72 121.80 172.19 C 122.15 175.01 124.93 176.41 126.67 178.34 C 129.32 181.26 133.58 180.74 137.00 182.03 C 141.94 183.88 147.60 182.74 151.53 179.24 C 150.37 178.19 149.48 176.74 148.04 176.05 C 145.15 177.10 142.50 179.64 139.22 178.92 C 135.05 177.86 130.48 176.78 127.48 173.47 C 125.14 170.64 127.01 166.48 130.10 165.14 C 129.59 163.93 129.13 162.71 128.70 161.47 C 126.87 161.42 125.02 161.34 123.27 161.96 M 166.22 166.22 C 166.83 166.84 166.83 166.84 166.22 166.22 M 151.44 184.59 C 150.80 187.36 149.80 190.05 149.40 192.86 C 150.95 198.42 152.46 204.65 157.02 208.57 C 161.92 201.56 164.23 192.19 160.11 184.26 C 159.82 187.09 160.22 189.95 159.94 192.79 C 159.26 195.07 158.00 197.64 155.20 197.36 C 153.16 192.80 154.22 187.74 153.91 182.93 C 153.06 183.45 152.24 184.00 151.44 184.59 Z" />
</g>
<g id="#ffffffff">
<path fill="#ffffff" opacity="1.00" d=" M 152.19 18.21 C 154.61 15.45 157.40 12.94 158.92 9.51 C 162.36 14.89 166.62 19.72 169.63 25.37 C 172.91 30.39 169.17 36.35 166.22 40.58 C 164.39 38.77 162.50 37.02 160.78 35.11 C 161.83 33.41 162.99 31.73 163.64 29.82 C 163.23 26.64 161.61 23.65 159.00 21.74 C 156.73 23.38 155.13 25.73 154.11 28.31 C 153.14 31.04 155.84 32.89 156.94 35.06 C 160.60 42.09 167.62 46.35 172.11 52.76 C 170.97 54.09 169.81 55.40 168.66 56.73 C 165.56 53.70 162.21 50.93 159.59 47.46 C 155.60 43.79 150.68 40.82 148.17 35.83 C 147.26 32.97 145.36 29.86 146.84 26.88 C 148.15 23.74 150.38 21.08 152.19 18.21 Z" />
<path fill="#ffffff" opacity="1.00" d=" M 53.75 39.99 C 63.50 38.19 73.86 41.23 81.30 47.72 C 84.05 50.98 87.95 53.09 90.30 56.71 C 93.65 60.85 95.57 65.85 98.44 70.29 C 96.63 71.61 94.68 72.71 92.80 73.92 C 90.05 67.02 85.02 61.31 79.53 56.46 C 74.86 49.56 66.96 45.73 58.93 44.39 C 56.52 43.83 54.85 45.87 53.03 47.05 C 49.89 48.96 48.78 53.68 51.50 56.45 C 54.02 61.38 59.94 62.79 65.02 63.15 C 68.32 63.54 71.58 62.22 74.85 62.95 C 75.93 61.97 76.99 60.98 78.05 59.98 C 79.84 62.11 81.72 64.16 83.51 66.30 C 80.66 68.47 76.92 67.61 73.65 68.51 C 68.56 68.71 63.30 69.15 58.34 67.73 C 53.26 65.80 47.45 63.24 45.60 57.64 C 42.54 58.68 38.65 57.76 36.35 60.45 C 33.56 63.32 32.06 67.06 30.07 70.45 C 28.33 68.70 26.09 66.75 26.05 64.11 C 26.72 61.65 27.96 59.39 28.53 56.90 C 24.84 55.81 21.01 55.55 17.19 55.50 C 13.58 55.49 11.69 51.86 9.64 49.43 C 14.03 51.60 18.97 51.63 23.75 51.46 C 26.87 51.20 29.82 49.86 32.99 49.94 C 36.15 49.80 39.25 50.93 42.40 50.58 C 45.24 49.63 44.94 45.84 47.03 44.05 C 49.11 42.47 51.32 40.99 53.75 39.99 Z" />
<path fill="#ffffff" opacity="1.00" d=" M 99.34 47.35 C 104.92 44.06 111.62 43.25 117.99 43.48 C 122.65 43.19 127.40 44.26 131.51 46.46 C 134.17 48.70 136.82 50.93 139.72 52.86 C 138.51 54.59 137.28 56.29 136.03 57.98 C 130.92 52.98 124.41 48.90 117.04 48.86 C 108.94 47.91 100.97 51.83 95.66 57.77 C 94.53 55.85 93.27 54.01 92.06 52.14 C 94.52 50.58 96.98 49.04 99.34 47.35 Z" />
<path fill="#ffffff" opacity="1.00" d=" M 180.99 48.01 C 184.94 45.06 190.03 44.30 194.84 44.15 C 202.28 44.09 208.59 48.67 215.53 50.58 C 214.05 52.64 212.56 54.70 211.26 56.88 C 204.21 51.60 193.81 49.87 186.43 55.40 C 179.35 61.65 173.78 69.42 168.80 77.39 C 166.65 75.22 162.90 72.96 164.13 69.36 C 169.48 62.08 173.36 53.33 180.99 48.01 Z" />
<path fill="#ffffff" opacity="1.00" d=" M 228.81 46.00 C 233.87 44.06 239.58 42.22 244.90 44.23 C 249.25 45.68 251.45 50.36 255.89 51.64 C 259.06 50.83 261.51 47.84 264.95 48.18 C 272.90 48.20 279.96 54.08 288.01 52.38 C 288.50 52.42 289.48 52.49 289.97 52.53 C 285.23 55.62 279.27 57.66 273.65 55.92 C 271.78 54.97 270.31 56.53 268.97 57.62 C 269.97 59.50 271.20 61.26 272.03 63.22 C 272.41 65.59 270.66 67.48 269.64 69.42 C 268.98 64.19 265.72 59.63 261.10 57.15 C 259.40 57.72 257.68 58.25 256.06 59.02 C 253.25 61.19 251.41 64.56 248.06 66.06 C 245.18 67.34 242.06 67.99 238.99 68.66 C 234.15 68.11 229.82 65.63 226.06 62.67 C 225.33 60.92 226.85 59.48 227.65 58.09 C 232.43 61.71 238.85 63.53 244.73 61.95 C 247.64 60.27 250.55 56.14 248.07 52.97 C 246.36 49.56 242.24 49.76 239.01 49.17 C 233.65 50.68 227.42 52.22 224.31 57.30 C 221.65 60.62 220.79 64.81 219.50 68.75 C 218.07 68.73 216.64 68.70 215.21 68.70 C 213.30 62.88 216.69 57.42 219.81 52.78 C 222.44 50.11 225.12 47.15 228.81 46.00 Z" />
<path fill="#ffffff" opacity="1.00" d=" M 141.05 57.02 C 143.85 52.66 146.96 48.38 151.01 45.09 C 153.20 46.82 155.20 48.77 157.21 50.70 C 154.27 53.30 151.80 56.34 149.55 59.53 C 143.77 65.58 138.91 72.39 133.84 79.02 C 131.86 77.61 129.72 76.46 127.61 75.26 C 129.11 72.27 130.88 69.45 132.63 66.61 C 134.81 62.89 138.69 60.61 141.05 57.02 Z" />
<path fill="#ffffff" opacity="1.00" d=" M 189.19 58.19 C 189.86 58.87 189.86 58.87 189.19 58.19 Z" />
<path fill="#ffffff" opacity="1.00" d=" M 145.60 67.98 C 147.03 66.45 148.46 64.93 149.91 63.42 C 150.98 65.18 152.19 66.87 153.80 68.17 C 161.58 74.93 168.39 82.65 175.39 90.18 C 174.48 91.76 173.39 93.24 172.23 94.65 C 164.70 88.97 158.09 82.21 151.10 75.90 C 148.63 73.76 146.91 70.94 145.60 67.98 Z" />
<path fill="#ffffff" opacity="1.00" d=" M 181.29 65.12 C 184.02 69.50 187.82 72.99 191.65 76.39 C 197.87 83.08 203.21 90.55 207.81 98.44 C 208.62 101.26 207.63 104.55 204.89 105.90 C 201.67 107.80 201.23 112.16 198.00 114.05 C 196.15 115.12 194.13 115.90 192.05 116.39 C 187.33 113.99 183.87 109.65 181.62 104.95 C 181.96 104.36 182.62 103.17 182.95 102.58 C 186.03 104.98 187.96 110.58 192.74 108.98 C 195.54 107.31 198.05 105.16 200.94 103.62 C 201.21 101.82 201.66 100.04 201.72 98.22 C 199.76 94.42 196.36 91.60 193.78 88.22 C 190.33 84.60 187.77 80.28 184.33 76.66 C 182.36 74.21 179.99 71.99 178.72 69.06 C 179.49 67.69 180.43 66.43 181.29 65.12 Z" />
<path fill="#ffffff" opacity="1.00" d=" M 94.46 77.52 C 99.01 73.67 105.45 72.47 111.20 74.05 C 117.84 74.14 123.55 77.70 129.15 80.82 C 132.85 83.80 137.78 85.46 140.33 89.69 C 141.38 91.36 142.80 92.92 143.20 94.91 C 142.30 96.09 141.17 97.06 140.12 98.10 C 136.72 95.44 134.15 91.91 130.67 89.35 C 124.22 84.55 117.41 79.09 108.94 79.05 C 103.95 78.30 98.54 80.53 96.01 84.99 C 93.39 88.01 93.89 92.18 93.77 95.87 C 92.46 97.23 90.76 98.14 89.30 99.32 C 90.91 95.08 88.10 90.85 89.62 86.64 C 90.23 83.16 92.50 80.34 94.46 77.52 Z" />
<path fill="#ffffff" opacity="1.00" d=" M 197.54 77.95 C 200.81 73.57 207.11 71.76 212.29 73.17 C 215.01 73.62 218.06 72.81 220.42 74.62 C 225.07 77.77 230.99 80.47 232.75 86.27 C 233.17 88.45 234.46 90.27 235.29 92.29 C 229.08 92.24 226.56 86.01 222.40 82.58 C 216.31 78.56 207.29 76.53 201.25 81.70 C 200.02 80.43 198.77 79.20 197.54 77.95 Z" />
<path fill="#ffffff" opacity="1.00" d=" M 178.20 78.20 C 178.86 78.86 178.86 78.86 178.20 78.20 Z" />
<path fill="#ffffff" opacity="1.00" d=" M 171.21 79.20 C 171.85 79.85 171.85 79.85 171.21 79.20 Z" />
<path fill="#ffffff" opacity="1.00" d=" M 62.78 85.81 C 64.29 84.17 66.36 81.76 68.83 82.92 C 70.85 83.56 72.64 85.42 72.00 87.68 C 70.58 89.20 68.56 89.97 67.07 91.42 C 66.18 95.11 69.43 97.95 72.04 99.96 C 76.59 102.88 82.16 102.30 87.30 102.74 C 92.08 103.19 97.24 100.25 98.96 95.70 C 99.54 93.13 98.03 90.76 97.98 88.23 C 99.35 85.29 102.45 83.83 105.18 82.42 C 107.01 87.58 105.67 93.12 104.17 98.18 C 102.26 104.46 96.26 108.75 89.97 109.86 C 87.23 109.56 84.71 108.19 81.94 107.99 C 77.85 107.99 74.18 105.97 70.45 104.57 C 67.25 102.48 64.51 99.75 61.62 97.26 C 59.90 93.58 59.81 88.87 62.78 85.81 Z" />
<path fill="#ffffff" opacity="1.00" d=" M 175.21 83.21 C 175.85 83.85 175.85 83.85 175.21 83.21 Z" />
<path fill="#ffffff" opacity="1.00" d=" M 226.56 100.48 C 221.47 96.35 215.83 90.47 216.59 83.43 C 220.80 86.12 224.11 89.92 227.29 93.71 C 230.46 95.06 233.52 96.86 236.99 97.32 C 240.05 96.96 243.22 96.50 245.93 94.96 C 248.16 93.47 250.05 91.54 252.08 89.81 C 252.11 87.98 252.10 86.14 252.23 84.32 C 254.62 84.25 256.48 85.83 257.02 88.13 C 255.89 93.28 253.21 99.19 247.39 100.14 C 240.86 103.30 233.23 102.86 226.56 100.48 Z" />
<path fill="#ffffff" opacity="1.00" d=" M 147.58 95.57 C 150.60 92.44 152.02 88.19 154.86 84.91 C 156.76 86.70 159.59 88.30 160.21 90.91 C 153.26 98.74 146.94 107.13 139.61 114.63 C 136.61 116.65 133.17 119.69 129.35 117.86 C 124.06 114.12 117.91 111.07 114.03 105.75 C 114.06 99.11 117.15 92.87 121.32 87.85 C 123.02 89.00 124.63 90.27 126.17 91.63 C 123.82 94.96 120.45 99.14 122.48 103.38 C 125.87 105.91 129.23 109.78 133.89 109.06 C 135.76 109.03 137.25 107.71 138.55 106.52 C 141.55 102.86 144.31 99.01 147.58 95.57 Z" />
<path fill="#ffffff" opacity="1.00" d=" M 175.96 95.95 C 179.03 91.98 181.48 87.30 185.85 84.57 C 186.89 86.03 188.82 87.14 189.05 89.02 C 188.15 91.27 186.78 93.33 185.17 95.13 C 179.50 100.99 174.93 107.81 170.64 114.70 C 169.02 113.20 167.46 111.62 165.95 110.00 C 169.25 105.29 172.37 100.45 175.96 95.95 Z" />
<path fill="#ffffff" opacity="1.00" d=" M 191.21 93.20 C 191.84 93.84 191.84 93.84 191.21 93.20 Z" />
<path fill="#ffffff" opacity="1.00" d=" M 149.71 108.67 C 150.75 106.95 151.93 105.33 153.14 103.74 C 154.81 107.91 158.88 109.95 161.66 113.24 C 169.10 116.21 171.95 124.55 174.71 131.40 C 175.54 137.88 172.28 144.14 168.30 149.08 C 167.54 146.27 166.68 143.46 164.92 141.10 C 166.82 138.45 169.55 135.72 169.04 132.16 C 167.86 127.57 164.51 123.99 161.72 120.29 C 158.56 115.57 153.11 113.21 149.71 108.67 Z" />
<path fill="#ffffff" opacity="1.00" d=" M 231.21 105.05 C 232.59 105.84 233.90 106.77 234.90 108.02 C 233.65 113.01 232.74 118.30 229.42 122.42 C 225.28 127.58 220.20 131.99 216.48 137.50 C 214.32 141.33 213.58 145.74 211.87 149.76 C 209.99 147.95 208.42 145.65 207.97 143.04 C 209.21 138.89 211.05 134.91 213.29 131.20 C 210.99 130.46 208.21 130.36 206.80 128.08 C 204.63 125.71 207.18 122.73 208.57 120.66 C 211.53 124.61 217.42 125.32 221.28 122.28 C 224.56 119.20 228.46 116.22 229.70 111.67 C 230.13 109.45 230.52 107.22 231.21 105.05 Z" />
<path fill="#ffffff" opacity="1.00" d=" M 90.93 114.20 C 91.90 113.62 92.89 113.09 93.92 112.63 C 96.08 116.48 97.50 121.10 101.35 123.67 C 106.33 125.75 112.48 128.61 117.40 124.85 C 117.84 126.95 118.56 129.37 117.56 131.39 C 114.87 134.49 110.34 132.47 106.82 133.26 C 108.29 139.48 109.78 148.13 102.92 151.74 C 103.94 148.04 104.53 144.12 103.72 140.32 C 102.69 134.28 98.55 129.50 95.68 124.27 C 93.93 121.02 90.90 118.13 90.93 114.20 Z" />
<path fill="#ffffff" opacity="1.00" d=" M 157.25 121.71 C 158.48 122.94 159.74 124.16 161.05 125.32 C 158.31 129.41 154.24 133.37 154.89 138.70 C 159.57 140.72 162.18 145.41 164.29 149.79 C 166.14 156.28 165.81 163.72 162.28 169.60 C 161.10 168.06 159.92 166.52 158.73 164.99 C 161.11 159.36 159.80 153.13 157.24 147.87 C 153.47 145.30 149.68 142.45 146.89 138.82 C 147.85 132.04 153.00 126.78 157.25 121.71 Z" />
<path fill="#ffffff" opacity="1.00" d=" M 149.99 167.99 C 147.42 162.63 150.33 156.27 154.28 152.41 C 158.12 156.63 153.52 161.84 155.28 166.56 C 156.96 169.77 159.27 172.67 162.05 175.00 C 165.04 176.47 168.33 177.15 171.64 177.41 C 176.45 178.32 181.51 178.68 186.27 177.34 C 188.69 175.64 190.03 172.87 191.78 170.57 C 192.76 168.92 191.07 167.35 190.39 165.95 C 189.14 166.35 187.85 166.54 186.54 166.51 C 187.62 164.62 188.85 162.77 190.81 161.70 C 192.53 163.19 194.35 164.62 195.72 166.46 C 196.71 169.95 195.58 173.57 193.42 176.37 C 190.98 178.37 188.20 179.90 185.56 181.61 C 176.07 183.13 165.24 183.99 157.10 177.90 C 153.06 176.08 151.63 171.74 149.99 167.99 Z" />
<path fill="#ffffff" opacity="1.00" d=" M 123.27 161.96 C 125.02 161.34 126.87 161.42 128.70 161.47 C 129.13 162.71 129.59 163.93 130.10 165.14 C 127.01 166.48 125.14 170.64 127.48 173.47 C 130.48 176.78 135.05 177.86 139.22 178.92 C 142.50 179.64 145.15 177.10 148.04 176.05 C 149.48 176.74 150.37 178.19 151.53 179.24 C 147.60 182.74 141.94 183.88 137.00 182.03 C 133.58 180.74 129.32 181.26 126.67 178.34 C 124.93 176.41 122.15 175.01 121.80 172.19 C 120.46 168.72 122.14 165.22 123.27 161.96 Z" />
<path fill="#ffffff" opacity="1.00" d=" M 166.22 166.22 C 166.83 166.84 166.83 166.84 166.22 166.22 Z" />
<path fill="#ffffff" opacity="1.00" d=" M 151.44 184.59 C 152.24 184.00 153.06 183.45 153.91 182.93 C 154.22 187.74 153.16 192.80 155.20 197.36 C 158.00 197.64 159.26 195.07 159.94 192.79 C 160.22 189.95 159.82 187.09 160.11 184.26 C 164.23 192.19 161.92 201.56 157.02 208.57 C 152.46 204.65 150.95 198.42 149.40 192.86 C 149.80 190.05 150.80 187.36 151.44 184.59 Z" />
</g>
</svg>
